<svg xmlns="http://www.w3.org/2000/svg" xmlns:xlink="http://www.w3.org/1999/xlink" viewBox="0 0 443.23 149.11"><defs><style>.cls-1{fill:#1b1b3f;opacity:0.45;}.cls-2{fill:url(#Degradado_sin_nombre_66);}.cls-3{fill:url(#Degradado_sin_nombre_66-2);}.cls-4{fill:url(#Degradado_sin_nombre_76);}.cls-5{fill:url(#Degradado_sin_nombre_84);}.cls-6{fill:url(#Degradado_sin_nombre_86);}.cls-7{fill:url(#Degradado_sin_nombre_90);}.cls-8{opacity:0.85;}.cls-9{fill:#fff;}</style><linearGradient id="Degradado_sin_nombre_66" x1="77.91" y1="55.52" x2="77.88" y2="55.52" gradientTransform="translate(-3.83 5.67) rotate(-5.23)" gradientUnits="userSpaceOnUse"><stop offset="0" stop-color="#fd9a83"/><stop offset="0.17" stop-color="#fe867f"/><stop offset="0.39" stop-color="#ff6679"/><stop offset="0.4" stop-color="#ff6f7f"/><stop offset="0.52" stop-color="#feaba6"/><stop offset="0.61" stop-color="#fed1bf"/><stop offset="0.66" stop-color="#fedfc8"/><stop offset="0.67" stop-color="#eed1c0"/><stop offset="0.74" stop-color="#b39da1"/><stop offset="0.8" stop-color="#817287"/><stop offset="0.86" stop-color="#5a5173"/><stop offset="0.92" stop-color="#3f3965"/><stop offset="0.96" stop-color="#2e2a5c"/><stop offset="1" stop-color="#282559"/></linearGradient><linearGradient id="Degradado_sin_nombre_66-2" x1="94" y1="50.79" x2="25.34" y2="50.79" xlink:href="#Degradado_sin_nombre_66"/><linearGradient id="Degradado_sin_nombre_76" x1="67.6" y1="88.1" x2="52.96" y2="88.1" gradientUnits="userSpaceOnUse"><stop offset="0.07" stop-color="#fd9a83"/><stop offset="0.11" stop-color="#fe857f"/><stop offset="0.16" stop-color="#fe737c"/><stop offset="0.21" stop-color="#ff697a"/><stop offset="0.27" stop-color="#ff6679"/><stop offset="0.42" stop-color="#ff9f9e"/><stop offset="0.55" stop-color="#fecdbc"/><stop offset="0.61" stop-color="#fedfc8"/><stop offset="0.7" stop-color="#c6aeab"/><stop offset="0.8" stop-color="#837488"/><stop offset="0.89" stop-color="#52496f"/><stop offset="0.96" stop-color="#332f5f"/><stop offset="1" stop-color="#282559"/></linearGradient><linearGradient id="Degradado_sin_nombre_84" x1="75.68" y1="80.61" x2="75.68" y2="140.19" gradientUnits="userSpaceOnUse"><stop offset="0.15" stop-color="#fd9a83"/><stop offset="0.2" stop-color="#fe857f"/><stop offset="0.26" stop-color="#fe737c"/><stop offset="0.33" stop-color="#ff697a"/><stop offset="0.4" stop-color="#ff6679"/><stop offset="0.63" stop-color="#fedfc8"/><stop offset="0.67" stop-color="#f3d5c2"/><stop offset="0.73" stop-color="#d5bbb3"/><stop offset="0.82" stop-color="#a49199"/><stop offset="0.92" stop-color="#625777"/><stop offset="1" stop-color="#282559"/></linearGradient><linearGradient id="Degradado_sin_nombre_86" x1="100.55" y1="66.35" x2="95.17" y2="66.35" gradientTransform="translate(-2.66 6.73) rotate(-3.18)" gradientUnits="userSpaceOnUse"><stop offset="0" stop-color="#fd9a83"/><stop offset="0.03" stop-color="#fe8c80"/><stop offset="0.1" stop-color="#ff697a"/><stop offset="0.1" stop-color="#ff6679"/><stop offset="0.13" stop-color="#ff7a86"/><stop offset="0.17" stop-color="#ff999a"/><stop offset="0.21" stop-color="#feb3ab"/><stop offset="0.26" stop-color="#fec7b8"/><stop offset="0.31" stop-color="#fed4c1"/><stop offset="0.38" stop-color="#feddc6"/><stop offset="0.5" stop-color="#fedfc8"/><stop offset="0.54" stop-color="#eacebe"/><stop offset="0.71" stop-color="#988693"/><stop offset="0.85" stop-color="#5b5274"/><stop offset="0.95" stop-color="#363160"/><stop offset="1" stop-color="#282559"/></linearGradient><linearGradient id="Degradado_sin_nombre_90" x1="160.89" y1="53.32" x2="83.49" y2="53.32" gradientTransform="translate(-2.66 6.73) rotate(-3.18)" gradientUnits="userSpaceOnUse"><stop offset="0" stop-color="#fd9a83"/><stop offset="0.1" stop-color="#fd9081"/><stop offset="0.27" stop-color="#fe757c"/><stop offset="0.36" stop-color="#ff6679"/><stop offset="0.48" stop-color="#ff9598"/><stop offset="0.66" stop-color="#fedfc8"/><stop offset="0.74" stop-color="#c6afab"/><stop offset="0.87" stop-color="#72657f"/><stop offset="0.96" stop-color="#3d3764"/><stop offset="1" stop-color="#282559"/></linearGradient></defs><g id="Capa_2" data-name="Capa 2"><g id="Ilustraciones"><rect class="cls-1" width="443.23" height="149.11" rx="28.09"/><path class="cls-2" d="M78.81,53.84h0l0,.08Z"/><path class="cls-3" d="M92.89,32.57c-.15-.34-.28-.68-.45-1a10.39,10.39,0,0,0-.65-1,6.16,6.16,0,0,0-4.1-2.21l-.36,0a7.66,7.66,0,0,0,1.17-2.74A6.45,6.45,0,0,0,88,21.87a8.15,8.15,0,0,0-.92-1.54c-.17-.24-.36-.47-.55-.69a6.35,6.35,0,0,0-.69-.66l-.08-.07-.09-.05A6.78,6.78,0,0,0,82.45,18a7.45,7.45,0,0,0-3.15.85,10,10,0,0,0-1.9,1.31,8.48,8.48,0,0,0-.22-.83,6.23,6.23,0,0,0-3-3.71,5.86,5.86,0,0,0-4.74-.18,5.71,5.71,0,0,0-3.27,3.23,11.81,11.81,0,0,0-.82,4.13,37.87,37.87,0,0,0,.08,4,27.74,27.74,0,0,0,1.4,7.58c-.6-.47-1.21-.94-1.84-1.38a12.09,12.09,0,0,0-2.57-1.41A9.24,9.24,0,0,0,59.55,31a9.61,9.61,0,0,0-2.92.34A8.28,8.28,0,0,0,54,32.7a13.38,13.38,0,0,0-3.61,4.52c-3.72,6.69-7.19,13.49-10.68,20.29S32.8,71.14,29.4,78v0h0a16.5,16.5,0,0,0-.57,2.67,11.94,11.94,0,0,0-.09,2.74,6.7,6.7,0,0,0,.7,2.66,4.72,4.72,0,0,0,2,2h.06a19.69,19.69,0,0,0,5.14-.39,15.63,15.63,0,0,0,2.47-.76,10.84,10.84,0,0,0,2.26-1.25c7-4.64,14-9.37,20.9-14.27,3.43-2.46,6.84-5,10.16-7.56,1.65-1.31,3.3-2.64,4.85-4.09a12.56,12.56,0,0,0,2.11-2.42,12.79,12.79,0,0,0,.78-1.4c.12-.24.23-.48.34-.73l.15-.37.07-.19,0-.09,0-.05v0s0,0,0,0h0a13.22,13.22,0,0,0,.46-5.76,9.2,9.2,0,0,0-.79-2.83,9.43,9.43,0,0,0-1.77-2.34,26.26,26.26,0,0,0-3-2.46c1,0,2,.08,3,.07a36.37,36.37,0,0,0,3.89-.22,18.07,18.07,0,0,0,7.68-2.23l.45-.29a4.7,4.7,0,0,0,.43-.35,4.27,4.27,0,0,0,.8-.79,4.15,4.15,0,0,0,.66-1A4.28,4.28,0,0,0,93,35.11,4.43,4.43,0,0,0,92.89,32.57ZM78.26,46.91a4.86,4.86,0,0,1,.38.89A9.36,9.36,0,0,1,78.93,49c.08.4.14.84.18,1.23a11.67,11.67,0,0,1,0,1.19,11.2,11.2,0,0,1-.33,2.44h0s0-.06,0,0v0l-.07.68a1.4,1.4,0,0,1,0-.41,1.81,1.81,0,0,1,0-.19h0l0,.16-.11.32c-.08.22-.16.44-.26.65a11.9,11.9,0,0,1-.61,1.24c-.12.2-.24.4-.36.58l-.39.52c-.29.35-.63.72-1,1.08-1.4,1.45-3,2.84-4.55,4.21-3.17,2.74-6.45,5.39-9.77,8S55,75.74,51.58,78.23,44.65,83,41.16,85.41a12.17,12.17,0,0,1-4.65,1.9,19.84,19.84,0,0,1-5,.34,4,4,0,0,1-1.7-1.78,6.22,6.22,0,0,1-.58-2.49,12.15,12.15,0,0,1,.16-2.62,15.75,15.75,0,0,1,.62-2.5c3.62-6.6,7.33-13.16,11-19.7.53.21,1.05.41,1.55.64a21.89,21.89,0,0,1,2.5,1.3,23.78,23.78,0,0,1,2.3,1.61c.75.59,1.47,1.24,2.24,1.92a7.27,7.27,0,0,0-1.45-2.71A9.19,9.19,0,0,0,43,58.14,8.1,8.1,0,0,0,41.42,58c2.23-3.91,4.5-7.82,6.76-11.71.64.39,1.27.78,1.88,1.18,1.13.73,2.22,1.52,3.27,2.35s2.06,1.71,3,2.65,1.91,1.92,2.9,2.93a13.77,13.77,0,0,0-2.07-3.68,17.36,17.36,0,0,0-6.61-5.23,13.91,13.91,0,0,0-2.07-.77q2.08-3.6,4.16-7.15a17.36,17.36,0,0,1,1.42-2.1,8.58,8.58,0,0,1,1.56-1.52,5.38,5.38,0,0,1,1.75-.86,6.73,6.73,0,0,1,2.05-.21,7,7,0,0,1,3.93,1.47c1.4.95,2.92,2.2,4.45,3.36S71,41,72.56,42.1a38.32,38.32,0,0,1,4.33,3.17A7.94,7.94,0,0,1,78.26,46.91ZM90.93,34.66a4.29,4.29,0,0,1-1.77,2.47,18.22,18.22,0,0,1-6.81,2.67c-1.23.31-2.5.46-3.76.7l-3.12.39-1.35-1c-1.54-1.12-3.07-2.26-4.57-3.44-.89-.69-1.77-1.4-2.66-2.1a35.34,35.34,0,0,1-.35-7.61c.07-1.31.17-2.6.33-3.86a10.59,10.59,0,0,1,1-3.48,3.89,3.89,0,0,1,2.31-2,3.63,3.63,0,0,1,2.89.26,3.94,3.94,0,0,1,1.69,2.37,6.54,6.54,0,0,1,0,3.23l-1.45,6.2,3.88-5.16a14.54,14.54,0,0,1,1.56-1.71,8,8,0,0,1,1.83-1.31,4.48,4.48,0,0,1,1.88-.5,3.68,3.68,0,0,1,1.67.48,5.14,5.14,0,0,1,.68.76,5.39,5.39,0,0,1,.61,1,3.54,3.54,0,0,1,.31,2.08,5,5,0,0,1-1,2.05c-.26.33-.56.63-.85.95l-1,.89-5.4,4.77,6.68-2.45a8.58,8.58,0,0,1,1.57-.39,6.81,6.81,0,0,1,1.62-.05A3.84,3.84,0,0,1,90,32.09c.17.17.29.4.45.59l.37.73A2.29,2.29,0,0,1,90.93,34.66Z"/><path class="cls-4" d="M54,88.08l.33.54.34.55.41.49.42.48c.15.15.32.28.48.43a7,7,0,0,0,1,.78c.36.23.72.46,1.09.68l1.17.49a6.5,6.5,0,0,0,1.2.4l1.22.33c.82.12,1.65.24,2.47.32l2.47.06,1,0-.12-1a11.33,11.33,0,0,0-5.19-8.18,13.15,13.15,0,0,0-4.52-1.66,6.76,6.76,0,0,0-1.18-.13l-1.17-.09c-.84,0-1.64.11-2.34.14.85.11,1.59.27,2.28.38s1.48.33,2.19.59a13.2,13.2,0,0,1,2.05.85,13,13,0,0,1,1.86,1.13,10.91,10.91,0,0,1,2.79,3.19,11.92,11.92,0,0,1,.88,1.92c.11.31.2.65.28,1h-1.2c-.76-.06-1.51-.16-2.27-.24a13.68,13.68,0,0,1-4.22-1.38,8.79,8.79,0,0,1-3.2-3,10,10,0,0,1-1.44-4.39,8.57,8.57,0,0,0,.61,4.82Z"/><path class="cls-5" d="M102.27,107.5a26.8,26.8,0,0,0-1.37-4.67,20.39,20.39,0,0,0-2.4-4.33A16.34,16.34,0,0,0,94.87,95a17.16,17.16,0,0,0-4.46-2.11,19.12,19.12,0,0,0-4.81-.85,15.41,15.41,0,0,0-2.45.11,11.65,11.65,0,0,0-2.41.51,8.94,8.94,0,0,0-2.24,1.09c-.69.48-1.24,1-1.87,1.39s-1.28.79-1.94,1.16a10.65,10.65,0,0,1-2.07.86h0c-.17,0-.33.07-.5.11,0-1.39.1-2.73.22-4A38,38,0,0,1,73,89c.06-.35.13-.7.22-1l.24-1c.21-.69.37-1.39.61-2.07.41-1.41,1-2.73,1.52-4.2a12.38,12.38,0,0,0-2.89,3.61,14.59,14.59,0,0,0-1,2.13,16,16,0,0,0-.6,2.26,15.81,15.81,0,0,0-.22,4.65A12.45,12.45,0,0,0,72,97.34c-.37.07-.73.13-1.11.17a12.17,12.17,0,0,1-1.81.06,8.93,8.93,0,0,1-1.78-.29c-.29-.08-.55-.21-.86-.32a6.22,6.22,0,0,0-.91-.26h0c-.28-.06-.64-.11-1-.15s-.65-.07-1-.08a11.91,11.91,0,0,0-2,.05,13.38,13.38,0,0,0-4.36,1.65A18.16,18.16,0,0,0,53.45,101a15.25,15.25,0,0,0-2.81,3.72,16.46,16.46,0,0,0-1,2.12l-.35,1.12c-.06.19-.13.37-.18.56l-.12.58a19.79,19.79,0,0,0-.46,4.67A24.57,24.57,0,0,0,49,118.4a30.72,30.72,0,0,0,1.3,4.52,29.1,29.1,0,0,0,1.95,4.3,24.65,24.65,0,0,0,6.1,7.23A26.82,26.82,0,0,0,66.7,139a21.74,21.74,0,0,0,4.69,1.07c.4,0,.81.08,1.22.07h.62l.63-.05a7.12,7.12,0,0,0,1.28-.21,11.49,11.49,0,0,0,1.21-.44,11.57,11.57,0,0,1,4.19-.9c.36,0,.71,0,1.08,0l.55,0c.19,0,.42,0,.64,0a10.61,10.61,0,0,0,2.53-.27,20.44,20.44,0,0,0,4.53-1.78l1-.54.51-.28.54-.32a16.78,16.78,0,0,0,2-1.42,23.51,23.51,0,0,0,5.86-7.7,30,30,0,0,0,2.77-9.23A31.17,31.17,0,0,0,102.27,107.5Zm-2,4.91a29.7,29.7,0,0,1-.11,4.43,28.36,28.36,0,0,1-2.36,8.52,21.26,21.26,0,0,1-5.11,7.1,14.33,14.33,0,0,1-1.74,1.27l-.45.29-.51.29-1,.55a18.36,18.36,0,0,1-4.06,1.68,8.63,8.63,0,0,1-2.06.27h-.52l-.6,0c-.41,0-.83,0-1.24,0a13.48,13.48,0,0,0-4.81,1.13,9.27,9.27,0,0,1-1,.39,6.45,6.45,0,0,1-1,.17l-.52.05h-.54c-.36,0-.73,0-1.09,0a20.13,20.13,0,0,1-4.36-.9,25,25,0,0,1-13.87-10.93,31.4,31.4,0,0,1-3.43-8.42,23.76,23.76,0,0,1-.69-4.51,17.34,17.34,0,0,1,.27-4.55l.1-.57c0-.18.1-.36.15-.55l.32-1.1a16.92,16.92,0,0,1,.91-2.09,14,14,0,0,1,2.68-3.72,17,17,0,0,1,3.66-2.77,13.53,13.53,0,0,1,4.28-1.59,12.56,12.56,0,0,1,1.94,0c.32,0,.64.06,1,.11s.61.1,1,.18h0a5.75,5.75,0,0,1,.86.27c.28.11.57.25.87.36a8.64,8.64,0,0,0,1.87.39,11,11,0,0,0,1.9,0,14.26,14.26,0,0,0,1.87-.22h0a11.22,11.22,0,0,0,2.27-.76,22.2,22.2,0,0,0,2.13-1.06c.69-.39,1.34-.88,2-1.24a8,8,0,0,1,2-.79,10.63,10.63,0,0,1,2.15-.27,12.17,12.17,0,0,1,2.18.07,17.46,17.46,0,0,1,4.25,1.08A14.43,14.43,0,0,1,96.48,100a19.5,19.5,0,0,1,2,3.8A24.23,24.23,0,0,1,99.7,108,34.23,34.23,0,0,1,100.22,112.41Z"/><path class="cls-6" d="M97.21,65.32A2.69,2.69,0,1,0,101,66,2.69,2.69,0,0,0,97.21,65.32Z"/><path class="cls-7" d="M146.23,26.84a8.56,8.56,0,0,0-.57-2.52,4,4,0,0,0-1.5-2.13,2.25,2.25,0,0,0-1.31-.33,3.71,3.71,0,0,0-1.28.32,6.66,6.66,0,0,0-2.17,1.41,10.77,10.77,0,0,0-2.52,4.46,13.27,13.27,0,0,0-.59,2.49c-.12.84-.28,1.67-.45,2.5s-.33,1.66-.54,2.48a6,6,0,0,1-1,2.27,4.57,4.57,0,0,1-2,1.41,12.33,12.33,0,0,1-2.41.72,13.11,13.11,0,0,1-5-.11,46.34,46.34,0,0,0-16.68,4,41.92,41.92,0,0,0-3.82,2c-.63.35-1.23.75-1.83,1.15s-1.21.77-1.78,1.21A42.72,42.72,0,0,0,94.41,54a41.65,41.65,0,0,0-8.56,14.86,27.15,27.15,0,0,0-1,4.21,8.75,8.75,0,0,0,.37,4.33,8.17,8.17,0,0,0,2.58,3.5A14.56,14.56,0,0,0,91.59,83a19.1,19.1,0,0,0,4.19,1.13,28.19,28.19,0,0,0,4.31.39,36.9,36.9,0,0,0,8.58-.84,39.43,39.43,0,0,0,15.58-7.19,44.64,44.64,0,0,0,11.26-13c.71-1.25,1.4-2.51,2-3.82.31-.65.6-1.31.88-2a17.94,17.94,0,0,1,.85-2,10.9,10.9,0,0,1,2.49-3.35,4.38,4.38,0,0,1,3.78-1.12h0a44.14,44.14,0,0,0,10.21.17,11.85,11.85,0,0,0,2.53-.57,4,4,0,0,0,1.17-.63,3.36,3.36,0,0,0,.83-1.06,3.56,3.56,0,0,0,.34-2.62,4.09,4.09,0,0,0-1.69-2,5.85,5.85,0,0,0-2.4-1,24.87,24.87,0,0,1-2.49-.44,13.06,13.06,0,0,1-4.44-2.26A9.54,9.54,0,0,1,146,31.94,28.94,28.94,0,0,0,146.23,26.84ZM104.17,82a34.16,34.16,0,0,1-4,.2,26.37,26.37,0,0,1-4-.3,17.47,17.47,0,0,1-3.72-.94,12.16,12.16,0,0,1-3.26-1.75,6.24,6.24,0,0,1-2-2.53,6.65,6.65,0,0,1-.33-3.34,24.91,24.91,0,0,1,.84-3.89,38.59,38.59,0,0,1,3.19-7.57A39.13,39.13,0,0,1,95.55,55c.44-.52.9-1,1.37-1.51a53.41,53.41,0,0,1,6.59,4.65c1.14,1,2.26,2,3.29,3a29.75,29.75,0,0,1,2.87,3.39A25.63,25.63,0,0,1,112,68.31a26.73,26.73,0,0,1,1.76,4.07,30.45,30.45,0,0,1,1.42,6.55,37.27,37.27,0,0,1-7.06,2.35C106.84,81.57,105.51,81.78,104.17,82Zm7-18.51a28.4,28.4,0,0,0-6.33-6.15,9.19,9.19,0,0,1,2.43-1.87,10.25,10.25,0,0,1,3.51-1,7.75,7.75,0,0,1,1.74.05,5.84,5.84,0,0,1,1.59.53,5.45,5.45,0,0,1,2.26,2.37,11.25,11.25,0,0,1,1,3.42,12.41,12.41,0,0,1,0,3.65,13.59,13.59,0,0,1-2.65,6l-.25-.73c-.12-.38-.28-.74-.43-1.11a10.59,10.59,0,0,0-.48-1.09A25.32,25.32,0,0,0,111.2,63.44Zm33.06-28.79a11.72,11.72,0,0,0,.67,2.88c.18.46.38.91.61,1.36a12,12,0,0,0,.81,1.28,12.24,12.24,0,0,0,2.05,2.14,14,14,0,0,0,2.41,1.6,14.42,14.42,0,0,0,2.7,1.11,26.67,26.67,0,0,0,2.64.53,3.52,3.52,0,0,1,1.57.74,1.9,1.9,0,0,1,.82.91,1.46,1.46,0,0,1-.22.95,1,1,0,0,1-.26.36,2.51,2.51,0,0,1-.56.26,9.25,9.25,0,0,1-2.05.42,34.08,34.08,0,0,1-4.77.13c-1.62-.06-3.24-.2-4.85-.42l.18,0-.8-.1a3.11,3.11,0,0,0-.81,0l-.82.07a7.62,7.62,0,0,0-.79.2,6.85,6.85,0,0,0-1.44.61c-.22.13-.41.27-.62.41a5.06,5.06,0,0,0-.57.44,13.39,13.39,0,0,0-3.1,4.09c-.18.36-.36.73-.52,1.1l-.24.58-.1.26-.1.22c-.24.57-.53,1.22-.82,1.83-.58,1.24-1.24,2.44-1.92,3.62a43.59,43.59,0,0,1-10.64,12.24,37,37,0,0,1-7,4.22,21.2,21.2,0,0,0-.54-6.72l-.29-1.15,0-.12a11.13,11.13,0,0,0,4-6,12.18,12.18,0,0,0,.3-4.16,11.18,11.18,0,0,0-1.13-4.09,6.7,6.7,0,0,0-7.5-3.53,9.49,9.49,0,0,0-3.8,1.7,7.88,7.88,0,0,0-2.09,2.52l-.29-.21a29,29,0,0,0-7.29-3.68,44.8,44.8,0,0,1,4.44-4c.53-.45,1.12-.83,1.68-1.24s1.14-.83,1.74-1.19c1.17-.76,2.4-1.43,3.65-2.08a44.16,44.16,0,0,1,7.9-3,50.58,50.58,0,0,1,8.36-1.61,13.41,13.41,0,0,0,5.14.34,12.51,12.51,0,0,0,2.55-.63,5.23,5.23,0,0,0,2.32-1.55,6.68,6.68,0,0,0,1.18-2.51c.25-.84.45-1.67.64-2.5s.39-1.67.55-2.54a6.35,6.35,0,0,1,.26-1.14c.12-.4.24-.79.38-1.17a9.59,9.59,0,0,1,2.37-3.87,5.6,5.6,0,0,1,1.81-1.07,2.35,2.35,0,0,1,.82-.17.75.75,0,0,1,.5.15,2.75,2.75,0,0,1,.84,1.43l.17.55c.05.17.09.34.13.51a6,6,0,0,1,.12,1,23.63,23.63,0,0,1,0,2.38c-.06.8-.17,1.6-.27,2.47A13.4,13.4,0,0,0,144.26,34.65Z"/><g class="cls-8"><path class="cls-9" d="M221.82,61a1.35,1.35,0,0,1-1.5-1.5V47a1.34,1.34,0,0,1,1.5-1.5h4.26a8.45,8.45,0,0,1,6,2,7.5,7.5,0,0,1,2.12,5.74,9.38,9.38,0,0,1-.54,3.31A6.36,6.36,0,0,1,232.1,59a6.89,6.89,0,0,1-2.55,1.5,10.55,10.55,0,0,1-3.47.52Zm1.32-2.33h2.77a7.49,7.49,0,0,0,2.36-.34,4.31,4.31,0,0,0,1.68-1,4.18,4.18,0,0,0,1-1.69,7.8,7.8,0,0,0,.33-2.39,5.54,5.54,0,0,0-1.35-4.07,5.46,5.46,0,0,0-4-1.34h-2.77Z"/><path class="cls-9" d="M242.12,61.22a6.8,6.8,0,0,1-3.14-.68,4.9,4.9,0,0,1-2-1.94,5.83,5.83,0,0,1-.71-3,6,6,0,0,1,.69-2.92,5,5,0,0,1,1.91-2,5.75,5.75,0,0,1,4.84-.34,4.15,4.15,0,0,1,1.56,1.07,4.53,4.53,0,0,1,1,1.71,6.9,6.9,0,0,1,.35,2.25.73.73,0,0,1-.28.61,1.25,1.25,0,0,1-.78.21h-7.06V54.66h6.18l-.35.33a4.19,4.19,0,0,0-.3-1.69,2.3,2.3,0,0,0-.86-1,2.52,2.52,0,0,0-1.39-.36,2.63,2.63,0,0,0-2.57,1.64,4.75,4.75,0,0,0-.34,1.86v.15a3.77,3.77,0,0,0,.85,2.7,3.3,3.3,0,0,0,2.5.89,6.93,6.93,0,0,0,1.28-.14,4.74,4.74,0,0,0,1.36-.5,1.44,1.44,0,0,1,.81-.23.88.88,0,0,1,.56.25,1,1,0,0,1,.25.54,1.1,1.1,0,0,1-.12.65,1.39,1.39,0,0,1-.56.57A5.62,5.62,0,0,1,244,61,8.58,8.58,0,0,1,242.12,61.22Z"/><path class="cls-9" d="M252.68,61.22a11,11,0,0,1-2-.2,5.9,5.9,0,0,1-1.89-.68,1.3,1.3,0,0,1-.5-.52,1.13,1.13,0,0,1-.11-.59,1,1,0,0,1,.22-.52.91.91,0,0,1,.49-.29,1,1,0,0,1,.64.12,8.06,8.06,0,0,0,1.66.58,7.11,7.11,0,0,0,1.51.16,2.8,2.8,0,0,0,1.58-.36,1.12,1.12,0,0,0,.51-1,1,1,0,0,0-.34-.78,2.31,2.31,0,0,0-1-.4l-2.2-.42a3.88,3.88,0,0,1-2.08-1,2.61,2.61,0,0,1-.71-1.91,2.91,2.91,0,0,1,.58-1.82,3.69,3.69,0,0,1,1.62-1.19A6.23,6.23,0,0,1,253,50a7.57,7.57,0,0,1,1.82.21,6.92,6.92,0,0,1,1.64.65,1,1,0,0,1,.45.46.9.9,0,0,1,.05.58,1.15,1.15,0,0,1-.26.53.86.86,0,0,1-.5.29,1.13,1.13,0,0,1-.67-.12,5.52,5.52,0,0,0-1.31-.51A5.18,5.18,0,0,0,253,52a2.7,2.7,0,0,0-1.59.37,1.16,1.16,0,0,0-.52,1,1,1,0,0,0,.31.77,1.65,1.65,0,0,0,1,.42l2.19.42a4.1,4.1,0,0,1,2.17,1,2.5,2.5,0,0,1,.74,1.89A3,3,0,0,1,256,60.31,5.59,5.59,0,0,1,252.68,61.22Z"/><path class="cls-9" d="M264.45,61.22a6,6,0,0,1-2.95-.69,4.82,4.82,0,0,1-1.93-2,6.2,6.2,0,0,1-.69-3,6.54,6.54,0,0,1,.39-2.33,4.71,4.71,0,0,1,2.87-2.83,6.51,6.51,0,0,1,2.31-.39,7,7,0,0,1,1.57.2,5.21,5.21,0,0,1,1.6.66,1.05,1.05,0,0,1,.46.53,1.09,1.09,0,0,1,0,.62,1.06,1.06,0,0,1-.27.55.88.88,0,0,1-.52.29,1,1,0,0,1-.68-.14,3.91,3.91,0,0,0-1-.43,3.4,3.4,0,0,0-1-.14,3.13,3.13,0,0,0-1.27.23,2.51,2.51,0,0,0-.94.66,2.72,2.72,0,0,0-.58,1.06,5.1,5.1,0,0,0-.2,1.48,3.88,3.88,0,0,0,.78,2.56,2.74,2.74,0,0,0,2.21.94,3.65,3.65,0,0,0,1-.14,4,4,0,0,0,1-.41,1,1,0,0,1,.67-.14,1,1,0,0,1,.5.3,1.06,1.06,0,0,1,.24.55,1.25,1.25,0,0,1-.08.63,1,1,0,0,1-.45.5A5.18,5.18,0,0,1,266,61,6.65,6.65,0,0,1,264.45,61.22Z"/><path class="cls-9" d="M273.76,61.22a4.51,4.51,0,0,1-2.23-.5,3,3,0,0,1-1.3-1.48,6.13,6.13,0,0,1-.43-2.46V51.45a1.35,1.35,0,0,1,.35-1,1.37,1.37,0,0,1,1-.34,1.41,1.41,0,0,1,1,.34,1.32,1.32,0,0,1,.37,1v5.37a2.57,2.57,0,0,0,.46,1.69,1.81,1.81,0,0,0,1.47.55,2.34,2.34,0,0,0,1.81-.76,2.81,2.81,0,0,0,.7-2V51.45a1.22,1.22,0,0,1,1.36-1.38,1.44,1.44,0,0,1,1,.34,1.35,1.35,0,0,1,.36,1v8.32c0,.94-.45,1.4-1.34,1.4a1.31,1.31,0,0,1-1-.36,1.41,1.41,0,0,1-.35-1V58.1l.3.65A3.72,3.72,0,0,1,276,60.58,3.81,3.81,0,0,1,273.76,61.22Z"/><path class="cls-9" d="M288.8,61.22a4.23,4.23,0,0,1-2.38-.68,3.26,3.26,0,0,1-1.36-1.83l.25-.55v1.61a1.41,1.41,0,0,1-.36,1,1.31,1.31,0,0,1-1,.36,1.36,1.36,0,0,1-1-.36,1.45,1.45,0,0,1-.35-1V46.7a1.41,1.41,0,0,1,.35-1,1.36,1.36,0,0,1,1-.36,1.39,1.39,0,0,1,1,.36,1.37,1.37,0,0,1,.36,1v5.72h-.26a3.23,3.23,0,0,1,1.36-1.74A4.2,4.2,0,0,1,288.8,50a4.51,4.51,0,0,1,2.49.68,4.67,4.67,0,0,1,1.65,1.93,6.8,6.8,0,0,1,.59,3,6.89,6.89,0,0,1-.59,3,4.62,4.62,0,0,1-1.66,1.95A4.54,4.54,0,0,1,288.8,61.22ZM288,59.13a2.52,2.52,0,0,0,1.43-.4,2.56,2.56,0,0,0,1-1.17,4.83,4.83,0,0,0,.34-2A4,4,0,0,0,290,53a2.46,2.46,0,0,0-2-.87,2.64,2.64,0,0,0-1.43.39,2.41,2.41,0,0,0-1,1.16,4.83,4.83,0,0,0-.34,2,4.06,4.06,0,0,0,.74,2.63A2.47,2.47,0,0,0,288,59.13Z"/><path class="cls-9" d="M297.21,61.17a1.44,1.44,0,0,1-1-.36,1.41,1.41,0,0,1-.36-1V51.45a1.41,1.41,0,0,1,.35-1,1.33,1.33,0,0,1,1-.35,1.3,1.3,0,0,1,1,.35,1.37,1.37,0,0,1,.36,1v1.39h-.23a3.37,3.37,0,0,1,1.21-2,4.6,4.6,0,0,1,2.4-.82.88.88,0,0,1,.74.23,1.35,1.35,0,0,1,.32.85,1.18,1.18,0,0,1-.25.89,1.36,1.36,0,0,1-.9.41l-.48,0a3.14,3.14,0,0,0-2,.83,2.63,2.63,0,0,0-.69,1.94v4.56a1.41,1.41,0,0,1-.35,1A1.37,1.37,0,0,1,297.21,61.17Z"/><path class="cls-9" d="M309.55,61.22a6.77,6.77,0,0,1-3.14-.68,4.9,4.9,0,0,1-2-1.94,5.83,5.83,0,0,1-.71-3,6,6,0,0,1,.69-2.92,5,5,0,0,1,1.91-2,5.75,5.75,0,0,1,4.84-.34,4.15,4.15,0,0,1,1.56,1.07,4.53,4.53,0,0,1,1,1.71,6.9,6.9,0,0,1,.34,2.25.72.72,0,0,1-.27.61,1.25,1.25,0,0,1-.78.21h-7.06V54.66h6.18l-.35.33a4.19,4.19,0,0,0-.3-1.69,2.3,2.3,0,0,0-.86-1,2.52,2.52,0,0,0-1.39-.36,2.63,2.63,0,0,0-2.57,1.64,4.58,4.58,0,0,0-.34,1.86v.15a3.77,3.77,0,0,0,.85,2.7,3.29,3.29,0,0,0,2.5.89,6.93,6.93,0,0,0,1.28-.14,4.74,4.74,0,0,0,1.36-.5,1.44,1.44,0,0,1,.81-.23.88.88,0,0,1,.56.25,1,1,0,0,1,.25.54,1.1,1.1,0,0,1-.12.65,1.39,1.39,0,0,1-.56.57,5.62,5.62,0,0,1-1.77.72A8.58,8.58,0,0,1,309.55,61.22Z"/><path class="cls-9" d="M327.06,61.22a5.25,5.25,0,0,1-2.38-.48,3.15,3.15,0,0,1-1.42-1.42,5.21,5.21,0,0,1-.47-2.32V52.31h-1.14a1.09,1.09,0,0,1-.81-.28,1,1,0,0,1-.29-.75,1,1,0,0,1,.29-.78,1.18,1.18,0,0,1,.81-.26h1.14v-2a1.27,1.27,0,0,1,1.39-1.39,1.34,1.34,0,0,1,1,.36,1.37,1.37,0,0,1,.35,1v2h2.34a1.18,1.18,0,0,1,.81.26,1,1,0,0,1,.29.78,1,1,0,0,1-.29.75,1.09,1.09,0,0,1-.81.28h-2.34v4.53a2.31,2.31,0,0,0,.47,1.58,1.85,1.85,0,0,0,1.49.53,3.23,3.23,0,0,0,.66-.06,2.75,2.75,0,0,1,.51-.09.55.55,0,0,1,.44.16,1.16,1.16,0,0,1,.17.76,1.87,1.87,0,0,1-.14.78.83.83,0,0,1-.52.48,5.37,5.37,0,0,1-.74.16A5.25,5.25,0,0,1,327.06,61.22Z"/><path class="cls-9" d="M334.48,61.22a4.51,4.51,0,0,1-2.23-.5,3,3,0,0,1-1.3-1.48,6.13,6.13,0,0,1-.43-2.46V51.45a1.35,1.35,0,0,1,.35-1,1.37,1.37,0,0,1,1-.34,1.41,1.41,0,0,1,1,.34,1.32,1.32,0,0,1,.37,1v5.37a2.57,2.57,0,0,0,.46,1.69,1.81,1.81,0,0,0,1.47.55A2.34,2.34,0,0,0,337,58.3a2.81,2.81,0,0,0,.7-2V51.45a1.22,1.22,0,0,1,1.36-1.38,1.44,1.44,0,0,1,1,.34,1.35,1.35,0,0,1,.36,1v8.32c0,.94-.45,1.4-1.34,1.4a1.31,1.31,0,0,1-1-.36,1.41,1.41,0,0,1-.35-1V58.1l.3.65a3.72,3.72,0,0,1-1.39,1.83A3.81,3.81,0,0,1,334.48,61.22Z"/></g><g class="cls-8"><path class="cls-9" d="M153.67,104.85a7.63,7.63,0,0,1-3.41-.74,5.94,5.94,0,0,1-2.34-2,5,5,0,0,1-.84-2.85,4.43,4.43,0,0,1,1-3.08,6.07,6.07,0,0,1,3.27-1.64,29.68,29.68,0,0,1,6.09-.5h1.8v2.59h-1.77a22.4,22.4,0,0,0-3.56.22,3.56,3.56,0,0,0-1.89.74,1.9,1.9,0,0,0-.56,1.45,2.52,2.52,0,0,0,.83,2,3.3,3.3,0,0,0,2.3.75,4,4,0,0,0,2.11-.55,4.05,4.05,0,0,0,1.46-1.53,4.53,4.53,0,0,0,.54-2.24V93.3a3.56,3.56,0,0,0-.8-2.6,3.69,3.69,0,0,0-2.66-.79,11.55,11.55,0,0,0-2.25.25,12.15,12.15,0,0,0-2.54.87,1.79,1.79,0,0,1-1.2.18,1.37,1.37,0,0,1-.81-.6,1.74,1.74,0,0,1-.29-1,2.09,2.09,0,0,1,.29-1.06,1.71,1.71,0,0,1,1-.77,15.71,15.71,0,0,1,3.18-1,14.54,14.54,0,0,1,2.79-.29,10,10,0,0,1,4.27.79,5.28,5.28,0,0,1,2.5,2.39,9,9,0,0,1,.83,4.13v8.63a2.44,2.44,0,0,1-.54,1.71,2,2,0,0,1-1.55.6,2,2,0,0,1-1.56-.6,2.35,2.35,0,0,1-.56-1.71v-1.72h.29a4.9,4.9,0,0,1-2.85,3.6A6.2,6.2,0,0,1,153.67,104.85Z"/><path class="cls-9" d="M173.57,104.85a5.7,5.7,0,0,1-4.5-1.71,7.4,7.4,0,0,1-1.51-5v-17a2.31,2.31,0,0,1,.58-1.69,2.25,2.25,0,0,1,1.66-.58,2.34,2.34,0,0,1,1.67.58,2.27,2.27,0,0,1,.59,1.69V97.9a3.66,3.66,0,0,0,.7,2.45,2.53,2.53,0,0,0,2,.79h.54l.51-.06a.59.59,0,0,1,.68.27,3.48,3.48,0,0,1,.18,1.39,2.36,2.36,0,0,1-.36,1.4,1.6,1.6,0,0,1-1.19.61l-.75.08C174.1,104.84,173.84,104.85,173.57,104.85Z"/><path class="cls-9" d="M181.28,83.29a2.82,2.82,0,0,1-2-.63,2.52,2.52,0,0,1,0-3.51,3.49,3.49,0,0,1,3.94,0,2.6,2.6,0,0,1,0,3.51A2.84,2.84,0,0,1,181.28,83.29Zm0,21.45a2.09,2.09,0,0,1-1.66-.65,2.62,2.62,0,0,1-.57-1.79V89.08a2.65,2.65,0,0,1,.57-1.82,2.18,2.18,0,0,1,1.66-.63,2.21,2.21,0,0,1,1.67.63,2.56,2.56,0,0,1,.6,1.82V102.3a2.62,2.62,0,0,1-.58,1.79A2.12,2.12,0,0,1,181.28,104.74Z"/><path class="cls-9" d="M190.53,104.78a2.21,2.21,0,0,1-1.66-.6,2.35,2.35,0,0,1-.57-1.71V88.87a2.33,2.33,0,0,1,.57-1.7,2.22,2.22,0,0,1,1.62-.57,2.19,2.19,0,0,1,1.62.57,2.29,2.29,0,0,1,.58,1.7V91.5l-.4-1.08a6.12,6.12,0,0,1,2.24-2.85,6.18,6.18,0,0,1,3.6-1,5.68,5.68,0,0,1,3.49,1,5.33,5.33,0,0,1,1.91,3.09H203a6.05,6.05,0,0,1,2.38-3,6.66,6.66,0,0,1,3.81-1.1,6.32,6.32,0,0,1,3.33.79,4.85,4.85,0,0,1,2,2.39,11,11,0,0,1,.64,4.05v8.71a2.28,2.28,0,0,1-.59,1.71,2.25,2.25,0,0,1-1.67.6,2.19,2.19,0,0,1-1.66-.6,2.36,2.36,0,0,1-.58-1.71V93.94a5.21,5.21,0,0,0-.66-3,2.6,2.6,0,0,0-2.25-.94A3.36,3.36,0,0,0,205,91.3a5.26,5.26,0,0,0-1,3.44v7.73a2.32,2.32,0,0,1-.58,1.71,2.17,2.17,0,0,1-1.65.6,2.27,2.27,0,0,1-1.68-.6,2.32,2.32,0,0,1-.59-1.71V93.94a5.12,5.12,0,0,0-.67-3,2.53,2.53,0,0,0-2.21-.94,3.36,3.36,0,0,0-2.77,1.25,5.26,5.26,0,0,0-1,3.44v7.73A2,2,0,0,1,190.53,104.78Z"/><path class="cls-9" d="M228.47,104.85a11.11,11.11,0,0,1-5.14-1.11,8,8,0,0,1-3.33-3.17,10.7,10.7,0,0,1,0-9.65,8.35,8.35,0,0,1,3.13-3.22,8.84,8.84,0,0,1,4.56-1.17,8.75,8.75,0,0,1,3.36.61,7.07,7.07,0,0,1,2.56,1.76,7.71,7.71,0,0,1,1.62,2.79,11.48,11.48,0,0,1,.56,3.69,1.15,1.15,0,0,1-.45,1,2.07,2.07,0,0,1-1.28.34H222.46V94.12h10.12l-.58.54a7,7,0,0,0-.48-2.77,3.87,3.87,0,0,0-1.41-1.71,4.15,4.15,0,0,0-2.28-.59,4.57,4.57,0,0,0-2.58.7,4.42,4.42,0,0,0-1.62,2,7.6,7.6,0,0,0-.56,3v.25a6.2,6.2,0,0,0,1.39,4.41,5.35,5.35,0,0,0,4.09,1.46,11.28,11.28,0,0,0,2.1-.23,8,8,0,0,0,2.22-.81,2.25,2.25,0,0,1,1.33-.38,1.43,1.43,0,0,1,.92.41,1.64,1.64,0,0,1,.41.88,1.8,1.8,0,0,1-.2,1.07,2.27,2.27,0,0,1-.92.93,9.23,9.23,0,0,1-2.89,1.17A13.81,13.81,0,0,1,228.47,104.85Z"/><path class="cls-9" d="M241.54,104.78a2.17,2.17,0,0,1-1.65-.6,2.32,2.32,0,0,1-.58-1.71V88.87a2.29,2.29,0,0,1,.58-1.7,2.19,2.19,0,0,1,1.62-.57,2.22,2.22,0,0,1,1.62.57,2.33,2.33,0,0,1,.57,1.7v2.45l-.39-.9a5.82,5.82,0,0,1,2.46-2.9,7.33,7.33,0,0,1,3.8-1,6.86,6.86,0,0,1,3.49.79,4.89,4.89,0,0,1,2.05,2.39,10.3,10.3,0,0,1,.69,4.05v8.71a2.32,2.32,0,0,1-.58,1.71,2.17,2.17,0,0,1-1.65.6,2.27,2.27,0,0,1-1.68-.6,2.32,2.32,0,0,1-.59-1.71V94a4.65,4.65,0,0,0-.78-3,2.93,2.93,0,0,0-2.39-.94A4.12,4.12,0,0,0,245,91.3a4.6,4.6,0,0,0-1.17,3.29v7.88A2,2,0,0,1,241.54,104.78Z"/><path class="cls-9" d="M268.43,104.85a8.55,8.55,0,0,1-3.9-.79,5,5,0,0,1-2.32-2.32,8.46,8.46,0,0,1-.76-3.8V90.27h-1.87a1.83,1.83,0,0,1-1.33-.45,1.9,1.9,0,0,1,0-2.5,1.87,1.87,0,0,1,1.33-.43h1.87V83.61a2.27,2.27,0,0,1,.59-1.69,2.35,2.35,0,0,1,1.68-.58,2.24,2.24,0,0,1,1.65.58,2.27,2.27,0,0,1,.58,1.69v3.28h3.82a1.88,1.88,0,0,1,1.33.43,1.9,1.9,0,0,1,0,2.5,1.85,1.85,0,0,1-1.33.45H266v7.42a3.81,3.81,0,0,0,.76,2.59,3.1,3.1,0,0,0,2.44.86,5,5,0,0,0,1.08-.1,6.75,6.75,0,0,1,.83-.15.86.86,0,0,1,.72.27,1.91,1.91,0,0,1,.29,1.24,3.4,3.4,0,0,1-.23,1.28,1.4,1.4,0,0,1-.85.78,10.38,10.38,0,0,1-1.22.26A7.72,7.72,0,0,1,268.43,104.85Z"/><path class="cls-9" d="M282,104.85a9.69,9.69,0,0,1-4.75-1.11,7.76,7.76,0,0,1-3.13-3.19A10.08,10.08,0,0,1,273,95.67a10.74,10.74,0,0,1,.63-3.8A8.27,8.27,0,0,1,275.49,89a7.9,7.9,0,0,1,2.84-1.83,10.39,10.39,0,0,1,3.71-.63,9.69,9.69,0,0,1,4.75,1.11,7.85,7.85,0,0,1,3.14,3.17A10.08,10.08,0,0,1,291,95.67a10.89,10.89,0,0,1-.63,3.82,7.91,7.91,0,0,1-1.82,2.89,7.79,7.79,0,0,1-2.84,1.84A10.39,10.39,0,0,1,282,104.85Zm0-3.42A4.06,4.06,0,0,0,286,98.86a8.07,8.07,0,0,0,.56-3.19,6.43,6.43,0,0,0-1.23-4.3A4,4,0,0,0,282,90a4.31,4.31,0,0,0-2.34.63,4.06,4.06,0,0,0-1.56,1.91,7.81,7.81,0,0,0-.56,3.18,6.51,6.51,0,0,0,1.22,4.3A4,4,0,0,0,282,101.43Z"/><path class="cls-9" d="M311.27,104.85a7.41,7.41,0,0,1-4-1.11,7.5,7.5,0,0,1-2.72-3.19,11.51,11.51,0,0,1-1-4.88,11.39,11.39,0,0,1,1-4.88,7.56,7.56,0,0,1,2.72-3.15,7.41,7.41,0,0,1,4-1.11,6.83,6.83,0,0,1,3.84,1.08,5.31,5.31,0,0,1,2.21,2.84h-.4V81.09a2.31,2.31,0,0,1,.58-1.69,2.26,2.26,0,0,1,1.66-.58,2.32,2.32,0,0,1,1.67.58,2.23,2.23,0,0,1,.59,1.69v21.38a2.35,2.35,0,0,1-.57,1.71,2.21,2.21,0,0,1-1.66.6,2.17,2.17,0,0,1-1.65-.6,2.32,2.32,0,0,1-.58-1.71v-2.8l.4,1.08a5.31,5.31,0,0,1-2.2,3A6.81,6.81,0,0,1,311.27,104.85Zm1.26-3.42a4.06,4.06,0,0,0,3.91-2.57,8.07,8.07,0,0,0,.56-3.19,6.43,6.43,0,0,0-1.23-4.3A4,4,0,0,0,312.53,90a4.31,4.31,0,0,0-2.34.63,4.06,4.06,0,0,0-1.56,1.91,7.81,7.81,0,0,0-.56,3.18,6.56,6.56,0,0,0,1.22,4.3A4,4,0,0,0,312.53,101.43Z"/><path class="cls-9" d="M334.78,104.85a11.15,11.15,0,0,1-5.15-1.11,8,8,0,0,1-3.33-3.17,10.66,10.66,0,0,1,0-9.65,8.28,8.28,0,0,1,3.13-3.22,9.51,9.51,0,0,1,7.92-.56,7,7,0,0,1,2.55,1.76,7.71,7.71,0,0,1,1.62,2.79,11.21,11.21,0,0,1,.56,3.69,1.15,1.15,0,0,1-.45,1,2.05,2.05,0,0,1-1.28.34H328.77V94.12h10.11l-.57.54a6.83,6.83,0,0,0-.49-2.77,3.78,3.78,0,0,0-1.4-1.71,4.19,4.19,0,0,0-2.29-.59,4.53,4.53,0,0,0-2.57.7,4.42,4.42,0,0,0-1.62,2,7.6,7.6,0,0,0-.56,3v.25a6.16,6.16,0,0,0,1.39,4.41,5.33,5.33,0,0,0,4.08,1.46,11.29,11.29,0,0,0,2.11-.23,7.82,7.82,0,0,0,2.21-.81,2.29,2.29,0,0,1,1.33-.38,1.41,1.41,0,0,1,.92.41,1.58,1.58,0,0,1,.42.88,1.88,1.88,0,0,1-.2,1.07,2.34,2.34,0,0,1-.92.93,9.29,9.29,0,0,1-2.9,1.17A13.65,13.65,0,0,1,334.78,104.85Z"/><path class="cls-9" d="M351.63,104.85a5.7,5.7,0,0,1-4.5-1.71,7.35,7.35,0,0,1-1.51-5v-17a2.3,2.3,0,0,1,.57-1.69,2.28,2.28,0,0,1,1.66-.58,2.3,2.3,0,0,1,1.67.58,2.23,2.23,0,0,1,.6,1.69V97.9a3.6,3.6,0,0,0,.7,2.45,2.52,2.52,0,0,0,2,.79h.54l.5-.06a.58.58,0,0,1,.68.27,3.48,3.48,0,0,1,.18,1.39,2.36,2.36,0,0,1-.36,1.4,1.6,1.6,0,0,1-1.18.61l-.76.08C352.16,104.84,351.89,104.85,351.63,104.85Z"/><path class="cls-9" d="M373.62,104.85a7.41,7.41,0,0,1-4.05-1.11,7.5,7.5,0,0,1-2.72-3.19,11.51,11.51,0,0,1-1-4.88,11.39,11.39,0,0,1,1-4.88,7.56,7.56,0,0,1,2.72-3.15,7.41,7.41,0,0,1,4.05-1.11,6.83,6.83,0,0,1,3.84,1.08,5.31,5.31,0,0,1,2.21,2.84h-.4V81.09a2.31,2.31,0,0,1,.58-1.69,2.26,2.26,0,0,1,1.66-.58,2.32,2.32,0,0,1,1.67.58,2.23,2.23,0,0,1,.59,1.69v21.38a2.35,2.35,0,0,1-.57,1.71,2.21,2.21,0,0,1-1.66.6,2.17,2.17,0,0,1-1.65-.6,2.32,2.32,0,0,1-.58-1.71v-2.8l.4,1.08a5.31,5.31,0,0,1-2.2,3A6.81,6.81,0,0,1,373.62,104.85Zm1.26-3.42a4.06,4.06,0,0,0,3.91-2.57,8.07,8.07,0,0,0,.56-3.19,6.43,6.43,0,0,0-1.23-4.3A4,4,0,0,0,374.88,90a4.31,4.31,0,0,0-2.34.63A4.06,4.06,0,0,0,371,92.49a7.81,7.81,0,0,0-.56,3.18,6.56,6.56,0,0,0,1.22,4.3A4,4,0,0,0,374.88,101.43Z"/><path class="cls-9" d="M390.69,104.74a2.08,2.08,0,0,1-1.66-.65,2.62,2.62,0,0,1-.58-1.79V89.08a2.65,2.65,0,0,1,.58-1.82,2.17,2.17,0,0,1,1.66-.63,2.22,2.22,0,0,1,1.67.63,2.56,2.56,0,0,1,.59,1.82V102.3a2.62,2.62,0,0,1-.57,1.79A2.13,2.13,0,0,1,390.69,104.74Zm1.69-20.41a1.28,1.28,0,0,1-.87.58,1.52,1.52,0,0,1-1-.18,1.44,1.44,0,0,1-.66-.72A1.17,1.17,0,0,1,390,83l2.73-5.36a1.59,1.59,0,0,1,.87-.88,1.91,1.91,0,0,1,1.11-.06,2.18,2.18,0,0,1,1,.54,1.68,1.68,0,0,1,.51,1,1.55,1.55,0,0,1-.31,1.13Z"/><path class="cls-9" d="M403.43,104.85a7.59,7.59,0,0,1-3.4-.74,5.8,5.8,0,0,1-2.34-2,5,5,0,0,1-.85-2.85,4.48,4.48,0,0,1,1-3.08,6.06,6.06,0,0,1,3.28-1.64,29.64,29.64,0,0,1,6.08-.5H409v2.59h-1.76a22.54,22.54,0,0,0-3.57.22,3.56,3.56,0,0,0-1.89.74,1.9,1.9,0,0,0-.56,1.45,2.52,2.52,0,0,0,.83,2,3.31,3.31,0,0,0,2.31.75,4,4,0,0,0,2.1-.55,4.05,4.05,0,0,0,1.46-1.53,4.53,4.53,0,0,0,.54-2.24V93.3a3.56,3.56,0,0,0-.79-2.6,3.74,3.74,0,0,0-2.67-.79,11.72,11.72,0,0,0-2.25.25,11.89,11.89,0,0,0-2.53.87,1.82,1.82,0,0,1-1.21.18,1.37,1.37,0,0,1-.81-.6,1.82,1.82,0,0,1-.29-1,2.2,2.2,0,0,1,.29-1.06,1.74,1.74,0,0,1,1-.77,16,16,0,0,1,3.19-1,14.54,14.54,0,0,1,2.79-.29,9.91,9.91,0,0,1,4.26.79,5.34,5.34,0,0,1,2.51,2.39,9,9,0,0,1,.82,4.13v8.63a2.44,2.44,0,0,1-.54,1.71,2,2,0,0,1-1.54.6,2,2,0,0,1-1.57-.6,2.4,2.4,0,0,1-.56-1.71v-1.72h.29a4.92,4.92,0,0,1-2.84,3.6A6.29,6.29,0,0,1,403.43,104.85Z"/></g></g></g></svg>