<svg xmlns="http://www.w3.org/2000/svg" xmlns:xlink="http://www.w3.org/1999/xlink" viewBox="0 0 443.23 149.11"><defs><style>.cls-1{fill:#1b1b3f;opacity:0.45;}.cls-2{fill:url(#Degradado_sin_nombre_112);}.cls-3{fill:url(#Degradado_sin_nombre_112-2);}.cls-4{fill:url(#Degradado_sin_nombre_112-3);}.cls-5{fill:url(#Degradado_sin_nombre_112-4);}.cls-6{fill:url(#Degradado_sin_nombre_112-5);}.cls-7{fill:url(#Degradado_sin_nombre_112-6);}.cls-8{fill:url(#Degradado_sin_nombre_112-7);}.cls-9{fill:url(#Degradado_sin_nombre_112-8);}.cls-10{fill:url(#Degradado_sin_nombre_112-9);}.cls-11{fill:url(#Degradado_sin_nombre_112-10);}.cls-12{fill:url(#Degradado_sin_nombre_112-11);}.cls-13{fill:url(#Degradado_sin_nombre_112-12);}.cls-14{fill:url(#Degradado_sin_nombre_112-13);}.cls-15{fill:url(#Degradado_sin_nombre_112-14);}.cls-16{fill:url(#Degradado_sin_nombre_112-15);}.cls-17{fill:url(#Degradado_sin_nombre_112-16);}.cls-18{fill:url(#Degradado_sin_nombre_112-17);}.cls-19{fill:url(#Degradado_sin_nombre_112-18);}.cls-20{fill:url(#Degradado_sin_nombre_112-19);}.cls-21{fill:url(#Degradado_sin_nombre_112-20);}.cls-22{opacity:0.85;}.cls-23{fill:#fff;}</style><linearGradient id="Degradado_sin_nombre_112" x1="88.49" y1="63.63" x2="88.49" y2="59.09" gradientUnits="userSpaceOnUse"><stop offset="0" stop-color="#282559"/><stop offset="0.02" stop-color="#312e66"/><stop offset="0.09" stop-color="#514f95"/><stop offset="0.15" stop-color="#6866b7"/><stop offset="0.21" stop-color="#7675cc"/><stop offset="0.24" stop-color="#7b7ad3"/><stop offset="0.31" stop-color="#a298d0"/><stop offset="0.39" stop-color="#cab7cc"/><stop offset="0.46" stop-color="#e6cdca"/><stop offset="0.53" stop-color="#f8dac9"/><stop offset="0.58" stop-color="#fedfc8"/><stop offset="0.92" stop-color="#a15ad5"/></linearGradient><linearGradient id="Degradado_sin_nombre_112-2" x1="65.99" y1="76.38" x2="65.99" y2="62.35" xlink:href="#Degradado_sin_nombre_112"/><linearGradient id="Degradado_sin_nombre_112-3" x1="69.75" y1="98.82" x2="69.75" y2="84.78" xlink:href="#Degradado_sin_nombre_112"/><linearGradient id="Degradado_sin_nombre_112-4" x1="73.51" y1="121.26" x2="73.51" y2="107.22" xlink:href="#Degradado_sin_nombre_112"/><linearGradient id="Degradado_sin_nombre_112-5" x1="97.35" y1="70.9" x2="97.35" y2="63.72" xlink:href="#Degradado_sin_nombre_112"/><linearGradient id="Degradado_sin_nombre_112-6" x1="92.36" y1="85.9" x2="92.36" y2="81.36" xlink:href="#Degradado_sin_nombre_112"/><linearGradient id="Degradado_sin_nombre_112-7" x1="101.22" y1="93.18" x2="101.22" y2="86" xlink:href="#Degradado_sin_nombre_112"/><linearGradient id="Degradado_sin_nombre_112-8" x1="96.29" y1="108.55" x2="96.29" y2="104.01" xlink:href="#Degradado_sin_nombre_112"/><linearGradient id="Degradado_sin_nombre_112-9" x1="98.73" y1="115.82" x2="98.73" y2="110.87" xlink:href="#Degradado_sin_nombre_112"/><linearGradient id="Degradado_sin_nombre_112-10" x1="80.93" y1="56.84" x2="80.93" y2="44.51" gradientTransform="translate(9.48 -12.67) rotate(9.5)" xlink:href="#Degradado_sin_nombre_112"/><linearGradient id="Degradado_sin_nombre_112-11" x1="130.58" y1="90.96" x2="130.58" y2="87.88" xlink:href="#Degradado_sin_nombre_112"/><linearGradient id="Degradado_sin_nombre_112-12" x1="125.15" y1="86.58" x2="125.15" y2="83.96" xlink:href="#Degradado_sin_nombre_112"/><linearGradient id="Degradado_sin_nombre_112-13" x1="127.72" y1="87.89" x2="127.72" y2="86.57" xlink:href="#Degradado_sin_nombre_112"/><linearGradient id="Degradado_sin_nombre_112-14" x1="130.72" y1="90.38" x2="130.72" y2="86.78" xlink:href="#Degradado_sin_nombre_112"/><linearGradient id="Degradado_sin_nombre_112-15" x1="125.28" y1="85.48" x2="125.28" y2="83.35" xlink:href="#Degradado_sin_nombre_112"/><linearGradient id="Degradado_sin_nombre_112-16" x1="127.53" y1="86.79" x2="127.53" y2="85.47" xlink:href="#Degradado_sin_nombre_112"/><linearGradient id="Degradado_sin_nombre_112-17" x1="107.56" y1="137.08" x2="107.56" y2="18.38" xlink:href="#Degradado_sin_nombre_112"/><linearGradient id="Degradado_sin_nombre_112-18" x1="145.51" y1="88.41" x2="145.51" y2="55.25" gradientTransform="translate(114.11 -87.38) rotate(52.57)" xlink:href="#Degradado_sin_nombre_112"/><linearGradient id="Degradado_sin_nombre_112-19" x1="162.34" y1="52.29" x2="162.34" y2="47.42" gradientTransform="translate(103.25 -109.36) rotate(52.57)" xlink:href="#Degradado_sin_nombre_112"/><linearGradient id="Degradado_sin_nombre_112-20" x1="164.91" y1="43.57" x2="164.91" y2="35.54" xlink:href="#Degradado_sin_nombre_112"/></defs><g id="Capa_2" data-name="Capa 2"><g id="Ilustraciones"><rect class="cls-1" width="443.23" height="149.11" rx="28.09"/><path class="cls-2" d="M83.81,63.61l9.86-1.71a1.42,1.42,0,0,0-.49-2.79l-9.86,1.71a1.42,1.42,0,0,0,.49,2.79Z"/><path class="cls-3" d="M64.38,76.18a1.42,1.42,0,0,0,1.87-.39l7.89-11.22a1.41,1.41,0,0,0-.34-2h0a1.42,1.42,0,0,0-2,.34L64.74,73l-4.93-3.47a1.41,1.41,0,1,0-1.62,2.31L64.12,76A.94.94,0,0,0,64.38,76.18Z"/><path class="cls-4" d="M68.14,98.62a1.41,1.41,0,0,0,1.87-.4L77.9,87a1.41,1.41,0,0,0-2.31-1.63L68.5,95.45,63.57,92A1.41,1.41,0,1,0,62,94.3l5.93,4.18A.94.94,0,0,0,68.14,98.62Z"/><path class="cls-5" d="M79.35,107.82l-7.09,10.07-4.92-3.46a1.41,1.41,0,1,0-1.63,2.31l5.93,4.18a1.3,1.3,0,0,0,.26.14,1.41,1.41,0,0,0,1.87-.4l7.89-11.21a1.41,1.41,0,0,0-2.31-1.63Z"/><path class="cls-6" d="M111.28,64.9a1.43,1.43,0,0,0-1.64-1.16L84.58,68.09a1.42,1.42,0,1,0,.49,2.79l25.05-4.35A1.42,1.42,0,0,0,111.28,64.9Z"/><path class="cls-7" d="M87.67,85.88l9.86-1.71a1.41,1.41,0,0,0-.48-2.78L87.19,83.1a1.41,1.41,0,0,0,.48,2.78Z"/><path class="cls-8" d="M113.51,86,88.45,90.37a1.41,1.41,0,1,0,.48,2.78L114,88.81a1.42,1.42,0,0,0-.48-2.79Z"/><path class="cls-9" d="M91.6,108.53l9.86-1.71A1.42,1.42,0,0,0,101,104l-9.86,1.71a1.42,1.42,0,1,0,.48,2.79Z"/><path class="cls-10" d="M104.61,110.89,92.38,113a1.42,1.42,0,1,0,.48,2.79l12.23-2.12a1.42,1.42,0,0,0-.48-2.79Z"/><rect class="cls-11" x="45.8" y="50.31" width="70.26" height="0.73" transform="matrix(0.99, -0.17, 0.17, 0.99, -7.26, 14.06)"/><path class="cls-12" d="M132.58,91l0,0-4-3.05h0Z"/><path class="cls-13" d="M123.43,84l3.43,2.62h0L123.48,84Z"/><polygon class="cls-14" points="126.86 86.58 128.57 87.89 128.57 87.88 126.86 86.57 126.86 86.58"/><path class="cls-15" d="M128.38,86.78h0l4.68,3.59a.1.1,0,0,0,0,0Z"/><path class="cls-16" d="M123.88,83.35l2.79,2.13h0l-2.73-2.09Z"/><polygon class="cls-17" points="126.67 85.47 126.67 85.48 128.38 86.79 128.38 86.78 126.67 85.47"/><path class="cls-18" d="M172.11,35.69,166,31a3.15,3.15,0,0,0-4.4.58L126.71,77.14l-6.43-37.08a8.16,8.16,0,0,0-9.39-6.66h0l-9.56,1.66-.9-5.4A2.1,2.1,0,0,0,98,28L85.83,30a8.59,8.59,0,0,0,.36-4.3,8.75,8.75,0,0,0-17.26,2.9,8.57,8.57,0,0,0,1.74,3.94L58.28,34.6A2.1,2.1,0,0,0,56.55,37l1,5.64-9.16,1.59a8.19,8.19,0,0,0-6.65,9.44L55,130.31A8.16,8.16,0,0,0,64.38,137h0l62.5-10.84a8.16,8.16,0,0,0,6.65-9.44l-3.9-22.45,3-1.25a1.51,1.51,0,0,0,.94-1.22h0l.14.11,39-51A3.68,3.68,0,0,0,172.11,35.69ZM58.52,36l15.2-2.55-1.1-1A7.29,7.29,0,1,1,84,30.58l-.71,1.31,14.93-2.5a.64.64,0,0,1,.74.52l.9,5.41.24,1.44.32,1.88a.64.64,0,0,1-.53.73L60.19,46a.64.64,0,0,1-.73-.52l-.28-1.64-.24-1.45L58,36.77A.63.63,0,0,1,58.52,36Zm73.61,80.89a6.71,6.71,0,0,1-5.46,7.75l-62.5,10.84h0a6.69,6.69,0,0,1-7.71-5.47L43.14,53.44a6.69,6.69,0,0,1,5.45-7.74l9.15-1.59L58,45.74a2.1,2.1,0,0,0,2.42,1.72l39.69-6.65a2.1,2.1,0,0,0,1.72-2.42l-.31-1.88,9.56-1.66h0a6.71,6.71,0,0,1,7.71,5.46l6.66,38.41L122.21,83l.2.16h0a1.52,1.52,0,0,0-.94,1.23L120,95.75a1.52,1.52,0,0,0,.59,1.42,1.5,1.5,0,0,0,.94.33,1.37,1.37,0,0,0,.59-.13l6.18-2.56Zm.25-24.64-2.84,1.18-1.38.57-6.34,2.64a.79.79,0,0,1-1.08-.83l1.48-11.34a.75.75,0,0,1,.48-.63.8.8,0,0,1,.3-.06.76.76,0,0,1,.43.14l0,0,3.38,2.59,1.71,1.31,4,3.05,0,0a.75.75,0,0,1,.28.7A.77.77,0,0,1,132.38,92.29Zm39.81-51.9-2,2.58.3.21-.44.62-.32-.23L133.61,90.8l-.55-.42-4.68-3.59-1.71-1.31-2.79-2.13-.61-.47,2.4-3.14,1.22-1.58L162.18,32a2.39,2.39,0,0,1,3.34-.44l6.13,4.69A2.93,2.93,0,0,1,172.19,40.39Z"/><rect class="cls-19" x="124.87" y="71.05" width="41.29" height="1.57" rx="0.72" transform="translate(0.03 143.72) rotate(-52.57)"/><rect class="cls-20" x="159.51" y="49.07" width="5.66" height="1.57" rx="0.72" transform="translate(24.08 148.46) rotate(-52.57)"/><polygon class="cls-21" points="159.6 36.15 169.76 43.57 170.22 42.97 160.04 35.54 159.6 36.15"/><g class="cls-22"><path class="cls-23" d="M251.1,57.31a7.65,7.65,0,0,1-3.93-1,6.68,6.68,0,0,1-2.6-2.79,9,9,0,0,1-.93-4.21,9.7,9.7,0,0,1,.53-3.29,7.29,7.29,0,0,1,1.51-2.51,6.63,6.63,0,0,1,2.35-1.6,8,8,0,0,1,3.07-.56,7.61,7.61,0,0,1,3.94,1,6.73,6.73,0,0,1,2.6,2.76,9.09,9.09,0,0,1,.92,4.2,9.76,9.76,0,0,1-.53,3.3,7.36,7.36,0,0,1-1.5,2.53,6.72,6.72,0,0,1-2.36,1.62A8.15,8.15,0,0,1,251.1,57.31Zm0-2.42a4.28,4.28,0,0,0,2.43-.66,4.19,4.19,0,0,0,1.54-1.92,7.5,7.5,0,0,0,.54-3,6.31,6.31,0,0,0-1.18-4.09,4,4,0,0,0-3.33-1.45,4.34,4.34,0,0,0-2.42.65,4.12,4.12,0,0,0-1.55,1.89,7.52,7.52,0,0,0-.54,3,6.35,6.35,0,0,0,1.19,4.09A4,4,0,0,0,251.1,54.89Z"/><path class="cls-23" d="M262.56,57.26a1.26,1.26,0,0,1-1.4-1.4V47.54a1.41,1.41,0,0,1,.35-1,1.34,1.34,0,0,1,1-.35,1.37,1.37,0,0,1,1,.35,1.45,1.45,0,0,1,.35,1v1.38h-.22a3.43,3.43,0,0,1,1.21-2,4.62,4.62,0,0,1,2.4-.81.86.86,0,0,1,.73.23,1.28,1.28,0,0,1,.32.85,1.16,1.16,0,0,1-.25.89,1.33,1.33,0,0,1-.89.41l-.48,0a3.22,3.22,0,0,0-2,.82A2.69,2.69,0,0,0,264,51.3v4.56a1.45,1.45,0,0,1-.35,1A1.4,1.4,0,0,1,262.56,57.26Z"/><path class="cls-23" d="M274.62,61.27a12.37,12.37,0,0,1-2.3-.22,8.06,8.06,0,0,1-2-.68,1.21,1.21,0,0,1-.56-.53,1,1,0,0,1-.09-.63,1.16,1.16,0,0,1,.26-.56,1.06,1.06,0,0,1,.52-.33.82.82,0,0,1,.64.09,6.29,6.29,0,0,0,1.83.62,9,9,0,0,0,1.49.15,3,3,0,0,0,2.21-.72,2.82,2.82,0,0,0,.74-2.12v-2h.2a3.1,3.1,0,0,1-1.38,1.79,4.25,4.25,0,0,1-2.36.67,4.64,4.64,0,0,1-2.53-.67,4.46,4.46,0,0,1-1.68-1.88,6.38,6.38,0,0,1-.59-2.81,6.54,6.54,0,0,1,.34-2.19,4.92,4.92,0,0,1,1-1.69,4.28,4.28,0,0,1,1.52-1.09,5,5,0,0,1,2-.38,4.22,4.22,0,0,1,2.38.67,3.06,3.06,0,0,1,1.33,1.77l-.22.55V47.54a1.44,1.44,0,0,1,2.38-1,1.45,1.45,0,0,1,.35,1V56A5.22,5.22,0,0,1,278.65,60,5.64,5.64,0,0,1,274.62,61.27Zm-.07-6.54a2.7,2.7,0,0,0,1.48-.39,2.56,2.56,0,0,0,1-1.14,4.06,4.06,0,0,0,.35-1.74,3.53,3.53,0,0,0-.75-2.39,2.55,2.55,0,0,0-2-.87,2.51,2.51,0,0,0-2.43,1.52,4.15,4.15,0,0,0-.34,1.74,3.55,3.55,0,0,0,.75,2.39A2.5,2.5,0,0,0,274.55,54.73Z"/><path class="cls-23" d="M286.43,57.31a4.67,4.67,0,0,1-2.08-.45,3.66,3.66,0,0,1-1.43-1.23,3.06,3.06,0,0,1-.51-1.73A2.73,2.73,0,0,1,283,52a3.59,3.59,0,0,1,2-1,17.44,17.44,0,0,1,3.71-.31h1.1v1.58h-1.07a15.38,15.38,0,0,0-2.18.13,2.26,2.26,0,0,0-1.16.45,1.21,1.21,0,0,0-.34.9A1.51,1.51,0,0,0,285.6,55a2,2,0,0,0,1.41.47,2.39,2.39,0,0,0,1.28-.35,2.35,2.35,0,0,0,.89-.93,2.77,2.77,0,0,0,.33-1.36V50.25a2.19,2.19,0,0,0-.48-1.59,2.27,2.27,0,0,0-1.63-.48,6.9,6.9,0,0,0-1.37.15,7.12,7.12,0,0,0-1.55.53,1.07,1.07,0,0,1-.74.11.87.87,0,0,1-.5-.36,1.19,1.19,0,0,1-.17-.61,1.4,1.4,0,0,1,.17-.65,1.08,1.08,0,0,1,.6-.47,9.17,9.17,0,0,1,2-.59,9,9,0,0,1,1.7-.18,6.18,6.18,0,0,1,2.61.48,3.26,3.26,0,0,1,1.53,1.47,5.56,5.56,0,0,1,.5,2.52v5.28a1.49,1.49,0,0,1-.33,1,1.21,1.21,0,0,1-.94.36,1.27,1.27,0,0,1-1-.36,1.45,1.45,0,0,1-.34-1V54.8h.17a3,3,0,0,1-.6,1.33A3.15,3.15,0,0,1,288,57,3.89,3.89,0,0,1,286.43,57.31Z"/><path class="cls-23" d="M296.29,57.26a1.34,1.34,0,0,1-1-.36,1.41,1.41,0,0,1-.35-1V47.54a1.41,1.41,0,0,1,.35-1,1.34,1.34,0,0,1,1-.35,1.37,1.37,0,0,1,1,.35,1.45,1.45,0,0,1,.35,1V49l-.24-.55a3.61,3.61,0,0,1,1.5-1.78,4.54,4.54,0,0,1,2.33-.6,4.25,4.25,0,0,1,2.13.48,2.94,2.94,0,0,1,1.25,1.47,6.27,6.27,0,0,1,.42,2.47v5.33a1.45,1.45,0,0,1-.35,1,1.36,1.36,0,0,1-1,.36,1.27,1.27,0,0,1-1.39-1.4v-5.2a2.88,2.88,0,0,0-.47-1.82,1.79,1.79,0,0,0-1.46-.57,2.55,2.55,0,0,0-1.93.75,2.82,2.82,0,0,0-.71,2v4.82A1.24,1.24,0,0,1,296.29,57.26Z"/><path class="cls-23" d="M309.16,44.13a1.73,1.73,0,0,1-1.2-.39,1.33,1.33,0,0,1-.43-1.06A1.35,1.35,0,0,1,308,41.6a1.78,1.78,0,0,1,1.2-.37,1.75,1.75,0,0,1,1.21.37,1.37,1.37,0,0,1,.42,1.08,1.36,1.36,0,0,1-.42,1.06A1.71,1.71,0,0,1,309.16,44.13Zm0,13.11a1.25,1.25,0,0,1-1-.4,1.55,1.55,0,0,1-.35-1.09V47.67a1.57,1.57,0,0,1,.35-1.11,1.28,1.28,0,0,1,1-.39,1.32,1.32,0,0,1,1,.39,1.58,1.58,0,0,1,.37,1.11v8.08a1.56,1.56,0,0,1-.36,1.09A1.28,1.28,0,0,1,309.16,57.24Z"/><path class="cls-23" d="M314.07,57.09a1.14,1.14,0,0,1-.7-.21,1,1,0,0,1-.36-.54,1.36,1.36,0,0,1,0-.72,1.79,1.79,0,0,1,.41-.73l5.7-7.15v.66h-5.2a1.05,1.05,0,0,1-.78-.28,1,1,0,0,1-.27-.76,1,1,0,0,1,.27-.77,1.13,1.13,0,0,1,.78-.26h6.52a1.39,1.39,0,0,1,.79.21,1,1,0,0,1,.4.54,1.37,1.37,0,0,1,0,.7,1.64,1.64,0,0,1-.4.71l-5.81,7.26V55H321a.92.92,0,0,1,1.06,1,1,1,0,0,1-.28.76,1,1,0,0,1-.78.28Z"/><path class="cls-23" d="M327.26,57.31a4.6,4.6,0,0,1-2.07-.45,3.52,3.52,0,0,1-1.43-1.23,3,3,0,0,1-.52-1.73,2.73,2.73,0,0,1,.61-1.88,3.63,3.63,0,0,1,2-1,17.48,17.48,0,0,1,3.72-.31h1.09v1.58H329.6a15.38,15.38,0,0,0-2.18.13,2.3,2.3,0,0,0-1.16.45,1.21,1.21,0,0,0-.34.9,1.51,1.51,0,0,0,.51,1.18,2,2,0,0,0,1.41.47,2.39,2.39,0,0,0,1.28-.35,2.35,2.35,0,0,0,.89-.93,2.66,2.66,0,0,0,.33-1.36V50.25a2.19,2.19,0,0,0-.48-1.59,2.25,2.25,0,0,0-1.63-.48,6.9,6.9,0,0,0-1.37.15,7.12,7.12,0,0,0-1.55.53,1.07,1.07,0,0,1-.74.11.82.82,0,0,1-.49-.36,1.11,1.11,0,0,1-.18-.61,1.3,1.3,0,0,1,.18-.65,1,1,0,0,1,.59-.47,9.17,9.17,0,0,1,1.95-.59,9,9,0,0,1,1.7-.18,6.15,6.15,0,0,1,2.61.48,3.26,3.26,0,0,1,1.53,1.47,5.56,5.56,0,0,1,.5,2.52v5.28a1.49,1.49,0,0,1-.33,1,1.21,1.21,0,0,1-.94.36,1.27,1.27,0,0,1-1-.36,1.45,1.45,0,0,1-.34-1V54.8h.18a3,3,0,0,1-1.74,2.2A3.89,3.89,0,0,1,327.26,57.31Z"/><path class="cls-23" d="M339.89,57.31a4.36,4.36,0,0,1-4.13-2.63,6.89,6.89,0,0,1-.6-3,6.8,6.8,0,0,1,.6-3,4.38,4.38,0,0,1,4.13-2.61,4.18,4.18,0,0,1,2.35.66,3.31,3.31,0,0,1,1.35,1.74h-.24V42.79a1.39,1.39,0,0,1,.35-1,1.38,1.38,0,0,1,1-.35,1.42,1.42,0,0,1,1,.35,1.36,1.36,0,0,1,.37,1V55.86a1.45,1.45,0,0,1-.35,1,1.38,1.38,0,0,1-1,.36,1.36,1.36,0,0,1-1-.36,1.45,1.45,0,0,1-.35-1V54.14l.24.66a3.27,3.27,0,0,1-1.34,1.83A4.21,4.21,0,0,1,339.89,57.31Zm.77-2.09a2.48,2.48,0,0,0,2.39-1.58,4.82,4.82,0,0,0,.34-1.94,3.93,3.93,0,0,0-.75-2.63,2.49,2.49,0,0,0-2-.87,2.7,2.7,0,0,0-1.43.38,2.49,2.49,0,0,0-1,1.17,4.83,4.83,0,0,0-.34,2,4,4,0,0,0,.74,2.63A2.47,2.47,0,0,0,340.66,55.22Z"/><path class="cls-23" d="M353.86,57.31a6,6,0,0,1-2.9-.68,4.87,4.87,0,0,1-1.92-2,6.24,6.24,0,0,1-.68-3,6.45,6.45,0,0,1,.39-2.32,4.72,4.72,0,0,1,1.11-1.76,4.81,4.81,0,0,1,1.74-1.13,6.45,6.45,0,0,1,2.26-.38,6,6,0,0,1,2.91.68,4.76,4.76,0,0,1,1.91,1.94,6,6,0,0,1,.68,3A6.82,6.82,0,0,1,359,54a5,5,0,0,1-1.11,1.77,4.83,4.83,0,0,1-1.74,1.12A6.29,6.29,0,0,1,353.86,57.31Zm0-2.09a2.48,2.48,0,0,0,2.39-1.58,4.82,4.82,0,0,0,.34-1.94,3.93,3.93,0,0,0-.75-2.63,2.49,2.49,0,0,0-2-.87,2.7,2.7,0,0,0-1.43.38,2.49,2.49,0,0,0-.95,1.17,4.83,4.83,0,0,0-.34,2,4,4,0,0,0,.74,2.63A2.47,2.47,0,0,0,353.86,55.22Z"/><path class="cls-23" d="M363,57.26a1.26,1.26,0,0,1-1.41-1.4V47.54a1.45,1.45,0,0,1,.35-1,1.37,1.37,0,0,1,1-.35,1.34,1.34,0,0,1,1,.35,1.41,1.41,0,0,1,.35,1v1.38h-.22a3.43,3.43,0,0,1,1.21-2,4.62,4.62,0,0,1,2.4-.81.89.89,0,0,1,.74.23,1.33,1.33,0,0,1,.32.85,1.16,1.16,0,0,1-.26.89,1.31,1.31,0,0,1-.89.41l-.48,0a3.16,3.16,0,0,0-2,.82,2.65,2.65,0,0,0-.69,1.95v4.56a1.41,1.41,0,0,1-.35,1A1.37,1.37,0,0,1,363,57.26Z"/></g><g class="cls-22"><path class="cls-23" d="M237.16,102.94a7.17,7.17,0,0,1-6.77-4.3,11.51,11.51,0,0,1-1-4.88,11.35,11.35,0,0,1,1-4.88,7.5,7.5,0,0,1,2.72-3.15,7.41,7.41,0,0,1,4-1.11A6.75,6.75,0,0,1,241,85.7a5.28,5.28,0,0,1,2.21,2.84h-.4V79.18a2.31,2.31,0,0,1,.58-1.69,2.22,2.22,0,0,1,1.66-.58,2.28,2.28,0,0,1,1.67.58,2.23,2.23,0,0,1,.59,1.69v21.38a2.35,2.35,0,0,1-.57,1.71,2.21,2.21,0,0,1-1.66.6,2.17,2.17,0,0,1-1.65-.6,2.32,2.32,0,0,1-.58-1.71V97.75l.4,1.09a5.29,5.29,0,0,1-2.2,3A6.74,6.74,0,0,1,237.16,102.94Zm1.26-3.42A4.06,4.06,0,0,0,242.33,97a8.07,8.07,0,0,0,.56-3.19,6.43,6.43,0,0,0-1.23-4.3A4,4,0,0,0,238.42,88a4.31,4.31,0,0,0-2.34.63,4.08,4.08,0,0,0-1.56,1.9,7.86,7.86,0,0,0-.56,3.19,6.56,6.56,0,0,0,1.22,4.3A4,4,0,0,0,238.42,99.52Z"/><path class="cls-23" d="M260.67,102.94a11,11,0,0,1-5.15-1.12,7.94,7.94,0,0,1-3.33-3.16,10.66,10.66,0,0,1,0-9.65,8.28,8.28,0,0,1,3.13-3.22,9.51,9.51,0,0,1,7.92-.56A6.91,6.91,0,0,1,265.76,87a7.71,7.71,0,0,1,1.62,2.79,11.17,11.17,0,0,1,.56,3.69,1.17,1.17,0,0,1-.45,1,2.05,2.05,0,0,1-1.28.34H254.66V92.21h10.11l-.57.54a6.83,6.83,0,0,0-.49-2.77,3.78,3.78,0,0,0-1.4-1.71,4.11,4.11,0,0,0-2.29-.6,4.54,4.54,0,0,0-2.57.71,4.32,4.32,0,0,0-1.62,2,7.57,7.57,0,0,0-.56,3v.25a6.16,6.16,0,0,0,1.39,4.41,5.37,5.37,0,0,0,4.08,1.46,11.29,11.29,0,0,0,2.11-.23,7.55,7.55,0,0,0,2.21-.82,2.35,2.35,0,0,1,1.33-.37,1.36,1.36,0,0,1,.92.41,1.58,1.58,0,0,1,.42.88,1.89,1.89,0,0,1-.2,1.07,2.4,2.4,0,0,1-.92.93,9.29,9.29,0,0,1-2.9,1.17A13.65,13.65,0,0,1,260.67,102.94Z"/><path class="cls-23" d="M289.33,102.94a8.72,8.72,0,0,1-3.91-.79,5.06,5.06,0,0,1-2.32-2.32,8.49,8.49,0,0,1-.76-3.8V88.36h-1.87a1.83,1.83,0,0,1-1.33-.45,1.9,1.9,0,0,1,0-2.5,1.87,1.87,0,0,1,1.33-.44h1.87V81.7a2.23,2.23,0,0,1,.6-1.69,2.26,2.26,0,0,1,1.67-.58,2.24,2.24,0,0,1,1.66.58,2.3,2.3,0,0,1,.57,1.69V85h3.82a1.89,1.89,0,0,1,1.33.44,1.9,1.9,0,0,1,0,2.5,1.85,1.85,0,0,1-1.33.45h-3.82v7.41a3.83,3.83,0,0,0,.76,2.6,3.11,3.11,0,0,0,2.45.86,4.49,4.49,0,0,0,1.08-.11A6.13,6.13,0,0,1,292,99a.86.86,0,0,1,.72.27,1.84,1.84,0,0,1,.29,1.24,3.4,3.4,0,0,1-.23,1.28,1.36,1.36,0,0,1-.85.77,8.5,8.5,0,0,1-1.22.27A7.71,7.71,0,0,1,289.33,102.94Z"/><path class="cls-23" d="M300.88,102.94a7.59,7.59,0,0,1-3.4-.74,5.82,5.82,0,0,1-2.34-2,5,5,0,0,1-.85-2.84,4.48,4.48,0,0,1,1-3.08,6,6,0,0,1,3.28-1.64,29.64,29.64,0,0,1,6.08-.5h1.8v2.59H304.7a22.54,22.54,0,0,0-3.57.22,3.72,3.72,0,0,0-1.89.73,1.92,1.92,0,0,0-.55,1.46,2.54,2.54,0,0,0,.82,2,3.31,3.31,0,0,0,2.31.75,4,4,0,0,0,2.1-.55,4.08,4.08,0,0,0,1.46-1.54,4.49,4.49,0,0,0,.54-2.23V91.38a3.55,3.55,0,0,0-.79-2.59,3.69,3.69,0,0,0-2.67-.79,11,11,0,0,0-2.25.25,11.89,11.89,0,0,0-2.53.87,1.82,1.82,0,0,1-1.21.18,1.37,1.37,0,0,1-.81-.6,1.82,1.82,0,0,1-.29-1,2.2,2.2,0,0,1,.29-1.06,1.7,1.7,0,0,1,1-.77,16.73,16.73,0,0,1,3.19-1,15.31,15.31,0,0,1,2.79-.28,9.91,9.91,0,0,1,4.26.79,5.21,5.21,0,0,1,2.51,2.39,9,9,0,0,1,.83,4.12v8.64a2.39,2.39,0,0,1-.55,1.71,2,2,0,0,1-1.54.6,2,2,0,0,1-1.57-.6,2.4,2.4,0,0,1-.56-1.71V98.84h.29a5,5,0,0,1-1,2.17,4.81,4.81,0,0,1-1.85,1.42A6.13,6.13,0,0,1,300.88,102.94Z"/><path class="cls-23" d="M317.08,102.87a2.08,2.08,0,0,1-2.3-2.31V87a2.33,2.33,0,0,1,.57-1.7,2.22,2.22,0,0,1,1.62-.57,2.19,2.19,0,0,1,1.62.57,2.29,2.29,0,0,1,.58,1.7v2.26h-.36a5.46,5.46,0,0,1,2-3.27,7.37,7.37,0,0,1,3.92-1.33,1.42,1.42,0,0,1,1.21.37,2.14,2.14,0,0,1,.52,1.39,1.92,1.92,0,0,1-.41,1.46,2.18,2.18,0,0,1-1.46.66l-.79.08a5.18,5.18,0,0,0-3.31,1.34,4.34,4.34,0,0,0-1.12,3.19v7.45a2.32,2.32,0,0,1-.58,1.71A2.22,2.22,0,0,1,317.08,102.87Z"/><path class="cls-23" d="M337.28,102.94a11,11,0,0,1-5.15-1.12,7.94,7.94,0,0,1-3.33-3.16,9.66,9.66,0,0,1-1.17-4.86A9.8,9.8,0,0,1,328.76,89a8.31,8.31,0,0,1,3.14-3.22,9.51,9.51,0,0,1,7.92-.56A7,7,0,0,1,342.37,87,7.71,7.71,0,0,1,344,89.78a11.44,11.44,0,0,1,.56,3.69,1.17,1.17,0,0,1-.45,1,2.07,2.07,0,0,1-1.28.34H331.27V92.21h10.11l-.57.54a7,7,0,0,0-.49-2.77,3.78,3.78,0,0,0-1.4-1.71,4.13,4.13,0,0,0-2.29-.6,4.51,4.51,0,0,0-2.57.71,4.32,4.32,0,0,0-1.62,2,7.4,7.4,0,0,0-.56,3v.25a6.2,6.2,0,0,0,1.38,4.41,5.4,5.4,0,0,0,4.09,1.46,11.38,11.38,0,0,0,2.11-.23,7.65,7.65,0,0,0,2.21-.82A2.33,2.33,0,0,1,343,98.1a1.36,1.36,0,0,1,.92.41,1.51,1.51,0,0,1,.41.88,1.8,1.8,0,0,1-.19,1.07,2.4,2.4,0,0,1-.92.93,9.29,9.29,0,0,1-2.9,1.17A13.72,13.72,0,0,1,337.28,102.94Z"/><path class="cls-23" d="M353.91,102.94a7.59,7.59,0,0,1-3.4-.74,5.82,5.82,0,0,1-2.34-2,4.92,4.92,0,0,1-.85-2.84,4.48,4.48,0,0,1,1-3.08,6,6,0,0,1,3.28-1.64,29.64,29.64,0,0,1,6.08-.5h1.8v2.59h-1.76a22.54,22.54,0,0,0-3.57.22,3.65,3.65,0,0,0-1.89.73,1.92,1.92,0,0,0-.56,1.46,2.55,2.55,0,0,0,.83,2,3.31,3.31,0,0,0,2.31.75,4,4,0,0,0,2.1-.55,4.16,4.16,0,0,0,1.46-1.54,4.49,4.49,0,0,0,.54-2.23V91.38a3.55,3.55,0,0,0-.79-2.59,3.69,3.69,0,0,0-2.67-.79,11,11,0,0,0-2.25.25,11.89,11.89,0,0,0-2.53.87,1.82,1.82,0,0,1-1.21.18,1.37,1.37,0,0,1-.81-.6,1.82,1.82,0,0,1-.29-1,2.2,2.2,0,0,1,.29-1.06,1.7,1.7,0,0,1,1-.77,16.52,16.52,0,0,1,3.19-1,15.31,15.31,0,0,1,2.79-.28,9.91,9.91,0,0,1,4.26.79,5.25,5.25,0,0,1,2.51,2.39,9,9,0,0,1,.82,4.12v8.64a2.44,2.44,0,0,1-.54,1.71,2,2,0,0,1-1.54.6,2,2,0,0,1-1.57-.6,2.4,2.4,0,0,1-.56-1.71V98.84h.29a5,5,0,0,1-1,2.17,4.81,4.81,0,0,1-1.85,1.42A6.13,6.13,0,0,1,353.91,102.94Z"/><path class="cls-23" d="M374.25,102.94a18.45,18.45,0,0,1-3.28-.32,9.71,9.71,0,0,1-3.09-1.12,2,2,0,0,1-.81-.85,1.69,1.69,0,0,1-.18-1,1.45,1.45,0,0,1,.36-.84,1.4,1.4,0,0,1,.79-.47,1.6,1.6,0,0,1,1.06.18,12.71,12.71,0,0,0,2.7,1,11.86,11.86,0,0,0,2.49.27,4.54,4.54,0,0,0,2.57-.59,1.85,1.85,0,0,0,.85-1.57,1.56,1.56,0,0,0-.56-1.28,3.77,3.77,0,0,0-1.68-.66l-3.6-.69a6.19,6.19,0,0,1-3.4-1.64,4.27,4.27,0,0,1-1.17-3.11,4.8,4.8,0,0,1,1-3,6,6,0,0,1,2.64-1.94,10.27,10.27,0,0,1,3.89-.68,12.22,12.22,0,0,1,3,.34A10.92,10.92,0,0,1,380.44,86a1.53,1.53,0,0,1,.74.75,1.59,1.59,0,0,1,.09,1,2,2,0,0,1-.43.86,1.4,1.4,0,0,1-.81.47,1.76,1.76,0,0,1-1.1-.2,9.53,9.53,0,0,0-2.14-.82,8.2,8.2,0,0,0-2-.26,4.52,4.52,0,0,0-2.61.61,1.9,1.9,0,0,0-.85,1.62,1.71,1.71,0,0,0,.5,1.26,2.83,2.83,0,0,0,1.55.69l3.6.68a6.86,6.86,0,0,1,3.55,1.59,4.09,4.09,0,0,1,1.2,3.09,4.82,4.82,0,0,1-2,4.13A9.14,9.14,0,0,1,374.25,102.94Z"/></g></g></g></svg>