<?xml version="1.0" encoding="utf-8"?>
<!-- Generator: Adobe Illustrator 25.4.1, SVG Export Plug-In . SVG Version: 6.00 Build 0)  -->
<svg version="1.1" xmlns="http://www.w3.org/2000/svg" xmlns:xlink="http://www.w3.org/1999/xlink" x="0px" y="0px"
	 viewBox="0 0 1680 1024" style="enable-background:new 0 0 1680 1024;" xml:space="preserve">
<style type="text/css">
	.st0{fill:url(#SVGID_1_);}
	.st1{filter:url(#Adobe_OpacityMaskFilter);}
	.st2{fill:url(#SVGID_00000000202925631047322990000008998930922468241301_);}
	.st3{mask:url(#Mascara_de_estrelas_00000032633692489325054000000013305516380395565721_);}
	.st4{fill:#FFFFFF;}
	.st5{fill:none;}
</style>
<g id="Fondo">
	
		<radialGradient id="SVGID_1_" cx="840.5" cy="510.617" r="844.6123" fx="841.4858" fy="380.3079" gradientTransform="matrix(8.613378e-14 -1 1.26 1.547917e-13 198.3166 1351.1171)" gradientUnits="userSpaceOnUse">
		<stop  offset="0.5493" style="stop-color:#282559"/>
		<stop  offset="0.8802" style="stop-color:#1B1B3C"/>
	</radialGradient>
	<rect x="-10.1" y="-14.8" class="st0" width="1703.5" height="1050.9"/>
</g>
<defs>
	<filter id="Adobe_OpacityMaskFilter" filterUnits="userSpaceOnUse" x="0" y="24.6" width="1680" height="980.8">
		<feColorMatrix  type="matrix" values="1 0 0 0 0  0 1 0 0 0  0 0 1 0 0  0 0 0 1 0"/>
	</filter>
</defs>
<mask maskUnits="userSpaceOnUse" x="0" y="24.6" width="1680" height="980.8" id="Mascara_de_estrelas_00000058559210772809450780000005924066941092631987_">
	<g class="st1">
		
			<radialGradient id="SVGID_00000091010489715324024520000007858786013002500234_" cx="840" cy="510.617" r="1003.6141" gradientTransform="matrix(0.8845 0 0 1 69.3203 0)" gradientUnits="userSpaceOnUse">
			<stop  offset="0" style="stop-color:#FFFFFF"/>
			<stop  offset="0.1424" style="stop-color:#E7E6EC"/>
			<stop  offset="0.4452" style="stop-color:#A8A7BC"/>
			<stop  offset="0.8807" style="stop-color:#44426F"/>
			<stop  offset="1" style="stop-color:#282559"/>
		</radialGradient>
		
			<ellipse style="fill:url(#SVGID_00000091010489715324024520000007858786013002500234_);" cx="812.3" cy="510.6" rx="887.7" ry="1003.6"/>
	</g>
</mask>
<g id="Mascara_de_estrelas" style="mask:url(#Mascara_de_estrelas_00000058559210772809450780000005924066941092631987_);">
	<g>
		<ellipse class="st4" cx="186.7" cy="292" rx="4.4" ry="5"/>
		<g>
			<g>
				<rect x="1459" y="534.4" class="st5" width="8.1" height="9.2"/>
				<ellipse class="st4" cx="1463" cy="539" rx="4" ry="4.6"/>
			</g>
			<g>
				<rect x="1398.5" y="594.3" class="st5" width="1.5" height="1.7"/>
				<ellipse class="st4" cx="1399.2" cy="595.2" rx="0.7" ry="0.8"/>
			</g>
			<g>
				<rect x="1299.4" y="577.8" class="st5" width="8" height="9"/>
				<ellipse class="st4" cx="1303.4" cy="582.3" rx="4" ry="4.5"/>
			</g>
			<g>
				<rect x="1403" y="686" class="st5" width="4.5" height="5"/>
				<ellipse class="st4" cx="1405.2" cy="688.5" rx="2.2" ry="2.5"/>
			</g>
			<g>
				<rect x="1379.6" y="602.8" class="st5" width="8.5" height="9.6"/>
				<ellipse class="st4" cx="1383.9" cy="607.6" rx="4.3" ry="4.8"/>
			</g>
			<g>
				<rect x="1408.2" y="540.2" class="st5" width="3.7" height="4.1"/>
				<ellipse class="st4" cx="1410" cy="542.3" rx="1.8" ry="2.1"/>
			</g>
			<g>
				<rect x="1451.1" y="406.7" class="st5" width="8.5" height="9.6"/>
				<ellipse class="st4" cx="1455.3" cy="411.5" rx="4.2" ry="4.8"/>
			</g>
			<g>
				<rect x="1427.9" y="227.8" class="st5" width="4.2" height="4.8"/>
				<ellipse class="st4" cx="1430" cy="230.2" rx="2.1" ry="2.4"/>
			</g>
			<g>
				<rect x="1233.7" y="148.6" class="st5" width="5.6" height="6.3"/>
				<ellipse class="st4" cx="1236.5" cy="151.7" rx="2.8" ry="3.1"/>
			</g>
			<g>
				<rect x="1160.8" y="198.5" class="st5" width="4.3" height="4.9"/>
				<ellipse class="st4" cx="1163" cy="201" rx="2.2" ry="2.4"/>
			</g>
			<g>
				<rect x="1264.9" y="302.7" class="st5" width="6.5" height="7.3"/>
				<ellipse class="st4" cx="1268.1" cy="306.4" rx="3.2" ry="3.7"/>
			</g>
			<g>
				<rect x="1441.1" y="340.8" class="st5" width="0.8" height="0.9"/>
				<ellipse class="st4" cx="1441.5" cy="341.2" rx="0.4" ry="0.5"/>
			</g>
			<g>
				<rect x="1355.1" y="422.6" class="st5" width="1.8" height="2"/>
				<ellipse class="st4" cx="1356" cy="423.6" rx="0.9" ry="1"/>
			</g>
			<g>
				<rect x="1283.9" y="470" class="st5" width="6" height="6.8"/>
				<ellipse class="st4" cx="1286.9" cy="473.4" rx="3" ry="3.4"/>
			</g>
			<g>
				<rect x="1210.4" y="461.5" class="st5" width="3.5" height="4"/>
				<ellipse class="st4" cx="1212.2" cy="463.5" rx="1.8" ry="2"/>
			</g>
			<g>
				<rect x="392.4" y="227.2" class="st5" width="4.7" height="5.4"/>
				<ellipse class="st4" cx="394.7" cy="229.9" rx="2.4" ry="2.7"/>
			</g>
			<g>
				<rect x="350.9" y="260.7" class="st5" width="4.3" height="4.9"/>
				<ellipse class="st4" cx="353" cy="263.1" rx="2.2" ry="2.5"/>
			</g>
			<g>
				<rect x="318.8" y="323.1" class="st5" width="5.3" height="6"/>
				<ellipse class="st4" cx="321.4" cy="326.1" rx="2.6" ry="3"/>
			</g>
			<g>
				<rect x="1007.5" y="947.2" class="st5" width="5.1" height="5.7"/>
				<ellipse class="st4" cx="1010.1" cy="950.1" rx="2.5" ry="2.9"/>
			</g>
			<g>
				<rect x="1129.5" y="975.4" class="st5" width="6.1" height="6.9"/>
				<ellipse class="st4" cx="1132.6" cy="978.8" rx="3.1" ry="3.5"/>
			</g>
			<g>
				<rect x="386.1" y="320.5" class="st5" width="2.8" height="3.2"/>
				<ellipse class="st4" cx="387.5" cy="322.1" rx="1.4" ry="1.6"/>
			</g>
			<g>
				<rect x="359.2" y="212.7" class="st5" width="8.2" height="9.2"/>
				<ellipse class="st4" cx="363.3" cy="217.4" rx="4.1" ry="4.6"/>
			</g>
			<g>
				<rect x="1194.4" y="483.8" class="st5" width="7.1" height="8"/>
				<ellipse class="st4" cx="1197.9" cy="487.7" rx="3.5" ry="4"/>
			</g>
			<g>
				<rect x="850.3" y="84" class="st5" width="8.3" height="9.4"/>
				<ellipse class="st4" cx="854.4" cy="88.6" rx="4.1" ry="4.7"/>
			</g>
			<g>
				<rect x="927.6" y="41.9" class="st5" width="3.9" height="4.4"/>
				<ellipse class="st4" cx="929.5" cy="44.1" rx="1.9" ry="2.2"/>
			</g>
			<g>
				<rect x="769.8" y="47.2" class="st5" width="6.1" height="6.9"/>
				<ellipse class="st4" cx="772.8" cy="50.6" rx="3" ry="3.4"/>
			</g>
			<g>
				<rect x="657.4" y="72.4" class="st5" width="1.9" height="2.2"/>
				<ellipse class="st4" cx="658.3" cy="73.5" rx="1" ry="1.1"/>
			</g>
			<g>
				<rect x="459.9" y="437.7" class="st5" width="8.3" height="9.4"/>
				<ellipse class="st4" cx="464" cy="442.4" rx="4.2" ry="4.7"/>
			</g>
			<g>
				<rect x="464" y="84.4" class="st5" width="7.5" height="8.4"/>
				<ellipse class="st4" cx="467.8" cy="88.6" rx="3.7" ry="4.2"/>
			</g>
			<g>
				<rect x="418.4" y="367.6" class="st5" width="3.4" height="3.9"/>
				<ellipse class="st4" cx="420.1" cy="369.6" rx="1.7" ry="1.9"/>
			</g>
			<g>
				<rect x="385.8" y="420.3" class="st5" width="1.4" height="1.6"/>
				<ellipse class="st4" cx="386.5" cy="421.1" rx="0.7" ry="0.8"/>
			</g>
			<g>
				<rect x="293.9" y="438.3" class="st5" width="7.2" height="8.1"/>
				<ellipse class="st4" cx="297.5" cy="442.4" rx="3.6" ry="4"/>
			</g>
			<g>
				<rect x="280.1" y="471.5" class="st5" width="1.4" height="1.6"/>
				<ellipse class="st4" cx="280.8" cy="472.3" rx="0.7" ry="0.8"/>
			</g>
			<g>
				<rect x="259.1" y="553.6" class="st5" width="2.6" height="2.9"/>
				<ellipse class="st4" cx="260.4" cy="555" rx="1.3" ry="1.4"/>
			</g>
			<g>
				<rect x="324.4" y="543" class="st5" width="4.7" height="5.3"/>
				<ellipse class="st4" cx="326.8" cy="545.7" rx="2.3" ry="2.6"/>
			</g>
			<g>
				<rect x="326.8" y="463.6" class="st5" width="0.6" height="0.6"/>
				<ellipse class="st4" cx="327.1" cy="464" rx="0.3" ry="0.3"/>
			</g>
			<g>
				<rect x="374.7" y="383.8" class="st5" width="6" height="6.8"/>
				<ellipse class="st4" cx="377.7" cy="387.2" rx="3" ry="3.4"/>
			</g>
			<g>
				<rect x="416" y="270.6" class="st5" width="0.6" height="0.6"/>
				<ellipse class="st4" cx="416.3" cy="270.9" rx="0.3" ry="0.3"/>
			</g>
			<g>
				<rect x="366.5" y="36.1" class="st5" width="7.1" height="8"/>
				<ellipse class="st4" cx="370" cy="40.1" rx="3.5" ry="4"/>
			</g>
			<g>
				<rect x="326.2" y="92.8" class="st5" width="0.6" height="0.7"/>
				<ellipse class="st4" cx="326.5" cy="93.2" rx="0.3" ry="0.3"/>
			</g>
			<g>
				<rect x="205.4" y="95.4" class="st5" width="1.6" height="1.8"/>
				<ellipse class="st4" cx="206.2" cy="96.2" rx="0.8" ry="0.9"/>
			</g>
			<g>
				<rect x="163.9" y="109.9" class="st5" width="4.7" height="5.3"/>
				<ellipse class="st4" cx="166.3" cy="112.5" rx="2.3" ry="2.6"/>
			</g>
			<g>
				<rect x="121" y="259.4" class="st5" width="8.5" height="9.7"/>
				<ellipse class="st4" cx="125.3" cy="264.2" rx="4.3" ry="4.8"/>
			</g>
			<g>
				<rect x="34.9" y="194.5" class="st5" width="5.7" height="6.5"/>
				<ellipse class="st4" cx="37.8" cy="197.8" rx="2.9" ry="3.2"/>
			</g>
			<g>
				<rect y="143" class="st5" width="2.4" height="2.7"/>
				<ellipse class="st4" cx="1.2" cy="144.3" rx="1.2" ry="1.4"/>
			</g>
			<g>
				<rect x="25" y="303.9" class="st5" width="4.3" height="4.9"/>
				<ellipse class="st4" cx="27.2" cy="306.4" rx="2.2" ry="2.4"/>
			</g>
			<g>
				<rect x="109.2" y="401.2" class="st5" width="2.3" height="2.6"/>
				<ellipse class="st4" cx="110.3" cy="402.5" rx="1.2" ry="1.3"/>
			</g>
			<g>
				<rect x="116.8" y="193.9" class="st5" width="4.2" height="4.8"/>
				<ellipse class="st4" cx="118.9" cy="196.3" rx="2.1" ry="2.4"/>
			</g>
			<g>
				<rect x="274.8" y="202.4" class="st5" width="2.8" height="3.1"/>
				<ellipse class="st4" cx="276.2" cy="204" rx="1.4" ry="1.6"/>
			</g>
		</g>
		<g>
			<g>
				<rect x="1537" y="191.5" class="st5" width="7.2" height="8.2"/>
				<ellipse class="st4" cx="1540.6" cy="195.6" rx="3.6" ry="4.1"/>
			</g>
			<g>
				<rect x="1581.1" y="142.8" class="st5" width="3.8" height="4.3"/>
				<ellipse class="st4" cx="1583" cy="144.9" rx="1.9" ry="2.1"/>
			</g>
			<g>
				<rect x="1520.1" y="152.9" class="st5" width="5.2" height="5.9"/>
				<ellipse class="st4" cx="1522.7" cy="155.9" rx="2.6" ry="2.9"/>
			</g>
			<g>
				<rect x="1463" y="141.4" class="st5" width="8.1" height="9.1"/>
				<ellipse class="st4" cx="1467" cy="145.9" rx="4" ry="4.6"/>
			</g>
			<g>
				<rect x="1393.1" y="110.1" class="st5" width="6.7" height="7.6"/>
				<ellipse class="st4" cx="1396.5" cy="113.8" rx="3.4" ry="3.8"/>
			</g>
			<g>
				<rect x="1276.2" y="50.6" class="st5" width="3.8" height="4.3"/>
				<ellipse class="st4" cx="1278.1" cy="52.8" rx="1.9" ry="2.2"/>
			</g>
			<g>
				<rect x="1145.9" y="24.6" class="st5" width="7.2" height="8.2"/>
				<ellipse class="st4" cx="1149.5" cy="28.7" rx="3.6" ry="4.1"/>
			</g>
			<g>
				<rect x="1206.7" y="104.2" class="st5" width="4.2" height="4.8"/>
				<ellipse class="st4" cx="1208.8" cy="106.6" rx="2.1" ry="2.4"/>
			</g>
			<g>
				<rect x="1205" y="852.3" class="st5" width="2.1" height="2.4"/>
				<ellipse class="st4" cx="1206.1" cy="853.5" rx="1.1" ry="1.2"/>
			</g>
			<g>
				<rect x="1212.3" y="917.5" class="st5" width="0.9" height="1.1"/>
				<ellipse class="st4" cx="1212.8" cy="918.1" rx="0.5" ry="0.5"/>
			</g>
			<g>
				<rect x="1242.1" y="964.5" class="st5" width="1.7" height="1.9"/>
				<ellipse class="st4" cx="1242.9" cy="965.4" rx="0.8" ry="0.9"/>
			</g>
			<g>
				<rect x="1552.3" y="253.5" class="st5" width="5.6" height="6.4"/>
				<ellipse class="st4" cx="1555.2" cy="256.7" rx="2.8" ry="3.2"/>
			</g>
			<g>
				<rect x="1594.2" y="355" class="st5" width="6.5" height="7.4"/>
				<ellipse class="st4" cx="1597.4" cy="358.7" rx="3.3" ry="3.7"/>
			</g>
			<g>
				<rect x="1671.5" y="377.9" class="st5" width="8.5" height="9.6"/>
				<ellipse class="st4" cx="1675.8" cy="382.7" rx="4.2" ry="4.8"/>
			</g>
			<g>
				<rect x="1243.8" y="562.4" class="st5" width="3.3" height="3.7"/>
				<ellipse class="st4" cx="1245.4" cy="564.2" rx="1.6" ry="1.8"/>
			</g>
			<g>
				<rect x="1231.6" y="653.9" class="st5" width="1.9" height="2.1"/>
				<ellipse class="st4" cx="1232.6" cy="655" rx="0.9" ry="1.1"/>
			</g>
			<g>
				<rect x="1305" y="740" class="st5" width="2.3" height="2.6"/>
				<ellipse class="st4" cx="1306.2" cy="741.3" rx="1.2" ry="1.3"/>
			</g>
			<g>
				<rect x="1382.3" y="834" class="st5" width="4.2" height="4.7"/>
				<ellipse class="st4" cx="1384.4" cy="836.3" rx="2.1" ry="2.4"/>
			</g>
			<g>
				<rect x="1410.5" y="945" class="st5" width="0.8" height="0.9"/>
				<ellipse class="st4" cx="1410.9" cy="945.4" rx="0.4" ry="0.4"/>
			</g>
			<g>
				<rect x="1374" y="962.6" class="st5" width="4.4" height="5"/>
				<ellipse class="st4" cx="1376.2" cy="965.1" rx="2.2" ry="2.5"/>
			</g>
			<g>
				<rect x="1427.8" y="964.7" class="st5" width="7.2" height="8.1"/>
				<ellipse class="st4" cx="1431.4" cy="968.8" rx="3.6" ry="4.1"/>
			</g>
			<g>
				<rect x="1427.2" y="897.9" class="st5" width="2.1" height="2.4"/>
				<ellipse class="st4" cx="1428.3" cy="899.1" rx="1.1" ry="1.2"/>
			</g>
			<g>
				<rect x="1399.4" y="843.3" class="st5" width="7.6" height="8.6"/>
				<ellipse class="st4" cx="1403.2" cy="847.6" rx="3.8" ry="4.3"/>
			</g>
			<g>
				<rect x="1273.2" y="813.5" class="st5" width="7" height="7.9"/>
				<ellipse class="st4" cx="1276.7" cy="817.5" rx="3.5" ry="4"/>
			</g>
			<g>
				<rect x="1186.5" y="739.9" class="st5" width="7.9" height="9"/>
				<ellipse class="st4" cx="1190.4" cy="744.4" rx="4" ry="4.5"/>
			</g>
			<g>
				<rect x="555.7" y="1001.6" class="st5" width="3.4" height="3.9"/>
				<ellipse class="st4" cx="557.4" cy="1003.5" rx="1.7" ry="1.9"/>
			</g>
			<g>
				<rect x="502.1" y="979" class="st5" width="3.8" height="4.3"/>
				<ellipse class="st4" cx="504" cy="981.1" rx="1.9" ry="2.1"/>
			</g>
			<g>
				<rect x="432.2" y="850.5" class="st5" width="5.9" height="6.7"/>
				<ellipse class="st4" cx="435.2" cy="853.9" rx="2.9" ry="3.3"/>
			</g>
			<g>
				<rect x="1027.9" y="74.3" class="st5" width="0.6" height="0.6"/>
				<ellipse class="st4" cx="1028.2" cy="74.6" rx="0.3" ry="0.3"/>
			</g>
			<g>
				<rect x="1370.7" y="349.8" class="st5" width="6.5" height="7.3"/>
				<ellipse class="st4" cx="1373.9" cy="353.4" rx="3.2" ry="3.6"/>
			</g>
			<g>
				<rect x="250.2" y="838.8" class="st5" width="6.7" height="7.6"/>
				<ellipse class="st4" cx="253.5" cy="842.6" rx="3.4" ry="3.8"/>
			</g>
			<g>
				<rect x="177.8" y="787.8" class="st5" width="4.7" height="5.4"/>
				<ellipse class="st4" cx="180.2" cy="790.4" rx="2.4" ry="2.7"/>
			</g>
			<g>
				<rect x="107.7" y="717.7" class="st5" width="0.9" height="1"/>
				<ellipse class="st4" cx="108.1" cy="718.2" rx="0.4" ry="0.5"/>
			</g>
			<g>
				<rect x="587.9" y="53.8" class="st5" width="2.1" height="2.3"/>
				<ellipse class="st4" cx="588.9" cy="54.9" rx="1" ry="1.2"/>
			</g>
			<g>
				<rect x="440.6" y="119" class="st5" width="1.9" height="2.2"/>
				<ellipse class="st4" cx="425.2" cy="196" rx="1" ry="1.1"/>
			</g>
			<g>
				<rect x="329.8" y="113.9" class="st5" width="8" height="9"/>
				<ellipse class="st4" cx="333.8" cy="118.4" rx="4" ry="4.5"/>
			</g>
			<g>
				<rect x="268.4" y="221.7" class="st5" width="0.6" height="0.6"/>
				<ellipse class="st4" cx="268.7" cy="222" rx="0.3" ry="0.3"/>
			</g>
			<g>
				<rect x="250.4" y="396.6" class="st5" width="8.3" height="9.3"/>
				<ellipse class="st4" cx="254.6" cy="401.2" rx="4.1" ry="4.7"/>
			</g>
			<g>
				<rect x="307.9" y="539" class="st5" width="3" height="3.4"/>
				<ellipse class="st4" cx="309.4" cy="540.7" rx="1.5" ry="1.7"/>
			</g>
			<g>
				<rect x="385.7" y="640" class="st5" width="6.3" height="7.2"/>
				<ellipse class="st4" cx="388.9" cy="643.5" rx="3.2" ry="3.6"/>
			</g>
			<g>
				<rect x="428.9" y="747.5" class="st5" width="0.5" height="0.6"/>
				<ellipse class="st4" cx="429.2" cy="747.8" rx="0.3" ry="0.3"/>
			</g>
			<g>
				<rect x="1218.8" y="291.2" class="st5" width="2.7" height="3.1"/>
				<ellipse class="st4" cx="1220.2" cy="292.8" rx="1.4" ry="1.5"/>
			</g>
			<g>
				<rect x="1269" y="361.5" class="st5" width="5" height="5.6"/>
				<ellipse class="st4" cx="1271.4" cy="364.3" rx="2.5" ry="2.8"/>
			</g>
			<g>
				<rect x="1312.8" y="392.1" class="st5" width="2.9" height="3.3"/>
				<ellipse class="st4" cx="1314.3" cy="393.8" rx="1.5" ry="1.7"/>
			</g>
			<g>
				<rect x="440.2" y="954.9" class="st5" width="1.3" height="1.5"/>
				<ellipse class="st4" cx="440.9" cy="955.7" rx="0.7" ry="0.8"/>
			</g>
			<g>
				<rect x="850.2" y="924.7" class="st5" width="2.9" height="3.3"/>
				<ellipse class="st4" cx="851.6" cy="926.4" rx="1.4" ry="1.6"/>
			</g>
			<g>
				<rect x="1439.1" y="370.6" class="st5" width="6.6" height="7.5"/>
				<ellipse class="st4" cx="1442.4" cy="374.3" rx="3.3" ry="3.8"/>
			</g>
			<g>
				<rect x="1380" y="316.7" class="st5" width="8" height="9.1"/>
				<ellipse class="st4" cx="1384" cy="321.3" rx="4" ry="4.5"/>
			</g>
			<g>
				<rect x="390.5" y="852.7" class="st5" width="3.1" height="3.5"/>
				<ellipse class="st4" cx="392.1" cy="854.4" rx="1.5" ry="1.7"/>
			</g>
			<g>
				<rect x="1237.8" y="212.4" class="st5" width="4.6" height="5.2"/>
				<ellipse class="st4" cx="1240.1" cy="215" rx="2.3" ry="2.6"/>
			</g>
			<g>
				<rect x="415.5" y="699" class="st5" width="6.3" height="7.1"/>
				<ellipse class="st4" cx="418.6" cy="702.6" rx="3.1" ry="3.5"/>
			</g>
			<g>
				<rect x="314.6" y="713" class="st5" width="5.7" height="6.5"/>
				<ellipse class="st4" cx="317.4" cy="716.3" rx="2.9" ry="3.2"/>
			</g>
			<g>
				<rect x="269" y="562.1" class="st5" width="3.8" height="4.2"/>
				<ellipse class="st4" cx="270.8" cy="564.2" rx="1.9" ry="2.1"/>
			</g>
			<g>
				<rect x="108.5" y="521.2" class="st5" width="1.9" height="2.1"/>
				<ellipse class="st4" cx="109.4" cy="522.2" rx="0.9" ry="1.1"/>
			</g>
			<g>
				<rect x="37.6" y="472.7" class="st5" width="2.2" height="2.4"/>
				<ellipse class="st4" cx="38.7" cy="474" rx="1.1" ry="1.2"/>
			</g>
			<g>
				<rect x="35.1" y="716.3" class="st5" width="3.6" height="4"/>
				<ellipse class="st4" cx="36.9" cy="718.3" rx="1.8" ry="2"/>
			</g>
			<g>
				<rect x="268.3" y="912.9" class="st5" width="1.4" height="1.6"/>
				<ellipse class="st4" cx="269" cy="913.7" rx="0.7" ry="0.8"/>
			</g>
		</g>
		<g>
			<g>
				<rect x="723.2" y="969" class="st5" width="6.8" height="7.7"/>
				<ellipse class="st4" cx="726.6" cy="972.9" rx="3.4" ry="3.9"/>
			</g>
			<g>
				<rect x="1185.3" y="912.3" class="st5" width="2.4" height="2.7"/>
				<ellipse class="st4" cx="1186.5" cy="913.7" rx="1.2" ry="1.4"/>
			</g>
			<g>
				<rect x="947.7" y="968.2" class="st5" width="7.8" height="8.8"/>
				<ellipse class="st4" cx="951.6" cy="972.7" rx="3.9" ry="4.4"/>
			</g>
			<g>
				<rect x="291.6" y="934.6" class="st5" width="4.6" height="5.2"/>
				<ellipse class="st4" cx="293.9" cy="937.2" rx="2.3" ry="2.6"/>
			</g>
			<g>
				<rect x="674.8" y="947.1" class="st5" width="1.2" height="1.4"/>
				<ellipse class="st4" cx="675.4" cy="947.8" rx="0.6" ry="0.7"/>
			</g>
			<g>
				<rect x="595.4" y="952.6" class="st5" width="5.5" height="6.2"/>
				<ellipse class="st4" cx="598.2" cy="955.7" rx="2.7" ry="3.1"/>
			</g>
			<g>
				<rect x="477.1" y="814" class="st5" width="7.7" height="8.7"/>
				<ellipse class="st4" cx="480.9" cy="818.4" rx="3.8" ry="4.3"/>
			</g>
			<g>
				<rect x="397.6" y="738.2" class="st5" width="7.9" height="9"/>
				<ellipse class="st4" cx="401.5" cy="742.7" rx="4" ry="4.5"/>
			</g>
			<g>
				<rect x="276.2" y="790.8" class="st5" width="3.8" height="4.3"/>
				<ellipse class="st4" cx="278.1" cy="792.9" rx="1.9" ry="2.2"/>
			</g>
			<g>
				<rect x="198.8" y="714.5" class="st5" width="7.8" height="8.8"/>
				<ellipse class="st4" cx="202.6" cy="718.9" rx="3.9" ry="4.4"/>
			</g>
			<g>
				<rect x="193.6" y="616.8" class="st5" width="7.5" height="8.5"/>
				<ellipse class="st4" cx="197.3" cy="621" rx="3.7" ry="4.2"/>
			</g>
			<g>
				<rect x="91.5" y="629.5" class="st5" width="2" height="2.3"/>
				<ellipse class="st4" cx="92.6" cy="630.7" rx="1" ry="1.2"/>
			</g>
		</g>
	</g>
</g>
<g id="Hojas">
	
		<image style="overflow:visible;" width="2212" height="1978" xlink:href="../../../../../Downloads/drive-download-20220329T015923Z-001/Hojas1.png"  transform="matrix(0.1696 0 0 0.1696 -9.7633 702.5606)">
	</image>
	
		<image style="overflow:visible;" width="5045" height="5708" xlink:href="../../../../../Downloads/drive-download-20220329T015923Z-001/Hojas3.png"  transform="matrix(9.385326e-02 0 0 9.385326e-02 1218.5465 497.9093)">
	</image>
</g>
<g id="Texto">
</g>
</svg>
