<svg xmlns="http://www.w3.org/2000/svg" xmlns:xlink="http://www.w3.org/1999/xlink" viewBox="0 0 576.69 391.17"><defs><style>.cls-1{fill:#1b1b3f;opacity:0.45;}.cls-10,.cls-11,.cls-2,.cls-3,.cls-4,.cls-5,.cls-6,.cls-7,.cls-8,.cls-9{opacity:0.6;}.cls-2{fill:url(#Degradado_sin_nombre_74);}.cls-3{fill:url(#Degradado_sin_nombre_77);}.cls-4{fill:url(#Degradado_sin_nombre_89);}.cls-5{fill:url(#Degradado_sin_nombre_85);}.cls-6{fill:url(#Degradado_sin_nombre_98);}.cls-7{fill:url(#Degradado_sin_nombre_100);}.cls-8{fill:url(#Degradado_sin_nombre_105);}.cls-9{fill:url(#Degradado_sin_nombre_108);}.cls-10{fill:url(#Degradado_sin_nombre_103);}.cls-11{fill:url(#Degradado_sin_nombre_104);}.cls-12{fill:url(#Degradado_sin_nombre_39);}.cls-13{fill:url(#Degradado_sin_nombre_39-2);}.cls-14{fill:url(#Degradado_sin_nombre_39-3);}.cls-15{fill:url(#Degradado_sin_nombre_39-4);}.cls-16{fill:url(#Degradado_sin_nombre_39-5);}.cls-17{fill:url(#Degradado_sin_nombre_38);}.cls-18{fill:url(#Degradado_sin_nombre_38-2);}.cls-19{fill:url(#Degradado_sin_nombre_38-3);}.cls-20{fill:url(#Degradado_sin_nombre_38-4);}.cls-21{fill:url(#Degradado_sin_nombre_38-5);}.cls-22{fill:url(#Degradado_sin_nombre_38-6);}.cls-23{fill:url(#Degradado_sin_nombre_38-7);}.cls-24{fill:url(#Degradado_sin_nombre_38-8);}.cls-25{fill:url(#Degradado_sin_nombre_38-9);}.cls-26{fill:url(#Degradado_sin_nombre_38-10);}.cls-27{fill:url(#Degradado_sin_nombre_38-11);}</style><linearGradient id="Degradado_sin_nombre_74" x1="87.82" y1="132.25" x2="63.81" y2="157.88" gradientUnits="userSpaceOnUse"><stop offset="0" stop-color="#fd9a83"/><stop offset="0.04" stop-color="#f59581"/><stop offset="0.51" stop-color="#885a6c"/><stop offset="0.85" stop-color="#43345e"/><stop offset="1" stop-color="#282559"/></linearGradient><linearGradient id="Degradado_sin_nombre_77" x1="99.84" y1="104.44" x2="165.96" y2="35.63" gradientUnits="userSpaceOnUse"><stop offset="0" stop-color="#1483bc"/><stop offset="0.11" stop-color="#1776ae"/><stop offset="0.51" stop-color="#204a80"/><stop offset="0.82" stop-color="#262f64"/><stop offset="1" stop-color="#282559"/></linearGradient><linearGradient id="Degradado_sin_nombre_89" x1="104.52" y1="262.34" x2="69.08" y2="276.35" gradientUnits="userSpaceOnUse"><stop offset="0" stop-color="#00cece"/><stop offset="1" stop-color="#282559"/></linearGradient><linearGradient id="Degradado_sin_nombre_85" x1="127.91" y1="272.15" x2="170.3" y2="322.99" gradientUnits="userSpaceOnUse"><stop offset="0" stop-color="#ff6679"/><stop offset="1" stop-color="#282559"/></linearGradient><linearGradient id="Degradado_sin_nombre_98" x1="290.73" y1="177.46" x2="290.73" y2="251.1" gradientUnits="userSpaceOnUse"><stop offset="0" stop-color="#f8bdc3"/><stop offset="0.11" stop-color="#f2b9c0"/><stop offset="0.25" stop-color="#e2adb8"/><stop offset="0.41" stop-color="#c799aa"/><stop offset="0.58" stop-color="#a17e97"/><stop offset="0.77" stop-color="#715a7e"/><stop offset="0.96" stop-color="#373061"/><stop offset="1" stop-color="#282559"/></linearGradient><linearGradient id="Degradado_sin_nombre_100" x1="302.84" y1="172.84" x2="302.84" y2="137.53" gradientUnits="userSpaceOnUse"><stop offset="0" stop-color="#4dffba"/><stop offset="0.11" stop-color="#4cf9b7"/><stop offset="0.24" stop-color="#49e9b0"/><stop offset="0.4" stop-color="#45cea4"/><stop offset="0.56" stop-color="#3ea893"/><stop offset="0.74" stop-color="#36787e"/><stop offset="0.93" stop-color="#2c3e64"/><stop offset="1" stop-color="#282559"/></linearGradient><linearGradient id="Degradado_sin_nombre_105" x1="433.36" y1="103.01" x2="371.13" y2="141.45" gradientUnits="userSpaceOnUse"><stop offset="0" stop-color="#0cc4d9"/><stop offset="0.13" stop-color="#0dbed4"/><stop offset="0.29" stop-color="#10aec7"/><stop offset="0.48" stop-color="#1593b2"/><stop offset="0.69" stop-color="#1b6d93"/><stop offset="0.9" stop-color="#243e6d"/><stop offset="1" stop-color="#282559"/></linearGradient><linearGradient id="Degradado_sin_nombre_108" x1="450.04" y1="103.86" x2="494.55" y2="76.58" gradientUnits="userSpaceOnUse"><stop offset="0" stop-color="#4cd988"/><stop offset="0.12" stop-color="#4bd386"/><stop offset="0.27" stop-color="#48c382"/><stop offset="0.45" stop-color="#42a87b"/><stop offset="0.64" stop-color="#3b8271"/><stop offset="0.83" stop-color="#315365"/><stop offset="1" stop-color="#282559"/></linearGradient><linearGradient id="Degradado_sin_nombre_103" x1="416.19" y1="268.01" x2="457.74" y2="331.28" gradientUnits="userSpaceOnUse"><stop offset="0" stop-color="#c380cf"/><stop offset="0.13" stop-color="#bd7dcb"/><stop offset="0.3" stop-color="#ad73be"/><stop offset="0.49" stop-color="#9263aa"/><stop offset="0.7" stop-color="#6c4d8d"/><stop offset="0.92" stop-color="#3d3169"/><stop offset="1" stop-color="#282559"/></linearGradient><linearGradient id="Degradado_sin_nombre_104" x1="427.56" y1="268.46" x2="418.22" y2="229.95" gradientUnits="userSpaceOnUse"><stop offset="0" stop-color="#fccf6b"/><stop offset="0.11" stop-color="#f6ca6b"/><stop offset="0.25" stop-color="#e6bd69"/><stop offset="0.4" stop-color="#cba867"/><stop offset="0.57" stop-color="#a58964"/><stop offset="0.76" stop-color="#756360"/><stop offset="0.94" stop-color="#3b345b"/><stop offset="1" stop-color="#282559"/></linearGradient><linearGradient id="Degradado_sin_nombre_39" x1="97.68" y1="246.77" x2="145.74" y2="330.02" gradientUnits="userSpaceOnUse"><stop offset="0" stop-color="#9a99e8"/><stop offset="0.5" stop-color="#fbf0d4"/><stop offset="0.55" stop-color="#f4efd4"/><stop offset="0.61" stop-color="#e2ebd5"/><stop offset="0.69" stop-color="#c3e6d5"/><stop offset="0.78" stop-color="#98ded6"/><stop offset="0.87" stop-color="#61d4d7"/><stop offset="0.97" stop-color="#1fc8d9"/><stop offset="1" stop-color="#0cc4d9"/></linearGradient><linearGradient id="Degradado_sin_nombre_39-2" x1="97.12" y1="243.44" x2="117.76" y2="279.2" xlink:href="#Degradado_sin_nombre_39"/><linearGradient id="Degradado_sin_nombre_39-3" x1="115.7" y1="241.31" x2="135.83" y2="276.19" xlink:href="#Degradado_sin_nombre_39"/><linearGradient id="Degradado_sin_nombre_39-4" x1="132.09" y1="244" x2="153.69" y2="281.42" xlink:href="#Degradado_sin_nombre_39"/><linearGradient id="Degradado_sin_nombre_39-5" x1="146.39" y1="221.46" x2="164.19" y2="252.28" xlink:href="#Degradado_sin_nombre_39"/><linearGradient id="Degradado_sin_nombre_38" x1="406.59" y1="145.49" x2="459.46" y2="53.9" gradientUnits="userSpaceOnUse"><stop offset="0" stop-color="#9a99e8"/><stop offset="0.5" stop-color="#fbf0d4"/><stop offset="1" stop-color="#0cc4d9"/></linearGradient><linearGradient id="Degradado_sin_nombre_38-2" x1="420.11" y1="128.24" x2="446.41" y2="82.69" xlink:href="#Degradado_sin_nombre_38"/><linearGradient id="Degradado_sin_nombre_38-3" x1="450.23" y1="170.31" x2="480.36" y2="118.13" xlink:href="#Degradado_sin_nombre_38"/><linearGradient id="Degradado_sin_nombre_38-4" x1="341.07" y1="153.09" x2="221.21" y2="222.29" xlink:href="#Degradado_sin_nombre_38"/><linearGradient id="Degradado_sin_nombre_38-5" x1="324.1" y1="162.99" x2="238.07" y2="212.66" xlink:href="#Degradado_sin_nombre_38"/><linearGradient id="Degradado_sin_nombre_38-6" x1="368.94" y1="211.55" x2="303.76" y2="249.18" xlink:href="#Degradado_sin_nombre_38"/><linearGradient id="Degradado_sin_nombre_38-7" x1="386.2" y1="279.23" x2="483.08" y2="279.23" xlink:href="#Degradado_sin_nombre_38"/><linearGradient id="Degradado_sin_nombre_38-8" x1="438.06" y1="335.51" x2="468.49" y2="335.51" xlink:href="#Degradado_sin_nombre_38"/><linearGradient id="Degradado_sin_nombre_38-9" x1="116.01" y1="53.92" x2="116.01" y2="164.98" xlink:href="#Degradado_sin_nombre_38"/><linearGradient id="Degradado_sin_nombre_38-10" x1="107.14" y1="74.95" x2="107.14" y2="129.04" xlink:href="#Degradado_sin_nombre_38"/><linearGradient id="Degradado_sin_nombre_38-11" x1="154.8" y1="92.99" x2="154.8" y2="147.56" xlink:href="#Degradado_sin_nombre_38"/></defs><g id="Capa_2" data-name="Capa 2"><g id="Iconos"><rect class="cls-1" width="576.69" height="391.17" rx="39.76"/><path class="cls-2" d="M86.87,112a32,32,0,0,0,3.59,5.84c1.35,1.92,3.43,4.73,6.21,8,1.72,2,3.19,3.54,3.89,4.26s1.3,1.33,1.75,1.78l.69.92a22.77,22.77,0,0,1,2.47,17.79,21.8,21.8,0,0,1-10.27,12.9c-7,3.76-13.83,2.11-16.14,1.55a22.36,22.36,0,0,1-9.25-4.41c-8.92-7.39-8.53-20.37-8.35-26.32a40.13,40.13,0,0,1,1.59-10.48c.91-3,4.38-14.29,13.19-17.09.76-.24,5.46-1.74,8.09.5C85.43,108.11,85.47,109.05,86.87,112Z"/><path class="cls-3" d="M100.49,107.26a36.41,36.41,0,0,0-4.42-5.73,36,36,0,0,0-11-7.84,23.25,23.25,0,0,1-10.9-9.16C67.21,73,74.28,58.9,76.07,55.32a35,35,0,0,1,8.87-11.74c16.2-13.53,41.24-5.12,44.95-3.88,5.88,2,24.91,8.37,33.14,27.93,5.7,13.55,3.14,26.1,1.9,30.87a60.38,60.38,0,0,1-9,22.63c-6.78,10.25-20.83,24.37-33,21.89a17.05,17.05,0,0,1-5.17-2c-2.83-1.79-4.78-4.41-9.78-16.23-.84-2-2-4.75-3.28-8.08A36.87,36.87,0,0,0,100.49,107.26Z"/><path class="cls-4" d="M75.85,264.29c.38-1.83,2.44-11.93,11.55-16.3A18.67,18.67,0,0,1,98,246.25a17.86,17.86,0,0,1,7.64,2.93c6.48,4.49,7.48,11.92,7.64,13.23a20.35,20.35,0,0,1-1.62,10.31C111,274.32,107,284.21,98,285.78a15.39,15.39,0,0,1-7.67-.72,29.7,29.7,0,0,1-11.49-7.37,13.09,13.09,0,0,1-2.16-2.88C74.57,270.85,75.36,266.71,75.85,264.29Z"/><path class="cls-5" d="M111,308.64s.17-50.82,26.25-64.44a27.19,27.19,0,0,1,11.35-2.27c11.69.26,19,8.25,20.2,9.58,5,5.63,6.14,11.66,7.4,18.84.66,3.79,4.58,28.43-9.56,51.91-4.16,6.92-7.56,9.87-9.34,11.26-1.94,1.51-13,10.18-25.54,6.51a25.83,25.83,0,0,1-12.07-8.18C111.62,323,111,312.24,111,308.64Z"/><path class="cls-6" d="M356.11,228.36a126.19,126.19,0,0,1-43.49,19.57c-39.88,9.28-77.31-3.36-89.83-17.8a32.81,32.81,0,0,1-5.51-9.16c-5.35-14.32,2.66-27.89,3.3-28.93,1-1.7,8.72-14.28,20.09-14.57a19.35,19.35,0,0,1,10.25,3.05c18,10,56.44,18.57,74.85,7.31,2.41-1.47,7.69-5.29,14.46-4.56,1.24.13,4.61.63,9.68,4.12,2.81,1.93,16.88,11.59,16.08,24.43C365.82,214.47,366,221.49,356.11,228.36Z"/><path class="cls-7" d="M350.18,168.58c-6.38,3.08-36.57,4.14-40.26,4.26-6.11-.34-52.33-3.16-55.19-15.33a12.64,12.64,0,0,1,.05-5.48c1.87-7.06,10.54-10.19,15-11.8,5.86-2.11,12.33-3.07,20.6-2.57,17.51,1.05,30.18,7.87,39.86,13.2,7.74,4.27,22.29,13.32,20.91,16.81A1.89,1.89,0,0,1,350.18,168.58Z"/><path class="cls-8" d="M482.79,152.12s-47.62,34.77-105.2-17.93a63.81,63.81,0,0,1-14.86-23.73C361.17,105.94,352.39,80.59,366,66a28.93,28.93,0,0,1,13.4-7.89c6.62-1.44,23.43-4.06,37.81,5.23a52.21,52.21,0,0,1,12.46,11.9c6.38,7.93,9.6,15.71,14.12,26.85,4.2,10.35,3.6,11,5.56,15.12,3.73,7.9,11.65,17.9,30.32,26.08C479.69,143.27,489.65,145.26,482.79,152.12Z"/><path class="cls-9" d="M445.35,62.88a13,13,0,0,0-5,8.74,12.08,12.08,0,0,0,2.74,8.09S455.79,99.13,457.09,112l1.47,6.23c1.59,3.8,5.51,11.7,12.26,13,11,2.17,24.52-14,25.69-29.46,1.61-21.15-20.55-34-23.41-35.58C472,65.65,454.3,55.93,445.35,62.88Z"/><path class="cls-10" d="M415.08,267.12c14.27-9.61,30.34-5,31.15-4.74,12.73,3.89,19,13.74,22.16,18.69,2.41,3.78,5.43,8.52,6.25,15.49,1.8,15.28-8.74,26.34-10.07,27.7A36.94,36.94,0,0,1,452,332.48c-3.91,1.67-17.23,7.35-30.56,1.24a31.87,31.87,0,0,1-11.69-9.28c-1.81-2.45-13.16-18.21-10.07-34.07a41,41,0,0,1,3.17-9.32A37.65,37.65,0,0,1,415.08,267.12Z"/><path class="cls-11" d="M397,262.85a6.92,6.92,0,0,0,2.49,2.4c2,1.26,4.89,1.93,9.78.73,7.36-1.81,7.94-5.06,13.48-7,9.87-3.47,23.89,1.29,29.08-.75a3.13,3.13,0,0,0,1.86-1.56c.63-1.54-.78-3.43-1.27-4-4.62-4.2-25.11-22.21-37.93-15.82a13.18,13.18,0,0,0-1.86,1.15,41.14,41.14,0,0,0-5.53,4.33C401.54,247.47,394,257.46,397,262.85Z"/><path class="cls-12" d="M171.14,290.16a11.05,11.05,0,0,0-4.93-4.89c-5.13-2.48-11.22-.14-14.7,3.11a11,11,0,0,0-2.42,3.25,6.33,6.33,0,0,1-1.32,1.85,12.81,12.81,0,0,1-7,3.23l-.33.07c-6,1.24-12.81,4.4-20.3,9.4-.08.05-.16.08-.23.13a2.86,2.86,0,0,0,3.2,4.74h0c7-4.66,13.18-7.58,18.48-8.68l.3-.06a18.47,18.47,0,0,0,9.87-4.8,11.83,11.83,0,0,0,2.31-3.22,5.52,5.52,0,0,1,1.28-1.74c2.11-2,5.74-3.39,8.32-2.14a5.47,5.47,0,0,1,2.3,2.3c1.36,2.73.15,6.85-3.6,12.23a24.39,24.39,0,0,1-5.82,5.88c-.46.36-.88.68-1.29,1a17,17,0,0,0-4.54,4.51c-.2.31-.39.62-.59.95a25.05,25.05,0,0,1-1.4,2.12,26.2,26.2,0,0,1-2.18,2.61l-3.8,3.12a26.81,26.81,0,0,1-4.05,2.05,40.25,40.25,0,0,1-29.44.08c-5-2.4-13.95-8.07-17-19a29.13,29.13,0,0,1,0-15.31l.08-.45c.73-6.89-2.52-24.37-2.67-25.13a11.58,11.58,0,0,1,4.36-11.89h0l.24-.13a2.87,2.87,0,0,0-3.25-4.72l-.09.08h0a17.18,17.18,0,0,0-6.84,17.74c.89,4.75,3.07,18.06,2.62,23.26a34.47,34.47,0,0,0,0,18.09c3.67,13.14,14.14,19.82,20.06,22.64a42.18,42.18,0,0,0,16.94,3.32,46.64,46.64,0,0,0,17-3.23,31.85,31.85,0,0,0,5.21-2.67l4.31-3.51.25-.23a31.61,31.61,0,0,0,2.78-3.31,29.63,29.63,0,0,0,1.68-2.54l.48-.77a11.59,11.59,0,0,1,3.19-3.08c.45-.33.92-.68,1.31-1a29.7,29.7,0,0,0,7.07-7.17C169,305.5,174.69,297.3,171.14,290.16Z"/><path class="cls-13" d="M99.92,260a35.37,35.37,0,0,1,1,12.09c-.22,1.33-1.26,8.53,1.33,12.63h0A2.85,2.85,0,0,0,107.6,283a2.79,2.79,0,0,0-.56-1.29h0c-1.1-1.73-1-6.15-.51-8.73l0-.25a41.16,41.16,0,0,0-1.14-14.17c-.09-.35-.19-.69-.29-1a18,18,0,0,1-.93-5.76,10,10,0,0,1,1.23-5.57,8.88,8.88,0,0,1,5.42-3.48h0A2.86,2.86,0,0,0,110,237l-.14,0h0a14.43,14.43,0,0,0-9.23,6,15.35,15.35,0,0,0-2.15,8.58A23.87,23.87,0,0,0,99.65,259C99.74,259.35,99.84,259.67,99.92,260Z"/><path class="cls-14" d="M118.06,255.08a23,23,0,0,1-.09,6.17c-.12,1.08-.24,2.26-.33,3.71a67.63,67.63,0,0,0,1.08,16.4,1.34,1.34,0,0,0,0,.2,2.86,2.86,0,0,0,5.66-.87s0,0,0,0h0a63,63,0,0,1-1-15.33c.09-1.36.21-2.45.31-3.45a28.61,28.61,0,0,0,.09-7.48c-.06-.5-.13-1-.2-1.48a17.31,17.31,0,0,1-.21-5.11,9.88,9.88,0,0,1,1.12-4.19c1.57-2.5,5-3.14,6.31-3.29a2.64,2.64,0,0,0,.28,0,2.85,2.85,0,0,0-.62-5.67v0c-2.27.22-7.85,1.26-10.81,6a15.11,15.11,0,0,0-1.95,6.55,23.22,23.22,0,0,0,.23,6.61C117.94,254.18,118,254.62,118.06,255.08Z"/><path class="cls-15" d="M133.66,280a1.64,1.64,0,0,0,0,.23,2.85,2.85,0,0,0,5.67-.63h0c-1.51-16.38-.05-35.08,4.48-35.71l-.07.09.24-.1a2.2,2.2,0,0,1,1.29.79c1.75,1.85,5.49,8.89,2.64,34.43a2.86,2.86,0,1,0,5.6,1.09h0c2.46-21.63.86-35.1-4.74-40.05a7.17,7.17,0,0,0-5.89-1.89C131,240.15,132.79,270.53,133.66,280Z"/><path class="cls-16" d="M161.47,231.59c-6.88-7.16-17.71-7.25-19.51-7.22h-.25a2.13,2.13,0,0,0,.18,4.26h0c.12,0,10.46-.38,16.5,5.89,3.32,3.46,4.75,8.4,4.24,14.68a.29.29,0,0,0,0,.09,2.15,2.15,0,1,0,4.29.3v-.11C167.49,242,165.67,236,161.47,231.59Z"/><path class="cls-17" d="M493,97.46c-1.68-5.06-5.81-11.22-12.12-17.09l3.62-3.62a5.47,5.47,0,0,0,0-7.73l-1-1a5.47,5.47,0,0,0-7.73,0l-3.86,3.86a5.77,5.77,0,0,0-.75,1,79,79,0,0,0-14.89-7.59,5.55,5.55,0,0,0,.95-2.29l.84-5.39a5.48,5.48,0,0,0-4.56-6.24L452,51.06a5.48,5.48,0,0,0-6.24,4.56L444.93,61c0,.16,0,.31,0,.46A51.71,51.71,0,0,0,433,60a54.94,54.94,0,0,0-11.1,1V60.9L421,55.5A5.48,5.48,0,0,0,414.8,51l-1.46.22a5.49,5.49,0,0,0-4.56,6.24l.84,5.39a5.5,5.5,0,0,0,.62,1.76A67.28,67.28,0,0,0,395.83,73a5.24,5.24,0,0,0-.91-1.26l-3.86-3.85a5.46,5.46,0,0,0-7.72,0l-1,1a5.49,5.49,0,0,0,0,7.73l3.86,3.85c.1.1.22.17.32.26-4.14,3.62-9.86,9.57-12.43,16.61a24,24,0,0,0-1.67,11.35,25.54,25.54,0,0,0,1.73,6.52c2.41,5.66,23.14,35.67,58.1,35.67l2,0c16.92-.56,28.7-8,39.09-14.52,2.93-1.85,11.84-7.46,17.16-17.15A29.08,29.08,0,0,0,494.36,105,28.75,28.75,0,0,0,493,97.46Zm-8.79,18.3c-4,7.24-10.3,11.77-14.71,14.55C459.42,136.67,449,143.24,434,143.74c-32.07,1-51.5-27-53.32-31.3a18.77,18.77,0,0,1-1.21-4.5,17,17,0,0,1,1.28-8.13h0c3-8.22,12.1-15.17,13.89-16.48L395,83c6.31-6,19.51-16,37.38-16h.54c8.54.09,14.72,2.45,20.7,4.74,19.65,7.52,30.28,20.79,32.64,27.88a21.55,21.55,0,0,1,1,5.41A21.39,21.39,0,0,1,484.22,115.76Z"/><path class="cls-18" d="M433.38,79.24a26.29,26.29,0,1,0,7.2,51.56,11.52,11.52,0,1,1,17.15-15.39,26.26,26.26,0,0,0-24.35-36.17Z"/><path class="cls-19" d="M495.81,127.06a2.68,2.68,0,0,0-3.7.8l0,.08h0c-18,29.85-55.34,28.53-55.71,28.53h0a2.67,2.67,0,1,0-.25,5.33h0c.17,0,.7,0,1.55,0,7.7,0,41.29-1.74,59-31.14h0A2.67,2.67,0,0,0,495.81,127.06Z"/><path class="cls-20" d="M289.42,239.3c-4.61,0-9.81-.27-16.33-.61-20.77-1.08-34.1-2.26-46.06-12.35a48,48,0,0,1-11.55-14.59,64.19,64.19,0,0,1-9.62-19.56,22,22,0,0,1-.92-7.2c.27-5.54,2.64-9.57,5.16-13.1h0c6.45-9.06,13.77-19.32,28.31-27.25,4.36-2.37,7-3.8,11.11-4.57,5.72-1.08,11.43,0,21.79,2,2.56.5,4.18.85,5.33,1.11a15,15,0,0,0,3.48.52c1.17,0,3.36.1,13.18-1.93,4-.82,5.69-1.26,6.72-1.52a16.64,16.64,0,0,1,2.77-.53c7.95-.9,14.25,1.83,18.85,3.81,15.07,6.52,22.75,17.62,30.17,28.36a25.35,25.35,0,0,1,3.52,7c1,3.06,1.78,8.2.11,15.32s-5.5,14.15-11.36,20.78c-12.22,13.82-27.7,19.66-35.84,21.91A66.14,66.14,0,0,1,289.42,239.3Zm-35.25-92.41a17.54,17.54,0,0,0-3.32.29c-3,.56-4.87,1.58-9,3.81-13.1,7.13-19.61,16.27-25.9,25.1h0c-1.75,2.46-3.63,5.39-3.82,9.25a14.79,14.79,0,0,0,.67,4.94,57.86,57.86,0,0,0,8.7,17.5l.26.43a40.71,40.71,0,0,0,9.9,12.6c10.21,8.61,21.93,9.62,41.77,10.66,15.29.79,23,1.2,32.84-1.53,7.36-2,21.36-7.32,32.35-19.74,5.06-5.72,8.34-11.65,9.74-17.63,1.36-5.8.6-9.68,0-11.48a18.19,18.19,0,0,0-2.56-5c-7.17-10.36-13.94-20.14-27.1-25.83-4.07-1.76-9.13-3.95-15.18-3.27a9.91,9.91,0,0,0-1.79.36c-1.09.27-2.91.73-7,1.59-9.83,2-12.74,2.13-14.85,2.07a20.84,20.84,0,0,1-4.82-.69c-1.12-.24-2.68-.59-5.15-1.06C262.28,147.73,257.73,146.89,254.17,146.89Z"/><path class="cls-21" d="M248.15,207.87s-8.63,2.46-21.87-15.71a7.28,7.28,0,0,1-1.27-2.92,8.64,8.64,0,0,1,1.27-5.7c1.74-3.15,7.32-10.34,18.79-14.47a35.6,35.6,0,0,1,10.47-2.43c7.92-.51,16.7,1.86,18.78,2.43a25.68,25.68,0,0,0,5.47,1,24.42,24.42,0,0,0,8.7-1,29.57,29.57,0,0,1,9.66-3.08c7.14-1,12.56,1,18.67,3.38,10.29,4,16.56,9.44,18.78,13.55A11.36,11.36,0,0,1,337,187.2,12.09,12.09,0,0,1,335.6,194c-1.27,2.51-3.2,4.31-7.39,6.91-7.9,4.91-15.5,7.51-15.71,7.06-.13-.29,3.19-1.19,5.78-4.56.38-.5,3.73-5,2.54-8.49-1.57-4.64-10.27-5.27-13.93-5.54-5.24-.38-15.56-.12-28.26,7.39a22.28,22.28,0,0,0-8-6.8,22.69,22.69,0,0,0-16.65-1.2c-2.3.76-11.08,3.67-11.43,10C242.29,203.71,247.45,207.38,248.15,207.87Z"/><path class="cls-22" d="M363.31,203.35a2.71,2.71,0,0,0-3.34,1.86h0c-.17.63-11.82,40.29-54.09,39.27h0a2.71,2.71,0,1,0-.15,5.42h0l1.74,0c45.11,0,57.63-42.83,57.75-43.27h0A2.7,2.7,0,0,0,363.31,203.35Z"/><path class="cls-23" d="M482.9,303.69c-.63-5.18-3.46-17.67-16.15-21.83a17.8,17.8,0,0,1-11.29-11.54c-1.9-5.92-2.6-13.55-2.11-22.55.56-5.53-.56-15.33-8.34-16.94h0a2.94,2.94,0,0,0-1.18,5.76h0c4.41.92,3.68,10.48,3.66,10.71-.54,9.86.26,18.2,2.37,24.8a23.7,23.7,0,0,0,15.06,15.34c9.14,3,11.53,11.9,12.15,16.95a17.14,17.14,0,0,1-.09,4.86c-.72,4.24-2.27,7.07-4.61,8.41a9.31,9.31,0,0,1-6.45.69,8.44,8.44,0,0,0,2.34-6.16c-.3-3.8-3.59-6.34-6.21-7.19-5.2-1.69-11,2.21-13.79,5-2.54,2.58-2.56,4.29-5.72,6.34a16.17,16.17,0,0,1-6.69,2.44,13.36,13.36,0,0,1-5.19-.18c-3.51-.88-5.67-3.13-7.85-5.4a28.52,28.52,0,0,1-3.91-5.11,10.77,10.77,0,0,0-6.76-4.16c-.71-.11-5.48-.85-8.25,2.53a8.27,8.27,0,0,0-1.5,6.54,8.16,8.16,0,0,0,1.17,2.87,8.36,8.36,0,0,1-6.31-1.27c-4.24-3-4.94-10.08-4.94-10.14l-.05-.32c-1.71-8.74,8.95-14.95,13.62-17.21a21.45,21.45,0,0,1,3.26-1.17l.72-.23c11.4-3.54,11.77-34,11.73-40.13v-.15c-.36-6.22,5.66-8.75,5.92-8.86h0a2.94,2.94,0,0,0-2.11-5.48l-.05,0h0c-.42.16-10.18,4.13-9.62,14.58.09,15.4-2.78,32.91-7.59,34.41l-.69.21a27.19,27.19,0,0,0-4.12,1.51c-12.38,6-18.51,14.57-16.84,23.5.14,1.35,1.29,9.85,7.32,14.21,3.39,2.45,7.56,3.13,12.39,2,5.3-.72,13.72-.62,16.09,1.88l.39.35a22.55,22.55,0,0,0,12.21,4,16.19,16.19,0,0,0,8.85-2.6,16.39,16.39,0,0,1,5.38-2.14c5.95-1.28,10.69-1.17,13,.31l.51.26c.28.11,6.81,2.59,12.63-.7,4-2.26,6.5-6.48,7.53-12.58A22.69,22.69,0,0,0,482.9,303.69Z"/><path class="cls-24" d="M467.17,331.35h-.05c-15.14-6.84-27.45,5.63-28.38,6.6h0v0l0,0h0a2.2,2.2,0,0,0,3.09,3.13,1.33,1.33,0,0,0,.14-.19l0,0c.1-.12,10.57-11.39,23.35-5.61h0l.08.05a2.21,2.21,0,1,0,1.78-4Z"/><path class="cls-25" d="M151.72,92.36c.24-4.2.54-9.42-1.73-15.52C144.83,63,131.41,57.37,127.42,56c-15-5.28-33.16-.05-46.36,13.31h0l0,0h0a3.15,3.15,0,0,0,4.48,4.42h0C97,62.06,112.63,57.41,125.32,61.89c2.38.84,14.46,5.62,18.76,17.15,1.82,4.86,1.58,9,1.35,12.95-.21,3.66-1.62,16.36-10.86,26.12a23.13,23.13,0,0,1-3.16,2.82A25.61,25.61,0,0,0,127,125.1,45.65,45.65,0,0,0,117.74,143l-.1.53c-.25,2.7-1.83,10.41-6,13.7-1.72,1.34-6.5,1.6-6.5,1.6a15.1,15.1,0,0,1-11.29-4.7,14.37,14.37,0,0,1-3.18-12h0a2.29,2.29,0,0,0,.07-.28,3.14,3.14,0,0,0-6.19-1h0c-.36,1.67-1.82,10.38,4.65,17.58A20.65,20.65,0,0,0,104.8,165c.76.1,8.2-.82,10.67-2.75,6.67-5.19,8.18-15.82,8.41-17.77a39.35,39.35,0,0,1,7.93-15.26,19.39,19.39,0,0,1,3.45-3.27,29.39,29.39,0,0,0,3.88-3.48C149.85,111.13,151.48,96.56,151.72,92.36Z"/><path class="cls-26" d="M86,122.76h-.1a3.15,3.15,0,0,0,.56,6.27h0c.4,0,10-.9,14.67-8.07,2.21-3.37,2.94-7.44,2.2-12.14a11.32,11.32,0,0,0,5.55-5.12A9.77,9.77,0,0,0,110,98.64a6.87,6.87,0,0,0-1.62-4.49,8.58,8.58,0,0,0-2.3-1.59c-1.06-.54-1.49-.54-1.91-.78-.62-.37-1.14-1.3-1.14-3.47a6.47,6.47,0,0,1,3.34-5.21A16.85,16.85,0,0,1,112,81.34c1.87-.2,8.2-.53,11.28,3.65,2.42,3.28,1.53,7.64,1.11,9.74-1.37,6.78-6.63,10.88-8.83,12.34v0a2.12,2.12,0,0,0-.2.12,3.15,3.15,0,1,0,3.54,5.2.87.87,0,0,1,.11-.09h0c3.54-2.34,9.76-7.58,11.53-16.34.56-2.75,1.86-9.19-2.21-14.72-5.07-6.89-14.31-6.47-17-6.18-1.95.21-11.92,1.75-16.5,11.17a20.22,20.22,0,0,0,1.4,19.89c1.57,4.78,1.46,8.6-.33,11.35C93.05,121.87,86.69,122.68,86,122.76Z"/><path class="cls-27" d="M170.83,95.36a2.37,2.37,0,1,0-4.73,0s0,0,0,0c-.56,30.92-26,47.64-26.24,47.8h0a.67.67,0,0,0-.14.09,2.36,2.36,0,0,0,2.68,3.88h0c1.14-.73,27.87-18.22,28.42-51.8h0Z"/></g></g></svg>