<svg xmlns="http://www.w3.org/2000/svg" xmlns:xlink="http://www.w3.org/1999/xlink" viewBox="0 0 371.77 300.65"><defs><style>.cls-1{fill:#1b1b3f;opacity:0.45;}.cls-2{fill:url(#Degradado_sin_nombre_163);}.cls-3{fill:url(#Degradado_sin_nombre_165);}.cls-4{fill:url(#Degradado_sin_nombre_205);}.cls-5{fill:url(#Degradado_sin_nombre_211);}.cls-6{fill:url(#Degradado_sin_nombre_194);}.cls-7{fill:url(#Degradado_sin_nombre_194-2);}.cls-8{fill:#eddfc0;}.cls-9{fill:url(#Degradado_sin_nombre_190);}.cls-10{fill:url(#Degradado_sin_nombre_208);}.cls-11{fill:url(#Degradado_sin_nombre_207);}.cls-12{fill:url(#Degradado_sin_nombre_207-2);}.cls-13{fill:#0cc4d9;}.cls-14{fill:#c380cf;}.cls-15{fill:#ff6679;}.cls-16{fill:#fbf0d4;}</style><linearGradient id="Degradado_sin_nombre_163" x1="180.26" y1="-1.02" x2="180.26" y2="257.8" gradientTransform="translate(124.26 -74.38) rotate(34.95)" gradientUnits="userSpaceOnUse"><stop offset="0" stop-color="#fccf6b"/><stop offset="0.23" stop-color="#f9cd6b"/><stop offset="0.37" stop-color="#f1c66a"/><stop offset="0.49" stop-color="#e2ba69"/><stop offset="0.6" stop-color="#cdaa67"/><stop offset="0.7" stop-color="#b39465"/><stop offset="0.79" stop-color="#917a62"/><stop offset="0.88" stop-color="#6a5a5f"/><stop offset="0.96" stop-color="#3e375b"/><stop offset="1" stop-color="#282559"/></linearGradient><linearGradient id="Degradado_sin_nombre_165" x1="106.99" y1="148.09" x2="310.47" y2="148.09" gradientUnits="userSpaceOnUse"><stop offset="0" stop-color="#0cc4d9"/><stop offset="0.25" stop-color="#0cc1d7"/><stop offset="0.41" stop-color="#0eb9d0"/><stop offset="0.54" stop-color="#11aac4"/><stop offset="0.66" stop-color="#1495b4"/><stop offset="0.77" stop-color="#197b9e"/><stop offset="0.87" stop-color="#1f5a83"/><stop offset="0.97" stop-color="#253364"/><stop offset="1" stop-color="#282559"/></linearGradient><linearGradient id="Degradado_sin_nombre_205" x1="176.64" y1="60.09" x2="241.46" y2="238.19" gradientTransform="translate(53.45 -55.15) rotate(17.2)" gradientUnits="userSpaceOnUse"><stop offset="0.75" stop-color="#fbf0d4"/><stop offset="0.81" stop-color="#f8edd2"/><stop offset="0.84" stop-color="#efe5cd"/><stop offset="0.87" stop-color="#e0d6c4"/><stop offset="0.9" stop-color="#cac1b8"/><stop offset="0.93" stop-color="#afa7a7"/><stop offset="0.95" stop-color="#8c8693"/><stop offset="0.97" stop-color="#645e7c"/><stop offset="0.99" stop-color="#363261"/><stop offset="1" stop-color="#282559"/></linearGradient><linearGradient id="Degradado_sin_nombre_211" x1="60.77" y1="198.12" x2="60.77" y2="205.4" gradientUnits="userSpaceOnUse"><stop offset="0" stop-color="#4dffba"/><stop offset="0.13" stop-color="#49e9b0"/><stop offset="0.41" stop-color="#3faf96"/><stop offset="0.81" stop-color="#30536d"/><stop offset="1" stop-color="#282559"/></linearGradient><linearGradient id="Degradado_sin_nombre_194" x1="311.9" y1="113.53" x2="309.03" y2="118.49" gradientUnits="userSpaceOnUse"><stop offset="0" stop-color="#c380cf"/><stop offset="0.13" stop-color="#be7dcb"/><stop offset="0.3" stop-color="#ae74bf"/><stop offset="0.49" stop-color="#9464ab"/><stop offset="0.69" stop-color="#704f90"/><stop offset="0.89" stop-color="#42346d"/><stop offset="1" stop-color="#282559"/></linearGradient><linearGradient id="Degradado_sin_nombre_194-2" x1="115.42" y1="244.37" x2="110.72" y2="252.51" xlink:href="#Degradado_sin_nombre_194"/><linearGradient id="Degradado_sin_nombre_190" x1="141.23" y1="20.73" x2="141.23" y2="38.81" gradientUnits="userSpaceOnUse"><stop offset="0" stop-color="#93d2de"/><stop offset="0.18" stop-color="#91cfdb"/><stop offset="0.33" stop-color="#8ac4d3"/><stop offset="0.48" stop-color="#80b2c6"/><stop offset="0.61" stop-color="#709ab3"/><stop offset="0.75" stop-color="#5c7a9a"/><stop offset="0.87" stop-color="#44537c"/><stop offset="1" stop-color="#282559"/></linearGradient><linearGradient id="Degradado_sin_nombre_208" x1="276.74" y1="240.43" x2="276.74" y2="249.46" gradientUnits="userSpaceOnUse"><stop offset="0" stop-color="#93d2de"/><stop offset="0.13" stop-color="#90cdda"/><stop offset="0.29" stop-color="#87bfcf"/><stop offset="0.45" stop-color="#78a7bd"/><stop offset="0.63" stop-color="#6486a3"/><stop offset="0.81" stop-color="#4a5b83"/><stop offset="0.99" stop-color="#2a285b"/><stop offset="1" stop-color="#282559"/></linearGradient><linearGradient id="Degradado_sin_nombre_207" x1="70.71" y1="101.61" x2="65.29" y2="111.01" gradientUnits="userSpaceOnUse"><stop offset="0" stop-color="#fd9a83"/><stop offset="0.14" stop-color="#f99882"/><stop offset="0.27" stop-color="#ed9180"/><stop offset="0.41" stop-color="#d9867c"/><stop offset="0.55" stop-color="#bd7776"/><stop offset="0.69" stop-color="#99636f"/><stop offset="0.82" stop-color="#6c4a66"/><stop offset="0.96" stop-color="#392e5c"/><stop offset="1" stop-color="#282559"/></linearGradient><linearGradient id="Degradado_sin_nombre_207-2" x1="298.02" y1="41.99" x2="295.3" y2="46.69" xlink:href="#Degradado_sin_nombre_207"/></defs><g id="Capa_2" data-name="Capa 2"><g id="Ilustraciones"><rect class="cls-1" width="371.77" height="300.65" rx="39.76"/><rect class="cls-2" x="93.12" y="69.82" width="174.27" height="180.67" rx="10.33" transform="translate(-59.24 132.15) rotate(-34.95)"/><path class="cls-3" d="M148.57,253.14a11,11,0,0,1-10.82-8.95l-30.56-159a11,11,0,0,1,8.75-12.91l150.85-29A11,11,0,0,1,279.7,52l30.56,159A11,11,0,0,1,301.51,224l-150.85,29A10.64,10.64,0,0,1,148.57,253.14ZM268.89,44.45a10.3,10.3,0,0,0-1.83.17l-150.86,29a9.63,9.63,0,0,0-7.64,11.27l30.56,159.05a9.63,9.63,0,0,0,11.27,7.63l150.86-29,.13.69-.13-.69a9.65,9.65,0,0,0,7.64-11.27l-30.56-159a9.65,9.65,0,0,0-9.44-7.81Z"/><rect class="cls-4" x="121.91" y="57.83" width="174.27" height="182.61" rx="14.44" transform="translate(-34.75 68.49) rotate(-17.2)"/><circle class="cls-5" cx="60.77" cy="201.76" r="3.64"/><circle class="cls-6" cx="310.47" cy="116.01" r="2.86"/><circle class="cls-7" cx="113.07" cy="248.44" r="4.7"/><rect class="cls-8" x="117.34" y="104.11" width="28.35" height="9.04" rx="4.52" transform="translate(-26.24 43.75) rotate(-17.2)"/><rect class="cls-8" x="123.55" y="124.17" width="28.35" height="9.04" rx="4.52" transform="translate(-31.9 46.48) rotate(-17.2)"/><rect class="cls-8" x="130.35" y="143.57" width="28.35" height="9.04" rx="4.52" transform="matrix(0.96, -0.3, 0.3, 0.96, -37.33, 49.36)"/><rect class="cls-8" x="135.91" y="164.11" width="28.35" height="9.04" rx="4.52" transform="matrix(0.96, -0.3, 0.3, 0.96, -43.15, 51.92)"/><rect class="cls-8" x="142.72" y="183.71" width="28.35" height="9.04" rx="4.52" transform="translate(-48.65 54.81) rotate(-17.2)"/><rect class="cls-8" x="149.16" y="203.31" width="28.35" height="9.04" rx="4.52" transform="translate(-54.15 57.59) rotate(-17.2)"/><rect class="cls-8" x="155.78" y="223.27" width="28.35" height="9.04" rx="4.52" transform="translate(-59.76 60.45) rotate(-17.2)"/><rect class="cls-8" x="186.66" y="81.62" width="2.78" height="133.22" rx="1.39" transform="translate(-35.42 62.24) rotate(-17.2)"/><rect class="cls-8" x="220.71" y="69.79" width="2.75" height="131.5" rx="1.37" transform="translate(-30.15 71.73) rotate(-17.2)"/><rect class="cls-8" x="256.26" y="58.78" width="2.74" height="131.14" rx="1.37" transform="translate(-25.25 81.74) rotate(-17.2)"/><circle class="cls-9" cx="141.23" cy="29.77" r="9.04"/><circle class="cls-10" cx="276.74" cy="244.95" r="4.52"/><circle class="cls-11" cx="68" cy="106.31" r="5.43"/><circle class="cls-12" cx="296.66" cy="44.34" r="2.71"/><rect class="cls-13" x="155.47" y="89.14" width="31.99" height="13.88" rx="4.52" transform="matrix(0.96, -0.3, 0.3, 0.96, -20.74, 55)"/><rect class="cls-13" x="167.3" y="105.55" width="39.63" height="13.88" rx="4.52" transform="translate(-24.9 60.36) rotate(-17.2)"/><rect class="cls-13" x="182.32" y="124.66" width="30.97" height="13.88" rx="4.52" transform="translate(-30.07 64.38) rotate(-17.2)"/><rect class="cls-14" x="191.72" y="141.09" width="42.75" height="13.88" rx="4.52" transform="matrix(0.96, -0.3, 0.3, 0.96, -34.24, 69.63)"/><rect class="cls-14" x="203.77" y="157.95" width="52.23" height="13.88" rx="4.52" transform="translate(-38.48 75.35) rotate(-17.2)"/><rect class="cls-15" x="232.51" y="172.69" width="39.68" height="13.88" rx="4.52" transform="translate(-41.83 82.66) rotate(-17.2)"/><rect class="cls-15" x="254.54" y="186.61" width="42.98" height="13.88" rx="4.52" transform="translate(-44.89 90.28) rotate(-17.2)"/><path class="cls-16" d="M280,188.91l-1.09-.55a1.19,1.19,0,0,0-1.59.52l-2.62,5.19-1.54-.78a1.17,1.17,0,0,0-1.58.52l-.55,1.09a1.17,1.17,0,0,0,.52,1.58l3.68,1.86a1.18,1.18,0,0,0,1.59-.52l3.7-7.32A1.19,1.19,0,0,0,280,188.91Z"/><path class="cls-16" d="M176.25,91.65l-1.09-.55a1.18,1.18,0,0,0-1.58.52L171,96.8,169.42,96a1.19,1.19,0,0,0-1.59.52l-.55,1.09a1.19,1.19,0,0,0,.52,1.59l3.69,1.86a1.18,1.18,0,0,0,1.58-.52l3.7-7.33A1.17,1.17,0,0,0,176.25,91.65Z"/></g></g></svg>