<svg xmlns="http://www.w3.org/2000/svg" viewBox="0 0 75.4 39.66"><defs><style>.cls-1{fill:#d9dadb;}</style></defs><g id="Capa_2" data-name="Capa 2"><g id="Capa_1-2" data-name="Capa 1"><path class="cls-1" d="M1.5,3.24a1.5,1.5,0,0,1,0-3L73.89,0h0a1.51,1.51,0,0,1,1.5,1.5A1.5,1.5,0,0,1,73.9,3L1.5,3.24Z"/><path class="cls-1" d="M1.91,20.72a1.5,1.5,0,0,1,0-3l54.24,0h0a1.5,1.5,0,0,1,0,3l-54.24,0Z"/><path class="cls-1" d="M1.91,39.66a1.5,1.5,0,0,1,0-3l36.2-.28h0a1.5,1.5,0,0,1,0,3l-36.2.28Z"/></g></g></svg>