<svg xmlns="http://www.w3.org/2000/svg" xmlns:xlink="http://www.w3.org/1999/xlink" viewBox="0 0 456 319.3"><defs><style>.cls-1{fill:none;}.cls-2{fill:#1b1b3f;opacity:0.45;}.cls-3{clip-path:url(#clip-path);}.cls-4{fill:url(#Degradado_sin_nombre_201);}.cls-5{fill:url(#Degradado_sin_nombre_217);}.cls-6{fill:url(#Degradado_sin_nombre_132);}.cls-7{fill:url(#Degradado_sin_nombre_179);}.cls-8{fill:url(#Degradado_sin_nombre_176);}.cls-9{fill:url(#Degradado_sin_nombre_182);}.cls-10{fill:url(#Degradado_sin_nombre_151);}.cls-11{fill:url(#Degradado_sin_nombre_137);}.cls-12{fill:url(#Degradado_sin_nombre_137-2);}.cls-13{fill:url(#Degradado_sin_nombre_154);}.cls-14{fill:url(#Degradado_sin_nombre_172);}.cls-15{fill:url(#Degradado_sin_nombre_164);}.cls-16{fill:url(#Degradado_sin_nombre_174);}.cls-17{fill:url(#Degradado_sin_nombre_187);}.cls-18{fill:#fff;}.cls-19{fill:url(#Degradado_sin_nombre_187-2);}.cls-20{fill:url(#Degradado_sin_nombre_187-3);}.cls-21{fill:url(#Degradado_sin_nombre_193);}.cls-22{fill:url(#Degradado_sin_nombre_193-2);}.cls-23{fill:url(#Degradado_sin_nombre_193-3);}.cls-24{fill:url(#Degradado_sin_nombre_183);}.cls-25{fill:url(#Degradado_sin_nombre_197);}.cls-26{fill:url(#Degradado_sin_nombre_197-2);}.cls-27{fill:url(#Degradado_sin_nombre_192);}.cls-28{fill:url(#Degradado_sin_nombre_192-2);}.cls-29{fill:url(#Degradado_sin_nombre_192-3);}.cls-30{fill:url(#Degradado_sin_nombre_189);}.cls-31{fill:url(#Degradado_sin_nombre_189-2);}.cls-32{fill:url(#Degradado_sin_nombre_189-3);}.cls-33{fill:url(#Degradado_sin_nombre_196);}.cls-34{fill:url(#Degradado_sin_nombre_196-2);}.cls-35{fill:#fccf6b;}.cls-36{fill:#4cd988;}.cls-37{fill:#9a99e8;}.cls-38{fill:#fd9a83;}.cls-39{fill:#ff6679;}.cls-40{fill:url(#Degradado_sin_nombre_212);}.cls-41{fill:url(#Degradado_sin_nombre_212-2);}</style><clipPath id="clip-path" transform="translate(11.64 10.5)"><rect class="cls-1" width="443.23" height="300.65" rx="39.76"/></clipPath><linearGradient id="Degradado_sin_nombre_201" x1="330.81" y1="202.36" x2="352.98" y2="309.96" gradientUnits="userSpaceOnUse"><stop offset="0" stop-color="#fbf0d4"/><stop offset="0.24" stop-color="#f8eed3"/><stop offset="0.38" stop-color="#f0e5ce"/><stop offset="0.5" stop-color="#e1d7c5"/><stop offset="0.61" stop-color="#cdc4b9"/><stop offset="0.7" stop-color="#b2aaaa"/><stop offset="0.8" stop-color="#928b97"/><stop offset="0.88" stop-color="#6b6580"/><stop offset="0.96" stop-color="#3f3b67"/><stop offset="1" stop-color="#282559"/></linearGradient><linearGradient id="Degradado_sin_nombre_217" x1="337.38" y1="266.42" x2="350.15" y2="266.42" gradientUnits="userSpaceOnUse"><stop offset="0" stop-color="#eabb9b"/><stop offset="0.13" stop-color="#e5b799"/><stop offset="0.27" stop-color="#d8ad95"/><stop offset="0.42" stop-color="#c19b8d"/><stop offset="0.58" stop-color="#a18282"/><stop offset="0.74" stop-color="#786374"/><stop offset="0.91" stop-color="#463d63"/><stop offset="1" stop-color="#282559"/></linearGradient><linearGradient id="Degradado_sin_nombre_132" x1="-8.85" y1="90.59" x2="319.45" y2="218.47" gradientUnits="userSpaceOnUse"><stop offset="0" stop-color="#06b3bb"/><stop offset="0.14" stop-color="#07aeb7"/><stop offset="0.32" stop-color="#0b9fad"/><stop offset="0.51" stop-color="#11879c"/><stop offset="0.71" stop-color="#196585"/><stop offset="0.91" stop-color="#233967"/><stop offset="1" stop-color="#282559"/></linearGradient><linearGradient id="Degradado_sin_nombre_179" x1="50.22" y1="287.26" x2="54.4" y2="292.9" gradientUnits="userSpaceOnUse"><stop offset="0" stop-color="#fd9a83"/><stop offset="0.1" stop-color="#f49581"/><stop offset="0.25" stop-color="#dc887d"/><stop offset="0.45" stop-color="#b57375"/><stop offset="0.68" stop-color="#7f556a"/><stop offset="0.93" stop-color="#3b2f5d"/><stop offset="1" stop-color="#282559"/></linearGradient><linearGradient id="Degradado_sin_nombre_176" x1="94.57" y1="299.92" x2="123.68" y2="299.92" gradientUnits="userSpaceOnUse"><stop offset="0" stop-color="#396faa"/><stop offset="0.89" stop-color="#2a2e62"/><stop offset="1" stop-color="#282559"/></linearGradient><linearGradient id="Degradado_sin_nombre_182" x1="7" y1="297.56" x2="57.7" y2="297.56" gradientUnits="userSpaceOnUse"><stop offset="0" stop-color="#9454c7"/><stop offset="0.16" stop-color="#8b50be"/><stop offset="0.41" stop-color="#7446a6"/><stop offset="0.73" stop-color="#4e3680"/><stop offset="1" stop-color="#282559"/></linearGradient><linearGradient id="Degradado_sin_nombre_151" x1="135.84" y1="254.22" x2="189.59" y2="254.22" gradientUnits="userSpaceOnUse"><stop offset="0" stop-color="#9a99e8"/><stop offset="0.04" stop-color="#9493e1"/><stop offset="0.5" stop-color="#5a5898"/><stop offset="0.83" stop-color="#36336b"/><stop offset="1" stop-color="#282559"/></linearGradient><linearGradient id="Degradado_sin_nombre_137" x1="298.87" y1="195.35" x2="325.29" y2="195.35" gradientUnits="userSpaceOnUse"><stop offset="0" stop-color="#06b3bb"/><stop offset="0.14" stop-color="#09a7b3"/><stop offset="0.4" stop-color="#11879c"/><stop offset="0.73" stop-color="#1d5379"/><stop offset="1" stop-color="#282559"/></linearGradient><linearGradient id="Degradado_sin_nombre_137-2" x1="359.08" y1="131.12" x2="351.98" y2="158.38" xlink:href="#Degradado_sin_nombre_137"/><linearGradient id="Degradado_sin_nombre_154" x1="263.77" y1="105.31" x2="312.5" y2="105.31" gradientUnits="userSpaceOnUse"><stop offset="0" stop-color="#a15ad5"/><stop offset="0.22" stop-color="#8a50be"/><stop offset="0.69" stop-color="#513783"/><stop offset="1" stop-color="#282559"/></linearGradient><linearGradient id="Degradado_sin_nombre_172" x1="247.77" y1="54.19" x2="259.21" y2="70.31" gradientUnits="userSpaceOnUse"><stop offset="0" stop-color="#ff6679"/><stop offset="0.24" stop-color="#c05370"/><stop offset="0.5" stop-color="#7f3f66"/><stop offset="0.73" stop-color="#50315f"/><stop offset="0.9" stop-color="#33285b"/><stop offset="1" stop-color="#282559"/></linearGradient><linearGradient id="Degradado_sin_nombre_164" x1="185.93" y1="52.65" x2="190.52" y2="58.13" gradientUnits="userSpaceOnUse"><stop offset="0" stop-color="#fccf6b"/><stop offset="0.09" stop-color="#e8bf69"/><stop offset="0.54" stop-color="#816d61"/><stop offset="0.85" stop-color="#41395b"/><stop offset="1" stop-color="#282559"/></linearGradient><linearGradient id="Degradado_sin_nombre_174" x1="204.07" y1="8.85" x2="214.95" y2="37.44" gradientUnits="userSpaceOnUse"><stop offset="0" stop-color="#4cd988"/><stop offset="0.13" stop-color="#46bd81"/><stop offset="0.43" stop-color="#397c70"/><stop offset="0.69" stop-color="#304d63"/><stop offset="0.89" stop-color="#2a305c"/><stop offset="1" stop-color="#282559"/></linearGradient><linearGradient id="Degradado_sin_nombre_187" x1="227.16" y1="154.81" x2="273.2" y2="197.32" gradientUnits="userSpaceOnUse"><stop offset="0" stop-color="#fccf6b"/><stop offset="0.19" stop-color="#f9cd6b"/><stop offset="0.33" stop-color="#efc56a"/><stop offset="0.46" stop-color="#dfb869"/><stop offset="0.57" stop-color="#c8a567"/><stop offset="0.69" stop-color="#aa8e64"/><stop offset="0.79" stop-color="#867061"/><stop offset="0.9" stop-color="#5b4e5d"/><stop offset="1" stop-color="#2a2759"/><stop offset="1" stop-color="#282559"/></linearGradient><linearGradient id="Degradado_sin_nombre_187-2" x1="79.09" y1="93.15" x2="108.28" y2="120.11" xlink:href="#Degradado_sin_nombre_187"/><linearGradient id="Degradado_sin_nombre_187-3" x1="101.91" y1="255.05" x2="132.82" y2="282.93" xlink:href="#Degradado_sin_nombre_187"/><linearGradient id="Degradado_sin_nombre_193" x1="151.58" y1="91.99" x2="186.11" y2="113.85" gradientUnits="userSpaceOnUse"><stop offset="0" stop-color="#4cd988"/><stop offset="0.2" stop-color="#4bd687"/><stop offset="0.35" stop-color="#49cc85"/><stop offset="0.49" stop-color="#46bc80"/><stop offset="0.61" stop-color="#42a57a"/><stop offset="0.73" stop-color="#3c8773"/><stop offset="0.85" stop-color="#346369"/><stop offset="0.96" stop-color="#2c385e"/><stop offset="1" stop-color="#282559"/></linearGradient><linearGradient id="Degradado_sin_nombre_193-2" x1="67.67" y1="143.82" x2="91.68" y2="162.1" xlink:href="#Degradado_sin_nombre_193"/><linearGradient id="Degradado_sin_nombre_193-3" x1="39.05" y1="236.18" x2="61.8" y2="261.21" xlink:href="#Degradado_sin_nombre_193"/><linearGradient id="Degradado_sin_nombre_183" x1="294.04" y1="157.49" x2="316.46" y2="174.92" gradientUnits="userSpaceOnUse"><stop offset="0" stop-color="#396faa"/><stop offset="0.2" stop-color="#3767a1"/><stop offset="0.51" stop-color="#325189"/><stop offset="0.91" stop-color="#2a2e63"/><stop offset="1" stop-color="#282559"/></linearGradient><linearGradient id="Degradado_sin_nombre_197" x1="120.5" y1="138.93" x2="146.37" y2="170.36" gradientUnits="userSpaceOnUse"><stop offset="0" stop-color="#396faa"/><stop offset="0.2" stop-color="#386ba5"/><stop offset="0.44" stop-color="#355e97"/><stop offset="0.69" stop-color="#304981"/><stop offset="0.95" stop-color="#2a2c61"/><stop offset="1" stop-color="#282559"/></linearGradient><linearGradient id="Degradado_sin_nombre_197-2" x1="26.21" y1="175.96" x2="64.32" y2="201.6" xlink:href="#Degradado_sin_nombre_197"/><linearGradient id="Degradado_sin_nombre_192" x1="175.36" y1="150.36" x2="196.96" y2="177.49" gradientUnits="userSpaceOnUse"><stop offset="0" stop-color="#fd9a83"/><stop offset="0.19" stop-color="#fa9882"/><stop offset="0.33" stop-color="#f09381"/><stop offset="0.45" stop-color="#e08a7d"/><stop offset="0.57" stop-color="#c97d79"/><stop offset="0.68" stop-color="#ab6d73"/><stop offset="0.79" stop-color="#87596c"/><stop offset="0.9" stop-color="#5c4163"/><stop offset="0.99" stop-color="#2b275a"/><stop offset="1" stop-color="#282559"/></linearGradient><linearGradient id="Degradado_sin_nombre_192-2" x1="39.3" y1="79.84" x2="55.88" y2="96" xlink:href="#Degradado_sin_nombre_192"/><linearGradient id="Degradado_sin_nombre_192-3" x1="116.43" y1="31.62" x2="154.62" y2="66.04" xlink:href="#Degradado_sin_nombre_192"/><linearGradient id="Degradado_sin_nombre_189" x1="222.33" y1="98.03" x2="247.19" y2="120.22" gradientUnits="userSpaceOnUse"><stop offset="0" stop-color="#ff6679"/><stop offset="0.19" stop-color="#fc6579"/><stop offset="0.33" stop-color="#f26277"/><stop offset="0.45" stop-color="#e25d75"/><stop offset="0.57" stop-color="#cb5671"/><stop offset="0.68" stop-color="#ad4d6d"/><stop offset="0.79" stop-color="#894267"/><stop offset="0.89" stop-color="#5e3561"/><stop offset="0.99" stop-color="#2d265a"/><stop offset="1" stop-color="#282559"/></linearGradient><linearGradient id="Degradado_sin_nombre_189-2" x1="21.88" y1="120.57" x2="48.57" y2="140.51" xlink:href="#Degradado_sin_nombre_189"/><linearGradient id="Degradado_sin_nombre_189-3" x1="92.41" y1="193.85" x2="118.05" y2="213.33" xlink:href="#Degradado_sin_nombre_189"/><linearGradient id="Degradado_sin_nombre_196" x1="147.23" y1="196.39" x2="175.19" y2="219.65" gradientUnits="userSpaceOnUse"><stop offset="0" stop-color="#7b7ad3"/><stop offset="0.23" stop-color="#7978d0"/><stop offset="0.41" stop-color="#7271c6"/><stop offset="0.57" stop-color="#6766b6"/><stop offset="0.71" stop-color="#58569f"/><stop offset="0.85" stop-color="#434181"/><stop offset="0.99" stop-color="#2b285e"/><stop offset="1" stop-color="#282559"/></linearGradient><linearGradient id="Degradado_sin_nombre_196-2" x1="42.96" y1="32.95" x2="78.11" y2="60.4" xlink:href="#Degradado_sin_nombre_196"/><linearGradient id="Degradado_sin_nombre_212" x1="413.18" y1="202.85" x2="413.18" y2="308.8" gradientUnits="userSpaceOnUse"><stop offset="0" stop-color="#1483bc"/><stop offset="0.17" stop-color="#167ab3"/><stop offset="0.45" stop-color="#1b639b"/><stop offset="0.8" stop-color="#233e73"/><stop offset="1" stop-color="#282559"/></linearGradient><linearGradient id="Degradado_sin_nombre_212-2" x1="274.35" y1="229.17" x2="274.35" y2="308.8" xlink:href="#Degradado_sin_nombre_212"/></defs><g id="Capa_2" data-name="Capa 2"><g id="Ilustraciones"><rect class="cls-2" x="12.77" y="11.23" width="443.23" height="300.65" rx="39.76"/><g class="cls-3"><path class="cls-4" d="M425.21,304.65s-14.3-50-20.42-98.66c0,0-19.07-24.85-67.75,18.72,0,0-37.1-16-67.4,5.11,0,0,4.42,68.77,10.89,79H425.21Z" transform="translate(11.64 10.5)"/><path class="cls-5" d="M337.38,228.51c2.15,12.67,3.93,25.37,5.82,38.05q1.41,9.51,3,19c.56,3.15,1.09,6.31,1.73,9.44.26,1.59.67,3.13,1,4.7a23.28,23.28,0,0,0,.61,2.32l.64,2.32a98.33,98.33,0,0,1-5.52-18.49c-1.35-6.29-2.43-12.63-3.4-19s-1.74-12.73-2.39-19.12S337.68,234.93,337.38,228.51Z" transform="translate(11.64 10.5)"/><path class="cls-6" d="M336,212.48s17.71-52.42-15.83-72.17a55.88,55.88,0,0,0-7.74-2.7,72.31,72.31,0,0,0-13.36-2.07c-1.37-.13-12-1.17-16.52-2.29-6-1.5-13.71-6.33-21.1-21.19-12.87-38-27.09-44.37-34.44-45.57-5.5-.88-14.56-.08-19.6.37-16.44,1.47-22.18,4.88-29.26,1.23-5.54-2.85-8.07-8.06-10.32-12.72-5.5-11.36-3.45-20.13-4.28-29.87-.73-8.72-4-21.2-16.14-36H-11.64v262a93.08,93.08,0,0,1,25.47,2c26.6,5.93,33.22,20.09,61.85,28.85,12.9,3.95,25.1,7.69,37.53,2.3,10.77-4.66,17-14.13,24-24.76,11-16.72,8.17-21.2,15.48-30.61,16.24-20.92,48.17-21.91,52.44-22,29-.52,42.87,16.06,57.46,6.46,3.71-2.44,7.75-6.9,15.81-15.81,5.37-5.93,9.53-11.13,12.36-14.83,9.69-9.85,21.93-13.89,31.3-10a22.67,22.67,0,0,1,9.63,8.15C340.81,193.69,336.88,209.33,336,212.48Z" transform="translate(11.64 10.5)"/><circle class="cls-7" cx="52.01" cy="289.68" r="3.51"/><path class="cls-8" d="M123.68,306.8a19.14,19.14,0,0,0-3.51-6.85c-1.15-1.43-6.45-7.56-13.85-6.85a12.63,12.63,0,0,0-5.49,1.85c-5,3.14-6.08,8.79-6.26,9.89Z" transform="translate(11.64 10.5)"/><path class="cls-9" d="M56.28,304.33a5,5,0,0,0,1.41-3.55c-.18-2.54-2.93-4-4.09-4.62-2.66-1.41-4.38-1-7.73-1.53-4.62-.7-5.39-2-9.25-3.06a26.39,26.39,0,0,0-14.14.44c-9.1,2.73-14,9.92-15.48,12.32Z" transform="translate(11.64 10.5)"/><path class="cls-10" d="M150,288.25c4.08-1.76,6.53-4.65,10.72-10.18,8.35-11,12.57-16.64,14.56-22.25,2.15-6.08.9-6.39,3.09-10.59a111.69,111.69,0,0,1,9.42-14.43,8,8,0,0,0,1.72-3.64,7.83,7.83,0,0,0-1.72-6.32c-3.09-3.36-9.24-1.72-10.89-1.28-8.37,2.23-12.93,10.08-14.65,13-3.66,6.31-3.77,10.43-5.42,16-1.93,6.49-6.15,15.56-16.53,25.37a16.91,16.91,0,0,0-3.1,5.14c-.6,1.57-2.55,6.68-.22,9.16,1.1,1.17,2.72,1.26,4.93,1.39A18.53,18.53,0,0,0,150,288.25Z" transform="translate(11.64 10.5)"/><path class="cls-11" d="M323.34,189.18a19.61,19.61,0,0,0-4.55,2.42c-5.92,4.22-5.68,9.19-11.28,12.39-.65.38-4.86,2.7-7,1.09-1-.72-1.17-2-1.44-3.64a15.69,15.69,0,0,1,.27-6.58c2.57-8.76,19.41-11,24-9.25.56.22,1.87.72,1.94,1.57C325.37,188.22,323.55,189.09,323.34,189.18Z" transform="translate(11.64 10.5)"/><path class="cls-12" d="M352.45,163.14a35.73,35.73,0,0,1,3.41-8.68c3.1-5.55,6.12-7.31,9.35-13.28a39.1,39.1,0,0,0,2.88-6.76c1.47-6.22.1-11.48-2.88-12.9-3.57-1.7-8.54,2.56-10.1,3.9C345.06,134,345,149.61,347.43,158c.35,1.23,2,7,3.62,6.87C351.69,164.85,352.16,163.92,352.45,163.14Z" transform="translate(11.64 10.5)"/><path class="cls-13" d="M264.11,88.84c-1.69,5.58,2.82,21.11,16.66,30.1,8.72,5.67,22.78,9.8,28.78,4.12a9.52,9.52,0,0,0,2.92-7.42c-.4-4.53-4.82-7.38-7.77-9.22-5.91-3.7-10.59-4-14.79-5.09-5.44-1.47-12.72-5.15-20.27-15-.46-.52-1.54-1.6-2.72-1.43C265.24,85.11,264.43,87.77,264.11,88.84Z" transform="translate(11.64 10.5)"/><path class="cls-14" d="M242.91,51.82c-2,3.93,1.66,9.88,4.14,12.75a20.7,20.7,0,0,0,9.65,6.14,5,5,0,0,0,3.91-.88c1.72-1.45,1.54-3.91,1.45-5-.13-1.78-.78-3.23-3.57-7.11-5.85-8.13-8.22-9-9.7-9.23a5.54,5.54,0,0,0-2.56.23A6.55,6.55,0,0,0,242.91,51.82Z" transform="translate(11.64 10.5)"/><ellipse class="cls-15" cx="187.4" cy="54.4" rx="3.57" ry="4.6"/><path class="cls-16" d="M212.79,31.12c-1.45-5.54-1-11.42-2.11-17a48.13,48.13,0,0,1,.58-19.73H193.64A61.4,61.4,0,0,0,194,11.59c.44,2.68,3.67,22.38,13.18,24.89.52.14,3.84,1,5.31-.58C213.72,34.55,213,32.09,212.79,31.12Z" transform="translate(11.64 10.5)"/><circle class="cls-17" cx="244.08" cy="170.43" r="31.33"/><circle class="cls-18" cx="234.11" cy="165.25" r="2.66"/><circle class="cls-18" cx="251.14" cy="161.7" r="2.66"/><path class="cls-18" d="M220.05,164.76a1.56,1.56,0,0,0-.85,2.54,16.44,16.44,0,0,0,28.31-5.91,1.55,1.55,0,0,0-1.79-2Z" transform="translate(11.64 10.5)"/><circle class="cls-19" cx="89.82" cy="103.06" r="19.86"/><circle class="cls-18" cx="91.94" cy="96.26" r="1.69"/><circle class="cls-18" cx="96.06" cy="106.49" r="1.69"/><path class="cls-18" d="M73.78,85.37a1,1,0,0,0-1.68-.25,10.43,10.43,0,0,0,6.85,17,1,1,0,0,0,1-1.34Z" transform="translate(11.64 10.5)"/><circle class="cls-20" cx="113.38" cy="265.4" r="20.81"/><circle class="cls-18" cx="112.9" cy="257.96" r="1.77"/><circle class="cls-18" cx="120.78" cy="266.41" r="1.77"/><path class="cls-18" d="M94.74,249.53a1,1,0,0,0-1.74.39A10.93,10.93,0,0,0,106.11,264a1,1,0,0,0,.51-1.7Z" transform="translate(11.64 10.5)"/><circle class="cls-21" cx="166.17" cy="101.23" r="20.43"/><circle class="cls-18" cx="159.2" cy="97.95" r="1.73"/><circle class="cls-18" cx="170.27" cy="95.45" r="1.73"/><ellipse class="cls-18" cx="155.79" cy="96.96" rx="1.84" ry="2.63" transform="translate(-5.89 47.19) rotate(-12.72)"/><circle class="cls-22" cx="77.22" cy="151.09" r="15.09"/><circle class="cls-18" cx="72.08" cy="148.67" r="1.28"/><circle class="cls-18" cx="80.25" cy="146.83" r="1.28"/><ellipse class="cls-18" cx="66.51" cy="145.19" rx="1.36" ry="1.94" transform="translate(-18.71 28.71) rotate(-12.72)"/><circle class="cls-23" cx="46.7" cy="244.6" r="16.91"/><circle class="cls-18" cx="44.67" cy="238.56" r="1.44"/><circle class="cls-18" cx="52.5" cy="243.74" r="1.44"/><ellipse class="cls-18" cx="32.05" cy="238.42" rx="2.18" ry="1.52" transform="translate(-172.77 143.95) rotate(-56.47)"/><circle class="cls-24" cx="302.89" cy="164.37" r="14.2"/><circle class="cls-18" cx="298.2" cy="162.24" r="1.21"/><circle class="cls-18" cx="305.84" cy="160.3" r="1.21"/><path class="cls-18" d="M299.35,157.67h0a7.46,7.46,0,0,0-13.41,3.39h0a.31.31,0,0,0,.26.34.32.32,0,0,0,.35-.26h0A6.85,6.85,0,0,1,298.86,158h0a.38.38,0,0,0,.21.13.3.3,0,0,0,.34-.26A.27.27,0,0,0,299.35,157.67Z" transform="translate(11.64 10.5)"/><circle class="cls-25" cx="128.72" cy="148.92" r="20.36"/><circle class="cls-18" cx="124.24" cy="143.03" r="1.73"/><circle class="cls-18" cx="135.21" cy="145.78" r="1.73"/><path class="cls-18" d="M124.72,148.71h0a10.7,10.7,0,0,0-19.23-4.83h0a.44.44,0,0,0,.7.52h0a9.83,9.83,0,0,1,17.67,4.43h0a.44.44,0,0,0,.17.31.43.43,0,0,0,.61-.09A.42.42,0,0,0,124.72,148.71Z" transform="translate(11.64 10.5)"/><circle class="cls-26" cx="42.03" cy="186.6" r="22.97"/><circle class="cls-18" cx="34.11" cy="183.95" r="1.95"/><circle class="cls-18" cx="46.09" cy="179.57" r="1.95"/><path class="cls-18" d="M44,180.86h0a12.07,12.07,0,0,0-21,7.69h0a.49.49,0,1,0,1,0h0a11.09,11.09,0,0,1,19.29-7.07h0a.48.48,0,0,0,.35.18.49.49,0,0,0,.51-.47A.47.47,0,0,0,44,180.86Z" transform="translate(11.64 10.5)"/><circle class="cls-27" cx="182.57" cy="159.41" r="17.33"/><circle class="cls-18" cx="179.37" cy="153.88" r="1.47"/><circle class="cls-18" cx="188.33" cy="157.4" r="1.47"/><path class="cls-18" d="M162.5,147.33h0a9.12,9.12,0,0,0,15.72,6.18h0a.37.37,0,0,0,0-.52.37.37,0,0,0-.52,0h0a8.36,8.36,0,0,1-14.43-5.67h0a.32.32,0,0,0-.11-.27.36.36,0,0,0-.52,0A.38.38,0,0,0,162.5,147.33Z" transform="translate(11.64 10.5)"/><circle class="cls-28" cx="45.23" cy="85.62" r="11.57"/><circle class="cls-18" cx="43.33" cy="81.81" r="0.98"/><circle class="cls-18" cx="49.15" cy="84.52" r="0.98"/><path class="cls-18" d="M28,73.72h0a6.08,6.08,0,0,0,10.22,4.76h0a.25.25,0,0,0-.34-.37h0a5.59,5.59,0,0,1-9.39-4.37h0a.31.31,0,0,0-.06-.19.26.26,0,0,0-.36,0A.33.33,0,0,0,28,73.72Z" transform="translate(11.64 10.5)"/><circle class="cls-29" cx="130.61" cy="44.41" r="25.7"/><circle class="cls-18" cx="121.57" cy="41.59" r="2.18"/><circle class="cls-18" cx="134.87" cy="36.43" r="2.18"/><path class="cls-18" d="M108.18,40.64h0a13.51,13.51,0,0,0,23.35-9h0a.55.55,0,0,0-1.1,0h0A12.41,12.41,0,0,1,109,39.89h0a.51.51,0,0,0-.39-.19.54.54,0,0,0-.57.53A.56.56,0,0,0,108.18,40.64Z" transform="translate(11.64 10.5)"/><circle class="cls-30" cx="231.6" cy="106.31" r="16.66"/><circle class="cls-18" cx="228.02" cy="101.64" r="1.41"/><circle class="cls-18" cx="237.05" cy="103.65" r="1.41"/><path class="cls-18" d="M226.65,104.11h0a8.76,8.76,0,0,0-15.84-3.53h0a.36.36,0,1,0,.58.41h0a8,8,0,0,1,14.54,3.24h0a.35.35,0,0,0,.64.16A.35.35,0,0,0,226.65,104.11Z" transform="translate(11.64 10.5)"/><path class="cls-18" d="M229.06,88.19a.36.36,0,0,0-.27-.43.37.37,0,0,0-.26,0h0l-5.6,3.08h0a.39.39,0,0,0-.19.24.35.35,0,0,0,.27.42.39.39,0,0,0,.26,0h0l5.59-3.08h0A.34.34,0,0,0,229.06,88.19Z" transform="translate(11.64 10.5)"/><path class="cls-18" d="M219.73,90.17h0L216,85h0a.38.38,0,0,0-.22-.15.37.37,0,0,0-.43.27.37.37,0,0,0,.07.29h0l3.76,5.16h0a.35.35,0,0,0,.2.14.36.36,0,0,0,.43-.27A.35.35,0,0,0,219.73,90.17Z" transform="translate(11.64 10.5)"/><circle class="cls-31" cx="32.57" cy="128.56" r="16.66"/><circle class="cls-18" cx="26.77" cy="129.57" r="1.41"/><circle class="cls-18" cx="32.73" cy="122.5" r="1.41"/><path class="cls-18" d="M31.38,116h0a8.76,8.76,0,0,0-10.47,12.4h0a.34.34,0,0,0,.47.16.36.36,0,0,0,.16-.48h0a8,8,0,0,1,9.61-11.39h0a.34.34,0,0,0,.28,0,.35.35,0,0,0,.16-.48A.39.39,0,0,0,31.38,116Z" transform="translate(11.64 10.5)"/><path class="cls-18" d="M18.38,106.47a.35.35,0,0,0-.5,0,.33.33,0,0,0-.08.25h0l.14,6.38h0a.36.36,0,0,0,.12.27.35.35,0,0,0,.5,0,.32.32,0,0,0,.08-.24h0l-.14-6.38h0A.33.33,0,0,0,18.38,106.47Z" transform="translate(11.64 10.5)"/><path class="cls-18" d="M15.82,115.65h0l-6.31.94h0a.36.36,0,0,0-.19.63.34.34,0,0,0,.29.07h0l6.31-.94h0a.35.35,0,0,0,.22-.12.36.36,0,0,0-.05-.5A.34.34,0,0,0,15.82,115.65Z" transform="translate(11.64 10.5)"/><circle class="cls-32" cx="102.62" cy="201.6" r="16.1"/><circle class="cls-18" cx="97.25" cy="199.73" r="1.37"/><circle class="cls-18" cx="105.61" cy="196.57" r="1.37"/><path class="cls-18" d="M100.78,194.26h0a8.46,8.46,0,0,0-14.66,5.55h0a.34.34,0,0,0,.33.35.35.35,0,0,0,.36-.33h0a7.76,7.76,0,0,1,13.46-5.1h0a.31.31,0,0,0,.24.12.35.35,0,0,0,.36-.33A.32.32,0,0,0,100.78,194.26Z" transform="translate(11.64 10.5)"/><path class="cls-18" d="M94.28,180.12a.35.35,0,0,0-.45-.2.33.33,0,0,0-.18.17h0l-2.88,5.46h0a.34.34,0,0,0,.61.32h0l2.88-5.45h0A.36.36,0,0,0,94.28,180.12Z" transform="translate(11.64 10.5)"/><path class="cls-18" d="M87.8,186.67h0L82,184.49h0a.31.31,0,0,0-.25,0,.34.34,0,0,0-.2.44.34.34,0,0,0,.21.2h0l5.78,2.17h0a.3.3,0,0,0,.23,0,.35.35,0,0,0,0-.64Z" transform="translate(11.64 10.5)"/><circle class="cls-33" cx="157.98" cy="205.33" r="18.18"/><circle class="cls-18" cx="151.95" cy="203.12" r="1.54"/><circle class="cls-18" cx="161.44" cy="199.7" r="1.54"/><path class="cls-18" d="M157.35,198.58h0a9.55,9.55,0,0,0-16.66,6h0a.4.4,0,0,0,.36.41.39.39,0,0,0,.41-.37h0a8.78,8.78,0,0,1,15.31-5.51h0a.4.4,0,0,0,.28.14.39.39,0,0,0,.3-.66Z" transform="translate(11.64 10.5)"/><path class="cls-18" d="M155.79,186.2a.39.39,0,0,0,.08-.55.41.41,0,0,0-.24-.15h0l-6.83-1.41h0a.39.39,0,0,0-.31.07.38.38,0,0,0-.08.54.41.41,0,0,0,.24.15h0l6.82,1.41h0A.4.4,0,0,0,155.79,186.2Z" transform="translate(11.64 10.5)"/><path class="cls-18" d="M138.05,188h0l-4.38,5.42h0a.43.43,0,0,0-.1.27.38.38,0,0,0,.41.37.36.36,0,0,0,.29-.15h0l4.39-5.42h0a.38.38,0,0,0-.6-.48Z" transform="translate(11.64 10.5)"/><circle class="cls-34" cx="56.81" cy="43.77" r="22.29"/><circle class="cls-18" cx="52.22" cy="37.37" r="1.89"/><circle class="cls-18" cx="64.21" cy="40.44" r="1.89"/><path class="cls-18" d="M53.76,44.66h0a11.72,11.72,0,0,0-21-5.41h0a.48.48,0,0,0,.09.66.47.47,0,0,0,.67-.08h0a10.76,10.76,0,0,1,19.32,5h0a.53.53,0,0,0,.19.34.48.48,0,0,0,.67-.09A.5.5,0,0,0,53.76,44.66Z" transform="translate(11.64 10.5)"/><path class="cls-18" d="M60.71,31a.47.47,0,0,0,.46-.49.46.46,0,0,0-.15-.32h0l-5.94-6.13h0a.48.48,0,0,0-.36-.15.48.48,0,0,0-.46.5.5.5,0,0,0,.14.31h0l6,6.13h0A.45.45,0,0,0,60.71,31Z" transform="translate(11.64 10.5)"/><path class="cls-18" d="M41.49,20.6h0l-8.17,2.47h0a.5.5,0,0,0-.29.2.48.48,0,0,0,.16.66.44.44,0,0,0,.4,0h0l8.18-2.47h0a.56.56,0,0,0,.26-.2.48.48,0,0,0-.54-.71Z" transform="translate(11.64 10.5)"/><circle class="cls-35" cx="126.47" cy="110.41" r="2.23"/><circle class="cls-36" cx="141.71" cy="79.84" r="1.42"/><circle class="cls-37" cx="78" cy="69.69" r="1.42"/><circle class="cls-37" cx="135.21" cy="190.94" r="1.42"/><circle class="cls-36" cx="76.94" cy="174.27" r="0.85"/><circle class="cls-35" cx="207.46" cy="202.7" r="1.83"/><circle class="cls-38" cx="191.87" cy="135.76" r="0.92"/><circle class="cls-38" cx="22.97" cy="72.67" r="1.37"/><circle class="cls-38" cx="152.57" cy="16.28" r="1.79"/><circle class="cls-39" cx="211.06" cy="88.48" r="1"/><circle class="cls-39" cx="16.45" cy="155.5" r="1.27"/><circle class="cls-39" cx="83.16" cy="224.64" r="0.79"/><circle class="cls-39" cx="83.16" cy="224.64" r="0.79"/><circle class="cls-39" cx="83.16" cy="224.64" r="0.79"/><circle class="cls-35" cx="81.53" cy="266.41" r="1.83"/><path class="cls-40" d="M422,308.8a999.25,999.25,0,0,1-20.89-106,9.85,9.85,0,0,1,3.65,3.14c1.58,2.24,20.42,98.66,20.42,98.66v4.15Z" transform="translate(11.64 10.5)"/><path class="cls-41" d="M270.6,229.17s4.43,61.64,9.93,79.63h-2.16s-9.53-42.61-10.21-78.69Z" transform="translate(11.64 10.5)"/></g></g></g></svg>