<svg xmlns="http://www.w3.org/2000/svg" xmlns:xlink="http://www.w3.org/1999/xlink" viewBox="0 0 443.23 149.11"><defs><style>.cls-1{fill:#1b1b3f;opacity:0.45;}.cls-2{fill:url(#Degradado_sin_nombre_119);}.cls-3{fill:url(#Degradado_sin_nombre_101);}.cls-4{fill:url(#Degradado_sin_nombre_80);}.cls-5{fill:url(#Degradado_sin_nombre_54);}.cls-6{fill:url(#Degradado_sin_nombre_72);}.cls-7{opacity:0.85;}.cls-8{fill:#fff;}</style><linearGradient id="Degradado_sin_nombre_119" x1="45.49" y1="45.31" x2="88.71" y2="45.31" gradientUnits="userSpaceOnUse"><stop offset="0" stop-color="#1483bc"/><stop offset="0.2" stop-color="#45d1a8"/><stop offset="0.46" stop-color="#4dffba"/><stop offset="0.6" stop-color="#3e9f9b"/><stop offset="0.75" stop-color="#30477e"/><stop offset="0.81" stop-color="#30457c"/><stop offset="0.83" stop-color="#2e3f75"/><stop offset="0.85" stop-color="#2c346a"/><stop offset="0.86" stop-color="#282559"/><stop offset="0.88" stop-color="#28275a"/><stop offset="0.89" stop-color="#2a2e5e"/><stop offset="0.9" stop-color="#2c3b64"/><stop offset="0.91" stop-color="#2f4d6d"/><stop offset="0.91" stop-color="#336579"/><stop offset="0.92" stop-color="#388288"/><stop offset="0.92" stop-color="#3ea49a"/><stop offset="0.92" stop-color="#45cbad"/><stop offset="0.93" stop-color="#48dcb6"/></linearGradient><linearGradient id="Degradado_sin_nombre_101" x1="108.7" y1="18.89" x2="108.7" y2="73.62" gradientUnits="userSpaceOnUse"><stop offset="0" stop-color="#45d1a8"/><stop offset="0.23" stop-color="#1483bc"/><stop offset="0.46" stop-color="#4dffba"/><stop offset="0.54" stop-color="#45c6b4"/><stop offset="0.68" stop-color="#396faa"/><stop offset="0.83" stop-color="#1483bc"/><stop offset="0.9" stop-color="#1585bc"/><stop offset="0.93" stop-color="#1a8cbb"/><stop offset="0.95" stop-color="#2199bb"/><stop offset="0.97" stop-color="#2babb9"/><stop offset="0.99" stop-color="#39c2b8"/><stop offset="1" stop-color="#48dcb6"/></linearGradient><linearGradient id="Degradado_sin_nombre_80" x1="99.88" y1="17.1" x2="99.88" y2="145.41" gradientUnits="userSpaceOnUse"><stop offset="0.15" stop-color="#2b3469"/><stop offset="0.19" stop-color="#2f4d73"/><stop offset="0.28" stop-color="#3a8f8d"/><stop offset="0.42" stop-color="#4cf7b7"/><stop offset="0.43" stop-color="#4dffba"/><stop offset="0.58" stop-color="#17ddc8"/><stop offset="0.67" stop-color="#00cece"/><stop offset="0.67" stop-color="#03c0c4"/><stop offset="0.69" stop-color="#0c9cab"/><stop offset="0.71" stop-color="#147c95"/><stop offset="0.73" stop-color="#1a6082"/><stop offset="0.76" stop-color="#1f4a73"/><stop offset="0.78" stop-color="#233967"/><stop offset="0.82" stop-color="#262e5f"/><stop offset="0.87" stop-color="#28275a"/><stop offset="1" stop-color="#282559"/></linearGradient><linearGradient id="Degradado_sin_nombre_54" x1="64.6" y1="10.29" x2="64.6" y2="140.64" gradientUnits="userSpaceOnUse"><stop offset="0" stop-color="#2b3469"/><stop offset="0.36" stop-color="#4dffba"/><stop offset="0.45" stop-color="#45c2b3"/><stop offset="0.55" stop-color="#3c86ad"/><stop offset="0.59" stop-color="#396faa"/><stop offset="0.85" stop-color="#282559"/></linearGradient><linearGradient id="Degradado_sin_nombre_72" x1="124.58" y1="9.94" x2="124.58" y2="123.02" gradientUnits="userSpaceOnUse"><stop offset="0" stop-color="#2b3469"/><stop offset="0" stop-color="#2c366b"/><stop offset="0.04" stop-color="#485f89"/><stop offset="0.07" stop-color="#5f83a3"/><stop offset="0.11" stop-color="#72a0b9"/><stop offset="0.15" stop-color="#80b6c9"/><stop offset="0.19" stop-color="#8bc6d5"/><stop offset="0.24" stop-color="#91cfdc"/><stop offset="0.31" stop-color="#93d2de"/><stop offset="0.42" stop-color="#53d0d7"/><stop offset="0.54" stop-color="#17cfd1"/><stop offset="0.59" stop-color="#00cece"/><stop offset="0.64" stop-color="#02c5c8"/><stop offset="0.71" stop-color="#08aeb8"/><stop offset="0.81" stop-color="#11889d"/><stop offset="0.92" stop-color="#1d5379"/><stop offset="1" stop-color="#282559"/></linearGradient></defs><g id="Capa_2" data-name="Capa 2"><g id="Ilustraciones"><rect class="cls-1" width="443.23" height="149.11" rx="28.09"/><path class="cls-2" d="M88.42,66.08a20.87,20.87,0,0,1-7.87,5c-4.71,1.64-8.65,1-9.84.12a5.13,5.13,0,0,1-.81-.82A5.94,5.94,0,0,1,69.21,69,2.41,2.41,0,0,1,69,68a1.68,1.68,0,0,1,.3-.82,2.17,2.17,0,0,1,1.24-.72l.12,0c1.45-.45,3.11-1.6,3.34-2.85a3.06,3.06,0,0,0-.75-2.19A5.25,5.25,0,0,0,71.93,60c-1.89-4.28-1.75-6.23-1.29-7.12a1.19,1.19,0,0,1,.74-.67l0,0A2.89,2.89,0,0,0,73.51,50a8.53,8.53,0,0,0,5.82,1.89l0-.41a8.35,8.35,0,0,1-5.84-2.05l-.39-.29,0,.49s.14,1.43-1.83,2.21a1.64,1.64,0,0,0-1,.86c-.49.92-.68,2.85,1,6.86-.15-.11-.31-.22-.47-.35a10,10,0,0,1-3.42-7.29,2.72,2.72,0,0,1,0-.28,8.93,8.93,0,0,0-1-4.47c2.24-1,2.86-5,3-5.73,2.78-1.19,8-6.31,8.28-6.55a4.76,4.76,0,0,0,.27-5.5,3.69,3.69,0,0,0-2.44-1.7,7,7,0,0,0-4.6,1.25,4.74,4.74,0,0,0-4.73-2.82,4.28,4.28,0,0,0-3.61,4.08c0,4.21,5.7,10.39,6.42,11.16-.09.67-.72,4.71-2.9,5.51a6.57,6.57,0,0,1-4.74-.54,5.35,5.35,0,0,1-2.27-3.85l0-.26-.25.11a5.25,5.25,0,0,1-3.67.23,2.81,2.81,0,0,1-1.5-1.84l-.07-.21-.21.08a4.15,4.15,0,0,1-4.71-1,3.86,3.86,0,0,1-.78-2.94v-.12l-.09-.07a4.58,4.58,0,0,1-1.49-5.32,4.44,4.44,0,0,1,2.86-2.25l.16,0V28.7a4.43,4.43,0,0,1,1-2.88A3.72,3.72,0,0,1,53,24.71h.15l0-.14A6.6,6.6,0,0,1,56.27,21a7,7,0,0,1,5.64.11l.12,0,.09-.08s3.3-2.86,6.88-2.46a7.06,7.06,0,0,1,4.93,3.18l.1.13.15,0s4.13-1.54,6.55.48A5.13,5.13,0,0,1,82.45,26l.41,0A5.45,5.45,0,0,0,81,22c-2.36-2-6-.88-6.81-.61A7.42,7.42,0,0,0,69,18.17c-3.45-.38-6.51,2-7.1,2.48a7.33,7.33,0,0,0-5.85,0,6.94,6.94,0,0,0-3.27,3.7A4,4,0,0,0,50,25.54a4.75,4.75,0,0,0-1.11,3,4.79,4.79,0,0,0-3,2.43,4.93,4.93,0,0,0,1.52,5.75,4.28,4.28,0,0,0,.89,3.14,4.54,4.54,0,0,0,5,1.17,3.15,3.15,0,0,0,1.66,1.88,5.29,5.29,0,0,0,3.77-.13,5.65,5.65,0,0,0,2.41,3.88,6.76,6.76,0,0,0,4.92.62,9.21,9.21,0,0,1,.88,2.8A8.5,8.5,0,0,1,67,51.61c0,.1,0,.19,0,.28a10.48,10.48,0,0,0,3.58,7.63l.66.48a5.58,5.58,0,0,1,1.69,1.65,2.69,2.69,0,0,1,.69,1.88c-.2,1-1.71,2.11-3,2.53l-.12,0A2.53,2.53,0,0,0,69,67a2.14,2.14,0,0,0-.38,1,2.65,2.65,0,0,0,.25,1.18,6.79,6.79,0,0,0,.74,1.41,5,5,0,0,0,.9.91,7.79,7.79,0,0,0,4.36,1,18.06,18.06,0,0,0,5.86-1,21.35,21.35,0,0,0,8-5.08ZM63,30.18a3.85,3.85,0,0,1,3.26-3.67,2.73,2.73,0,0,1,.35,0,4.49,4.49,0,0,1,4,2.83l.11.22.2-.15s2.37-1.69,4.48-1.31a3.22,3.22,0,0,1,2.17,1.52,4.33,4.33,0,0,1-.22,5c-.06,0-5.4,5.25-8.11,6.43C68.44,40.16,63,34.13,63,30.18Z"/><path class="cls-3" d="M129.32,27.7a4.82,4.82,0,0,0-3.69-2.24A4.71,4.71,0,0,0,124,22.72a4.09,4.09,0,0,0-3-.66,6.88,6.88,0,0,0-3.93-3,7.3,7.3,0,0,0-5.74,1.2c-.67-.37-4.13-2.1-7.45-1a7.34,7.34,0,0,0-4.39,4.17c-.77-.1-4.08-.41-6.1,1.44a5.43,5.43,0,0,0-1.55,4.52A4.39,4.39,0,0,0,89,31.3,4.26,4.26,0,0,0,89,35c-.44.66-2.77,4.47-.54,7-.31.71-1.63,4.12-.16,6.55.88,1.46,2.59,2.26,5.07,2.4.41.51,2.77,3.24,6.11,3.36,2.13.09,4.2-.93,6.15-3a3,3,0,0,0,2.52,1.79,1.15,1.15,0,0,1,.83.52c.62.79,1.14,2.69.12,7.29a5.15,5.15,0,0,0-1,1.57,3,3,0,0,0-.3,2.29c.47,1.18,2.32,2,3.83,2.14h.13a2.2,2.2,0,0,1,1.36.47,1.74,1.74,0,0,1,.45.73,4.81,4.81,0,0,1-.43,2.46,5.2,5.2,0,0,1-.65,1c-1.19,1.37-8.26,3-16-.26a26.15,26.15,0,0,1-8-5.37l-.29.3a26.89,26.89,0,0,0,8.18,5.46,24.22,24.22,0,0,0,9.35,1.94c3.67,0,6.36-1,7.1-1.8a6.54,6.54,0,0,0,.71-1.07,5.19,5.19,0,0,0,.46-2.7v0a2.09,2.09,0,0,0-.57-.93,2.57,2.57,0,0,0-1.6-.58h-.13c-1.4-.15-3.09-.89-3.49-1.89a2.76,2.76,0,0,1,.3-2,5.77,5.77,0,0,1,1.34-1.94c.19-.2.37-.39.55-.61a10.41,10.41,0,0,0,2-8.18c0-.08,0-.16,0-.25a8.19,8.19,0,0,1-.24-1.53,5.22,5.22,0,0,1,.32-3c.47-.72,1.28-.8,2.23-.89a4.59,4.59,0,0,0,2.81-1,4.9,4.9,0,0,0,1.26-3.9,5.3,5.3,0,0,0,3.71-.61,3.12,3.12,0,0,0,1.26-2.2A6.31,6.31,0,0,0,128,37a4.65,4.65,0,0,0,1.22-3.67C129.38,32.87,130.54,29.92,129.32,27.7Zm-.54,5.56a4.28,4.28,0,0,1-1.1,3.4,6,6,0,0,1-4.1,1.45h-.2l0,.2a2.82,2.82,0,0,1-1.11,2.09,5.28,5.28,0,0,1-3.65.5l-.26-.07v.28c.08,1.8-.29,3.08-1.11,3.83a4.19,4.19,0,0,1-2.58.86,3.17,3.17,0,0,0-2.43,1c-2.23-.46-3.6-4.18-3.82-4.81.56-.9,4.9-8.06,4.1-12.21a4.25,4.25,0,0,0-4.33-3.29,4.75,4.75,0,0,0-4.08,3.7,7,7,0,0,0-4.76-.32A3.63,3.63,0,0,0,97.28,32a4.8,4.8,0,0,0,1.36,5.36c.26.17,6.43,4.16,9.38,4.78.25.72,1.61,4.4,4,5a6.35,6.35,0,0,0-.26,3,9.49,9.49,0,0,0,.25,1.59l.06.25a10,10,0,0,1-1.93,7.82c-.14.18-.29.34-.44.5.86-4.3.3-6.16-.36-7a1.56,1.56,0,0,0-1.1-.66h0c-2.1-.37-2.24-1.75-2.24-1.81l0-.49-.33.37c-1.94,2.18-4,3.24-6.08,3.17-3.41-.13-5.83-3.25-5.86-3.28l-.06-.08h-.09c-2.39-.12-4-.86-4.83-2.2-1.5-2.48.21-6.25.23-6.29l.06-.13-.1-.1c-2.33-2.5.53-6.65.55-6.69l.07-.09,0-.11a4,4,0,0,1-.06-3.44A4.18,4.18,0,0,1,92,29.74l.19,0,0-.19a5.08,5.08,0,0,1,1.4-4.36c2.1-1.92,5.87-1.32,5.9-1.31l.16,0,.07-.14a7.05,7.05,0,0,1,4.21-4.1c3.43-1.09,7.19,1.05,7.22,1.07l.11.06.11-.06a7,7,0,0,1,5.51-1.22,6.59,6.59,0,0,1,3.74,2.91l.08.13.14,0a3.76,3.76,0,0,1,2.88.56,4.48,4.48,0,0,1,1.54,2.63l0,.15.15,0A4.44,4.44,0,0,1,129,27.91c1.19,2.15-.14,5.23-.15,5.26l0,0Zm-20.7,8.42c-2.89-.62-9.15-4.67-9.2-4.7a4.27,4.27,0,0,1-1.21-4.86,3.2,3.2,0,0,1,1.83-1.91,4.18,4.18,0,0,1,1.56-.28,8.5,8.5,0,0,1,3.09.68l.22.1.07-.23c.93-3.49,3.64-3.62,3.75-3.62a3.8,3.8,0,0,1,3.91,2.95C112.85,33.7,108.7,40.68,108.08,41.68Z"/><path class="cls-4" d="M90.06,17.1a31.14,31.14,0,0,0-5.15,5.49,34.52,34.52,0,0,0-3.77,6.49,33.1,33.1,0,0,0-2.76,14.58c.05,1.24.16,2.49.33,3.72l.14.91.07.46A1.29,1.29,0,0,0,79,49l.06.22c.16.59.36,1.18.56,1.77a42.43,42.43,0,0,0,3.08,6.8,31,31,0,0,0,9.92,10.83l0,0a34.42,34.42,0,0,1,6.25,4.58,45.78,45.78,0,0,1,5.26,5.61c.4.49.77,1,1.15,1.53l.58.78c.18.26.35.53.53.8l1,1.6,1,1.66.48.84c.16.27.29.57.44.85l.87,1.72.21.43.19.44.38.88.75,1.76,0,0a95.44,95.44,0,0,1,5,12.84c.69,2.18,1.29,4.39,1.85,6.61l.8,3.34.69,3.36a115.59,115.59,0,0,1,1.87,13.59c.23,2.28.28,4.56.37,6.84.07,1.14,0,2.29,0,3.43l0,3.42-.11-3.42c0-1.14,0-2.28-.15-3.42-.16-2.27-.28-4.54-.58-6.8a136.09,136.09,0,0,0-2.18-13.48l-.74-3.32-.86-3.3c-.6-2.2-1.24-4.38-2-6.53a93.85,93.85,0,0,0-5-12.61v0l0,0-.75-1.72-.37-.86-.19-.43L109,89l-.85-1.68c-.15-.27-.28-.56-.44-.83l-.47-.81-1-1.62-1-1.56c-.18-.26-.34-.53-.52-.78l-.56-.76c-.38-.49-.74-1-1.14-1.49A47.21,47.21,0,0,0,98,74c-.46-.42-.93-.83-1.41-1.22s-1-.78-1.47-1.16a26.06,26.06,0,0,0-3.09-2l0,0h0A31.67,31.67,0,0,1,81.71,58.28a41.08,41.08,0,0,1-3-7c-.2-.61-.39-1.22-.55-1.85l-.06-.23c0-.09,0-.18,0-.26l-.06-.47-.13-1a37.52,37.52,0,0,1-.27-3.82,33.46,33.46,0,0,1,.7-7.6l.21-.93.24-.92c.15-.62.36-1.23.55-1.83a31.84,31.84,0,0,1,1.44-3.53,33.76,33.76,0,0,1,4-6.45A29.4,29.4,0,0,1,90.06,17.1Z"/><path class="cls-5" d="M57.81,140.64a32.75,32.75,0,0,1-.87-9.47,46.57,46.57,0,0,1,1.39-9.46c.21-.78.45-1.54.68-2.31.12-.38.22-.77.35-1.14l.42-1.13c.28-.74.55-1.5.85-2.24l1-2.18.5-1.09.58-1.05,1.16-2.11c.19-.35.41-.69.63-1l.65-1,1.31-2v0l0,0a41.58,41.58,0,0,0,5.36-7.76,20.67,20.67,0,0,0,1.71-4.32c.07-.37.19-.74.23-1.12L73.93,90a22.73,22.73,0,0,0,.12-2.33,17.38,17.38,0,0,0-.11-2.3,5.58,5.58,0,0,0-.56-2,.85.85,0,0,0-.48-.44,1.2,1.2,0,0,0-.68.1c-.26.11-.66.34-1,.51l-1.09.55A46.85,46.85,0,0,1,65.64,86a20.66,20.66,0,0,1-2.39.72,5.86,5.86,0,0,1-.63.12c-.22,0-.42.08-.65.09l-.68,0-.74-.08.17,0a4.35,4.35,0,0,1-.93-.1,4.5,4.5,0,0,1-.87-.24,5.13,5.13,0,0,1-1.57-.93,5.39,5.39,0,0,1-1.61-3.17l-.08-.86a5.08,5.08,0,0,0-.07-.67,5.49,5.49,0,0,0-.35-1.31,2.47,2.47,0,0,0-1.55-1.61l.15,0a4.56,4.56,0,0,1-.49-.08l-.45-.13a3.54,3.54,0,0,1-.86-.45,2.58,2.58,0,0,1-.72-.75,2.79,2.79,0,0,1-.39-1l0-.06v-.1a1.57,1.57,0,0,0,0-.27,1.63,1.63,0,0,0-.07-.26.49.49,0,0,0-.09-.15l0,0,.15,0-.27-.08-.22-.1a3.54,3.54,0,0,1-.41-.26,2.23,2.23,0,0,1-.65-.8,2.28,2.28,0,0,1-.22-1,3.59,3.59,0,0,1,0-.47l0-.3a4.65,4.65,0,0,0,0-1.11,1.24,1.24,0,0,0-.09-.38c0-.08,0,0,.06,0l.06,0a12.93,12.93,0,0,0-1.91-.26,13.8,13.8,0,0,0-1.93,0c-.32,0-.63.06-.94.11l-.46.1-.29.06a2.2,2.2,0,0,1-.37,0,2.34,2.34,0,0,1-.8-.1,1.66,1.66,0,0,1-1.06-1,2.38,2.38,0,0,1-.11-.42c0-.13,0-.26,0-.38v-.4l0-.09c.52-1.9,1-3.86,1.31-5.82a43.71,43.71,0,0,0,.67-5.89,19.94,19.94,0,0,0-.1-2.9,7.9,7.9,0,0,0-.69-2.64l-.15-.28-.18-.26L42,50l-.22-.35c-.27-.46-.51-.93-.74-1.41a20.44,20.44,0,0,1-1.09-2.95,21.27,21.27,0,0,1-.78-6.2,23.25,23.25,0,0,1,1-6.15,27.52,27.52,0,0,1,2.45-5.68,36.62,36.62,0,0,1,3.48-5.09l.13-.16.15-.15.27-.28c.18-.19.37-.36.56-.54.37-.35.75-.69,1.13-1,.78-.67,1.57-1.31,2.38-1.93a44.73,44.73,0,0,1,5.13-3.35,34.3,34.3,0,0,1,11.48-4.09,28.39,28.39,0,0,1,6.11-.27,29.06,29.06,0,0,1,6,1.08A33.09,33.09,0,0,1,90.06,17.1l-1.26-.84a13.08,13.08,0,0,0-1.27-.82A29.39,29.39,0,0,0,84.89,14c-.46-.21-.9-.45-1.36-.65l-1.39-.56c-.24-.09-.47-.2-.71-.28l-.71-.22c-.48-.15-1-.32-1.44-.44A28.81,28.81,0,0,0,73.37,11a28.21,28.21,0,0,0-6,.44A34.21,34.21,0,0,0,56.31,15.6,43.31,43.31,0,0,0,51.37,19q-1.17.93-2.28,1.92l-1.09,1-.52.53-.25.26-.11.12L47,23A31.53,31.53,0,0,0,41.5,33.32a22.27,22.27,0,0,0-.87,5.77,19.63,19.63,0,0,0,.78,5.76,17.26,17.26,0,0,0,1,2.7,12.56,12.56,0,0,0,.67,1.26l.19.3.2.28.25.37.2.38a9.58,9.58,0,0,1,.87,3.17,20.76,20.76,0,0,1,.12,3.14,44.56,44.56,0,0,1-.68,6.13c-.35,2-.79,4-1.33,6l0-.14a.73.73,0,0,0,0,.39h0l.21,0,.14,0,.21,0a5.54,5.54,0,0,1,.56-.11,10,10,0,0,1,1.1-.15,14.42,14.42,0,0,1,2.18,0,15.14,15.14,0,0,1,2.16.3h.07A2.11,2.11,0,0,1,50,69a2.15,2.15,0,0,1,.28.23,1.84,1.84,0,0,1,.19.25,1.28,1.28,0,0,1,.14.25,2.75,2.75,0,0,1,.22.89,6.21,6.21,0,0,1,0,1.5l-.05.35a1.09,1.09,0,0,0,0,.18.74.74,0,0,0,.06.29.48.48,0,0,0,.17.21.67.67,0,0,0,.14.09l.08,0h0l.14,0a1.88,1.88,0,0,1,.64.49,2.09,2.09,0,0,1,.34.59,3,3,0,0,1,.16.56,4.54,4.54,0,0,1,.06.57l0-.15a1.52,1.52,0,0,0,.16.39,1.14,1.14,0,0,0,.3.32,2,2,0,0,0,.46.23l.26.08.24,0h.1l.06,0a3.69,3.69,0,0,1,1.67,1,4.78,4.78,0,0,1,1,1.56,8.31,8.31,0,0,1,.44,1.66,8.08,8.08,0,0,1,.08.86l.06.67a3.81,3.81,0,0,0,1.09,2.23,3.55,3.55,0,0,0,1.06.63,3.28,3.28,0,0,0,.61.18,3.57,3.57,0,0,0,.6.07l.17,0,.46.05.51,0a5.33,5.33,0,0,0,.54-.07,3.41,3.41,0,0,0,.54-.1,18.6,18.6,0,0,0,2.22-.65,44.27,44.27,0,0,0,4.34-1.82l1.07-.52c.36-.18.65-.35,1.13-.56a2.53,2.53,0,0,1,1.65-.13,2.28,2.28,0,0,1,1.3,1.09,4.8,4.8,0,0,1,.51,1.3,8.37,8.37,0,0,1,.22,1.28,17.4,17.4,0,0,1,.1,2.49c0,.82-.08,1.63-.17,2.45l-.16,1.23c-.06.42-.19.82-.28,1.23A22,22,0,0,1,73,97.18a42.43,42.43,0,0,1-5.67,7.89l0,0L66,107l-.66,1a10.47,10.47,0,0,0-.63,1L63.53,111l-.59,1-.51,1.06-1,2.13c-.32.72-.6,1.46-.91,2.18l-.44,1.1c-.14.37-.25.75-.38,1.12-.24.75-.51,1.5-.73,2.25a46.73,46.73,0,0,0-1.66,9.31A34.14,34.14,0,0,0,57.81,140.64Z"/><path class="cls-6" d="M90.06,17.1a37.92,37.92,0,0,1,18.18-6.92,41.18,41.18,0,0,1,9.86.13c.82.1,1.63.23,2.45.38a12.74,12.74,0,0,1,2.44.74,21.41,21.41,0,0,1,4.37,2.48,23.35,23.35,0,0,1,6.49,7.59,23.5,23.5,0,0,1,2,4.64,11.1,11.1,0,0,0,.34,1.1,8.91,8.91,0,0,0,.49,1,15.55,15.55,0,0,0,1.23,2,17.19,17.19,0,0,0,3.26,3.34c.31.24.62.47,1,.71l1,.75c.64.49,1.29,1,1.95,1.42s1.33.89,2,1.37a11.68,11.68,0,0,1,1,.77,4.52,4.52,0,0,1,1,1.14,2.73,2.73,0,0,1,.32,1.68,3.38,3.38,0,0,1-.2.76,3.27,3.27,0,0,1-.35.7,4.06,4.06,0,0,1-1,1.1,5.28,5.28,0,0,1-1.28.69h0l-.07,0a4.6,4.6,0,0,0-.67.2,3.14,3.14,0,0,0-.61.29,1.12,1.12,0,0,0-.35.3.21.21,0,0,0,0,.15l0,.18s0,0,0,0,0,.06,0,.09a1.46,1.46,0,0,0,.07.19,2.41,2.41,0,0,0,.23.36,2.62,2.62,0,0,0,.34.31l.15.1.17.14.28.28a4.16,4.16,0,0,1,.9,1.33,3.2,3.2,0,0,1,.22,1.74v.07c0,.07,0,.18-.06.27l0,.29v.23c0,.06,0,.11,0,.09l-.07-.14a3.08,3.08,0,0,1,.23.42,4,4,0,0,1,.15.4,4.15,4.15,0,0,1,.16.84,3.78,3.78,0,0,1-.25,1.67l0,.12,0,0a.51.51,0,0,0-.08.14l-.08.18a2.79,2.79,0,0,0-.1.39,1.63,1.63,0,0,0,0,.73,1.76,1.76,0,0,0,.16.35l.28.5c.18.34.35.68.52,1,.35.68.67,1.37,1,2.08a8.7,8.7,0,0,1,.7,2.4v0a4.61,4.61,0,0,1,0,.47c0,.15,0,.28-.08.42a7.15,7.15,0,0,1-.23.79,6.72,6.72,0,0,1-.77,1.45,7.3,7.3,0,0,1-1.09,1.2c-.2.18-.42.33-.63.49s-.45.28-.68.42l0,0-.09,0a34.35,34.35,0,0,0-6.86,3.36,15.86,15.86,0,0,0-2.88,2.38,6,6,0,0,0-1.65,3,5.89,5.89,0,0,0-.1.91l-.07,1c0,.65-.06,1.3-.08,1.94,0,1.29,0,2.59.06,3.87a26.48,26.48,0,0,0,.46,3.8,9.68,9.68,0,0,0,1.28,3.43l-.1-.11c2.47,2.23,4.82,4.55,7.12,6.93s4.52,4.84,6.6,7.41a71.73,71.73,0,0,1,5.8,8,32.9,32.9,0,0,1,2.29,4.41,15.85,15.85,0,0,1,1.25,4.78,15.7,15.7,0,0,0-1.46-4.69,34.17,34.17,0,0,0-2.42-4.29,72.88,72.88,0,0,0-6-7.79q-3.26-3.69-6.76-7.17c-2.34-2.3-4.74-4.56-7.2-6.72l-.06,0,0-.06a10.82,10.82,0,0,1-1.54-3.86,27,27,0,0,1-.56-4c-.09-1.33-.13-2.66-.12-4,0-.67,0-1.33.06-2l.06-1a8.26,8.26,0,0,1,.1-1,7.51,7.51,0,0,1,2-3.8A16.67,16.67,0,0,1,138.27,70a33.66,33.66,0,0,1,7.2-3.6l-.13.06c.17-.11.36-.22.53-.34a4.78,4.78,0,0,0,.5-.39,5.5,5.5,0,0,0,.83-.91,5,5,0,0,0,.56-1.08,4.3,4.3,0,0,0,.18-.58c0-.1,0-.2.05-.29s0-.21,0-.25v.06a7.94,7.94,0,0,0-.58-1.88c-.28-.66-.59-1.32-.92-2l-.51-1-.27-.48a3.76,3.76,0,0,1-.3-.67,3.39,3.39,0,0,1-.11-1.48,4.23,4.23,0,0,1,.18-.7l.14-.33a2.71,2.71,0,0,1,.2-.35l-.09.16a2,2,0,0,0,.14-.94,1.87,1.87,0,0,0-.09-.46,2.18,2.18,0,0,0-.09-.23c0-.06-.08-.15-.08-.16l-.07-.14a1.8,1.8,0,0,1-.15-.61,3.84,3.84,0,0,1,0-.48c0-.15,0-.29.05-.43s0-.26.08-.43v.07a1.53,1.53,0,0,0-.11-.83,2.7,2.7,0,0,0-.56-.83l-.19-.18a1.5,1.5,0,0,0-.2-.16,3.3,3.3,0,0,1-.62-.57,3.06,3.06,0,0,1-.47-.75,3.52,3.52,0,0,1-.15-.42l-.06-.23c0-.09,0-.14,0-.29l0,.17a1.92,1.92,0,0,1,.25-1.44,2.84,2.84,0,0,1,.87-.81,5.19,5.19,0,0,1,.9-.42,6.18,6.18,0,0,1,.92-.27l-.12,0A3,3,0,0,0,147.49,42a1.6,1.6,0,0,0,.2-.39,1.54,1.54,0,0,0,.11-.42,1,1,0,0,0-.12-.67,5.18,5.18,0,0,0-1.54-1.38c-.65-.45-1.35-.9-2-1.38s-1.34-1-2-1.48l-1-.75c-.32-.22-.67-.48-1-.75a18.51,18.51,0,0,1-3.51-3.67A15.78,15.78,0,0,1,135.33,29a11.5,11.5,0,0,1-.54-1.18,12.11,12.11,0,0,1-.37-1.24,22.66,22.66,0,0,0-1.79-4.38,21.9,21.9,0,0,0-6-7.27,20.43,20.43,0,0,0-4.07-2.42,11.35,11.35,0,0,0-2.22-.74c-.79-.16-1.58-.31-2.38-.43a43.34,43.34,0,0,0-9.66-.38A38.51,38.51,0,0,0,90.06,17.1Z"/><g class="cls-7"><path class="cls-8" d="M227.9,57.22a7.6,7.6,0,0,1-3.93-1,6.71,6.71,0,0,1-2.6-2.78,9.06,9.06,0,0,1-.93-4.22,9.74,9.74,0,0,1,.53-3.29,7,7,0,0,1,1.51-2.5,6.45,6.45,0,0,1,2.35-1.61,8.15,8.15,0,0,1,3.07-.56,7.7,7.7,0,0,1,3.94,1A6.64,6.64,0,0,1,234.43,45a9,9,0,0,1,.93,4.2,9.76,9.76,0,0,1-.53,3.3A7.14,7.14,0,0,1,233.32,55,6.47,6.47,0,0,1,231,56.66,8.15,8.15,0,0,1,227.9,57.22Zm0-2.42a4.33,4.33,0,0,0,2.43-.66,4.21,4.21,0,0,0,1.54-1.91,7.58,7.58,0,0,0,.54-3,6.31,6.31,0,0,0-1.18-4.09,4,4,0,0,0-3.33-1.45,4.4,4.4,0,0,0-2.42.65,4.06,4.06,0,0,0-1.55,1.89,7.52,7.52,0,0,0-.54,3,6.39,6.39,0,0,0,1.19,4.1A4,4,0,0,0,227.9,54.8Z"/><path class="cls-8" d="M244.16,57.22a4.24,4.24,0,0,1-2.39-.68,3.25,3.25,0,0,1-1.35-1.83l.24-.55v1.61a1.45,1.45,0,0,1-.35,1,1.57,1.57,0,0,1-2,0,1.41,1.41,0,0,1-.36-1V42.7a1.37,1.37,0,0,1,.36-1,1.34,1.34,0,0,1,1-.36,1.25,1.25,0,0,1,1.38,1.39v5.72h-.26a3.23,3.23,0,0,1,1.36-1.74,4.23,4.23,0,0,1,2.36-.66,4.35,4.35,0,0,1,4.13,2.61,6.8,6.8,0,0,1,.6,3,6.89,6.89,0,0,1-.6,3,4.36,4.36,0,0,1-4.13,2.63Zm-.77-2.09a2.54,2.54,0,0,0,1.43-.4,2.49,2.49,0,0,0,1-1.17,4.82,4.82,0,0,0,.35-2,4,4,0,0,0-.75-2.63,2.49,2.49,0,0,0-2-.87,2.6,2.6,0,0,0-1.43.39,2.48,2.48,0,0,0-1,1.16,4.83,4.83,0,0,0-.34,2,4,4,0,0,0,.75,2.63A2.47,2.47,0,0,0,243.39,55.13Z"/><path class="cls-8" d="M249.83,61.16A1.24,1.24,0,0,1,249,61a1,1,0,0,1-.43-.47,1.09,1.09,0,0,1-.07-.59,1,1,0,0,1,.25-.54.75.75,0,0,1,.56-.25,2.18,2.18,0,0,0,1.44-.57,2,2,0,0,0,.45-1.44v-9.7a1.37,1.37,0,0,1,.36-1,1.42,1.42,0,0,1,1-.35,1.34,1.34,0,0,1,1,.35,1.41,1.41,0,0,1,.35,1v9.46a5.16,5.16,0,0,1-.45,2.31,3,3,0,0,1-1.36,1.37A6.58,6.58,0,0,1,249.83,61.16ZM252.61,44a1.74,1.74,0,0,1-1.2-.38,1.37,1.37,0,0,1-.43-1.07,1.35,1.35,0,0,1,.43-1.08,1.74,1.74,0,0,1,1.2-.37,1.77,1.77,0,0,1,1.21.37,1.4,1.4,0,0,1,.41,1.08,1.42,1.42,0,0,1-.41,1.07A1.77,1.77,0,0,1,252.61,44Z"/><path class="cls-8" d="M262.15,57.22a6.83,6.83,0,0,1-3.14-.68,4.9,4.9,0,0,1-2-1.94,5.83,5.83,0,0,1-.71-3,6,6,0,0,1,.69-2.92,5,5,0,0,1,1.91-2,5.42,5.42,0,0,1,2.79-.72,5.35,5.35,0,0,1,2.05.38,4.26,4.26,0,0,1,1.57,1.07,4.81,4.81,0,0,1,1,1.71,7.18,7.18,0,0,1,.34,2.25.73.73,0,0,1-.28.61,1.25,1.25,0,0,1-.78.21h-7.06V50.66h6.18l-.35.33a4.19,4.19,0,0,0-.3-1.69,2.3,2.3,0,0,0-.86-1,2.52,2.52,0,0,0-1.39-.36,2.63,2.63,0,0,0-2.57,1.64,4.75,4.75,0,0,0-.34,1.86v.15a3.77,3.77,0,0,0,.85,2.7,3.3,3.3,0,0,0,2.5.89,6.93,6.93,0,0,0,1.28-.14,4.74,4.74,0,0,0,1.36-.5,1.46,1.46,0,0,1,.81-.23.86.86,0,0,1,.56.25.91.91,0,0,1,.25.54,1.1,1.1,0,0,1-.12.65,1.39,1.39,0,0,1-.56.57A5.62,5.62,0,0,1,264,57,8.58,8.58,0,0,1,262.15,57.22Z"/><path class="cls-8" d="M273.66,57.22a5.3,5.3,0,0,1-2.39-.48,3.15,3.15,0,0,1-1.42-1.42,5.21,5.21,0,0,1-.46-2.32V48.31h-1.14a1.1,1.1,0,0,1-.82-.28,1,1,0,0,1-.28-.75,1,1,0,0,1,.28-.78,1.19,1.19,0,0,1,.82-.26h1.14v-2a1.37,1.37,0,0,1,.36-1,1.42,1.42,0,0,1,1-.36,1.36,1.36,0,0,1,1,.36,1.41,1.41,0,0,1,.35,1v2h2.33a1.19,1.19,0,0,1,.82.26,1,1,0,0,1,.28.78,1,1,0,0,1-.28.75,1.1,1.1,0,0,1-.82.28h-2.33v4.53a2.31,2.31,0,0,0,.46,1.58,1.88,1.88,0,0,0,1.5.53,3.23,3.23,0,0,0,.66-.06,2.81,2.81,0,0,1,.5-.09.53.53,0,0,1,.44.16,1.15,1.15,0,0,1,.18.76,2.05,2.05,0,0,1-.14.78.85.85,0,0,1-.52.48,5.57,5.57,0,0,1-.75.16A5.25,5.25,0,0,1,273.66,57.22Z"/><path class="cls-8" d="M278.83,44a1.74,1.74,0,0,1-1.2-.38,1.37,1.37,0,0,1-.43-1.07,1.35,1.35,0,0,1,.43-1.08,2.15,2.15,0,0,1,2.41,0,1.37,1.37,0,0,1,.42,1.08,1.39,1.39,0,0,1-.42,1.07A1.75,1.75,0,0,1,278.83,44Zm0,13.11a1.28,1.28,0,0,1-1-.39,1.58,1.58,0,0,1-.36-1.1V47.58a1.58,1.58,0,0,1,.36-1.11,1.31,1.31,0,0,1,1-.38,1.35,1.35,0,0,1,1,.38,1.58,1.58,0,0,1,.36,1.11v8.08a1.58,1.58,0,0,1-.35,1.1A1.31,1.31,0,0,1,278.83,57.15Z"/><path class="cls-8" d="M287.43,57.17a1.62,1.62,0,0,1-1-.28,2.08,2.08,0,0,1-.67-.88l-3.5-8.12a1.73,1.73,0,0,1-.14-.9,1,1,0,0,1,.4-.67,1.51,1.51,0,0,1,.93-.25,1.31,1.31,0,0,1,.82.23,2,2,0,0,1,.55.87l3,7.41h-.66l3.05-7.44a1.83,1.83,0,0,1,.56-.84,1.44,1.44,0,0,1,.87-.23,1.1,1.1,0,0,1,.77.25,1.13,1.13,0,0,1,.36.66,1.56,1.56,0,0,1-.16.89L289.06,56a1.9,1.9,0,0,1-.65.88A1.66,1.66,0,0,1,287.43,57.17Z"/><path class="cls-8" d="M299.35,57.22a6,6,0,0,1-2.9-.68,4.87,4.87,0,0,1-1.92-1.95,6.24,6.24,0,0,1-.68-3,6.45,6.45,0,0,1,.39-2.32,4.8,4.8,0,0,1,1.11-1.76,4.66,4.66,0,0,1,1.74-1.12,6.23,6.23,0,0,1,2.26-.39,6,6,0,0,1,2.91.68,4.76,4.76,0,0,1,1.91,1.94,6.17,6.17,0,0,1,.68,3,6.82,6.82,0,0,1-.38,2.33,5,5,0,0,1-1.11,1.77,4.83,4.83,0,0,1-1.74,1.12A6.29,6.29,0,0,1,299.35,57.22Zm0-2.09a2.52,2.52,0,0,0,1.43-.4,2.56,2.56,0,0,0,1-1.17,4.83,4.83,0,0,0,.34-2,4,4,0,0,0-.75-2.63,2.49,2.49,0,0,0-2-.87,2.62,2.62,0,0,0-1.43.39,2.41,2.41,0,0,0-.95,1.16,4.82,4.82,0,0,0-.35,2,4,4,0,0,0,.75,2.63A2.47,2.47,0,0,0,299.35,55.13Z"/><path class="cls-8" d="M316.62,57.22a4.64,4.64,0,0,1-2.08-.45,3.64,3.64,0,0,1-1.43-1.22,3.09,3.09,0,0,1-.51-1.74,2.73,2.73,0,0,1,.61-1.88,3.66,3.66,0,0,1,2-1,17.6,17.6,0,0,1,3.72-.31H320V52.2H319a13.67,13.67,0,0,0-2.17.14,2.1,2.1,0,0,0-1.16.45,1.15,1.15,0,0,0-.34.89,1.54,1.54,0,0,0,.51,1.19,2,2,0,0,0,1.4.46,2.48,2.48,0,0,0,1.29-.34,2.44,2.44,0,0,0,.89-.94,2.74,2.74,0,0,0,.33-1.36V50.16a2.21,2.21,0,0,0-.48-1.59,2.27,2.27,0,0,0-1.63-.48,6.82,6.82,0,0,0-1.37.15,7.78,7.78,0,0,0-1.56.53,1,1,0,0,1-.73.11.84.84,0,0,1-.5-.36,1.08,1.08,0,0,1-.17-.61,1.32,1.32,0,0,1,.17-.65,1.08,1.08,0,0,1,.6-.47A9.27,9.27,0,0,1,316,46.2a9.13,9.13,0,0,1,1.71-.18,6.21,6.21,0,0,1,2.61.48A3.24,3.24,0,0,1,321.81,48a5.43,5.43,0,0,1,.51,2.52v5.28a1.49,1.49,0,0,1-.33,1,1.43,1.43,0,0,1-1.9,0,1.45,1.45,0,0,1-.34-1V54.71h.17a3,3,0,0,1-.6,1.33,2.9,2.9,0,0,1-1.14.87A3.65,3.65,0,0,1,316.62,57.22Z"/><path class="cls-8" d="M330.09,57.22a6,6,0,0,1-2.95-.69,4.84,4.84,0,0,1-1.94-2,6.31,6.31,0,0,1-.68-3,6.54,6.54,0,0,1,.39-2.33A4.52,4.52,0,0,1,326,47.51a4.74,4.74,0,0,1,1.76-1.1,6.51,6.51,0,0,1,2.31-.39,7.11,7.11,0,0,1,1.57.2,5.15,5.15,0,0,1,1.59.66,1.07,1.07,0,0,1,.47.53,1.19,1.19,0,0,1,0,.62,1.14,1.14,0,0,1-.27.55.91.91,0,0,1-.52.29,1,1,0,0,1-.68-.14,4.25,4.25,0,0,0-1-.43,3.4,3.4,0,0,0-1-.14,3.18,3.18,0,0,0-1.28.23,2.47,2.47,0,0,0-.93.66,2.86,2.86,0,0,0-.59,1.06,5.11,5.11,0,0,0-.19,1.48,3.88,3.88,0,0,0,.78,2.56,2.72,2.72,0,0,0,2.21.94,3.65,3.65,0,0,0,1-.14,4,4,0,0,0,1-.41,1,1,0,0,1,.67-.14.93.93,0,0,1,.49.3,1.06,1.06,0,0,1,.24.55,1.25,1.25,0,0,1-.07.63,1,1,0,0,1-.45.5,5.29,5.29,0,0,1-1.54.64A6.72,6.72,0,0,1,330.09,57.22Z"/><path class="cls-8" d="M340.47,57.22a5.33,5.33,0,0,1-2.39-.48,3.2,3.2,0,0,1-1.42-1.42A5.36,5.36,0,0,1,336.2,53V48.31h-1.14a1.12,1.12,0,0,1-.82-.28,1,1,0,0,1-.28-.75,1,1,0,0,1,.28-.78,1.2,1.2,0,0,1,.82-.26h1.14v-2a1.34,1.34,0,0,1,.37-1,1.38,1.38,0,0,1,1-.36,1.34,1.34,0,0,1,1,.36,1.41,1.41,0,0,1,.35,1v2h2.33a1.19,1.19,0,0,1,.82.26,1,1,0,0,1,.28.78,1,1,0,0,1-.28.75,1.1,1.1,0,0,1-.82.28H339v4.53a2.36,2.36,0,0,0,.46,1.58,1.88,1.88,0,0,0,1.5.53,3.23,3.23,0,0,0,.66-.06,2.75,2.75,0,0,1,.51-.09.55.55,0,0,1,.44.16,1.23,1.23,0,0,1,.17.76,2.05,2.05,0,0,1-.14.78A.85.85,0,0,1,342,57a5.57,5.57,0,0,1-.75.16A5.13,5.13,0,0,1,340.47,57.22Z"/><path class="cls-8" d="M347.88,57.22a4.5,4.5,0,0,1-2.22-.5,3.07,3.07,0,0,1-1.31-1.48,6.3,6.3,0,0,1-.43-2.46V47.45a1.35,1.35,0,0,1,.36-1,1.37,1.37,0,0,1,1-.34,1.41,1.41,0,0,1,1,.34,1.35,1.35,0,0,1,.36,1v5.37a2.56,2.56,0,0,0,.47,1.69,1.78,1.78,0,0,0,1.47.55,2.34,2.34,0,0,0,1.8-.76,2.82,2.82,0,0,0,.71-2V47.45a1.35,1.35,0,0,1,.35-1,1.37,1.37,0,0,1,1-.34,1.41,1.41,0,0,1,1,.34,1.32,1.32,0,0,1,.37,1v8.32c0,.94-.45,1.4-1.34,1.4a1.31,1.31,0,0,1-1-.36,1.41,1.41,0,0,1-.36-1V54.1l.31.65a3.74,3.74,0,0,1-1.4,1.83A3.78,3.78,0,0,1,347.88,57.22Z"/><path class="cls-8" d="M360.27,57.22a4.64,4.64,0,0,1-2.08-.45,3.64,3.64,0,0,1-1.43-1.22,3.1,3.1,0,0,1-.52-1.74,2.73,2.73,0,0,1,.62-1.88,3.66,3.66,0,0,1,2-1,17.6,17.6,0,0,1,3.72-.31h1.1V52.2H362.6a13.91,13.91,0,0,0-2.18.14,2.09,2.09,0,0,0-1.15.45,1.15,1.15,0,0,0-.34.89,1.57,1.57,0,0,0,.5,1.19,2.06,2.06,0,0,0,1.41.46A2.4,2.4,0,0,0,363,54.05a2.74,2.74,0,0,0,.33-1.36V50.16a2.21,2.21,0,0,0-.48-1.59,2.28,2.28,0,0,0-1.63-.48,6.92,6.92,0,0,0-1.38.15,7.7,7.7,0,0,0-1.55.53,1,1,0,0,1-.73.11.84.84,0,0,1-.5-.36,1.09,1.09,0,0,1-.18-.61,1.33,1.33,0,0,1,.18-.65,1.09,1.09,0,0,1,.59-.47,9.53,9.53,0,0,1,1.95-.59,9.05,9.05,0,0,1,1.71-.18,6.13,6.13,0,0,1,2.6.48A3.26,3.26,0,0,1,365.46,48a5.43,5.43,0,0,1,.51,2.52v5.28a1.49,1.49,0,0,1-.33,1,1.23,1.23,0,0,1-.95.36,1.27,1.27,0,0,1-1-.36,1.49,1.49,0,0,1-.34-1V54.71h.18A2.91,2.91,0,0,1,363,56a2.87,2.87,0,0,1-1.13.87A3.65,3.65,0,0,1,360.27,57.22Z"/><path class="cls-8" d="M372.44,57.22a3.46,3.46,0,0,1-2.75-1,4.44,4.44,0,0,1-.93-3.06V42.7a1.41,1.41,0,0,1,.35-1,1.38,1.38,0,0,1,2.4,1V53a2.24,2.24,0,0,0,.43,1.5,1.55,1.55,0,0,0,1.22.48h.33l.31,0a.37.37,0,0,1,.42.16,2.22,2.22,0,0,1,.11.85,1.52,1.52,0,0,1-.22.86,1,1,0,0,1-.73.37l-.46.05Z"/><path class="cls-8" d="M377.1,49.39a1.6,1.6,0,0,1-1.2-.47,1.58,1.58,0,0,1-.45-1.16,1.7,1.7,0,0,1,2.85-1.18,1.68,1.68,0,0,1,.43,1.18,1.64,1.64,0,0,1-.43,1.16A1.57,1.57,0,0,1,377.1,49.39Zm0,7.72a1.59,1.59,0,0,1-1.2-.46,1.65,1.65,0,0,1-.45-1.19,1.59,1.59,0,0,1,.45-1.16,1.62,1.62,0,0,1,1.2-.45,1.59,1.59,0,0,1,1.2.45,1.66,1.66,0,0,1,.43,1.16,1.72,1.72,0,0,1-.43,1.19A1.56,1.56,0,0,1,377.1,57.11Z"/></g><g class="cls-7"><path class="cls-8" d="M199.18,102.85a18.28,18.28,0,0,1-3.28-.32,9.86,9.86,0,0,1-3.1-1.12,2.15,2.15,0,0,1-.81-.84,1.9,1.9,0,0,1-.18-1,1.59,1.59,0,0,1,.36-.84,1.42,1.42,0,0,1,.8-.47,1.61,1.61,0,0,1,1.06.18,12.18,12.18,0,0,0,2.7,1,11.84,11.84,0,0,0,2.48.27,4.52,4.52,0,0,0,2.58-.59,1.84,1.84,0,0,0,.84-1.57,1.51,1.51,0,0,0-.56-1.27,3.77,3.77,0,0,0-1.67-.67l-3.6-.69a6.21,6.21,0,0,1-3.4-1.63,4.3,4.3,0,0,1-1.17-3.12,4.82,4.82,0,0,1,1-3,6.15,6.15,0,0,1,2.65-2,10.2,10.2,0,0,1,3.89-.68,12.34,12.34,0,0,1,3,.34,11.08,11.08,0,0,1,2.68,1.06,1.6,1.6,0,0,1,.74.76,1.55,1.55,0,0,1,.09,1,2,2,0,0,1-.44.86A1.3,1.3,0,0,1,205,89a1.79,1.79,0,0,1-1.09-.19,9.66,9.66,0,0,0-2.15-.83,8.1,8.1,0,0,0-2-.25,4.47,4.47,0,0,0-2.61.61,1.9,1.9,0,0,0-.84,1.62,1.7,1.7,0,0,0,.5,1.26,2.87,2.87,0,0,0,1.55.68l3.6.68a6.78,6.78,0,0,1,3.54,1.59,4.07,4.07,0,0,1,1.21,3.1,4.82,4.82,0,0,1-2,4.12A9.16,9.16,0,0,1,199.18,102.85Z"/><path class="cls-8" d="M216.09,102.85a7.62,7.62,0,0,1-3.4-.74,5.94,5.94,0,0,1-2.34-2,5,5,0,0,1-.84-2.85,4.48,4.48,0,0,1,1-3.08,6.14,6.14,0,0,1,3.28-1.64,29.64,29.64,0,0,1,6.08-.5h1.8v2.59h-1.76a22.31,22.31,0,0,0-3.56.22,3.56,3.56,0,0,0-1.89.74,1.86,1.86,0,0,0-.56,1.45,2.48,2.48,0,0,0,.83,2,3.3,3.3,0,0,0,2.3.75,4,4,0,0,0,2.11-.55,4,4,0,0,0,1.45-1.53,4.53,4.53,0,0,0,.54-2.24V91.3a3.56,3.56,0,0,0-.79-2.6,3.71,3.71,0,0,0-2.66-.79,11.55,11.55,0,0,0-2.25.25,12,12,0,0,0-2.54.87,1.82,1.82,0,0,1-1.21.18,1.43,1.43,0,0,1-.81-.6,1.81,1.81,0,0,1-.28-1,2.18,2.18,0,0,1,.28-1.06,1.77,1.77,0,0,1,1-.77,15.71,15.71,0,0,1,3.18-1,14.54,14.54,0,0,1,2.79-.29,10,10,0,0,1,4.27.79,5.32,5.32,0,0,1,2.5,2.39,9,9,0,0,1,.83,4.13v8.63a2.44,2.44,0,0,1-.54,1.71,2,2,0,0,1-1.55.6,2.06,2.06,0,0,1-1.57-.6,2.39,2.39,0,0,1-.55-1.71V98.75h.28a4.76,4.76,0,0,1-1,2.17,4.94,4.94,0,0,1-1.85,1.43A6.25,6.25,0,0,1,216.09,102.85Z"/><path class="cls-8" d="M236,102.85a5.7,5.7,0,0,1-4.5-1.71,7.35,7.35,0,0,1-1.51-5v-17a2.27,2.27,0,0,1,.58-1.69,2.24,2.24,0,0,1,1.65-.58,2.35,2.35,0,0,1,1.68.58,2.27,2.27,0,0,1,.59,1.69V95.9a3.66,3.66,0,0,0,.7,2.45,2.53,2.53,0,0,0,2,.79h.54l.51-.06a.59.59,0,0,1,.68.27,3.48,3.48,0,0,1,.18,1.39,2.36,2.36,0,0,1-.36,1.4,1.62,1.62,0,0,1-1.19.61l-.76.08C236.53,102.84,236.27,102.85,236,102.85Z"/><path class="cls-8" d="M247.85,102.85a7.34,7.34,0,0,1-3.64-.81,5,5,0,0,1-2.14-2.43,10.11,10.11,0,0,1-.7-4V86.87a2,2,0,0,1,2.23-2.27,2.34,2.34,0,0,1,1.67.56,2.22,2.22,0,0,1,.6,1.71v8.78a4.26,4.26,0,0,0,.75,2.77,3,3,0,0,0,2.42.9,3.85,3.85,0,0,0,3-1.24,4.68,4.68,0,0,0,1.15-3.29V86.87a2,2,0,0,1,2.23-2.27,2.34,2.34,0,0,1,1.67.56,2.22,2.22,0,0,1,.6,1.71v13.6c0,1.54-.73,2.31-2.2,2.31a2.16,2.16,0,0,1-1.62-.6,2.35,2.35,0,0,1-.57-1.71V97.74l.5,1.08a6.22,6.22,0,0,1-2.29,3A6.28,6.28,0,0,1,247.85,102.85Z"/><path class="cls-8" d="M269.09,102.85a7.13,7.13,0,0,1-6.77-4.3,11.36,11.36,0,0,1-1-4.88,11.24,11.24,0,0,1,1-4.88A7.49,7.49,0,0,1,265,85.64a7.37,7.37,0,0,1,4-1.11,6.8,6.8,0,0,1,3.83,1.08,5.31,5.31,0,0,1,2.21,2.84h-.39V79.09a2.3,2.3,0,0,1,.57-1.69,2.28,2.28,0,0,1,1.66-.58,2.3,2.3,0,0,1,1.67.58,2.23,2.23,0,0,1,.6,1.69v21.38a2.32,2.32,0,0,1-.58,1.71,2.17,2.17,0,0,1-1.65.6,2.19,2.19,0,0,1-1.66-.6,2.36,2.36,0,0,1-.58-1.71v-2.8l.4,1.08a5.27,5.27,0,0,1-2.2,3A6.8,6.8,0,0,1,269.09,102.85Zm1.26-3.42a4.29,4.29,0,0,0,2.34-.65,4.19,4.19,0,0,0,1.56-1.92,8.07,8.07,0,0,0,.56-3.19,6.49,6.49,0,0,0-1.22-4.3A4.07,4.07,0,0,0,270.35,88a4.31,4.31,0,0,0-2.34.63,4,4,0,0,0-1.57,1.91,8,8,0,0,0-.56,3.18,6.51,6.51,0,0,0,1.23,4.3A4,4,0,0,0,270.35,99.43Z"/><path class="cls-8" d="M296,102.78a2.21,2.21,0,0,1-1.66-.6,2.35,2.35,0,0,1-.57-1.71V86.87a2.33,2.33,0,0,1,.57-1.7,2.22,2.22,0,0,1,1.62-.57,2.19,2.19,0,0,1,1.62.57,2.29,2.29,0,0,1,.58,1.7V89.5l-.4-1.08A6.16,6.16,0,0,1,300,85.57a6.23,6.23,0,0,1,3.6-1,5.71,5.71,0,0,1,3.5,1,5.32,5.32,0,0,1,1.9,3.09h-.5a6.05,6.05,0,0,1,2.38-3,6.66,6.66,0,0,1,3.81-1.1,6.32,6.32,0,0,1,3.33.79,4.78,4.78,0,0,1,2,2.39,10.74,10.74,0,0,1,.65,4.05v8.71a2.32,2.32,0,0,1-.59,1.71,2.27,2.27,0,0,1-1.68.6,2.17,2.17,0,0,1-1.65-.6,2.32,2.32,0,0,1-.58-1.71V91.94a5.21,5.21,0,0,0-.66-3,2.6,2.6,0,0,0-2.25-.94,3.4,3.4,0,0,0-2.78,1.25,5.32,5.32,0,0,0-1,3.44v7.73a2.36,2.36,0,0,1-.58,1.71,2.19,2.19,0,0,1-1.66.6,2.25,2.25,0,0,1-1.67-.6,2.28,2.28,0,0,1-.59-1.71V91.94a5.2,5.2,0,0,0-.67-3,2.53,2.53,0,0,0-2.21-.94,3.4,3.4,0,0,0-2.78,1.25,5.32,5.32,0,0,0-1,3.44v7.73A2,2,0,0,1,296,102.78Z"/><path class="cls-8" d="M333.92,102.85a11.15,11.15,0,0,1-5.15-1.11,8,8,0,0,1-3.33-3.17,10.66,10.66,0,0,1,0-9.65,8.28,8.28,0,0,1,3.13-3.22,9.51,9.51,0,0,1,7.92-.56A7.07,7.07,0,0,1,339,86.9a8,8,0,0,1,1.62,2.79,11.49,11.49,0,0,1,.55,3.69,1.15,1.15,0,0,1-.45,1,2,2,0,0,1-1.27.34H327.91V92.12H338l-.58.54a6.83,6.83,0,0,0-.49-2.77,3.78,3.78,0,0,0-1.4-1.71,4.17,4.17,0,0,0-2.29-.59,4.56,4.56,0,0,0-2.57.7,4.42,4.42,0,0,0-1.62,2,7.6,7.6,0,0,0-.56,3v.25A6.16,6.16,0,0,0,329.91,98,5.33,5.33,0,0,0,334,99.43a11.29,11.29,0,0,0,2.11-.23,7.82,7.82,0,0,0,2.21-.81,2.3,2.3,0,0,1,1.34-.38,1.38,1.38,0,0,1,.91.41,1.58,1.58,0,0,1,.42.88,1.8,1.8,0,0,1-.2,1.07,2.34,2.34,0,0,1-.92.93,9.19,9.19,0,0,1-2.9,1.17A13.65,13.65,0,0,1,333.92,102.85Z"/><path class="cls-8" d="M347,102.78a2.21,2.21,0,0,1-1.66-.6,2.35,2.35,0,0,1-.57-1.71V86.87a2.33,2.33,0,0,1,.57-1.7A2.22,2.22,0,0,1,347,84.6a2.19,2.19,0,0,1,1.62.57,2.29,2.29,0,0,1,.58,1.7v2.45l-.4-.9a5.84,5.84,0,0,1,2.47-2.9,7.33,7.33,0,0,1,3.8-1,6.88,6.88,0,0,1,3.49.79,4.89,4.89,0,0,1,2.05,2.39,10.3,10.3,0,0,1,.69,4.05v8.71a2.36,2.36,0,0,1-.58,1.71,2.19,2.19,0,0,1-1.66.6,2.25,2.25,0,0,1-1.67-.6,2.28,2.28,0,0,1-.59-1.71V92a4.65,4.65,0,0,0-.78-3,2.93,2.93,0,0,0-2.39-.94,4.12,4.12,0,0,0-3.15,1.25,4.6,4.6,0,0,0-1.17,3.29v7.88A2,2,0,0,1,347,102.78Z"/><path class="cls-8" d="M373.88,102.85a8.55,8.55,0,0,1-3.9-.79,5.08,5.08,0,0,1-2.33-2.32,8.61,8.61,0,0,1-.75-3.8V88.27H365a1.86,1.86,0,0,1-1.34-.45,1.93,1.93,0,0,1,0-2.5,1.89,1.89,0,0,1,1.34-.43h1.87V81.61a2.27,2.27,0,0,1,.59-1.69,2.35,2.35,0,0,1,1.68-.58,2.24,2.24,0,0,1,1.65.58,2.31,2.31,0,0,1,.58,1.69v3.28h3.81a1.91,1.91,0,0,1,1.34.43,1.93,1.93,0,0,1,0,2.5,1.87,1.87,0,0,1-1.34.45H371.4v7.42a3.87,3.87,0,0,0,.75,2.59,3.13,3.13,0,0,0,2.45.86,5,5,0,0,0,1.08-.1,6.43,6.43,0,0,1,.83-.15.86.86,0,0,1,.72.27,1.91,1.91,0,0,1,.29,1.24,3.21,3.21,0,0,1-.24,1.28,1.36,1.36,0,0,1-.84.78,10.61,10.61,0,0,1-1.23.26A7.53,7.53,0,0,1,373.88,102.85Z"/><path class="cls-8" d="M385.44,102.85a7.56,7.56,0,0,1-3.4-.74,5.9,5.9,0,0,1-2.35-2,5,5,0,0,1-.84-2.85,4.43,4.43,0,0,1,1-3.08,6.07,6.07,0,0,1,3.27-1.64,29.68,29.68,0,0,1,6.09-.5H391v2.59h-1.77a22.4,22.4,0,0,0-3.56.22,3.56,3.56,0,0,0-1.89.74,1.9,1.9,0,0,0-.56,1.45,2.52,2.52,0,0,0,.83,2,3.3,3.3,0,0,0,2.3.75,4,4,0,0,0,2.11-.55,4.05,4.05,0,0,0,1.46-1.53,4.53,4.53,0,0,0,.54-2.24V91.3a3.56,3.56,0,0,0-.8-2.6,3.69,3.69,0,0,0-2.66-.79,11.55,11.55,0,0,0-2.25.25,12.15,12.15,0,0,0-2.54.87,1.79,1.79,0,0,1-1.2.18,1.37,1.37,0,0,1-.81-.6,1.74,1.74,0,0,1-.29-1,2.09,2.09,0,0,1,.29-1.06,1.71,1.71,0,0,1,1-.77,15.71,15.71,0,0,1,3.18-1,14.54,14.54,0,0,1,2.79-.29,10,10,0,0,1,4.27.79,5.28,5.28,0,0,1,2.5,2.39,9,9,0,0,1,.83,4.13v8.63a2.44,2.44,0,0,1-.54,1.71,2,2,0,0,1-1.55.6,2,2,0,0,1-1.56-.6,2.35,2.35,0,0,1-.56-1.71V98.75h.29a4.9,4.9,0,0,1-2.85,3.6A6.2,6.2,0,0,1,385.44,102.85Z"/><path class="cls-8" d="M405.34,102.85a5.7,5.7,0,0,1-4.5-1.71,7.4,7.4,0,0,1-1.51-5v-17a2.31,2.31,0,0,1,.58-1.69,2.25,2.25,0,0,1,1.66-.58,2.32,2.32,0,0,1,1.67.58,2.27,2.27,0,0,1,.59,1.69V95.9a3.6,3.6,0,0,0,.71,2.45,2.5,2.5,0,0,0,2,.79h.54l.51-.06a.59.59,0,0,1,.68.27,3.48,3.48,0,0,1,.18,1.39,2.36,2.36,0,0,1-.36,1.4,1.6,1.6,0,0,1-1.19.61l-.75.08C405.87,102.84,405.61,102.85,405.34,102.85Z"/></g></g></g></svg>