<svg xmlns="http://www.w3.org/2000/svg" xmlns:xlink="http://www.w3.org/1999/xlink" viewBox="0 0 401.18 303.14"><defs><style>.cls-1{fill:none;}.cls-2{clip-path:url(#clip-path);}.cls-3{fill:url(#Degradado_sin_nombre_55);}.cls-4{fill:url(#Degradado_sin_nombre_110);}.cls-5{fill:url(#Degradado_sin_nombre_83);}.cls-6{fill:url(#Degradado_sin_nombre_105);}.cls-7{fill:url(#Degradado_sin_nombre_103);}.cls-8{fill:url(#Degradado_sin_nombre_98);}.cls-9{fill:url(#Degradado_sin_nombre_93);}.cls-10{fill:url(#Degradado_sin_nombre_73);}.cls-11{fill:url(#Degradado_sin_nombre_60);}.cls-12{fill:#18183a;}.cls-13{fill:url(#Degradado_sin_nombre_50);}.cls-14{fill:url(#Degradado_sin_nombre_55-2);}.cls-15{fill:url(#Degradado_sin_nombre_55-3);}</style><clipPath id="clip-path" transform="translate(0 1.33)"><rect class="cls-1" width="371.77" height="300.65" rx="39.76"/></clipPath><linearGradient id="Degradado_sin_nombre_55" x1="284.27" y1="36.91" x2="297.22" y2="36.91" gradientUnits="userSpaceOnUse"><stop offset="0" stop-color="#00cece"/><stop offset="0.25" stop-color="#06a4ac"/><stop offset="0.82" stop-color="#133b56"/><stop offset="1" stop-color="#18183a"/></linearGradient><linearGradient id="Degradado_sin_nombre_110" x1="249.11" y1="131.58" x2="249.11" y2="199.07" gradientUnits="userSpaceOnUse"><stop offset="0" stop-color="#396faa" stop-opacity="0.55"/><stop offset="1" stop-color="#18183a"/></linearGradient><linearGradient id="Degradado_sin_nombre_83" x1="203.58" y1="212.94" x2="203.58" y2="268.52" gradientUnits="userSpaceOnUse"><stop offset="0" stop-color="#7b7ad3"/><stop offset="0.13" stop-color="#7776ce"/><stop offset="0.3" stop-color="#6d6cbe"/><stop offset="0.49" stop-color="#5d5ca4"/><stop offset="0.69" stop-color="#454580"/><stop offset="0.9" stop-color="#282752"/><stop offset="1" stop-color="#18183a"/></linearGradient><linearGradient id="Degradado_sin_nombre_105" x1="259.66" y1="150.4" x2="259.66" y2="193.93" gradientUnits="userSpaceOnUse"><stop offset="0" stop-color="#7b7ad3"/><stop offset="0.13" stop-color="#7776cd"/><stop offset="0.3" stop-color="#6c6bbc"/><stop offset="0.5" stop-color="#59599f"/><stop offset="0.72" stop-color="#403f77"/><stop offset="0.95" stop-color="#1f1f45"/><stop offset="1" stop-color="#18183a"/></linearGradient><linearGradient id="Degradado_sin_nombre_103" x1="143.46" y1="110.13" x2="143.46" y2="220.53" gradientUnits="userSpaceOnUse"><stop offset="0" stop-color="#00829f"/><stop offset="0.16" stop-color="#017c99"/><stop offset="0.38" stop-color="#056b89"/><stop offset="0.63" stop-color="#0c4e6e"/><stop offset="0.91" stop-color="#152748"/><stop offset="1" stop-color="#18183a"/></linearGradient><linearGradient id="Degradado_sin_nombre_98" x1="97.13" y1="193.93" x2="97.13" y2="223.34" gradientUnits="userSpaceOnUse"><stop offset="0" stop-color="#34387d"/><stop offset="0.25" stop-color="#323679"/><stop offset="0.49" stop-color="#2d316d"/><stop offset="0.73" stop-color="#25275a"/><stop offset="0.97" stop-color="#1a1a3e"/><stop offset="1" stop-color="#18183a"/></linearGradient><linearGradient id="Degradado_sin_nombre_93" x1="88.48" y1="113.6" x2="372.88" y2="277.8" gradientUnits="userSpaceOnUse"><stop offset="0" stop-color="#396faa"/><stop offset="0.17" stop-color="#386ba5"/><stop offset="0.37" stop-color="#346198"/><stop offset="0.57" stop-color="#2d5082"/><stop offset="0.78" stop-color="#243762"/><stop offset="1" stop-color="#18193b"/><stop offset="1" stop-color="#18183a"/></linearGradient><linearGradient id="Degradado_sin_nombre_73" x1="401.18" y1="271.91" x2="23.03" y2="271.91" gradientUnits="userSpaceOnUse"><stop offset="0" stop-color="#4d5390"/><stop offset="0.25" stop-color="#42477f"/><stop offset="0.76" stop-color="#272852"/><stop offset="1" stop-color="#18183a"/></linearGradient><linearGradient id="Degradado_sin_nombre_60" x1="203.58" y1="242.16" x2="203.58" y2="301.8" gradientUnits="userSpaceOnUse"><stop offset="0" stop-color="#34387d"/><stop offset="0.22" stop-color="#323578"/><stop offset="0.5" stop-color="#2b2e68"/><stop offset="0.81" stop-color="#20224e"/><stop offset="1" stop-color="#18183a"/></linearGradient><linearGradient id="Degradado_sin_nombre_50" x1="82.04" y1="103.09" x2="23.03" y2="103.09" gradientUnits="userSpaceOnUse"><stop offset="0" stop-color="#1483bc"/><stop offset="0.14" stop-color="#147db5"/><stop offset="0.34" stop-color="#156da1"/><stop offset="0.59" stop-color="#165280"/><stop offset="0.86" stop-color="#172d53"/><stop offset="1" stop-color="#18183a"/></linearGradient><linearGradient id="Degradado_sin_nombre_55-2" x1="299.58" y1="28.71" x2="57.96" y2="62.84" xlink:href="#Degradado_sin_nombre_55"/><linearGradient id="Degradado_sin_nombre_55-3" x1="292.15" y1="111.42" x2="277" y2="111.42" xlink:href="#Degradado_sin_nombre_55"/></defs><g id="Capa_2" data-name="Capa 2"><g id="Ilustraciones"><g class="cls-2"><path class="cls-3" d="M295.52,29.08S284.1,40,284.27,43.67c0,0,.18,3.28,5.63,0,0,0,5.57-3.51,7.32-14.59A1.15,1.15,0,0,0,295.52,29.08Z" transform="translate(0 1.33)"/><path class="cls-4" d="M341.23,145.82s-23.24-3.11-46.79,5.79c0,0-23.18,7.06-37.94-5.79,0,0-31.3-19.53-63.64-12.85l-45.36,9.59,2.11,56.51,201.12-9.72Z" transform="translate(0 1.33)"/><rect class="cls-5" x="5.98" y="212.94" width="395.2" height="55.59"/><path class="cls-6" d="M186.35,156.19s42.55-14.67,67.16,2.69c0,0,21.33,13.83,43.71,4.69,0,0,21.69-12.39,35.75-11.12V191l-134.31,2.94Z" transform="translate(0 1.33)"/><path class="cls-7" d="M272.49,189.59s-31.29-39.47-81.22-37.14c0,0-31.29,1.27-38-8.57,0,0-62.59-23.65-82.28-22.9,0,0-27.71-4.17-33.66-10.85H14.42V218.77l230,1.76Z" transform="translate(0 1.33)"/><path class="cls-8" d="M166.31,218.07s-47.12-.35-59.42-12c0,0-15.82-13-39.73-1.75,0,0-10.2,4.21-21.8-2.47,0,0-18.28-12.3-22.33-6.32v27.77h148.2Z" transform="translate(0 1.33)"/><path class="cls-9" d="M399.66,231.43s-204.17-.7-223.15,1.76c0,0-148.73,2.27-153.48-1.85v-2.72s1.95-3.24,100,0c0,0,162.44,1,165.61-1.44L26.55,224.4v-3.52s128.86,7.74,147.14-11.25c0,0,13.54-25,38.42-24.26,0,0,72.34,11.25,93.79-16.53,0,0,47.46-45,95.28-30.23Z" transform="translate(0 1.33)"/><path class="cls-10" d="M29.53,257.68s116.5,5.86,138.07,1.64c0,0,41.25-4.09,113.22-.05,0,0,29.77,2.79,24.61-.1,0,0-3.05-2.78-140.53-5.24,0,0-118.49-2.81-116.14-5.15,0,0-10.79-3.05,135.25,0,0,0,116.26,2.34,124.7-3.64,0,0,10.9-8.44,92.47,2.46v54.2L23,301.78V257.45Z" transform="translate(0 1.33)"/><path class="cls-11" d="M42.9,276s36.56-4.69,53.91-4c0,0,46.41,0,55.55-3.28,0,0,84.15-10.08,137.83-5.86,0,0,53.92,2.34,54.38-4.92,0,0,9.85-4.69-57.42-4.69,0,0-40.79,0-38.68-1.64,0,0-2.58-2.81,38.68-1.41,0,0,3.75-2.81-15.94-2.34,0,0-12.19-3.62,33.52-.06,0,0,11.38-.65-11.54-2.76,0,0-28.08-6.44,108,0V301.8H6V275.38Z" transform="translate(0 1.33)"/><path class="cls-12" d="M65.05,301.75S30.47,294,33.29,291.2c0,0,.72-1.4,5.21-1.12.28,0,.57,0,.88.07,5.27.52,34.63,12.48,38.32,11.6l5.81.05s-23.31-9.54-25.2-12.71c0,0,.76-2.46,12.71,0,0,0,43.25,3.69,55.56,2.64,0,0,23.91.89,32.35,3.17,0,0,42.54,7.12,52.74,6.9h39s-77.18-14.19-89.84-13.8c0,0,10.72-7.35,41-7.35,0,0,27.78,1.94,33.23,0,0,0-27.78-.52-32.7-1.75a128.1,128.1,0,0,0-43.95,3.86s-20.92,3.34-25,2.47c0,0-92.12,2.46-98.8-34.29,0,0-15.64-40.37,10.61-64.52A100,100,0,0,1,76,170S117.2,155.28,120,152.45c0,0,65.4,2.56,132.21-37.52,0,0,15.47,4.69,34.93-13.13,0,0-12.19,10.08-28.37,9.85,0,0,23.91-15.71,28.37-23.44,0,0-59.31,49.22-144.87,53.68,0,0,58.37-41.49,64.93-68.45H183.3s-4.92,18-39.61,43.83c0,0,11.49-35.62,9.38-52.27h-4.22s4,11.25-4.46,38.44c0,0-5.62,13.37-4.92,16.41,0,0-20.86,12.9-28.36,13.13,0,0,21.8-27,18.75-64.7l-3.52.24s2.11,38.91-30.94,69.38c0,0-47.35,9.14-53.68,12.43,0,0-13.59,6.56-14.76-13.37,0,0-6.57-50.86-4.22-59.3L0,78.78v223Z" transform="translate(0 1.33)"/><path class="cls-12" d="M26.55,118.56s8.26,6,21.62-.88c0,0-11.08,1.94-16.53,0C31.64,117.68,26.55,115.93,26.55,118.56Z" transform="translate(0 1.33)"/><path class="cls-12" d="M0,114s87.15,9.49,125.5-33c0,0,141.54,20,175.83-82.27H0Z" transform="translate(0 1.33)"/><path class="cls-13" d="M23,100s33.23,17.51,59-1.24C82,98.76,66.22,106.63,23,100Z" transform="translate(0 1.33)"/><path class="cls-14" d="M246.12-1.33S239.8,88,67.16,66.88c0,0,37.85,12.42,66.22,7.5,0,0-3.81,7-7.88,6.56,0,0,145.24,24.79,175.83-82.27Z" transform="translate(0 1.33)"/><path class="cls-15" d="M277,109.44s6.65,7.15,13.59,5.46c0,0,2.11-.69,1.41-2.6,0,0-6.32-4.58-12.26-4.61C279.75,107.69,276.78,108.15,277,109.44Z" transform="translate(0 1.33)"/><path class="cls-12" d="M277.07,109s7.73,1.23,9.58,3c0,0-2.38-2.72-8.79-3.69Z" transform="translate(0 1.33)"/><path class="cls-12" d="M398.72,298.08s-101.73-2-105.48-8.28c0,0-.94-4,5.16-4.46,0,0,76.65-30.24,101.26-12.66Z" transform="translate(0 1.33)"/></g></g></g></svg>