<svg xmlns="http://www.w3.org/2000/svg" xmlns:xlink="http://www.w3.org/1999/xlink" viewBox="0 0 305.02 319.66"><defs><style>.cls-1{fill:none;}.cls-2{fill:url(#Degradado_sin_nombre_8);}.cls-3{fill:url(#Degradado_sin_nombre_8-2);}.cls-4{fill:url(#Degradado_sin_nombre_21);}.cls-5{fill:url(#Degradado_sin_nombre_21-2);}.cls-6{fill:url(#Degradado_sin_nombre_21-3);}.cls-7{fill:url(#Degradado_sin_nombre_21-4);}.cls-8{fill:url(#Degradado_sin_nombre_21-5);}.cls-9{fill:url(#Degradado_sin_nombre_21-6);}.cls-10{fill:url(#Degradado_sin_nombre_21-7);}.cls-11{fill:url(#Degradado_sin_nombre_21-8);}.cls-12{fill:url(#Degradado_sin_nombre_21-9);}.cls-13{fill:url(#Degradado_sin_nombre_21-10);}.cls-14{fill:url(#Degradado_sin_nombre_8-3);}.cls-15{fill:url(#Degradado_sin_nombre_8-4);}.cls-16{fill:url(#Degradado_sin_nombre_17);}</style><linearGradient id="Degradado_sin_nombre_8" x1="174.1" y1="110.75" x2="174.1" y2="131.34" gradientUnits="userSpaceOnUse"><stop offset="0" stop-color="#fd9a83"/><stop offset="0.51" stop-color="#fccf6b"/><stop offset="1" stop-color="#282559"/></linearGradient><linearGradient id="Degradado_sin_nombre_8-2" x1="195.72" y1="13.38" x2="195.72" y2="17.35" xlink:href="#Degradado_sin_nombre_8"/><linearGradient id="Degradado_sin_nombre_21" x1="20.48" y1="105.43" x2="35.26" y2="105.43" gradientUnits="userSpaceOnUse"><stop offset="0" stop-color="#fd9a83"/><stop offset="0.31" stop-color="#f8bdc3"/><stop offset="0.51" stop-color="#fccf6b"/><stop offset="1" stop-color="#282559"/></linearGradient><linearGradient id="Degradado_sin_nombre_21-2" x1="11.94" y1="147.89" x2="23.33" y2="147.89" xlink:href="#Degradado_sin_nombre_21"/><linearGradient id="Degradado_sin_nombre_21-3" x1="20.48" y1="128.04" x2="32.84" y2="128.04" xlink:href="#Degradado_sin_nombre_21"/><linearGradient id="Degradado_sin_nombre_21-4" x1="41.96" y1="109.67" x2="58.16" y2="109.67" xlink:href="#Degradado_sin_nombre_21"/><linearGradient id="Degradado_sin_nombre_21-5" x1="0" y1="165.66" x2="161.27" y2="165.66" xlink:href="#Degradado_sin_nombre_21"/><linearGradient id="Degradado_sin_nombre_21-6" x1="48.44" y1="159.91" x2="93.31" y2="159.91" xlink:href="#Degradado_sin_nombre_21"/><linearGradient id="Degradado_sin_nombre_21-7" x1="49.33" y1="151.06" x2="95.8" y2="151.06" xlink:href="#Degradado_sin_nombre_21"/><linearGradient id="Degradado_sin_nombre_21-8" x1="108.27" y1="201.4" x2="123.76" y2="201.4" xlink:href="#Degradado_sin_nombre_21"/><linearGradient id="Degradado_sin_nombre_21-9" x1="105.95" y1="178.85" x2="139.78" y2="178.85" xlink:href="#Degradado_sin_nombre_21"/><linearGradient id="Degradado_sin_nombre_21-10" x1="84.41" y1="206.88" x2="154.74" y2="206.88" xlink:href="#Degradado_sin_nombre_21"/><linearGradient id="Degradado_sin_nombre_8-3" x1="144.14" y1="0" x2="144.14" y2="319.66" xlink:href="#Degradado_sin_nombre_8"/><linearGradient id="Degradado_sin_nombre_8-4" x1="176.05" y1="0" x2="176.05" y2="319.66" xlink:href="#Degradado_sin_nombre_8"/><linearGradient id="Degradado_sin_nombre_17" x1="260.78" y1="149.67" x2="234.87" y2="296.61" gradientUnits="userSpaceOnUse"><stop offset="0" stop-color="#fd9a83"/><stop offset="0.05" stop-color="#fe857f"/><stop offset="0.11" stop-color="#fe737c"/><stop offset="0.17" stop-color="#ff697a"/><stop offset="0.25" stop-color="#ff6679"/><stop offset="0.66" stop-color="#fccf6b"/><stop offset="1" stop-color="#282559"/></linearGradient></defs><g id="Capa_2" data-name="Capa 2"><g id="Capa_2-2" data-name="Capa 2"><path class="cls-1" d="M161.82,83.78c9.88,2.27,19.84,4.18,29.83,5.89q7.93,1.35,15.9,2.54L155.8,82.35Q158.8,83.09,161.82,83.78Z"/><path class="cls-1" d="M96.29,222.53l.52.45-.52-.45L88.2,262.75l0,.07,0,.09a45.27,45.27,0,0,0-1.44,5.92,48.18,48.18,0,0,0-.68,6.11A36.13,36.13,0,0,0,87.38,287a25.6,25.6,0,0,0,2.34,5.55,24,24,0,0,0,3.53,4.83,30,30,0,0,0,9.78,6.8l51.15,11.05,6.41,1.38a35.75,35.75,0,0,0,6.3.83,37.64,37.64,0,0,0,12.6-1.44,26.46,26.46,0,0,0,10.8-6.26,27.36,27.36,0,0,0,3.92-4.91,33.77,33.77,0,0,0,2.76-5.63l8.51-42,8.59-42.07,8.6-42.07,8.68-41.92A49.69,49.69,0,0,1,226,123.2a34.72,34.72,0,0,1-2-4.45c-.3-.76-.51-1.55-.75-2.32s-.4-1.58-.51-2.39a21,21,0,0,1,.52-9.66,19.59,19.59,0,0,1,2-4.44,18.41,18.41,0,0,1,2-2.74c-1.92-.23-3.84-.45-5.75-.7-10.1-1.28-20.17-2.75-30.2-4.49s-20-3.69-29.94-6c-7.92-1.88-15.79-4-23.52-6.54a27.61,27.61,0,0,1-.31,8.41A25.54,25.54,0,0,1,133.66,97a31.81,31.81,0,0,1-6.7,7.24,37.76,37.76,0,0,1-8,5l-7.56,38.1-3.76,18.83,2.09-.48-2.09.48-3.94,19.66Zm37.56-106.81,3.19,1.1,3.23,1c1.08.33,2.14.71,3.23,1l3.25.93c8.68,2.44,17.48,4.41,26.35,6,4.45.71,8.88,1.54,13.36,2,2.24.29,4.47.63,6.71.87l6.73.68,3.37.34,3.37.22,6.76.49c4.51.29,9,.35,13.55.63-2.26.07-4.52.13-6.79.16l-3.39.07c-1.13,0-2.27.06-3.4,0l-6.79-.19-3.4-.11-3.39-.24-6.78-.51c-2.26-.19-4.51-.5-6.76-.74-4.52-.47-9-1.29-13.47-2-4.44-.9-8.91-1.7-13.31-2.83l-3.31-.8c-1.1-.29-2.18-.61-3.28-.91-2.18-.6-4.37-1.2-6.53-1.92a137.85,137.85,0,0,1-25.1-10.35C125.36,112.63,129.58,114.26,133.85,115.72Z"/><path class="cls-1" d="M188.93,1.75c-2.15-.3-4.33-.63-6.46-.9a5.59,5.59,0,0,0-5.19,2.48,5.16,5.16,0,0,0-.64,1.34,8.14,8.14,0,0,0-.29,1.5A4.79,4.79,0,0,0,176.79,9a6.11,6.11,0,0,0,4.53,3.32l-.19,1.51h0l-1.23,8.26-1.25,8.07,6.8,1.12c2.57.41,5.12.86,7.68,1.3,5,.84,9.9,1.75,14.84,2.63L211,17.89l0-.18.17,0a17,17,0,0,0,2.6.37,5.77,5.77,0,0,0,2.51-.58,5.94,5.94,0,0,0,3.21-3.92,7.92,7.92,0,0,0,.26-2.61,6,6,0,0,0-5-5.4c-4.31-.66-8.61-1.37-12.93-2S193.25,2.34,188.93,1.75Zm19.37,15.6c-2.13-.09-4.25-.29-6.36-.53s-4.21-.55-6.31-.87-4.19-.69-6.27-1.12-4.16-.87-6.22-1.45c2.14.09,4.25.29,6.37.53s4.21.54,6.31.86,4.18.7,6.27,1.12S206.25,16.77,208.3,17.35Z"/><path class="cls-1" d="M244.57,68a11.19,11.19,0,0,0-.73-4,16.25,16.25,0,0,0-2.1-3.56A24.27,24.27,0,0,0,235.36,55l-.06,0h0L221.68,45.6l-6.81-4.67-6.62-4.59c-5.14-.74-10.28-1.42-15.42-2.19-2.56-.39-5.14-.75-7.7-1.16l-7.7-1.2-.89-.14.1-.59L165.16,33l-12.4,2-6.19,1-3.07.49a10.7,10.7,0,0,0-1.49.33,12.66,12.66,0,0,0-1.44.46,19.7,19.7,0,0,0-5.29,3,22.53,22.53,0,0,0-4.21,4.24l-6.4,17.92a11.25,11.25,0,0,0-.71,4.36,7.77,7.77,0,0,0,1.33,4,13.13,13.13,0,0,0,7.24,4.77l.08,0h0c2.75,1,5.52,1.9,8.32,2.76l71.56,14.65q4.6.66,9.22,1.26c2.52.33,5,.63,7.55.93a32.67,32.67,0,0,0,3.67.26,21.38,21.38,0,0,0,3.59-.27,9.85,9.85,0,0,0,6-3.07,7.83,7.83,0,0,0,1.58-2.94,9.62,9.62,0,0,0,.38-3.34v-.12Z"/><path class="cls-2" d="M152.88,123c1.1.3,2.18.62,3.28.91l3.31.8c4.4,1.13,8.87,1.93,13.31,2.83,4.49.69,8.95,1.51,13.47,2,2.25.24,4.5.55,6.76.74l6.78.51,3.39.24,3.4.11,6.79.19c1.13,0,2.27,0,3.4,0l3.39-.07c2.27,0,4.53-.09,6.79-.16-4.52-.28-9-.34-13.55-.63l-6.76-.49-3.37-.22-3.37-.34-6.73-.68c-2.24-.24-4.47-.58-6.71-.87-4.48-.51-8.91-1.34-13.36-2-8.87-1.63-17.67-3.6-26.35-6l-3.25-.93c-1.09-.29-2.15-.67-3.23-1l-3.23-1-3.19-1.1c-4.27-1.46-8.49-3.09-12.6-5a137.85,137.85,0,0,0,25.1,10.35C148.51,121.82,150.7,122.42,152.88,123Z"/><path class="cls-3" d="M189.51,13.91c-2.12-.24-4.23-.44-6.37-.53,2.06.58,4.14,1,6.22,1.45s4.18.78,6.27,1.12,4.2.63,6.31.87,4.23.44,6.36.53c-2.05-.58-4.13-1-6.21-1.46s-4.18-.78-6.27-1.12S191.62,14.15,189.51,13.91Z"/><path class="cls-4" d="M23.94,102.64c1.19,1.08,2.4,2.12,3.63,3.15s2.48,2,3.76,3,2.58,1.91,3.93,2.78c-1.1-1.18-2.27-2.28-3.45-3.36s-2.4-2.12-3.63-3.15-2.48-2-3.76-3-2.58-1.91-3.94-2.78C21.59,100.46,22.76,101.56,23.94,102.64Z"/><path class="cls-5" d="M21.3,149.7l-1.08-3.26c-.37-1.09-.76-2.16-1.13-3.24l0-.09-.08,0c-1.15-.63-2.33-1.22-3.5-1.81s-2.35-1.18-3.54-1.74c1.12.68,2.26,1.35,3.4,2s2.23,1.28,3.37,1.89c.35,1.06.7,2.12,1.06,3.18l1.14,3.24c.38,1.08.79,2.15,1.18,3.23s.82,2.14,1.24,3.2c-.31-1.1-.64-2.2-1-3.29S21.67,150.78,21.3,149.7Z"/><path class="cls-6" d="M27.07,128.28c1-1.8,2-3.61,3-5.44s1.91-3.68,2.77-5.57c-1.21,1.7-2.33,3.44-3.41,5.2s-2.15,3.54-3.18,5.33-2,3.61-3,5.44-1.91,3.68-2.77,5.57c1.21-1.69,2.32-3.44,3.41-5.2S26,130.07,27.07,128.28Z"/><path class="cls-7" d="M50.11,109.9c1.35-.31,2.7-.63,4-1l2-.54c.67-.19,1.34-.37,2-.58l-2,.36-2,.4c-1.36.27-2.71.57-4.06.88s-2.7.63-4,1-2.68.7-4,1.11c1.37-.21,2.73-.48,4.09-.76S48.76,110.21,50.11,109.9Z"/><path class="cls-8" d="M159.55,185.56v-.07l-2.78-7.34,0-.12-.08-.1-1.69-2.27-.07-.09-.08-.06c-2.11-1.77-4.24-3.48-6.4-5.17S144,167,141.8,165.4c-1.12-.8-2.26-1.58-3.42-2.33a25.72,25.72,0,0,0-3.67-2.07,19.42,19.42,0,0,0-8.29-1.72h-.11l-.1,0L108.79,165c-3.7-3.3-7.44-6.57-11.17-9.84-3.88-3.43-7.79-6.82-11.71-10.22L74.15,134.78l-4-3.45.46-1.22v0c-.85-3.43-1.75-6.85-2.62-10.27s-1.8-6.83-2.69-10.25l-.12-.43-.44.1-.3.07c-1.6-1.44-3.19-2.89-4.8-4.32l-5.25-4.67c-1.74-1.57-3.5-3.12-5.26-4.66l-.66-.58-.33-.29-.37-.28a10.34,10.34,0,0,0-1.59-1,9.83,9.83,0,0,0-1.76-.67,9,9,0,0,0-.93-.19,4.78,4.78,0,0,0-1,0h-.06l-11.19,2L20,96.68l-.35.06-.22.3c-2.85,3.94-5.78,7.84-8.81,11.65-1.51,1.91-3,3.8-4.59,5.69-.77.94-1.55,1.89-2.31,2.86a29.88,29.88,0,0,0-2.19,3.09,10.59,10.59,0,0,0-1.39,3.72A11.76,11.76,0,0,0,0,126a12.51,12.51,0,0,0,.18,2,24.49,24.49,0,0,0,.94,3.68c.39,1.18.81,2.34,1.24,3.48.87,2.29,1.76,4.57,2.73,6.84s2,4.48,3.13,6.67l0,.11.07.06a73.39,73.39,0,0,0,9.58,7.85,74.29,74.29,0,0,0,10.7,6.15h0l1.36-.35,0,.05.12.29.3-.05c2.89-.55,5.76-1.15,8.64-1.72,2.62-.51,5.23-1,7.85-1.59l8.43,6.76,10.52,8.37c3.51,2.79,7,5.55,10.57,8.32s7,5.5,10.56,8.22l-2.62,4.14,9.43-13.79c3.08-4.54,6.18-9,9.22-13.56l23.47-7.18a17.68,17.68,0,0,1,7.51,1.72,24.32,24.32,0,0,1,3.44,2c1.13.75,2.24,1.52,3.34,2.32,2.2,1.59,4.35,3.26,6.49,5s4.18,3.39,6.23,5.13l1.54,2.08,2.69,7.18a41.53,41.53,0,0,1,1.52,14,61.63,61.63,0,0,1-2.52,6.89,60.76,60.76,0,0,1-12.45,18.39l-4,3.46a45,45,0,0,1-7.49,4.32,45.59,45.59,0,0,1-8.19,2.83l-10.8,1.26-11.16-9.75q-5.65-5-11.34-9.87l-3.42-11.1-3.5-11.29,3.08,11.32L90.63,218l0,.1.09.08q5.57,5.11,11.19,10.18l11.22,10.17.22.2.31,0,11.19-1.11H125a46.55,46.55,0,0,0,16.4-7.29l0,0,0,0,4.11-3.47,0,0,0,0a64.45,64.45,0,0,0,5.07-5.76A66.28,66.28,0,0,0,155,214.6a62.85,62.85,0,0,0,3.51-6.83,61,61,0,0,0,2.65-7.21l0-.1v-.11A43.5,43.5,0,0,0,159.55,185.56ZM28.66,162.7q-2.68-1.48-5.27-3.13t-5-3.53a82.48,82.48,0,0,1-9.06-8c-1-2.17-2-4.36-2.86-6.59s-1.71-4.55-2.55-6.83a38.91,38.91,0,0,1-2-6.87,10,10,0,0,1-.11-2c.9.92,1.82,1.8,2.77,2.66,1.23,1.15,2.51,2.25,3.79,3.35s2.59,2.15,3.92,3.18,2.69,2.05,4.1,3c-1.16-1.24-2.38-2.4-3.62-3.54S10.26,132.13,9,131s-2.59-2.15-3.92-3.18c-1.06-.83-2.13-1.63-3.24-2.4A10.12,10.12,0,0,1,2,124.36a8.78,8.78,0,0,1,1.19-3.09,26.86,26.86,0,0,1,2.06-2.88c.75-.94,1.53-1.88,2.31-2.82,1.55-1.88,3.11-3.77,4.62-5.7q4.42-5.66,8.58-11.49L31.5,96.22,42.59,94a4.44,4.44,0,0,1,.71,0,5.42,5.42,0,0,1,.79.13,8,8,0,0,1,1.54.52,9.62,9.62,0,0,1,1.44.8l.33.23.34.28.68.55c1.81,1.48,3.62,3,5.45,4.42l5.46,4.39c1.66,1.35,3.35,2.68,5,4-4.33,1-8.66,2-13,3.08s-8.88,2.15-13.31,3.26l-.27.06-.15.24-4,6.4-4,6.42q-4,6.42-7.9,12.85l-.17.28.12.29c1.36,3.4,2.75,6.79,4.14,10.17L30,162.45ZM39,160.62c-2.79.44-5.59.86-8.37,1.33l-3.8-10Q25,147,23,142q3.93-6.25,7.83-12.52l4-6.41,3.81-6.18c4.34-1.08,8.67-2.21,13-3.32s8.55-2.24,12.82-3.37c1,3.25,1.89,6.5,2.88,9.73,1,3.38,2,6.76,3.07,10.13l-.37,1.21-7.74-6.62-.08-.07-.1,0a19.11,19.11,0,0,0-8-2.1,17.75,17.75,0,0,0-4.18.33,14.09,14.09,0,0,0-2,.57l-1,.35c-.33.12-.64.29-1,.44a17.71,17.71,0,0,0-3.55,2.24,21.07,21.07,0,0,0-2.89,3,22.62,22.62,0,0,0-2.23,3.51,21.37,21.37,0,0,0-1.55,3.88l0-.08a15.35,15.35,0,0,0-.86,6.2,13.45,13.45,0,0,0,.56,3.1,15.6,15.6,0,0,0,1.15,2.91,21.87,21.87,0,0,0,3.6,5A27.45,27.45,0,0,0,42.49,156a21.23,21.23,0,0,0,2.43,1.8l2,1.59C44.27,159.8,41.65,160.21,39,160.62Zm63.4,6.44-.09.14c-3,4.69-6,9.39-9,14.07l-4.47,7L87,191.12q-5.06-4.38-10.18-8.7c-3.41-2.9-6.82-5.81-10.26-8.69L56.28,165.1l-10.34-8.59,0,0-.06,0a24.39,24.39,0,0,1-4.31-3.7,19.65,19.65,0,0,1-3.25-4.63,13.67,13.67,0,0,1-1-2.59,12.12,12.12,0,0,1-.48-2.73c0-.45,0-.92,0-1.38s.05-.92.14-1.37a15.9,15.9,0,0,1,.67-2.7v-.07A20,20,0,0,1,39,133.78a21,21,0,0,1,2.05-3.2,19.13,19.13,0,0,1,2.6-2.72,16,16,0,0,1,3.15-2c.29-.13.56-.29.85-.4l.89-.31a12.33,12.33,0,0,1,1.8-.51,15.06,15.06,0,0,1,3.73-.32,17.89,17.89,0,0,1,7.2,1.81L73.14,136l12,9.88q6,4.93,12,9.82c3.86,3.12,7.7,6.24,11.58,9.32l-6.16,2Z"/><path class="cls-9" d="M71.18,159.55c-3.75-3.1-7.5-6.18-11.29-9.23s-7.59-6-11.45-9q5.43,4.86,11,9.58c3.69,3.16,7.42,6.28,11.15,9.39s7.5,6.18,11.28,9.22,7.6,6.06,11.46,9q-5.43-4.86-11-9.59C78.64,165.77,74.91,162.65,71.18,159.55Z"/><path class="cls-10" d="M78.79,155.08,73,150.49,67.17,146c-2-1.48-3.9-3-5.88-4.45-3.94-3-7.9-5.87-12-8.67,3.69,3.27,7.47,6.43,11.27,9.54,1.9,1.57,3.83,3.1,5.74,4.65l5.79,4.58L78,156.14c2,1.49,3.9,3,5.88,4.46,3.94,3,7.91,5.86,12,8.66-3.69-3.27-7.46-6.42-11.27-9.54C82.63,158.15,80.7,156.62,78.79,155.08Z"/><path class="cls-11" d="M115.81,201.27c-1.27,1.92-2.56,3.83-3.82,5.77L110.11,210c-.62,1-1.24,2-1.84,2.93.69-.92,1.35-1.87,2-2.8l2-2.84c1.32-1.89,2.61-3.8,3.92-5.71s2.57-3.83,3.83-5.77,2.51-3.88,3.72-5.84c-1.38,1.85-2.7,3.74-4,5.64S117.12,199.36,115.81,201.27Z"/><path class="cls-12" d="M132.85,184.37c-2.23.48-4.45,1-6.67,1.51q-2.42-1.9-4.85-3.77c-1.68-1.29-3.36-2.57-5.06-3.84s-3.4-2.52-5.12-3.75c-.85-.63-1.72-1.24-2.59-1.84s-1.73-1.22-2.61-1.82c.8.7,1.61,1.38,2.42,2.06s1.62,1.37,2.44,2c1.64,1.34,3.28,2.67,4.94,4s3.33,2.62,5,3.92,3.36,2.57,5,3.84l.18.14.2-.06c2.28-.59,4.55-1.19,6.82-1.82,1.13-.32,2.27-.64,3.4-1s2.26-.65,3.38-1c-1.16.21-2.31.45-3.47.68Z"/><path class="cls-13" d="M95.65,206.9c1.93,1.88,3.88,3.75,5.86,5.58s3.82,3.49,5.79,5.17l0,0-.11.18.1.17c1.44,2.52,2.87,5.05,4.34,7.56s2.91,5,4.4,7.52c-1.33-2.59-2.7-5.15-4.05-7.72s-2.68-5-4-7.5c1.65-2.31,3.32-4.62,4.94-6.95l5-7.15c1.67-2.38,3.35-4.75,5-7.16l4.87-7.07c2.22-.71,4.45-1.4,6.66-2.13l6.78-2.22q3.41-1.11,6.78-2.25c2.25-.77,4.51-1.52,6.76-2.3-2.29.64-4.58,1.31-6.86,2s-4.57,1.34-6.85,2l-6.84,2c-2.28.68-4.55,1.4-6.82,2.1l-.14,0-.08.12-5,7.14c-1.68,2.38-3.32,4.78-5,7.18l-5,7.19c-1.65,2.37-3.26,4.76-4.87,7.15q-2.6-2.9-5.3-5.67c-1.88-1.94-3.79-3.84-5.72-5.73s-3.88-3.75-5.86-5.58-4-3.63-6-5.38c1.8,2,3.64,4,5.52,5.92S93.72,205,95.65,206.9Z"/><path class="cls-1" d="M161.82,83.78c9.88,2.27,19.84,4.18,29.83,5.89q7.93,1.35,15.9,2.54L155.8,82.35Q158.8,83.09,161.82,83.78Z"/><path class="cls-1" d="M244.57,68a11.19,11.19,0,0,0-.73-4,16.25,16.25,0,0,0-2.1-3.56A24.27,24.27,0,0,0,235.36,55l-.06,0h0L221.68,45.6l-6.81-4.67-6.62-4.59c-5.14-.74-10.28-1.42-15.42-2.19-2.56-.39-5.14-.75-7.7-1.16l-7.7-1.2-.89-.14.1-.59L165.16,33l-12.4,2-6.19,1-3.07.49a10.7,10.7,0,0,0-1.49.33,12.66,12.66,0,0,0-1.44.46,19.7,19.7,0,0,0-5.29,3,22.53,22.53,0,0,0-4.21,4.24l-6.4,17.92a11.25,11.25,0,0,0-.71,4.36,7.77,7.77,0,0,0,1.33,4,13.13,13.13,0,0,0,7.24,4.77l.08,0h0c2.75,1,5.52,1.9,8.32,2.76l71.56,14.65q4.6.66,9.22,1.26c2.52.33,5,.63,7.55.93a32.67,32.67,0,0,0,3.67.26,21.38,21.38,0,0,0,3.59-.27,9.85,9.85,0,0,0,6-3.07,7.83,7.83,0,0,0,1.58-2.94,9.62,9.62,0,0,0,.38-3.34v-.12Z"/><path class="cls-1" d="M188.93,1.75c-2.15-.3-4.33-.63-6.46-.9a5.59,5.59,0,0,0-5.19,2.48,5.16,5.16,0,0,0-.64,1.34,8.14,8.14,0,0,0-.29,1.5A4.79,4.79,0,0,0,176.79,9a6.11,6.11,0,0,0,4.53,3.32l-.19,1.51h0l-1.23,8.26-1.25,8.07,6.8,1.12c2.57.41,5.12.86,7.68,1.3,5,.84,9.9,1.75,14.84,2.63L211,17.89l0-.18.17,0a17,17,0,0,0,2.6.37,5.77,5.77,0,0,0,2.51-.58,5.94,5.94,0,0,0,3.21-3.92,7.92,7.92,0,0,0,.26-2.61,6,6,0,0,0-5-5.4c-4.31-.66-8.61-1.37-12.93-2S193.25,2.34,188.93,1.75Z"/><path class="cls-14" d="M197,299.19a33.77,33.77,0,0,1-2.76,5.63,27.36,27.36,0,0,1-3.92,4.91,26.46,26.46,0,0,1-10.8,6.26,37.64,37.64,0,0,1-12.6,1.44,35.75,35.75,0,0,1-6.3-.83l-6.41-1.38L103,304.17a30,30,0,0,1-9.78-6.8,24,24,0,0,1-3.53-4.83A25.6,25.6,0,0,1,87.38,287,36.13,36.13,0,0,1,86,274.94a48.18,48.18,0,0,1,.68-6.11,45.27,45.27,0,0,1,1.44-5.92l0-.09,0-.07,8.09-40.22-1.9-1.6L86,262.25a46.4,46.4,0,0,0-1.52,6.18,49,49,0,0,0-.72,6.4,38.28,38.28,0,0,0,1.4,12.84,28.13,28.13,0,0,0,2.53,6A26.68,26.68,0,0,0,91.5,299a27.66,27.66,0,0,0,5,4.24,35.86,35.86,0,0,0,5.69,3.14l.1.05.13,0,51.29,10.94,6.41,1.37a37.81,37.81,0,0,0,6.68.85,39.38,39.38,0,0,0,13.33-1.56,28.51,28.51,0,0,0,11.65-6.8,29.71,29.71,0,0,0,4.23-5.32,36.28,36.28,0,0,0,2.95-6.08l0-.06,0-.09,5.64-28.52-1.56-2.11Z"/><path class="cls-15" d="M246.59,85.63l0-8.79L246.47,68a13,13,0,0,0-.94-4.65,17.43,17.43,0,0,0-2.42-4,24,24,0,0,0-3.23-3.22,26.15,26.15,0,0,0-3.69-2.58L222.42,44.5l-6.89-4.56-6.62-4.33,2.45-17.48a15.43,15.43,0,0,0,2.47.25,6,6,0,0,0,2.6-.66,6.07,6.07,0,0,0,3.21-4.08,8.76,8.76,0,0,0,.23-2.65A6,6,0,0,0,214.8,5.6a6,6,0,0,1,5,5.4,7.92,7.92,0,0,1-.26,2.61,5.94,5.94,0,0,1-3.21,3.92,5.77,5.77,0,0,1-2.51.58,17,17,0,0,1-2.6-.37l-.17,0,0,.18-3.1,17.32c-4.94-.88-9.88-1.79-14.84-2.63-2.56-.44-5.11-.89-7.68-1.3l-6.8-1.12,1.25-8.07,1.23-8.26h0l.19-1.51A6.11,6.11,0,0,1,176.79,9a4.79,4.79,0,0,1-.44-2.84,8.14,8.14,0,0,1,.29-1.5,5.16,5.16,0,0,1,.64-1.34A5.59,5.59,0,0,1,182.47.85c2.13.27,4.31.6,6.46.9q6.48.88,12.94,1.86c4.32.62,8.62,1.33,12.93,2-4.3-.72-8.61-1.39-12.9-2.14S193.31,2,189,1.2c-2.16-.38-4.28-.78-6.46-1.14a6.38,6.38,0,0,0-3.42.48,6.6,6.6,0,0,0-2.71,2.2,5.91,5.91,0,0,0-.83,1.57A9.32,9.32,0,0,0,175.19,6a6.11,6.11,0,0,0,.43,3.55,7.46,7.46,0,0,0,4,3.84l-1.44,8.44-1.46,8.94-.05.26-11.5,1.48-12.45,1.65-6.23.82-3.14.41a14.22,14.22,0,0,0-1.58.31,13.92,13.92,0,0,0-1.56.45,20.28,20.28,0,0,0-5.67,3,23.53,23.53,0,0,0-4.62,4.52l0,.06,0,.1-6.75,17.92a13.29,13.29,0,0,0-.89,5,9.61,9.61,0,0,0,1.56,5,12.34,12.34,0,0,0,3.69,3.58,17.16,17.16,0,0,0,2.22,1.23,16.21,16.21,0,0,0,2.31.86q2.24.82,4.5,1.59a26.33,26.33,0,0,1-.29,8.59,24.09,24.09,0,0,1-3.68,8.6,30.22,30.22,0,0,1-6.45,6.86,36.08,36.08,0,0,1-8.08,4.86l-.4.17-.09.4-7.94,38.44-4,19.69,2.13-.49,3.76-18.83,7.56-38.1a37.76,37.76,0,0,0,8-5,31.81,31.81,0,0,0,6.7-7.24,25.54,25.54,0,0,0,3.82-9.13,27.61,27.61,0,0,0,.31-8.41c7.73,2.56,15.6,4.66,23.52,6.54,9.92,2.31,19.91,4.26,29.94,6s20.1,3.21,30.2,4.49c1.91.25,3.83.47,5.75.7a18.41,18.41,0,0,0-2,2.74,19.59,19.59,0,0,0-2,4.44,21,21,0,0,0-.52,9.66c.11.81.33,1.59.51,2.39s.45,1.56.75,2.32a34.72,34.72,0,0,0,2,4.45,49.69,49.69,0,0,0,5.38,7.94l-8.68,41.92-4.17,20.42,1.42-.28,3.9-19.91L232,131.12l0-.14-.09-.11a49.52,49.52,0,0,1-5.52-7.9,35.14,35.14,0,0,1-2-4.36c-.31-.75-.52-1.52-.77-2.29s-.42-1.55-.54-2.34a20.7,20.7,0,0,1,.35-9.55,19.46,19.46,0,0,1,1.87-4.44,18.6,18.6,0,0,1,1.95-2.79l1.8.21a34,34,0,0,0,3.92.26,23.57,23.57,0,0,0,4-.34,15,15,0,0,0,3.91-1.27,10.06,10.06,0,0,0,5.3-6.34,12.28,12.28,0,0,0,.4-2.06A11.37,11.37,0,0,0,246.59,85.63Zm-54.94,4c-10-1.71-20-3.62-29.83-5.89q-3-.69-6-1.43l51.75,9.86Q199.59,91,191.65,89.67Zm52.83-3.9a9.62,9.62,0,0,1-.38,3.34,7.83,7.83,0,0,1-1.58,2.94,9.85,9.85,0,0,1-6,3.07,21.38,21.38,0,0,1-3.59.27,32.67,32.67,0,0,1-3.67-.26c-2.52-.3-5-.6-7.55-.93q-4.62-.6-9.22-1.26L141,78.29c-2.8-.86-5.57-1.77-8.32-2.76h0l-.08,0a13.13,13.13,0,0,1-7.24-4.77,7.77,7.77,0,0,1-1.33-4,11.25,11.25,0,0,1,.71-4.36l6.4-17.92a22.53,22.53,0,0,1,4.21-4.24,19.7,19.7,0,0,1,5.29-3,12.66,12.66,0,0,1,1.44-.46,10.7,10.7,0,0,1,1.49-.33l3.07-.49,6.19-1,12.4-2,11.48-1.89-.1.59.89.14,7.7,1.2c2.56.41,5.14.77,7.7,1.16,5.14.77,10.28,1.45,15.42,2.19l6.62,4.59,6.81,4.67L235.3,55h0l.06,0a24.27,24.27,0,0,1,6.38,5.52,16.25,16.25,0,0,1,2.1,3.56,11.19,11.19,0,0,1,.73,4l-.1,17.63v.12Z"/><path class="cls-16" d="M304.61,219.16a40.67,40.67,0,0,0-4.75-15.47,30.47,30.47,0,0,0-11.5-11.48l-1.81-1c-.61-.3-1.25-.55-1.87-.83l-.94-.41c-.32-.13-.65-.23-1-.34l-1.94-.66a48.52,48.52,0,0,0-8-1.6,61.37,61.37,0,0,0-16.19.49h-.07l-.08,0a63.9,63.9,0,0,1-10.06,2.16c.93-.42,1.84-.86,2.76-1.3s1.92-1,2.89-1.51,1.88-1.09,2.81-1.65A48,48,0,0,0,265,177.25a34.15,34.15,0,0,0,4-5.29,32.15,32.15,0,0,0,2.88-6,27.73,27.73,0,0,0,1.47-6.5,25.11,25.11,0,0,0,.14-3.36,18.64,18.64,0,0,0-.38-3.41l-.19-.88-.9.23a44.39,44.39,0,0,0-12.31,5.12,34.39,34.39,0,0,0-9.75,9.1,36.38,36.38,0,0,0-5.54,12.05,42.35,42.35,0,0,0-1.1,6.51c-.11,1.12-.17,2.24-.17,3.35a14.27,14.27,0,0,0-.93-3.56,15.75,15.75,0,0,0-4-5.73,21.23,21.23,0,0,0-2.77-2.13,23.09,23.09,0,0,0-3.07-1.62,21.43,21.43,0,0,0-6.64-1.73A37.19,37.19,0,0,1,232,176a24.93,24.93,0,0,1,5.43,3.79,18.31,18.31,0,0,1,3.94,5.23,20,20,0,0,1,1.71,5.44c-1.13.08-2.27.12-3.42.14-1.91,0-3.85,0-5.81,0s-4,.09-5.93.24-3.93.35-5.9.68A41.69,41.69,0,0,0,210.46,195a45,45,0,0,0-10,6.65,38.72,38.72,0,0,0-7.76,9.28,32.54,32.54,0,0,0-4.11,11.46,41.86,41.86,0,0,0,.21,12q.19,1.46.42,2.91l.24,1.44.29,1.46.57,2.92c.22,1,.49,1.92.74,2.88.45,1.93,1.15,3.79,1.76,5.67.34.94.74,1.84,1.1,2.76l.56,1.38c.19.46.41.9.62,1.34a82.58,82.58,0,0,0,13,19.63c2.57,3,5.29,5.77,8.09,8.49q2.1,2,4.22,4a33.7,33.7,0,0,0,4.51,3.8,20.33,20.33,0,0,0,11.15,3.42,30.6,30.6,0,0,0,11.48-2.08,19.42,19.42,0,0,0,2.29-1c.75-.38,1.45-.82,2.2-1.14a15.93,15.93,0,0,1,2.33-.78,22.59,22.59,0,0,1,2.42-.5,25.4,25.4,0,0,1,9.82.57h0a17.56,17.56,0,0,0,7.12.8,20.68,20.68,0,0,0,6.93-1.87l1.59-.85.4-.21.38-.26.74-.51a22.56,22.56,0,0,0,2.83-2.23,12.79,12.79,0,0,0,1.29-1.26l1.25-1.3c.76-.93,1.49-1.88,2.24-2.82h0l0,0a99.53,99.53,0,0,0,10.93-30c.94-5.25,1.79-10.5,2.29-15.83A77.85,77.85,0,0,0,304.61,219.16Zm-59.39-40.61A37.14,37.14,0,0,1,251,167.09a33.94,33.94,0,0,1,9.51-8.48A42.91,42.91,0,0,1,271.48,154c.1.69.16,1.42.19,2.12a23.4,23.4,0,0,1-.11,3.13,26.86,26.86,0,0,1-1.34,6.13,33.46,33.46,0,0,1-6.29,10.92,42.84,42.84,0,0,1-4.48,4.56,55.89,55.89,0,0,1-5,4q-1.32.92-2.67,1.8c-.92.56-1.83,1.13-2.77,1.68l-2.83,1.55-.51.27-.32,0-1.51.14c1.28-2.39,2.58-4.75,3.93-7.09,1.54-2.66,3.14-5.29,4.86-7.84a70.76,70.76,0,0,1,5.58-7.3,29.28,29.28,0,0,1,7-5.95,22.61,22.61,0,0,0-7.65,5.31c-1.11,1.11-2.13,2.29-3.12,3.5s-1.89,2.49-2.77,3.78a74.51,74.51,0,0,0-4.69,8.06,71.2,71.2,0,0,0-3.29,7.55l-.35,0A42,42,0,0,1,245.22,178.55ZM303,235.1c-.45,5.25-1.2,10.52-2,15.74-.46,2.59-1,5.18-1.66,7.73s-1.44,5.09-2.29,7.59a100.86,100.86,0,0,1-6.29,14.53c-.71.93-1.41,1.88-2.13,2.8l-1.21,1.3a13.4,13.4,0,0,1-1.24,1.26,24.47,24.47,0,0,1-2.74,2.23l-.72.51-.36.25-.39.21-1.55.86a20.19,20.19,0,0,1-6.76,1.94,16.71,16.71,0,0,1-7-.72h0a26.26,26.26,0,0,0-9.91-.55,20.58,20.58,0,0,0-2.46.49,16.84,16.84,0,0,0-2.37.78c-.78.33-1.49.77-2.22,1.15a22.66,22.66,0,0,1-2.26,1,30.46,30.46,0,0,1-11.36,1.9,19.58,19.58,0,0,1-10.74-3.58,33,33,0,0,1-4.26-3.87c-1.36-1.39-2.71-2.78-4-4.19-2.67-2.8-5.26-5.68-7.67-8.7-.62-.74-1.2-1.51-1.78-2.28s-1.17-1.52-1.71-2.32l-1.65-2.37-1.53-2.44c-.54-.8-1-1.65-1.46-2.48s-1-1.66-1.37-2.52l-1.29-2.57-1.15-2.62c-.19-.44-.4-.87-.57-1.31l-.5-1.34c-.32-.9-.68-1.78-1-2.69-.53-1.83-1.18-3.63-1.58-5.49-.22-.93-.46-1.85-.66-2.78l-.5-2.82-.25-1.4-.21-1.44-.41-2.86a38.93,38.93,0,0,1-.15-11.19,30,30,0,0,1,3.76-10.35,35.55,35.55,0,0,1,7.08-8.59,42.86,42.86,0,0,1,9.3-6.29c6.68-3.34,14.47-4.21,22.08-4.41,1.92,0,3.87,0,5.85-.06s4-.19,5.93-.44a66.25,66.25,0,0,0,11.5-2.51,59.31,59.31,0,0,1,15.51-.62,47.11,47.11,0,0,1,7.63,1.45l1.84.6c.3.11.61.2.91.32l.89.37c.59.26,1.19.49,1.77.77l1.71.91a28.56,28.56,0,0,1,10.89,10.65,39.17,39.17,0,0,1,4.67,14.75A75.85,75.85,0,0,1,303,235.1Z"/></g></g></svg>