<svg xmlns="http://www.w3.org/2000/svg" xmlns:xlink="http://www.w3.org/1999/xlink" viewBox="0 0 443.23 149.11"><defs><style>.cls-1{fill:#1b1b3f;opacity:0.45;}.cls-2{opacity:0.85;}.cls-3{fill:#fff;}.cls-4{fill:none;}.cls-5{fill:url(#Degradado_sin_nombre_8);}.cls-6{fill:url(#Degradado_sin_nombre_8-2);}.cls-7{fill:url(#Degradado_sin_nombre_4);}.cls-8{fill:url(#Degradado_sin_nombre_4-2);}.cls-9{fill:url(#Degradado_sin_nombre_4-3);}.cls-10{fill:url(#Degradado_sin_nombre_4-4);}.cls-11{fill:url(#Degradado_sin_nombre_4-5);}.cls-12{fill:url(#Degradado_sin_nombre_4-6);}.cls-13{fill:url(#Degradado_sin_nombre_4-7);}.cls-14{fill:url(#Degradado_sin_nombre_4-8);}.cls-15{fill:url(#Degradado_sin_nombre_4-9);}.cls-16{fill:url(#Degradado_sin_nombre_4-10);}.cls-17{fill:url(#Degradado_sin_nombre_8-3);}.cls-18{fill:url(#Degradado_sin_nombre_8-4);}.cls-19{fill:url(#Degradado_sin_nombre_17);}</style><linearGradient id="Degradado_sin_nombre_8" x1="105.52" y1="63.28" x2="105.52" y2="69.72" gradientUnits="userSpaceOnUse"><stop offset="0" stop-color="#fd9a83"/><stop offset="0.51" stop-color="#fccf6b"/><stop offset="1" stop-color="#282559"/></linearGradient><linearGradient id="Degradado_sin_nombre_8-2" x1="112.28" y1="32.83" x2="112.28" y2="34.07" xlink:href="#Degradado_sin_nombre_8"/><linearGradient id="Degradado_sin_nombre_4" x1="57.49" y1="61.61" x2="62.11" y2="61.61" gradientUnits="userSpaceOnUse"><stop offset="0" stop-color="#fd9a83"/><stop offset="0.31" stop-color="#f8bdc3"/><stop offset="0.51" stop-color="#fccf6b"/><stop offset="1" stop-color="#282559"/></linearGradient><linearGradient id="Degradado_sin_nombre_4-2" x1="54.81" y1="74.89" x2="58.38" y2="74.89" xlink:href="#Degradado_sin_nombre_4"/><linearGradient id="Degradado_sin_nombre_4-3" x1="57.49" y1="68.68" x2="61.35" y2="68.68" xlink:href="#Degradado_sin_nombre_4"/><linearGradient id="Degradado_sin_nombre_4-4" x1="64.2" y1="62.94" x2="69.27" y2="62.94" xlink:href="#Degradado_sin_nombre_4"/><linearGradient id="Degradado_sin_nombre_4-5" x1="51.08" y1="80.45" x2="101.51" y2="80.45" xlink:href="#Degradado_sin_nombre_4"/><linearGradient id="Degradado_sin_nombre_4-6" x1="66.23" y1="78.65" x2="80.26" y2="78.65" xlink:href="#Degradado_sin_nombre_4"/><linearGradient id="Degradado_sin_nombre_4-7" x1="66.51" y1="75.88" x2="81.04" y2="75.88" xlink:href="#Degradado_sin_nombre_4"/><linearGradient id="Degradado_sin_nombre_4-8" x1="84.94" y1="91.62" x2="89.78" y2="91.62" xlink:href="#Degradado_sin_nombre_4"/><linearGradient id="Degradado_sin_nombre_4-9" x1="84.21" y1="84.57" x2="94.79" y2="84.57" xlink:href="#Degradado_sin_nombre_4"/><linearGradient id="Degradado_sin_nombre_4-10" x1="77.47" y1="93.34" x2="99.47" y2="93.34" xlink:href="#Degradado_sin_nombre_4"/><linearGradient id="Degradado_sin_nombre_8-3" x1="96.16" y1="28.64" x2="96.16" y2="128.6" xlink:href="#Degradado_sin_nombre_8"/><linearGradient id="Degradado_sin_nombre_8-4" x1="106.13" y1="28.64" x2="106.13" y2="128.6" xlink:href="#Degradado_sin_nombre_8"/><linearGradient id="Degradado_sin_nombre_17" x1="132.63" y1="75.45" x2="124.53" y2="121.4" gradientUnits="userSpaceOnUse"><stop offset="0" stop-color="#fd9a83"/><stop offset="0.05" stop-color="#fe857f"/><stop offset="0.11" stop-color="#fe737c"/><stop offset="0.17" stop-color="#ff697a"/><stop offset="0.25" stop-color="#ff6679"/><stop offset="0.66" stop-color="#fccf6b"/><stop offset="1" stop-color="#282559"/></linearGradient></defs><g id="Capa_2" data-name="Capa 2"><g id="Ilustraciones"><rect class="cls-1" width="443.23" height="149.11" rx="28.09"/><g class="cls-2"><path class="cls-3" d="M228.31,57.17a7.35,7.35,0,0,1-3.84-1,6.56,6.56,0,0,1-2.53-2.78,9.4,9.4,0,0,1-.89-4.21,10,10,0,0,1,.51-3.29A7.16,7.16,0,0,1,223,43.41a6.29,6.29,0,0,1,2.29-1.59,7.76,7.76,0,0,1,3-.55,7.37,7.37,0,0,1,3.85,1A6.46,6.46,0,0,1,234.68,45a9.32,9.32,0,0,1,.89,4.2,10,10,0,0,1-.51,3.3A7.12,7.12,0,0,1,233.6,55a6.2,6.2,0,0,1-2.3,1.6A7.73,7.73,0,0,1,228.31,57.17Zm0-2a4.74,4.74,0,0,0,2.63-.7,4.51,4.51,0,0,0,1.67-2.05,8,8,0,0,0,.58-3.23,6.78,6.78,0,0,0-1.27-4.4,4.41,4.41,0,0,0-3.61-1.56,4.82,4.82,0,0,0-2.63.69A4.37,4.37,0,0,0,224,46a8,8,0,0,0-.58,3.23,6.78,6.78,0,0,0,1.28,4.4A4.37,4.37,0,0,0,228.31,55.19Z"/><path class="cls-3" d="M244.15,57.17a4.15,4.15,0,0,1-2.44-.71,3.48,3.48,0,0,1-1.39-1.9l.24-.4V56a1.12,1.12,0,0,1-.28.82,1,1,0,0,1-.79.3,1.07,1.07,0,0,1-.82-.3,1.12,1.12,0,0,1-.29-.82V42.43a1.13,1.13,0,0,1,.29-.83,1.11,1.11,0,0,1,.82-.29,1.14,1.14,0,0,1,.82.29,1.1,1.1,0,0,1,.3.83v6.16h-.27a3.37,3.37,0,0,1,1.39-1.85,4.2,4.2,0,0,1,2.42-.7,4.34,4.34,0,0,1,4.15,2.6,7,7,0,0,1,.58,3,7.17,7.17,0,0,1-.58,3,4.36,4.36,0,0,1-1.65,1.93A4.61,4.61,0,0,1,244.15,57.17Zm-.55-1.71a3,3,0,0,0,1.61-.44,2.87,2.87,0,0,0,1-1.3,5.28,5.28,0,0,0,.37-2.11,4.3,4.3,0,0,0-.82-2.86,2.75,2.75,0,0,0-2.21-1,3,3,0,0,0-1.6.43,2.74,2.74,0,0,0-1.06,1.29,5.24,5.24,0,0,0-.38,2.11,4.3,4.3,0,0,0,.84,2.86A2.74,2.74,0,0,0,243.6,55.46Z"/><path class="cls-3" d="M249.67,61.16A1.1,1.1,0,0,1,249,61a.82.82,0,0,1-.35-.39,1,1,0,0,1-.07-.5.84.84,0,0,1,.22-.44.82.82,0,0,1,.5-.21,2.4,2.4,0,0,0,1.62-.59,2.33,2.33,0,0,0,.51-1.67v-10a1.1,1.1,0,0,1,.3-.84,1.14,1.14,0,0,1,.83-.28,1.09,1.09,0,0,1,.82.28,1.18,1.18,0,0,1,.27.84V57a5,5,0,0,1-.45,2.26,3,3,0,0,1-1.33,1.33A5.84,5.84,0,0,1,249.67,61.16Zm2.91-17.32a1.47,1.47,0,0,1-1-.33,1.19,1.19,0,0,1-.36-.92,1.21,1.21,0,0,1,.36-.94,1.51,1.51,0,0,1,1-.32,1.47,1.47,0,0,1,1,.32,1.24,1.24,0,0,1,.35.94,1.22,1.22,0,0,1-.35.92A1.43,1.43,0,0,1,252.58,43.84Z"/><path class="cls-3" d="M261.84,57.17a6.36,6.36,0,0,1-3-.67,4.75,4.75,0,0,1-2-1.91,6.65,6.65,0,0,1,0-5.88,5,5,0,0,1,1.87-2,5.22,5.22,0,0,1,2.71-.71,5.06,5.06,0,0,1,2,.37,4.11,4.11,0,0,1,1.51,1.05,4.45,4.45,0,0,1,.94,1.68,7.07,7.07,0,0,1,.32,2.23.69.69,0,0,1-.22.56,1,1,0,0,1-.66.19h-7.39V50.75h6.78l-.38.31a4.75,4.75,0,0,0-.32-1.87,2.47,2.47,0,0,0-.94-1.18,2.82,2.82,0,0,0-1.55-.41,3.06,3.06,0,0,0-1.75.49,3,3,0,0,0-1.09,1.34,5,5,0,0,0-.38,2v.13a4.12,4.12,0,0,0,.92,2.92,3.46,3.46,0,0,0,2.65,1,6,6,0,0,0,1.4-.18,4.35,4.35,0,0,0,1.39-.59,1.21,1.21,0,0,1,.67-.2.81.81,0,0,1,.49.2.78.78,0,0,1,.23.44.89.89,0,0,1-.09.54,1.25,1.25,0,0,1-.46.49,5.5,5.5,0,0,1-1.74.76A7.66,7.66,0,0,1,261.84,57.17Z"/><path class="cls-3" d="M273.17,57.17a4.8,4.8,0,0,1-2.22-.46,2.92,2.92,0,0,1-1.35-1.36,5,5,0,0,1-.44-2.2V48h-1.32a1,1,0,0,1-.68-.23.85.85,0,0,1-.24-.63.83.83,0,0,1,.24-.64,1,1,0,0,1,.68-.22h1.32V44a1.1,1.1,0,0,1,.3-.83,1.15,1.15,0,0,1,.83-.29,1.1,1.1,0,0,1,.81.29,1.13,1.13,0,0,1,.29.83v2.27H274a1,1,0,0,1,.68.22.83.83,0,0,1,.24.64.85.85,0,0,1-.24.63A1,1,0,0,1,274,48h-2.57v5a2.68,2.68,0,0,0,.49,1.76,2,2,0,0,0,1.62.6,2.84,2.84,0,0,0,.69-.08l.5-.1a.51.51,0,0,1,.39.17.92.92,0,0,1,.16.62,1.6,1.6,0,0,1-.13.62.62.62,0,0,1-.42.37,4.83,4.83,0,0,1-.72.17A4.9,4.9,0,0,1,273.17,57.17Z"/><path class="cls-3" d="M277.92,43.84a1.5,1.5,0,0,1-1-.33,1.19,1.19,0,0,1-.36-.92,1.21,1.21,0,0,1,.36-.94,1.55,1.55,0,0,1,1-.32,1.5,1.5,0,0,1,1,.32,1.21,1.21,0,0,1,.36.94,1.19,1.19,0,0,1-.36.92A1.46,1.46,0,0,1,277.92,43.84Zm0,13.27a1.06,1.06,0,0,1-.82-.32,1.28,1.28,0,0,1-.28-.89V47.32a1.24,1.24,0,0,1,.28-.88,1.06,1.06,0,0,1,.82-.31,1.07,1.07,0,0,1,.82.31,1.2,1.2,0,0,1,.3.88V55.9a1.29,1.29,0,0,1-.29.89A1.07,1.07,0,0,1,277.92,57.11Z"/><path class="cls-3" d="M286.32,57.13a1.35,1.35,0,0,1-.8-.24,1.65,1.65,0,0,1-.56-.75l-3.68-8.54a1.44,1.44,0,0,1-.13-.74.78.78,0,0,1,.33-.56,1.28,1.28,0,0,1,.77-.21,1,1,0,0,1,.66.2,1.63,1.63,0,0,1,.44.68l3.32,8.18h-.61L289.45,47a1.54,1.54,0,0,1,.45-.68,1.07,1.07,0,0,1,.71-.2.9.9,0,0,1,.63.21.89.89,0,0,1,.28.55,1.23,1.23,0,0,1-.12.73l-3.71,8.56a1.64,1.64,0,0,1-.55.75A1.44,1.44,0,0,1,286.32,57.13Z"/><path class="cls-3" d="M298.07,57.17a5.47,5.47,0,0,1-2.81-.68,4.73,4.73,0,0,1-1.83-1.93,6.26,6.26,0,0,1-.66-3,6.59,6.59,0,0,1,.37-2.31,5.09,5.09,0,0,1,1.07-1.75,4.47,4.47,0,0,1,1.67-1.12,5.85,5.85,0,0,1,2.19-.39,5.48,5.48,0,0,1,2.78.68,4.75,4.75,0,0,1,1.84,1.93,6.22,6.22,0,0,1,.66,3,7,7,0,0,1-.37,2.31,5,5,0,0,1-1.07,1.76,4.7,4.7,0,0,1-1.67,1.11A5.86,5.86,0,0,1,298.07,57.17Zm0-1.71a2.86,2.86,0,0,0,1.58-.44,2.9,2.9,0,0,0,1.07-1.3,5.1,5.1,0,0,0,.39-2.11,4.25,4.25,0,0,0-.84-2.86,2.76,2.76,0,0,0-2.2-1,2.94,2.94,0,0,0-1.61.43,2.8,2.8,0,0,0-1.06,1.29,5.06,5.06,0,0,0-.39,2.11,4.3,4.3,0,0,0,.84,2.86A2.77,2.77,0,0,0,298.07,55.46Z"/><path class="cls-3" d="M315.08,57.17a4.44,4.44,0,0,1-2-.44,3.43,3.43,0,0,1-1.39-1.18,3,3,0,0,1-.51-1.7,2.77,2.77,0,0,1,.6-1.88,3.62,3.62,0,0,1,2-1,18.75,18.75,0,0,1,3.77-.3h1v1.37h-1a16.46,16.46,0,0,0-2.51.15,2.64,2.64,0,0,0-1.31.52,1.33,1.33,0,0,0-.38,1,1.72,1.72,0,0,0,.57,1.35,2.25,2.25,0,0,0,1.58.52,2.74,2.74,0,0,0,1.44-.38,2.8,2.8,0,0,0,1-1.05,3,3,0,0,0,.37-1.52V50.11a2.56,2.56,0,0,0-.53-1.8,2.31,2.31,0,0,0-1.74-.55,6.34,6.34,0,0,0-3,.77,1,1,0,0,1-.64.11.68.68,0,0,1-.42-.3,1,1,0,0,1-.17-.5,1,1,0,0,1,.14-.54.87.87,0,0,1,.49-.4,8.34,8.34,0,0,1,1.91-.66,9,9,0,0,1,1.79-.2,5.72,5.72,0,0,1,2.43.46,3,3,0,0,1,1.42,1.41,5.56,5.56,0,0,1,.46,2.44V56a1.16,1.16,0,0,1-.27.82,1,1,0,0,1-.76.3,1,1,0,0,1-.78-.3,1.12,1.12,0,0,1-.28-.82V54.58h.2a3.41,3.41,0,0,1-.65,1.4,3.26,3.26,0,0,1-1.18.89A4,4,0,0,1,315.08,57.17Z"/><path class="cls-3" d="M328.19,57.17a5.62,5.62,0,0,1-2.85-.69,4.69,4.69,0,0,1-1.86-2,6.33,6.33,0,0,1-.66-3,6.69,6.69,0,0,1,.37-2.3,4.78,4.78,0,0,1,1.07-1.72A4.65,4.65,0,0,1,326,46.43a6.16,6.16,0,0,1,2.24-.39,6.25,6.25,0,0,1,1.61.23,5,5,0,0,1,1.58.76.77.77,0,0,1,.36.43,1,1,0,0,1,0,.52.9.9,0,0,1-.24.45.8.8,0,0,1-.45.22,1,1,0,0,1-.57-.14,3.77,3.77,0,0,0-1.08-.54,3.71,3.71,0,0,0-1.06-.17,3.52,3.52,0,0,0-1.39.26,2.7,2.7,0,0,0-1,.72,3.09,3.09,0,0,0-.62,1.18,5.59,5.59,0,0,0-.21,1.6,4.32,4.32,0,0,0,.84,2.83,3,3,0,0,0,2.41,1,4.07,4.07,0,0,0,1.06-.16,3.49,3.49,0,0,0,1.08-.53.88.88,0,0,1,.57-.13.76.76,0,0,1,.43.23,1,1,0,0,1,.22.44,1,1,0,0,1,0,.52.81.81,0,0,1-.37.44,4.69,4.69,0,0,1-1.53.73A6.44,6.44,0,0,1,328.19,57.17Z"/><path class="cls-3" d="M338.33,57.17a4.8,4.8,0,0,1-2.22-.46,2.92,2.92,0,0,1-1.35-1.36,5,5,0,0,1-.44-2.2V48H333a1,1,0,0,1-.68-.23.85.85,0,0,1-.24-.63.83.83,0,0,1,.24-.64,1,1,0,0,1,.68-.22h1.32V44a1.1,1.1,0,0,1,.3-.83,1.15,1.15,0,0,1,.83-.29,1.1,1.1,0,0,1,.81.29,1.13,1.13,0,0,1,.29.83v2.27h2.57a1,1,0,0,1,.68.22.83.83,0,0,1,.24.64.85.85,0,0,1-.24.63,1,1,0,0,1-.68.23h-2.57v5a2.68,2.68,0,0,0,.49,1.76,2,2,0,0,0,1.62.6,2.84,2.84,0,0,0,.69-.08l.5-.1a.51.51,0,0,1,.39.17.92.92,0,0,1,.16.62,1.6,1.6,0,0,1-.13.62.62.62,0,0,1-.42.37,4.83,4.83,0,0,1-.72.17A4.9,4.9,0,0,1,338.33,57.17Z"/><path class="cls-3" d="M345.61,57.17a4.44,4.44,0,0,1-2.17-.48,3,3,0,0,1-1.3-1.44,6,6,0,0,1-.43-2.41V47.21a1,1,0,0,1,1.1-1.12,1.18,1.18,0,0,1,.83.27,1.1,1.1,0,0,1,.3.85v5.65a2.92,2.92,0,0,0,.52,1.92,2.11,2.11,0,0,0,1.68.61,2.65,2.65,0,0,0,2-.84,3.18,3.18,0,0,0,.78-2.24v-5.1a1.13,1.13,0,0,1,.29-.85,1.18,1.18,0,0,1,.84-.27,1,1,0,0,1,1.09,1.12V56c0,.75-.35,1.12-1.07,1.12a1.07,1.07,0,0,1-.8-.3A1.12,1.12,0,0,1,349,56V54.14l.28.48a3.68,3.68,0,0,1-1.4,1.89A3.91,3.91,0,0,1,345.61,57.17Z"/><path class="cls-3" d="M357.73,57.17a4.37,4.37,0,0,1-2-.44,3.46,3.46,0,0,1-1.4-1.18,3,3,0,0,1-.51-1.7,2.78,2.78,0,0,1,.61-1.88,3.58,3.58,0,0,1,2-1,18.75,18.75,0,0,1,3.77-.3h1v1.37h-1a16.37,16.37,0,0,0-2.51.15,2.6,2.6,0,0,0-1.31.52,1.3,1.3,0,0,0-.39,1,1.73,1.73,0,0,0,.58,1.35,2.25,2.25,0,0,0,1.58.52,2.7,2.7,0,0,0,1.43-.38,2.83,2.83,0,0,0,1-1.05,3.13,3.13,0,0,0,.36-1.52V50.11a2.52,2.52,0,0,0-.53-1.8,2.3,2.3,0,0,0-1.73-.55,6.34,6.34,0,0,0-3,.77,1,1,0,0,1-.64.11.74.74,0,0,1-.42-.3,1,1,0,0,1-.16-.5,1,1,0,0,1,.13-.54.89.89,0,0,1,.5-.4,8.18,8.18,0,0,1,1.91-.66,8.82,8.82,0,0,1,1.78-.2,5.69,5.69,0,0,1,2.43.46,3,3,0,0,1,1.42,1.41,5.56,5.56,0,0,1,.46,2.44V56a1.16,1.16,0,0,1-.26.82,1,1,0,0,1-.77.3,1,1,0,0,1-.77-.3A1.12,1.12,0,0,1,361,56V54.58h.2a3.29,3.29,0,0,1-.65,1.4,3.15,3.15,0,0,1-1.17.89A4.09,4.09,0,0,1,357.73,57.17Z"/><path class="cls-3" d="M369.57,57.17a3.23,3.23,0,0,1-2.59-1,4.27,4.27,0,0,1-.87-2.89V42.43a1.13,1.13,0,0,1,.29-.83,1.1,1.1,0,0,1,.81-.29,1.16,1.16,0,0,1,.83.29,1.13,1.13,0,0,1,.29.83V53.15a2.47,2.47,0,0,0,.46,1.64,1.58,1.58,0,0,0,1.3.54h.36l.3,0a.4.4,0,0,1,.38.15,1.39,1.39,0,0,1,.11.67,1.13,1.13,0,0,1-.2.71.92.92,0,0,1-.64.32,2.77,2.77,0,0,1-.42,0Z"/></g><g class="cls-2"><path class="cls-3" d="M211.1,102.85a22.39,22.39,0,0,1-3.16-.23,17,17,0,0,1-3-.72,11.78,11.78,0,0,1-2.52-1.21,2.34,2.34,0,0,1-.9-1,2.23,2.23,0,0,1-.16-1.21,2.05,2.05,0,0,1,.46-1,1.61,1.61,0,0,1,1-.56,1.76,1.76,0,0,1,1.26.32,12.07,12.07,0,0,0,3.35,1.37,15.37,15.37,0,0,0,3.7.43,7,7,0,0,0,4.14-.95,2.93,2.93,0,0,0,1.3-2.47,2.39,2.39,0,0,0-.92-2,8.06,8.06,0,0,0-3.15-1.19l-4-.82a9.75,9.75,0,0,1-5.09-2.43,6.18,6.18,0,0,1-1.68-4.52,7.11,7.11,0,0,1,.72-3.21,7.44,7.44,0,0,1,2-2.48,9.26,9.26,0,0,1,3.13-1.6,13.68,13.68,0,0,1,4-.56,15.33,15.33,0,0,1,4.11.54,12.07,12.07,0,0,1,3.49,1.58,2,2,0,0,1,.77,1A2,2,0,0,1,220.1,81a1.79,1.79,0,0,1-.5,1,1.54,1.54,0,0,1-1,.47,2.19,2.19,0,0,1-1.35-.36,10.59,10.59,0,0,0-2.7-1.08,13.14,13.14,0,0,0-2.95-.32,7.63,7.63,0,0,0-2.85.47A4,4,0,0,0,207,82.42a3.27,3.27,0,0,0-.63,2,2.64,2.64,0,0,0,.86,2.07,6.57,6.57,0,0,0,2.95,1.21l3.93.82a11.22,11.22,0,0,1,5.31,2.38,5.62,5.62,0,0,1,1.74,4.32,6.71,6.71,0,0,1-2.72,5.54,9.28,9.28,0,0,1-3.15,1.55A14.63,14.63,0,0,1,211.1,102.85Z"/><path class="cls-3" d="M230.44,102.85a7.63,7.63,0,0,1-3.41-.74,5.94,5.94,0,0,1-2.34-2,5,5,0,0,1-.84-2.85,4.43,4.43,0,0,1,1-3.08,6.07,6.07,0,0,1,3.27-1.64,29.68,29.68,0,0,1,6.09-.5H236v2.59h-1.77a22.4,22.4,0,0,0-3.56.22,3.56,3.56,0,0,0-1.89.74,1.9,1.9,0,0,0-.56,1.45,2.52,2.52,0,0,0,.83,2,3.3,3.3,0,0,0,2.3.75,4,4,0,0,0,2.11-.55,4.05,4.05,0,0,0,1.46-1.53,4.53,4.53,0,0,0,.54-2.24V91.29a3.55,3.55,0,0,0-.8-2.59,3.69,3.69,0,0,0-2.66-.79,11.55,11.55,0,0,0-2.25.25,12.15,12.15,0,0,0-2.54.87,1.79,1.79,0,0,1-1.2.18,1.37,1.37,0,0,1-.81-.6,1.74,1.74,0,0,1-.29-1,2.09,2.09,0,0,1,.29-1.06,1.71,1.71,0,0,1,1-.77,15.71,15.71,0,0,1,3.18-1,14.54,14.54,0,0,1,2.79-.29,10,10,0,0,1,4.27.79,5.28,5.28,0,0,1,2.5,2.39,9,9,0,0,1,.83,4.12v8.64a2.44,2.44,0,0,1-.54,1.71,2,2,0,0,1-1.55.6,2,2,0,0,1-1.56-.6,2.35,2.35,0,0,1-.56-1.71V98.75h.29a4.9,4.9,0,0,1-2.85,3.6A6.2,6.2,0,0,1,230.44,102.85Z"/><path class="cls-3" d="M250.34,102.85a5.7,5.7,0,0,1-4.5-1.71,7.4,7.4,0,0,1-1.51-5v-17a2.27,2.27,0,0,1,.58-1.69,2.24,2.24,0,0,1,1.65-.58,2.35,2.35,0,0,1,1.68.58,2.27,2.27,0,0,1,.59,1.69V95.9a3.66,3.66,0,0,0,.7,2.45,2.53,2.53,0,0,0,2,.79,4.7,4.7,0,0,0,.54,0l.51-.05a.59.59,0,0,1,.68.27,3.48,3.48,0,0,1,.18,1.39,2.38,2.38,0,0,1-.36,1.4,1.62,1.62,0,0,1-1.19.61l-.75.08C250.87,102.84,250.61,102.85,250.34,102.85Z"/><path class="cls-3" d="M262.19,102.85a7.34,7.34,0,0,1-3.64-.81,5,5,0,0,1-2.14-2.43,10.11,10.11,0,0,1-.7-4V86.87a2,2,0,0,1,2.23-2.27,2.34,2.34,0,0,1,1.67.56,2.22,2.22,0,0,1,.6,1.71v8.78a4.26,4.26,0,0,0,.75,2.77,3,3,0,0,0,2.42.9,3.84,3.84,0,0,0,2.95-1.24,4.63,4.63,0,0,0,1.15-3.29V86.87a2,2,0,0,1,2.23-2.27,2.38,2.38,0,0,1,1.68.56,2.26,2.26,0,0,1,.59,1.71v13.6c0,1.54-.73,2.31-2.2,2.31a2.16,2.16,0,0,1-1.62-.6,2.35,2.35,0,0,1-.57-1.71V97.74l.5,1.08a6.2,6.2,0,0,1-2.28,3A6.32,6.32,0,0,1,262.19,102.85Z"/><path class="cls-3" d="M283.43,102.85a7.13,7.13,0,0,1-6.77-4.3,11.36,11.36,0,0,1-1-4.88,11.24,11.24,0,0,1,1-4.88,7.49,7.49,0,0,1,2.72-3.15,7.37,7.37,0,0,1,4.05-1.11,6.8,6.8,0,0,1,3.83,1.08,5.38,5.38,0,0,1,2.22,2.84h-.4V79.09a2.27,2.27,0,0,1,.58-1.69,2.24,2.24,0,0,1,1.65-.58,2.35,2.35,0,0,1,1.68.58,2.27,2.27,0,0,1,.59,1.69v21.38a2.32,2.32,0,0,1-.58,1.71,2.17,2.17,0,0,1-1.65.6,2.21,2.21,0,0,1-1.66-.6,2.35,2.35,0,0,1-.57-1.71v-2.8l.39,1.08a5.3,5.3,0,0,1-2.19,3A6.83,6.83,0,0,1,283.43,102.85Zm1.26-3.42a4.24,4.24,0,0,0,2.34-.65,4.19,4.19,0,0,0,1.56-1.92,7.89,7.89,0,0,0,.56-3.19,6.49,6.49,0,0,0-1.22-4.3A4.07,4.07,0,0,0,284.69,88a4.31,4.31,0,0,0-2.34.63,4.07,4.07,0,0,0-1.57,1.91,8,8,0,0,0-.56,3.18,6.51,6.51,0,0,0,1.23,4.3A4,4,0,0,0,284.69,99.43Z"/><path class="cls-3" d="M311.47,102.78a2.23,2.23,0,0,1-1.67-.6,2.28,2.28,0,0,1-.6-1.71V88.27h-1.65a1.83,1.83,0,0,1-1.33-.45,1.9,1.9,0,0,1,0-2.5,1.87,1.87,0,0,1,1.33-.43h2.95l-1.3,1.19V84.85a7.51,7.51,0,0,1,1.88-5.56,8.48,8.48,0,0,1,5.4-2.18L317.7,77a1.66,1.66,0,0,1,1.15.24,1.47,1.47,0,0,1,.58.79,2,2,0,0,1,0,1,1.81,1.81,0,0,1-.45.88,1.29,1.29,0,0,1-.88.42l-.5,0a4.71,4.71,0,0,0-3,1,3.68,3.68,0,0,0-.94,2.74v1.33l-.57-.57h3.63a1.91,1.91,0,0,1,1.34.43,1.93,1.93,0,0,1,0,2.5,1.87,1.87,0,0,1-1.34.45H313.7v12.2C313.7,102,313,102.78,311.47,102.78Z"/><path class="cls-3" d="M323.35,102.74a2.09,2.09,0,0,1-1.66-.65,2.63,2.63,0,0,1-.57-1.8V87.08a2.65,2.65,0,0,1,.57-1.82,2.18,2.18,0,0,1,1.66-.63,2.21,2.21,0,0,1,1.67.63,2.56,2.56,0,0,1,.6,1.82v13.21a2.58,2.58,0,0,1-.58,1.8A2.12,2.12,0,0,1,323.35,102.74ZM325,82.33a1.28,1.28,0,0,1-.86.58,1.5,1.5,0,0,1-1-.18,1.46,1.46,0,0,1-.67-.72,1.24,1.24,0,0,1,.09-1.05l2.74-5.36a1.55,1.55,0,0,1,.86-.88,1.86,1.86,0,0,1,1.12-.06,2.29,2.29,0,0,1,1,.54,1.72,1.72,0,0,1,.5,1,1.5,1.5,0,0,1-.31,1.13Z"/><path class="cls-3" d="M336.74,102.85a18.26,18.26,0,0,1-3.27-.32,9.68,9.68,0,0,1-3.1-1.12,2.15,2.15,0,0,1-.81-.84,1.72,1.72,0,0,1-.18-1,1.59,1.59,0,0,1,.36-.84,1.4,1.4,0,0,1,.79-.47,1.59,1.59,0,0,1,1.06.18,12.18,12.18,0,0,0,2.7,1,11.86,11.86,0,0,0,2.49.27,4.46,4.46,0,0,0,2.57-.59,1.83,1.83,0,0,0,.85-1.57,1.53,1.53,0,0,0-.56-1.27,3.77,3.77,0,0,0-1.67-.67l-3.6-.69A6.25,6.25,0,0,1,331,93.26a4.3,4.3,0,0,1-1.17-3.12,4.77,4.77,0,0,1,1-3,6.12,6.12,0,0,1,2.64-2,10.27,10.27,0,0,1,3.89-.68,12.22,12.22,0,0,1,3,.34,10.77,10.77,0,0,1,2.68,1.06,1.51,1.51,0,0,1,.74.76,1.55,1.55,0,0,1,.09,1,1.89,1.89,0,0,1-.43.86,1.35,1.35,0,0,1-.81.47,1.83,1.83,0,0,1-1.1-.19,9.59,9.59,0,0,0-2.14-.83,8.1,8.1,0,0,0-2-.25,4.45,4.45,0,0,0-2.61.61,1.89,1.89,0,0,0-.85,1.62,1.71,1.71,0,0,0,.51,1.26,2.83,2.83,0,0,0,1.54.68l3.6.68a6.82,6.82,0,0,1,3.55,1.59,4.1,4.1,0,0,1,1.21,3.1,4.82,4.82,0,0,1-2.06,4.12A9.12,9.12,0,0,1,336.74,102.85Z"/><path class="cls-3" d="M350.1,81.29a2.82,2.82,0,0,1-2-.63,2.52,2.52,0,0,1,0-3.51,3.49,3.49,0,0,1,3.94,0,2.6,2.6,0,0,1,0,3.51A2.84,2.84,0,0,1,350.1,81.29Zm0,21.45a2.09,2.09,0,0,1-1.66-.65,2.63,2.63,0,0,1-.57-1.8V87.08a2.65,2.65,0,0,1,.57-1.82,2.18,2.18,0,0,1,1.66-.63,2.21,2.21,0,0,1,1.67.63,2.56,2.56,0,0,1,.6,1.82v13.21a2.63,2.63,0,0,1-.58,1.8A2.12,2.12,0,0,1,350.1,102.74Z"/><path class="cls-3" d="M365.18,102.85a9.87,9.87,0,0,1-4.82-1.13,7.81,7.81,0,0,1-3.17-3.22,10.33,10.33,0,0,1-1.12-4.9,10.74,10.74,0,0,1,.63-3.8A7.75,7.75,0,0,1,358.52,87a8,8,0,0,1,2.88-1.8,10.78,10.78,0,0,1,3.78-.63,11.22,11.22,0,0,1,2.58.32,9,9,0,0,1,2.61,1.08,1.74,1.74,0,0,1,.75.86,1.81,1.81,0,0,1,.07,1,1.83,1.83,0,0,1-.45.9,1.45,1.45,0,0,1-.84.47,1.78,1.78,0,0,1-1.12-.23,6.77,6.77,0,0,0-1.62-.71,6,6,0,0,0-1.58-.23,5.23,5.23,0,0,0-2.09.38A4.18,4.18,0,0,0,362,89.48a4.57,4.57,0,0,0-.95,1.74,8,8,0,0,0-.33,2.41,6.37,6.37,0,0,0,1.28,4.2,4.45,4.45,0,0,0,3.62,1.53,5.81,5.81,0,0,0,1.56-.22,6.88,6.88,0,0,0,1.64-.68,1.61,1.61,0,0,1,1.1-.22,1.55,1.55,0,0,1,.81.49,1.69,1.69,0,0,1,.4.9,2.15,2.15,0,0,1-.13,1,1.66,1.66,0,0,1-.74.82,9,9,0,0,1-2.52,1A11,11,0,0,1,365.18,102.85Z"/><path class="cls-3" d="M379.73,102.85a7.63,7.63,0,0,1-3.41-.74,5.94,5.94,0,0,1-2.34-2,5,5,0,0,1-.84-2.85,4.43,4.43,0,0,1,1-3.08,6.07,6.07,0,0,1,3.27-1.64,29.68,29.68,0,0,1,6.09-.5h1.8v2.59h-1.77a22.31,22.31,0,0,0-3.56.22,3.56,3.56,0,0,0-1.89.74,1.9,1.9,0,0,0-.56,1.45,2.52,2.52,0,0,0,.83,2,3.3,3.3,0,0,0,2.3.75,4,4,0,0,0,2.11-.55,4.05,4.05,0,0,0,1.46-1.53,4.53,4.53,0,0,0,.54-2.24V91.29a3.55,3.55,0,0,0-.8-2.59,3.71,3.71,0,0,0-2.66-.79,11.55,11.55,0,0,0-2.25.25,12.15,12.15,0,0,0-2.54.87,1.82,1.82,0,0,1-1.21.18,1.38,1.38,0,0,1-.8-.6,1.74,1.74,0,0,1-.29-1,2.09,2.09,0,0,1,.29-1.06,1.71,1.71,0,0,1,1-.77,15.71,15.71,0,0,1,3.18-1,14.54,14.54,0,0,1,2.79-.29,10,10,0,0,1,4.27.79,5.28,5.28,0,0,1,2.5,2.39,9,9,0,0,1,.83,4.12v8.64a2.44,2.44,0,0,1-.54,1.71,2,2,0,0,1-1.55.6,2,2,0,0,1-1.56-.6,2.35,2.35,0,0,1-.56-1.71V98.75h.29a5,5,0,0,1-1,2.17,5.05,5.05,0,0,1-1.86,1.43A6.2,6.2,0,0,1,379.73,102.85Z"/></g><path class="cls-4" d="M101.68,54.84c3.09.71,6.21,1.31,9.33,1.84,1.66.29,3.31.55,5,.8L99.8,54.4Z"/><path class="cls-4" d="M81.19,98.23l.16.14-.16-.14-2.53,12.58v0a12.19,12.19,0,0,0-.45,1.85,13.62,13.62,0,0,0-.22,1.91,11.36,11.36,0,0,0,.42,3.77,7.78,7.78,0,0,0,.74,1.73,7.45,7.45,0,0,0,1.1,1.52,9.49,9.49,0,0,0,3.06,2.12l16,3.46,2,.43a11.67,11.67,0,0,0,2,.26,11.89,11.89,0,0,0,3.94-.45,8.24,8.24,0,0,0,3.37-2,8.32,8.32,0,0,0,1.23-1.54,10.24,10.24,0,0,0,.86-1.76l2.67-13.13L118,95.92l2.69-13.16,2.72-13.11a15.5,15.5,0,0,1-1.69-2.48,11.53,11.53,0,0,1-.62-1.39c-.09-.24-.16-.49-.23-.73a6.24,6.24,0,0,1-.16-.75,6.57,6.57,0,0,1,.16-3,6.82,6.82,0,0,1,.61-1.38,5.43,5.43,0,0,1,.63-.86l-1.8-.22c-3.16-.4-6.31-.86-9.44-1.4s-6.26-1.16-9.37-1.88c-2.47-.59-4.93-1.24-7.35-2a8.66,8.66,0,0,1-.1,2.64A8,8,0,0,1,92.88,59a10,10,0,0,1-2.1,2.26,11.55,11.55,0,0,1-2.51,1.55L85.91,74.71,84.73,80.6l.66-.15-.66.15L83.5,86.75Zm11.75-33.4,1,.34,1,.32c.34.1.67.22,1,.31l1,.29c2.72.77,5.47,1.38,8.24,1.89,1.39.22,2.78.48,4.18.64.7.09,1.4.2,2.1.28l2.1.21,1,.1,1.06.07,2.11.16c1.41.09,2.83.11,4.24.19-.71,0-1.41,0-2.12.05l-1.06,0c-.36,0-.71,0-1.07,0l-2.12-.06-1.06,0-1.06-.08-2.12-.16c-.71-.06-1.41-.15-2.12-.23-1.41-.14-2.81-.4-4.21-.62s-2.79-.53-4.16-.88l-1-.25-1-.29c-.69-.19-1.37-.37-2-.6A43.06,43.06,0,0,1,89,63.28C90.28,63.86,91.6,64.37,92.94,64.83Z"/><path class="cls-4" d="M110.16,29.19c-.67-.09-1.35-.2-2-.28a1.74,1.74,0,0,0-1.62.77,1.79,1.79,0,0,0-.2.42,2.3,2.3,0,0,0-.09.47,1.51,1.51,0,0,0,.13.89,1.92,1.92,0,0,0,1.42,1l-.06.47h0l-.39,2.58-.39,2.53,2.13.34,2.4.41c1.55.26,3.09.55,4.64.82l1-5.41v-.06h.06a5.66,5.66,0,0,0,.81.12,1.87,1.87,0,0,0,1.79-1.41,2.82,2.82,0,0,0,.08-.82,2,2,0,0,0-.25-.78,1.93,1.93,0,0,0-1.32-.91l-4-.62Zm6.06,4.88c-.67,0-1.33-.09-2-.17s-1.32-.17-2-.27-1.31-.22-2-.35-1.31-.27-2-.45c.67,0,1.33.09,2,.16s1.32.17,2,.27,1.31.22,2,.35S115.58,33.89,116.22,34.07Z"/><path class="cls-4" d="M127.56,49.91a3.48,3.48,0,0,0-.23-1.23,4.46,4.46,0,0,0-.66-1.11,7.33,7.33,0,0,0-2-1.73h0L120.4,42.9l-2.13-1.46L116.2,40l-4.82-.69c-.8-.12-1.61-.23-2.41-.36l-2.41-.38-.27,0,0-.18-3.59.59-3.88.62-1.94.31L96,40a3.43,3.43,0,0,0-.46.11,3.36,3.36,0,0,0-.45.14,6.16,6.16,0,0,0-1.66.93,7.17,7.17,0,0,0-1.31,1.33l-2,5.6a3.61,3.61,0,0,0-.23,1.36,2.43,2.43,0,0,0,.42,1.26,4.1,4.1,0,0,0,2.26,1.49h0c.86.31,1.72.6,2.6.86l22.38,4.59,2.88.39,2.36.29a11.3,11.3,0,0,0,1.15.08,6.87,6.87,0,0,0,1.12-.08,3.08,3.08,0,0,0,1.87-1,2.41,2.41,0,0,0,.49-.92,3.12,3.12,0,0,0,.11-.53,3,3,0,0,0,0-.51v0h0Z"/><path class="cls-5" d="M98.89,67.11l1,.29,1,.25c1.37.35,2.77.6,4.16.88s2.8.48,4.21.62c.71.08,1.41.17,2.12.23l2.12.16,1.06.08,1.06,0,2.12.06c.36,0,.71,0,1.07,0l1.06,0c.71,0,1.41,0,2.12-.05-1.41-.08-2.83-.1-4.24-.19l-2.11-.16-1.06-.07-1-.1-2.1-.21c-.7-.08-1.4-.19-2.1-.28-1.4-.16-2.79-.42-4.18-.64-2.77-.51-5.52-1.12-8.24-1.89l-1-.29c-.34-.09-.67-.21-1-.31l-1-.32-1-.34c-1.34-.46-2.66-1-3.94-1.55a43.06,43.06,0,0,0,7.85,3.23C97.52,66.74,98.2,66.92,98.89,67.11Z"/><path class="cls-6" d="M110.34,33c-.66-.07-1.32-.14-2-.16.64.18,1.29.32,2,.45s1.3.25,2,.35,1.31.2,2,.27,1.32.14,2,.17c-.64-.18-1.29-.33-2-.46s-1.3-.24-2-.35S111,33.07,110.34,33Z"/><path class="cls-7" d="M58.57,60.74c.37.34.75.66,1.13,1s.78.63,1.18.93.8.6,1.23.87c-.35-.37-.71-.71-1.08-1.05s-.75-.66-1.14-1-.77-.64-1.17-.94-.81-.6-1.23-.87C57.83,60.06,58.2,60.4,58.57,60.74Z"/><path class="cls-8" d="M57.74,75.46l-.34-1c-.11-.34-.23-.68-.35-1v0l0,0-1.1-.56-1.11-.55c.36.22.71.43,1.07.63l1,.59.33,1,.36,1c.12.34.25.67.37,1s.25.67.39,1c-.1-.35-.2-.69-.31-1S57.86,75.79,57.74,75.46Z"/><path class="cls-9" d="M59.55,68.76c.32-.57.63-1.13.93-1.7s.6-1.15.87-1.75c-.38.53-.73,1.08-1.07,1.63s-.67,1.11-1,1.67-.64,1.13-.94,1.7-.6,1.15-.86,1.74c.37-.53.72-1.07,1.06-1.62S59.22,69.32,59.55,68.76Z"/><path class="cls-10" d="M66.75,63,68,62.7l.63-.16.63-.19-.64.11-.64.13c-.43.08-.85.18-1.27.28s-.85.19-1.26.31-.84.22-1.26.34c.43-.06.86-.15,1.28-.23Z"/><path class="cls-11" d="M101,86.67h0l-.87-2.3,0,0,0,0-.53-.71,0,0,0,0q-1-.82-2-1.62c-.67-.53-1.36-1-2.06-1.55-.35-.24-.7-.49-1.07-.72A8,8,0,0,0,93.21,79a6.16,6.16,0,0,0-2.6-.54h-.06L85.1,80.24c-1.16-1-2.33-2.06-3.49-3.08S79.17,75,78,74l-3.68-3.17L73,69.71l.14-.38h0c-.27-1.07-.55-2.14-.82-3.21s-.56-2.14-.84-3.21l0-.13-.13,0-.1,0-1.5-1.35L68.08,60c-.55-.49-1.09-1-1.65-1.46l-.2-.18-.1-.09L66,58.19a4.14,4.14,0,0,0-.5-.3,2.6,2.6,0,0,0-.55-.21l-.29-.06a1.63,1.63,0,0,0-.32,0h0l-3.5.63-3.49.64-.11,0-.07.09c-.89,1.23-1.8,2.45-2.75,3.64-.48.6-.95,1.19-1.44,1.78l-.72.9a8.71,8.71,0,0,0-.69,1,3.46,3.46,0,0,0-.43,1.16,4.44,4.44,0,0,0-.05.62,3.94,3.94,0,0,0,.06.61,6.91,6.91,0,0,0,.29,1.15c.12.37.25.74.39,1.09.27.72.55,1.43.85,2.14s.63,1.4,1,2.09l0,0,0,0A23,23,0,0,0,60,79.56h0l.43-.11h0l0,.1.1,0c.9-.17,1.8-.36,2.7-.54l2.45-.49,2.64,2.11,3.29,2.62c1.09.87,2.2,1.73,3.3,2.6l3.3,2.57-.82,1.29,3-4.31c1-1.42,1.94-2.83,2.89-4.24l7.34-2.24a5.46,5.46,0,0,1,2.35.53,8.32,8.32,0,0,1,1.07.63c.36.23.7.47,1.05.72.68.5,1.36,1,2,1.55s1.31,1.06,2,1.6l.49.65.84,2.25a13,13,0,0,1,.47,4.38,18,18,0,0,1-.79,2.16A16.83,16.83,0,0,1,99,95.45a19.07,19.07,0,0,1-2.83,3.68L95,100.21a14,14,0,0,1-2.35,1.35,14.37,14.37,0,0,1-2.56.89l-3.37.39-3.49-3q-1.77-1.55-3.55-3.08l-1.07-3.48-1.1-3.53,1,3.54,1,3.57v0l0,0q1.74,1.61,3.5,3.19l3.5,3.18.07.06h.1l3.5-.34h0a14.66,14.66,0,0,0,5.12-2.28h0l1.29-1.09h0a20.25,20.25,0,0,0,2.94-3.78,21.44,21.44,0,0,0,1.1-2.13,18.5,18.5,0,0,0,.82-2.26V91.3A13.41,13.41,0,0,0,101,86.67ZM60,79.52c-.56-.31-1.11-.63-1.65-1s-1.06-.71-1.56-1.1A24.25,24.25,0,0,1,54,74.92c-.32-.67-.62-1.36-.9-2.06s-.54-1.42-.8-2.13a12.69,12.69,0,0,1-.62-2.15,4.26,4.26,0,0,1,0-.61l.87.83c.39.36.79.7,1.19,1s.81.67,1.22,1,.84.64,1.29.93q-.55-.57-1.14-1.11c-.38-.35-.78-.7-1.18-1s-.81-.68-1.23-1-.66-.51-1-.75c0-.11,0-.22,0-.34a2.74,2.74,0,0,1,.37-1,7.46,7.46,0,0,1,.65-.89c.23-.3.47-.59.72-.89.48-.58,1-1.18,1.44-1.78.93-1.18,1.82-2.37,2.69-3.59l3.37-.68L64.4,58h.22l.25,0a3,3,0,0,1,.48.16,4,4,0,0,1,.45.25l.1.08.11.08.21.18,1.7,1.38,1.71,1.37,1.58,1.25-4.06,1c-1.39.34-2.78.67-4.17,1l-.08,0,0,.07-1.25,2-1.24,2q-1.24,2-2.47,4l0,.09,0,.09q.63,1.59,1.29,3.18l1.29,3.15Zm3.24-.65-2.62.42-1.18-3.12c-.4-1-.79-2.08-1.2-3.11.83-1.3,1.64-2.61,2.45-3.92l1.25-2,1.19-1.93,4.07-1,4-1.06c.3,1,.59,2,.9,3s.63,2.11,1,3.16L73,69.7l-2.42-2.07,0,0h0A5.93,5.93,0,0,0,68,66.94a5.2,5.2,0,0,0-1.3.11,3.55,3.55,0,0,0-.64.17l-.31.11-.3.14a5.26,5.26,0,0,0-1.1.7,6.22,6.22,0,0,0-.91.94,7.87,7.87,0,0,0-.7,1.1,6.78,6.78,0,0,0-.48,1.21v0A4.71,4.71,0,0,0,62,73.34a4.59,4.59,0,0,0,.17,1,5.94,5.94,0,0,0,.36.91,7,7,0,0,0,1.13,1.56,7.18,7.18,0,0,0,.7.65,7.53,7.53,0,0,0,.76.57l.62.49Zm19.83,2,0,.05c-1,1.46-1.88,2.94-2.82,4.4l-1.4,2.19-.56.89c-1.06-.91-2.12-1.82-3.19-2.72S73,83.87,71.9,83l-3.22-2.7-3.23-2.69h0l0,0a7.76,7.76,0,0,1-1.35-1.15,6.24,6.24,0,0,1-1-1.45,4.71,4.71,0,0,1-.32-.81,4.21,4.21,0,0,1-.15-.85c0-.15,0-.29,0-.43a3,3,0,0,1,0-.43,5,5,0,0,1,.21-.85h0a5.92,5.92,0,0,1,.44-1.09,6.08,6.08,0,0,1,.64-1,5.94,5.94,0,0,1,.81-.85,4.88,4.88,0,0,1,1-.63l.26-.13.28-.09a2.75,2.75,0,0,1,.56-.16,4.21,4.21,0,0,1,1.17-.1,5.49,5.49,0,0,1,2.25.56L74,71.16l3.75,3.09c1.25,1,2.51,2.06,3.77,3.07s2.4,2,3.62,2.92l-1.93.63Z"/><path class="cls-12" d="M73.34,78.54c-1.17-1-2.35-1.94-3.53-2.89s-2.38-1.89-3.58-2.82c1.13,1,2.27,2,3.43,3s2.32,2,3.49,2.93,2.34,1.94,3.53,2.89,2.37,1.89,3.58,2.82c-1.13-1-2.28-2-3.43-3S74.51,79.51,73.34,78.54Z"/><path class="cls-13" d="M75.72,77.14,73.91,75.7l-1.82-1.41L70.25,72.9C69,72,67.77,71.06,66.51,70.19c1.15,1,2.33,2,3.52,3,.59.49,1.2,1,1.8,1.45l1.8,1.44,1.83,1.41c.61.46,1.22.94,1.84,1.39,1.23.93,2.47,1.84,3.74,2.71q-1.74-1.53-3.53-3C76.92,78.1,76.32,77.62,75.72,77.14Z"/><path class="cls-14" d="M87.3,91.58c-.4.6-.81,1.2-1.2,1.81l-.59.91c-.19.3-.39.61-.57.91l.63-.87.62-.89c.42-.59.82-1.19,1.23-1.79l1.2-1.8c.39-.61.78-1.21,1.16-1.83-.43.58-.84,1.17-1.26,1.77Z"/><path class="cls-15" d="M92.63,86.3l-2.09.47L89,85.59l-1.58-1.2c-.53-.39-1.06-.79-1.6-1.17L85,82.64l-.82-.57.76.65.76.63,1.55,1.25,1.56,1.22L90.42,87l0,0,.07,0q1.06-.27,2.13-.57l1.06-.3,1.06-.32-1.08.21Z"/><path class="cls-16" d="M81,93.34c.61.59,1.21,1.18,1.83,1.75s1.2,1.09,1.82,1.62h0l0,.06,0,0c.46.79.9,1.58,1.36,2.37s.91,1.57,1.38,2.35c-.42-.81-.85-1.61-1.27-2.41s-.84-1.57-1.26-2.35c.52-.72,1-1.44,1.55-2.17L88,92.37c.52-.74,1-1.49,1.56-2.24L91,87.92l2.09-.66,2.12-.7,2.11-.7,2.12-.72-2.15.61-2.14.64L93,87l-2.13.65,0,0,0,0L89.27,90c-.52.74-1,1.49-1.55,2.24l-1.55,2.25c-.52.74-1,1.49-1.53,2.24-.54-.61-1.09-1.2-1.65-1.78s-1.19-1.2-1.79-1.79S80,92,79.37,91.39s-1.25-1.14-1.9-1.69c.57.63,1.14,1.25,1.73,1.85S80.39,92.75,81,93.34Z"/><path class="cls-4" d="M101.68,54.84c3.09.71,6.21,1.31,9.33,1.84,1.66.29,3.31.55,5,.8L99.8,54.4Z"/><path class="cls-4" d="M127.56,49.91a3.48,3.48,0,0,0-.23-1.23,4.46,4.46,0,0,0-.66-1.11,7.33,7.33,0,0,0-2-1.73h0L120.4,42.9l-2.13-1.46L116.2,40l-4.82-.69c-.8-.12-1.61-.23-2.41-.36l-2.41-.38-.27,0,0-.18-3.59.59-3.88.62-1.94.31L96,40a3.43,3.43,0,0,0-.46.11,3.36,3.36,0,0,0-.45.14,6.16,6.16,0,0,0-1.66.93,7.17,7.17,0,0,0-1.31,1.33l-2,5.6a3.61,3.61,0,0,0-.23,1.36,2.43,2.43,0,0,0,.42,1.26,4.1,4.1,0,0,0,2.26,1.49h0c.86.31,1.72.6,2.6.86l22.38,4.59,2.88.39,2.36.29a11.3,11.3,0,0,0,1.15.08,6.87,6.87,0,0,0,1.12-.08,3.08,3.08,0,0,0,1.87-1,2.41,2.41,0,0,0,.49-.92,3.12,3.12,0,0,0,.11-.53,3,3,0,0,0,0-.51v0h0Z"/><path class="cls-4" d="M110.16,29.19c-.67-.09-1.35-.2-2-.28a1.74,1.74,0,0,0-1.62.77,1.79,1.79,0,0,0-.2.42,2.3,2.3,0,0,0-.09.47,1.51,1.51,0,0,0,.13.89,1.92,1.92,0,0,0,1.42,1l-.06.47h0l-.39,2.58-.39,2.53,2.13.34,2.4.41c1.55.26,3.09.55,4.64.82l1-5.41v-.06h.06a5.66,5.66,0,0,0,.81.12,1.87,1.87,0,0,0,1.79-1.41,2.82,2.82,0,0,0,.08-.82,2,2,0,0,0-.25-.78,1.93,1.93,0,0,0-1.32-.91l-4-.62Z"/><path class="cls-17" d="M112.67,122.2a10.24,10.24,0,0,1-.86,1.76,8.32,8.32,0,0,1-1.23,1.54,8.24,8.24,0,0,1-3.37,2,11.89,11.89,0,0,1-3.94.45,11.67,11.67,0,0,1-2-.26l-2-.43-16-3.46a9.49,9.49,0,0,1-3.06-2.12,7.45,7.45,0,0,1-1.1-1.52,7.78,7.78,0,0,1-.74-1.73,11.36,11.36,0,0,1-.42-3.77,13.62,13.62,0,0,1,.22-1.91,12.19,12.19,0,0,1,.45-1.85v0l2.53-12.58-.59-.5L78,110.65a13.36,13.36,0,0,0-.47,1.94,14.75,14.75,0,0,0-.23,2,11.87,11.87,0,0,0,.44,4,8.9,8.9,0,0,0,.79,1.89,8.49,8.49,0,0,0,1.2,1.65,8.58,8.58,0,0,0,1.56,1.33,11.45,11.45,0,0,0,1.78,1l0,0h0l16,3.43,2,.42a11.39,11.39,0,0,0,2.09.27,12.49,12.49,0,0,0,4.16-.49,8.93,8.93,0,0,0,3.65-2.13,9.63,9.63,0,0,0,1.32-1.66,10.4,10.4,0,0,0,.92-1.9v0l1.76-8.92-.49-.66Z"/><path class="cls-18" d="M128.19,55.42V52.67l0-2.75a4.27,4.27,0,0,0-.3-1.46,5.43,5.43,0,0,0-.76-1.24,7.42,7.42,0,0,0-1-1,8.7,8.7,0,0,0-1.15-.8l-4.31-2.85-2.15-1.43-2.07-1.35.76-5.47a4,4,0,0,0,.78.08,2,2,0,0,0,1.82-1.48,2.89,2.89,0,0,0,.07-.83,1.92,1.92,0,0,0-1.59-1.69,1.93,1.93,0,0,1,1.32.91,2,2,0,0,1,.25.78,2.82,2.82,0,0,1-.08.82A1.87,1.87,0,0,1,118,34.31a5.66,5.66,0,0,1-.81-.12h-.06v.06l-1,5.41c-1.55-.27-3.09-.56-4.64-.82l-2.4-.41-2.13-.34.39-2.53.39-2.58h0l.06-.47a1.92,1.92,0,0,1-1.42-1,1.51,1.51,0,0,1-.13-.89,2.3,2.3,0,0,1,.09-.47,1.79,1.79,0,0,1,.2-.42,1.74,1.74,0,0,1,1.62-.77c.67.08,1.35.19,2,.28l4,.58,4,.62c-1.35-.22-2.69-.43-4-.66l-4-.71-2-.36a2,2,0,0,0-1.92.84A2.3,2.3,0,0,0,106,30a2.68,2.68,0,0,0-.12.53,1.94,1.94,0,0,0,.13,1.11,2.35,2.35,0,0,0,1.24,1.2l-.45,2.64-.46,2.79v.08l-3.6.47-3.89.51-2,.26-1,.13a4.37,4.37,0,0,0-.5.09l-.48.15a6.11,6.11,0,0,0-1.78.95,7.12,7.12,0,0,0-1.44,1.41l0,0v0L89.56,48a3.94,3.94,0,0,0-.27,1.57,3,3,0,0,0,.48,1.55,3.83,3.83,0,0,0,1.15,1.12,5.38,5.38,0,0,0,.7.39,6.74,6.74,0,0,0,.72.27l1.41.49A8.37,8.37,0,0,1,93.66,56a7.56,7.56,0,0,1-1.15,2.69,9.81,9.81,0,0,1-2,2.15A11.22,11.22,0,0,1,88,62.39l-.12.06,0,.12-2.48,12-1.26,6.16.66-.15,1.18-5.89,2.36-11.92a11.55,11.55,0,0,0,2.51-1.55A10,10,0,0,0,92.88,59a8,8,0,0,0,1.19-2.85,8.66,8.66,0,0,0,.1-2.64c2.42.81,4.88,1.46,7.35,2,3.11.72,6.23,1.33,9.37,1.88s6.28,1,9.44,1.4l1.8.22a5.43,5.43,0,0,0-.63.86,6.82,6.82,0,0,0-.61,1.38,6.57,6.57,0,0,0-.16,3,6.24,6.24,0,0,0,.16.75c.07.24.14.49.23.73a11.53,11.53,0,0,0,.62,1.39,15.5,15.5,0,0,0,1.69,2.48l-2.72,13.11-1.3,6.39.44-.09,1.22-6.23,2.55-13.18V69.6l0,0a15,15,0,0,1-1.72-2.47,10.62,10.62,0,0,1-.64-1.37c-.09-.23-.16-.47-.24-.71s-.13-.49-.17-.73a6.57,6.57,0,0,1,.11-3,6.31,6.31,0,0,1,.59-1.39,5.9,5.9,0,0,1,.61-.87l.56.06a10,10,0,0,0,1.23.09,7.64,7.64,0,0,0,1.25-.11,4.59,4.59,0,0,0,1.22-.4,3.16,3.16,0,0,0,1.66-2,3.6,3.6,0,0,0,.12-.64A3.39,3.39,0,0,0,128.19,55.42ZM111,56.68c-3.12-.53-6.24-1.13-9.33-1.84L99.8,54.4,116,57.48C114.32,57.23,112.67,57,111,56.68Zm16.52-1.21a3,3,0,0,1,0,.51,3.12,3.12,0,0,1-.11.53,2.41,2.41,0,0,1-.49.92,3.08,3.08,0,0,1-1.87,1,6.87,6.87,0,0,1-1.12.08,11.3,11.3,0,0,1-1.15-.08l-2.36-.29-2.88-.39L95.16,53.12c-.88-.26-1.74-.55-2.6-.86h0a4.1,4.1,0,0,1-2.26-1.49,2.43,2.43,0,0,1-.42-1.26,3.61,3.61,0,0,1,.23-1.36l2-5.6a7.17,7.17,0,0,1,1.31-1.33A6.16,6.16,0,0,1,95,40.28a3.36,3.36,0,0,1,.45-.14A3.43,3.43,0,0,1,96,40l1-.15,1.94-.31,3.88-.62,3.59-.59,0,.18.27,0L109,39c.8.13,1.61.24,2.41.36l4.82.69,2.07,1.43,2.13,1.46,4.26,2.93h0a7.33,7.33,0,0,1,2,1.73,4.46,4.46,0,0,1,.66,1.11,3.48,3.48,0,0,1,.23,1.23l0,5.52h0Z"/><path class="cls-19" d="M146.34,97.18a12.75,12.75,0,0,0-1.49-4.84,9.48,9.48,0,0,0-3.6-3.59l-.56-.31-.59-.26-.29-.13-.3-.1-.61-.21a15.37,15.37,0,0,0-2.5-.5,19.05,19.05,0,0,0-5.06.15h-.05a18.91,18.91,0,0,1-3.14.68l.86-.4.9-.48.88-.52a14.59,14.59,0,0,0,3.15-2.61,10.47,10.47,0,0,0,1.24-1.65,9.28,9.28,0,0,0,.9-1.88,7.87,7.87,0,0,0,.46-2,7.38,7.38,0,0,0,.05-1.05,5.66,5.66,0,0,0-.12-1.07l-.06-.28-.28.08a13.53,13.53,0,0,0-3.85,1.6,10.62,10.62,0,0,0-3.05,2.85,11.19,11.19,0,0,0-1.73,3.76,14,14,0,0,0-.35,2c0,.35-.05.7-.05,1a4.4,4.4,0,0,0-.29-1.12,5.06,5.06,0,0,0-1.24-1.79,8,8,0,0,0-.87-.67,7.3,7.3,0,0,0-1-.5,6.79,6.79,0,0,0-2.08-.54,11.91,11.91,0,0,1,2,.8,7.52,7.52,0,0,1,1.7,1.19,5,5,0,0,1,.69.76,4.86,4.86,0,0,1,.54.87,6.25,6.25,0,0,1,.54,1.7c-.36,0-.71,0-1.07,0-.6,0-1.2,0-1.82,0s-1.24,0-1.85.08-1.23.11-1.85.21a13.23,13.23,0,0,0-3.6,1.09,14.21,14.21,0,0,0-3.13,2.08,12.54,12.54,0,0,0-2.43,2.9,10.16,10.16,0,0,0-1.28,3.59,13.13,13.13,0,0,0,.06,3.76c0,.31.09.61.14.92l.07.45.09.45.18.92c.07.3.15.6.23.9.14.6.36,1.18.55,1.77.11.29.23.58.34.86l.18.43c.06.15.13.28.19.42a25.71,25.71,0,0,0,4.07,6.14c.8.93,1.65,1.81,2.53,2.66l1.32,1.26a11.66,11.66,0,0,0,1.41,1.19,6.37,6.37,0,0,0,3.49,1.07,9.56,9.56,0,0,0,3.59-.66,6.36,6.36,0,0,0,.71-.31c.23-.12.45-.26.69-.36a4.46,4.46,0,0,1,.73-.24,6.41,6.41,0,0,1,.76-.16,8.16,8.16,0,0,1,3.07.18h0a5.45,5.45,0,0,0,2.23.25,6.26,6.26,0,0,0,2.16-.59l.5-.26.13-.07.11-.08.24-.16a7.3,7.3,0,0,0,.88-.7,3.68,3.68,0,0,0,.4-.39l.39-.41.71-.88h0a31,31,0,0,0,3.42-9.37c.3-1.65.56-3.29.72-5A24.16,24.16,0,0,0,146.34,97.18Zm-18.58-12.7a11.81,11.81,0,0,1,1.82-3.59,10.79,10.79,0,0,1,3-2.65A13.54,13.54,0,0,1,136,76.81a4.77,4.77,0,0,1,.05.66,8,8,0,0,1,0,1,8.45,8.45,0,0,1-.42,1.92,10.24,10.24,0,0,1-2,3.41,12.6,12.6,0,0,1-1.4,1.43,19.12,19.12,0,0,1-1.57,1.25l-.84.56-.86.52-.89.49-.16.09h-.1l-.47,0c.4-.74.81-1.48,1.23-2.21s1-1.66,1.52-2.45a21.56,21.56,0,0,1,1.74-2.29A9.27,9.27,0,0,1,134,79.36,7.19,7.19,0,0,0,131.6,81a14.53,14.53,0,0,0-1,1.1c-.3.38-.59.78-.86,1.18a24.35,24.35,0,0,0-1.47,2.52,24.76,24.76,0,0,0-1,2.36h-.11A13.59,13.59,0,0,1,127.76,84.48Zm18.09,17.68c-.15,1.64-.38,3.29-.64,4.92-.15.81-.32,1.62-.52,2.42s-.45,1.59-.72,2.37a31,31,0,0,1-2,4.55l-.67.87-.38.41a3.59,3.59,0,0,1-.39.39,7,7,0,0,1-.85.7l-.23.16-.11.08-.12.07-.49.26a6.24,6.24,0,0,1-2.11.61,5.4,5.4,0,0,1-2.19-.22h0a8.35,8.35,0,0,0-3.11-.17,6.85,6.85,0,0,0-.76.16,5.43,5.43,0,0,0-.75.24c-.24.1-.46.24-.69.36a6.36,6.36,0,0,1-.71.31,9.53,9.53,0,0,1-3.55.59,6.11,6.11,0,0,1-3.36-1.12,10.77,10.77,0,0,1-1.33-1.21c-.42-.43-.85-.87-1.26-1.31-.84-.88-1.65-1.78-2.4-2.72-.2-.23-.38-.47-.56-.71s-.37-.48-.54-.73l-.51-.74-.48-.76c-.17-.25-.31-.52-.46-.78s-.3-.52-.42-.79l-.41-.8-.36-.82-.18-.41-.15-.42c-.1-.28-.22-.56-.31-.84-.16-.57-.37-1.13-.49-1.72-.07-.29-.15-.57-.21-.87l-.16-.88-.07-.44-.07-.44-.13-.9a12.45,12.45,0,0,1,0-3.5,9.28,9.28,0,0,1,1.17-3.24,11.13,11.13,0,0,1,2.21-2.68,13.93,13.93,0,0,1,2.91-2,16.45,16.45,0,0,1,6.91-1.38c.6,0,1.21,0,1.83,0s1.24-.06,1.85-.13a21,21,0,0,0,3.6-.79,18.34,18.34,0,0,1,4.85-.19,14.69,14.69,0,0,1,2.38.45l.58.19.29.1.27.12c.19.08.38.15.56.24l.53.28a9,9,0,0,1,3.41,3.33,12.33,12.33,0,0,1,1.46,4.61A24.51,24.51,0,0,1,145.85,102.16Z"/></g></g></svg>