<svg xmlns="http://www.w3.org/2000/svg" viewBox="0 0 137.29 94.47"><defs><style>.cls-1{fill:#6361b7;}</style></defs><g id="Capa_2" data-name="Capa 2"><g id="Iconos"><path class="cls-1" d="M72.34,85.37c-4,0-8.4-.23-14-.52-17.78-.93-29.19-1.94-39.43-10.58A40.87,40.87,0,0,1,9.05,61.78,54.78,54.78,0,0,1,.81,45,18.84,18.84,0,0,1,0,38.87c.24-4.74,2.26-8.19,4.41-11.21h0C10,19.91,16.22,11.12,28.67,4.33c3.73-2,6-3.25,9.52-3.92C43.08-.5,48,.45,56.84,2.16c2.19.43,3.57.73,4.56.95a12.28,12.28,0,0,0,3,.45c1,0,2.87.08,11.28-1.65,3.4-.7,4.87-1.08,5.75-1.3A14.66,14.66,0,0,1,83.78.15C90.59-.62,96,1.72,99.92,3.42,112.82,9,119.4,18.5,125.75,27.7a21.59,21.59,0,0,1,3,6c.84,2.62,1.53,7,.1,13.11s-4.71,12.12-9.72,17.79C108.67,76.39,95.42,81.39,88.45,83.32A56.54,56.54,0,0,1,72.34,85.37ZM42.16,6.26a16,16,0,0,0-2.84.24c-2.57.48-4.17,1.36-7.67,3.26C20.44,15.87,14.87,23.69,9.48,31.26h0c-1.5,2.1-3.11,4.61-3.27,7.91a12.64,12.64,0,0,0,.57,4.23,49.55,49.55,0,0,0,7.45,15l.23.37a34.85,34.85,0,0,0,8.46,10.78c8.75,7.38,18.78,8.24,35.77,9.13,13.09.68,19.66,1,28.11-1.31,6.3-1.75,18.29-6.26,27.7-16.89a35.24,35.24,0,0,0,8.33-15.1c1.16-5,.52-8.29,0-9.82a15.37,15.37,0,0,0-2.2-4.32C114.53,22.35,108.74,14,97.46,9.1c-3.48-1.5-7.81-3.37-13-2.79a8.17,8.17,0,0,0-1.53.3c-.93.24-2.49.63-6,1.37C68.49,9.72,66,9.8,64.2,9.75a18.7,18.7,0,0,1-4.13-.59c-1-.21-2.29-.5-4.41-.91C49.11,7,45.21,6.26,42.16,6.26Z"/><path class="cls-1" d="M37,58.46S29.63,60.56,18.29,45a6.32,6.32,0,0,1-1.09-2.5,7.45,7.45,0,0,1,1.09-4.88c1.49-2.7,6.26-8.85,16.08-12.39a30.75,30.75,0,0,1,9-2.08c6.78-.44,14.29,1.6,16.07,2.08a21.62,21.62,0,0,0,4.68.89,20.78,20.78,0,0,0,7.45-.89,25.45,25.45,0,0,1,8.27-2.64c6.12-.82,10.75.89,16,2.9,8.82,3.39,14.18,8.08,16.08,11.6a9.74,9.74,0,0,1,1.19,3.66,10.24,10.24,0,0,1-1.19,5.83c-1.09,2.15-2.74,3.69-6.32,5.92-6.76,4.2-13.27,6.43-13.45,6s2.73-1,5-3.9c.32-.43,3.19-4.26,2.17-7.27-1.35-4-8.79-4.51-11.93-4.74C82.81,42.31,74,42.54,63.11,49a19.07,19.07,0,0,0-6.83-5.82,19.35,19.35,0,0,0-14.26-1c-2,.65-9.49,3.14-9.79,8.53C32,54.9,36.41,58,37,58.46Z"/><path class="cls-1" d="M135.6,54.59a2.31,2.31,0,0,0-2.86,1.59h0c-.15.54-10.12,34.49-46.31,33.62h0a2.33,2.33,0,0,0-.13,4.65h1.5c38.62,0,49.34-36.66,49.45-37h0A2.31,2.31,0,0,0,135.6,54.59Z"/></g></g></svg>