<svg xmlns="http://www.w3.org/2000/svg" xmlns:xlink="http://www.w3.org/1999/xlink" viewBox="0 0 241.07 422.03"><defs><style>.cls-1{fill:url(#Degradado_sin_nombre_156);}.cls-2{fill:url(#Degradado_sin_nombre_156-2);}.cls-3{fill:url(#Degradado_sin_nombre_56);}.cls-4{fill:url(#Degradado_sin_nombre_56-2);}.cls-5{fill:url(#Degradado_sin_nombre_129);}.cls-6{fill:url(#Degradado_sin_nombre_129-2);}.cls-7{fill:url(#Degradado_sin_nombre_129-3);}.cls-8{fill:url(#Degradado_sin_nombre_129-4);}.cls-9{fill:url(#Degradado_sin_nombre_129-5);}.cls-10{fill:url(#Degradado_sin_nombre_129-6);}.cls-11{fill:url(#Degradado_sin_nombre_129-7);}.cls-12{fill:url(#Degradado_sin_nombre_129-8);}.cls-13{fill:url(#Degradado_sin_nombre_129-9);}.cls-14{fill:url(#Degradado_sin_nombre_92);}.cls-15{fill:url(#Degradado_sin_nombre_124);}.cls-16{fill:url(#Degradado_sin_nombre_45);}.cls-17{fill:url(#Degradado_sin_nombre_139);}.cls-18{fill:url(#Degradado_sin_nombre_153);}.cls-19{fill:url(#Degradado_sin_nombre_150);}.cls-20{fill:url(#Degradado_sin_nombre_150-2);}.cls-21{fill:url(#Degradado_sin_nombre_150-3);}.cls-22{fill:url(#Degradado_sin_nombre_126);}.cls-23{fill:url(#Degradado_sin_nombre_126-2);}.cls-24{fill:url(#Degradado_sin_nombre_126-3);}.cls-25{fill:url(#Degradado_sin_nombre_92-2);}.cls-26{fill:url(#Degradado_sin_nombre_139-2);}.cls-27{fill:url(#Degradado_sin_nombre_152);}.cls-28{fill:#34387d;}</style><linearGradient id="Degradado_sin_nombre_156" x1="230.06" y1="68.61" x2="230.06" y2="160.69" gradientUnits="userSpaceOnUse"><stop offset="0" stop-color="#d85098"/><stop offset="0.32" stop-color="#9a478e"/><stop offset="0.64" stop-color="#633f85"/><stop offset="0.87" stop-color="#413a7f"/><stop offset="1" stop-color="#34387d"/></linearGradient><linearGradient id="Degradado_sin_nombre_156-2" x1="240.93" y1="68.39" x2="240.93" y2="161.09" xlink:href="#Degradado_sin_nombre_156"/><linearGradient id="Degradado_sin_nombre_56" x1="96.26" y1="185.62" x2="240.78" y2="185.62" gradientUnits="userSpaceOnUse"><stop offset="0" stop-color="#8c9ded"/><stop offset="0.36" stop-color="#6770d5"/><stop offset="0.48" stop-color="#646dd0"/><stop offset="0.63" stop-color="#5c64c1"/><stop offset="0.79" stop-color="#4e54a9"/><stop offset="0.95" stop-color="#3a3f88"/><stop offset="1" stop-color="#34387d"/></linearGradient><linearGradient id="Degradado_sin_nombre_56-2" x1="240.78" y1="203.87" x2="241.07" y2="203.87" xlink:href="#Degradado_sin_nombre_56"/><linearGradient id="Degradado_sin_nombre_129" x1="224.75" y1="313.75" x2="240.78" y2="313.75" gradientUnits="userSpaceOnUse"><stop offset="0" stop-color="#d85098"/><stop offset="0.11" stop-color="#c24d94"/><stop offset="0.54" stop-color="#764288"/><stop offset="0.85" stop-color="#463b80"/><stop offset="1" stop-color="#34387d"/></linearGradient><linearGradient id="Degradado_sin_nombre_129-2" x1="240.78" y1="335.45" x2="241.07" y2="335.45" xlink:href="#Degradado_sin_nombre_129"/><linearGradient id="Degradado_sin_nombre_129-3" x1="205.74" y1="300.45" x2="224.81" y2="300.45" xlink:href="#Degradado_sin_nombre_129"/><linearGradient id="Degradado_sin_nombre_129-4" x1="196.9" y1="402.07" x2="240.78" y2="402.07" xlink:href="#Degradado_sin_nombre_129"/><linearGradient id="Degradado_sin_nombre_129-5" x1="240.78" y1="402.44" x2="241.07" y2="402.44" xlink:href="#Degradado_sin_nombre_129"/><linearGradient id="Degradado_sin_nombre_129-6" x1="240.78" y1="382.05" x2="241.07" y2="382.05" xlink:href="#Degradado_sin_nombre_129"/><linearGradient id="Degradado_sin_nombre_129-7" x1="165.33" y1="369.82" x2="240.78" y2="369.82" xlink:href="#Degradado_sin_nombre_129"/><linearGradient id="Degradado_sin_nombre_129-8" x1="153.77" y1="346.24" x2="237.22" y2="346.24" xlink:href="#Degradado_sin_nombre_129"/><linearGradient id="Degradado_sin_nombre_129-9" x1="153.77" y1="316.55" x2="215.28" y2="316.55" xlink:href="#Degradado_sin_nombre_129"/><linearGradient id="Degradado_sin_nombre_92" x1="34.87" y1="420.15" x2="107.77" y2="329.63" gradientUnits="userSpaceOnUse"><stop offset="0" stop-color="#6ae1ea"/><stop offset="0.08" stop-color="#59d3de"/><stop offset="0.2" stop-color="#43c1cf"/><stop offset="0.33" stop-color="#35b7c6"/><stop offset="0.44" stop-color="#31b3c3"/><stop offset="0.53" stop-color="#31a6bc"/><stop offset="0.69" stop-color="#3285a9"/><stop offset="0.91" stop-color="#33508b"/><stop offset="1" stop-color="#34387d"/></linearGradient><linearGradient id="Degradado_sin_nombre_124" x1="157.69" y1="380.38" x2="52.15" y2="285.01" gradientUnits="userSpaceOnUse"><stop offset="0" stop-color="#31b3c3"/><stop offset="0.33" stop-color="#3280a6"/><stop offset="0.62" stop-color="#335990"/><stop offset="0.86" stop-color="#344182"/><stop offset="1" stop-color="#34387d"/></linearGradient><linearGradient id="Degradado_sin_nombre_45" x1="96.26" y1="196.93" x2="189.55" y2="196.93" gradientUnits="userSpaceOnUse"><stop offset="0" stop-color="#6770d5"/><stop offset="0.23" stop-color="#575eb9"/><stop offset="0.55" stop-color="#444998"/><stop offset="0.82" stop-color="#383d84"/><stop offset="1" stop-color="#34387d"/></linearGradient><linearGradient id="Degradado_sin_nombre_139" x1="200.07" y1="19.59" x2="200.07" y2="78.76" gradientUnits="userSpaceOnUse"><stop offset="0" stop-color="#d85098"/><stop offset="0.17" stop-color="#b84b93"/><stop offset="0.57" stop-color="#714187"/><stop offset="0.85" stop-color="#453a80"/><stop offset="1" stop-color="#34387d"/></linearGradient><linearGradient id="Degradado_sin_nombre_153" x1="173.75" x2="173.75" y2="54.67" gradientUnits="userSpaceOnUse"><stop offset="0" stop-color="#d85098"/><stop offset="0.14" stop-color="#c94e96"/><stop offset="0.4" stop-color="#a1488f"/><stop offset="0.76" stop-color="#623f85"/><stop offset="1" stop-color="#34387d"/></linearGradient><linearGradient id="Degradado_sin_nombre_150" x1="176.27" y1="48.55" x2="177.06" y2="48.55" gradientUnits="userSpaceOnUse"><stop offset="0" stop-color="#d85098"/><stop offset="0.09" stop-color="#bb4c93"/><stop offset="0.23" stop-color="#92468c"/><stop offset="0.38" stop-color="#704187"/><stop offset="0.52" stop-color="#563d83"/><stop offset="0.67" stop-color="#433a7f"/><stop offset="0.83" stop-color="#38397e"/><stop offset="1" stop-color="#34387d"/></linearGradient><linearGradient id="Degradado_sin_nombre_150-2" x1="177.06" y1="111.58" x2="240.78" y2="111.58" xlink:href="#Degradado_sin_nombre_150"/><linearGradient id="Degradado_sin_nombre_150-3" x1="240.78" y1="163.9" x2="241.07" y2="163.9" xlink:href="#Degradado_sin_nombre_150"/><linearGradient id="Degradado_sin_nombre_126" x1="241.07" y1="282.09" x2="240.78" y2="282.09" gradientUnits="userSpaceOnUse"><stop offset="0" stop-color="#31b3c3"/><stop offset="0.15" stop-color="#31aec0"/><stop offset="0.34" stop-color="#329eb7"/><stop offset="0.56" stop-color="#3285a9"/><stop offset="0.78" stop-color="#336295"/><stop offset="1" stop-color="#34387d"/></linearGradient><linearGradient id="Degradado_sin_nombre_126-2" x1="241.07" y1="222.53" x2="240.78" y2="222.53" xlink:href="#Degradado_sin_nombre_126"/><linearGradient id="Degradado_sin_nombre_126-3" x1="240.78" y1="285.7" x2="117.51" y2="285.7" xlink:href="#Degradado_sin_nombre_126"/><linearGradient id="Degradado_sin_nombre_92-2" x1="97.58" y1="290.74" x2="189.99" y2="242.24" xlink:href="#Degradado_sin_nombre_92"/><linearGradient id="Degradado_sin_nombre_139-2" x1="132.33" y1="139.73" x2="238.15" y2="139.73" xlink:href="#Degradado_sin_nombre_139"/><linearGradient id="Degradado_sin_nombre_152" x1="138.9" y1="72.04" x2="202.53" y2="72.04" gradientUnits="userSpaceOnUse"><stop offset="0" stop-color="#d85098"/><stop offset="0.16" stop-color="#c44d95"/><stop offset="0.49" stop-color="#90468c"/><stop offset="0.95" stop-color="#3e397f"/><stop offset="1" stop-color="#34387d"/></linearGradient></defs><g id="Capa_2" data-name="Capa 2"><g id="Frase"><path class="cls-1" d="M240.78,160.69V68.61A21.05,21.05,0,0,1,238.62,70S193.86,97.23,240.78,160.69Z"/><path class="cls-2" d="M240.78,68.61v92.08c.09.13.2.26.29.4V68.39Z"/><path class="cls-3" d="M96.26,145.59c7.5,36.57,77.82,77.35,77.82,77.35l53.45-2.18,13.25,4.9V182c-24.56-18.63-63.88-19.35-63.88-19.35C143.14,161.84,96.26,145.59,96.26,145.59Z"/><path class="cls-4" d="M240.78,182v43.69l.29.11V182.21Z"/><path class="cls-5" d="M240.78,360.17V309.78A197.61,197.61,0,0,0,226,267.33C220.16,291.09,236.84,347.43,240.78,360.17Z"/><path class="cls-6" d="M240.78,309.78v50.39c.11.35.2.67.29.95V311.18C241,310.72,240.88,310.25,240.78,309.78Z"/><path class="cls-7" d="M224.75,342.33s1.84-51.56-16-83.76C208.78,258.57,195.41,284.83,224.75,342.33Z"/><path class="cls-8" d="M196.9,397.34s17.7,10.46,43.88,13.7V393.82C226.08,392.42,210.44,392.83,196.9,397.34Z"/><path class="cls-9" d="M240.78,393.82V411l.29,0V393.85Z"/><path class="cls-10" d="M240.78,376.78v10.53h.29V376.93Z"/><path class="cls-11" d="M240.78,387.31V376.78c-20.51-10.17-53.95-24.85-75.45-24.44C165.33,352.34,197.14,385.44,240.78,387.31Z"/><path class="cls-12" d="M237.22,367.34s-73.76-23.76-83.45-42.2C153.77,325.14,217.47,338.6,237.22,367.34Z"/><path class="cls-13" d="M215.27,342.33s-50.87-21.25-61.5-51.56C153.77,290.77,215.83,318,215.27,342.33Z"/><path class="cls-14" d="M39.38,420c.78-10.16,18.44-23.75,18.44-23.75,8.44-3.13,6.56-8.13,6.56-8.13,0-5.16-8.59-4.69-8.59-4.69C34.22,388.28,27.19,420,27.19,420H14.38c-10.63-9.38-13-28.13-13-28.13.15-37,30.31-40.47,30.31-40.47,10.47,1.09,10.47-7,10.47-7,0-6.57-9.69-5.58-9.69-5.58C13.75,340,0,355.88,0,355.88a59.57,59.57,0,0,1,14-37.09c33.13-31.25,56.47-10.21,56.47-10.21S132.52,419.22,136,422Z"/><path class="cls-15" d="M70.43,308.58s9.27-34.07,58.65-30.32l34.69,53.45s19.07,22.5,15.94,50c0,0-21.25-15.15-36.88-6.56,0,0-3.59,4.06.94,5.31,0,0,22.34-2.65,29.53,8.44,0,0,10.54,12,6.76,33.13H119.39Z"/><path class="cls-16" d="M189.55,248.26C97.2,221.07,96.26,145.59,96.26,145.59s41.71,59.07,84.62,68.92Z"/><path class="cls-17" d="M195.23,78.76s32.3-29.59,10.42-59.17A13.48,13.48,0,0,1,200,29.17S174,54.59,195.23,78.76Z"/><path class="cls-18" d="M180.3,54.67S189.19,10,167.73,0c0,0,.62,7.29-.83,10.83C166.9,10.83,158.71,33.49,180.3,54.67Z"/><path class="cls-19" d="M177.06,49.07a5.26,5.26,0,0,0-.79-1Z"/><path class="cls-20" d="M240.78,174.09v-21c-34.17-63.57-59.07-97.8-63.72-104C183.38,58.77,219.8,131.77,240.78,174.09Z"/><path class="cls-21" d="M240.78,153.1v21l.29.6v-21C241,153.47,240.87,153.28,240.78,153.1Z"/><path class="cls-22" d="M240.78,251.48v61.23l.29-.36V251.81Z"/><path class="cls-23" d="M240.78,211.65v21.51l.29.24V211.81Z"/><path class="cls-24" d="M203.78,206.69c-36.57,11.25-86.27,158.77-86.27,158.77,10-17.5,43.55-15.21,43.55-15.21,14.8-1.46,3.13-31.67,3.13-31.67a10.21,10.21,0,0,1,1.14-12.19c4.9-4.27,10.94,0,10.94,0,12.5,15,8.25,43.45,8.25,43.45C245.9,337,207.94,286.7,207.94,286.7c-9-9-4.37-13.54-4.37-13.54,5.62-2.71,9.89,2.29,9.89,2.29,15.63,15.63,21.09,43.76,21.09,43.76q3.47-3.3,6.23-6.5V251.48a59.39,59.39,0,0,0-9.5-8.22c-11.25-5.31-6.53-12.19-6.53-12.19,3.16-5,12.47-.62,12.47-.62,1.24.89,2.42,1.79,3.56,2.71V211.65C223.56,203.07,203.78,206.69,203.78,206.69Z"/><path class="cls-25" d="M117.51,365.46s4-26-11.46-36.25c0,0-24.16-17.3,8.55-33.55,0,0,6.35-2.55,9.17-1.14,0,0,7.81.15,5-6.88,0,0-4.54-8.59-18.6-3.28,0,0-15.47,6.41-20.16,20,0,0-7.5-18.13,3.28-33.75,0,0,5.63-9.69,22.35-14.69,0,0,16.88-4.07,17.35-9.54,0,0,1.56-6.56-9.07-6.71,0,0-22,0-29.22,7.18,0,0,2.19-46.88,50.63-42.66,0,0,9.22,1.1,9.22-4.37,0,0,4.38-9.54-22.66-10.16,0,0,11.72-15.32,42.35-11.56,0,0,19.67,7.76,17.41,36.41C191.65,214.51,166.43,243.1,117.51,365.46Z"/><path class="cls-26" d="M238.15,162.62s-69.69,20.94-104.38-41.25c0,0-3.23-6.25,0-7.19,0,0,4.89-2.92,12.92,2.81,0,0,21,7.82,34,5.11C180.65,122.1,232.32,116.47,238.15,162.62Z"/><path class="cls-27" d="M202.53,93.35s-45.22.83-63.35-38.55c0,0-1.45-4.79,2.3-4,0,0,15.41,6.67,21.25,6.46C162.73,57.3,197.73,64.38,202.53,93.35Z"/><path class="cls-28" d="M54.09,338s-2.81,6.25,9.7,5.93c0,0,9.45.07,11.37-3.51,0,0,2.17-4.59-9.2-4.46C66,336,54,335,54.09,338Z"/><path class="cls-28" d="M81,379.89s.89,3.83,10.34,3.06c0,0,6.38.1,6.77-4.59,0,0-2.3-4.6-9.71-2.81C88.43,375.55,79.37,376.44,81,379.89Z"/><path class="cls-28" d="M144.09,332.78s1.15,6.13,4.47,6.13c0,0,4.09.64,3.83-1.91,0,0,.38-7-3.57-7.28C148.82,329.72,144,329.85,144.09,332.78Z"/><path class="cls-28" d="M148.25,214.51s6.69,10.78,14.48,10.15c0,0,3.58.12,3.32-1.92,0,0-5.74-8.55-11.62-8.93C154.43,213.81,149.72,212.78,148.25,214.51Z"/></g></g></svg>