<svg xmlns="http://www.w3.org/2000/svg" xmlns:xlink="http://www.w3.org/1999/xlink" viewBox="0 0 241.07 422.03"><defs><style>.cls-1{fill:url(#Degradado_sin_nombre_156);}.cls-2{fill:url(#Degradado_sin_nombre_156-2);}.cls-3{fill:url(#Degradado_sin_nombre_56);}.cls-4{fill:url(#Degradado_sin_nombre_56-2);}.cls-5{fill:url(#Degradado_sin_nombre_129);}.cls-6{fill:url(#Degradado_sin_nombre_129-2);}.cls-7{fill:url(#Degradado_sin_nombre_129-3);}.cls-8{fill:url(#Degradado_sin_nombre_129-4);}.cls-9{fill:url(#Degradado_sin_nombre_129-5);}.cls-10{fill:url(#Degradado_sin_nombre_129-6);}.cls-11{fill:url(#Degradado_sin_nombre_129-7);}.cls-12{fill:url(#Degradado_sin_nombre_129-8);}.cls-13{fill:url(#Degradado_sin_nombre_129-9);}.cls-14{fill:url(#Degradado_sin_nombre_92);}.cls-15{fill:url(#Degradado_sin_nombre_124);}.cls-16{fill:url(#Degradado_sin_nombre_45);}.cls-17{fill:url(#Degradado_sin_nombre_139);}.cls-18{fill:url(#Degradado_sin_nombre_153);}.cls-19{fill:url(#Degradado_sin_nombre_150);}.cls-20{fill:url(#Degradado_sin_nombre_150-2);}.cls-21{fill:url(#Degradado_sin_nombre_150-3);}.cls-22{fill:url(#Degradado_sin_nombre_126);}.cls-23{fill:url(#Degradado_sin_nombre_126-2);}.cls-24{fill:url(#Degradado_sin_nombre_126-3);}.cls-25{fill:url(#Degradado_sin_nombre_92-2);}.cls-26{fill:url(#Degradado_sin_nombre_139-2);}.cls-27{fill:url(#Degradado_sin_nombre_152);}.cls-28{fill:#34387d;}</style><linearGradient id="Degradado_sin_nombre_156" x1="230.06" y1="68.61" x2="230.06" y2="160.69" gradientTransform="matrix(-1, 0, 0, 1, 241.07, 0)" gradientUnits="userSpaceOnUse"><stop offset="0" stop-color="#d85098"/><stop offset="0.32" stop-color="#9a478e"/><stop offset="0.64" stop-color="#633f85"/><stop offset="0.87" stop-color="#413a7f"/><stop offset="1" stop-color="#34387d"/></linearGradient><linearGradient id="Degradado_sin_nombre_156-2" x1="240.93" y1="68.39" x2="240.93" y2="161.09" xlink:href="#Degradado_sin_nombre_156"/><linearGradient id="Degradado_sin_nombre_56" x1="96.26" y1="185.62" x2="240.78" y2="185.62" gradientTransform="matrix(-1, 0, 0, 1, 241.07, 0)" gradientUnits="userSpaceOnUse"><stop offset="0" stop-color="#8c9ded"/><stop offset="0.36" stop-color="#6770d5"/><stop offset="0.48" stop-color="#646dd0"/><stop offset="0.63" stop-color="#5c64c1"/><stop offset="0.79" stop-color="#4e54a9"/><stop offset="0.95" stop-color="#3a3f88"/><stop offset="1" stop-color="#34387d"/></linearGradient><linearGradient id="Degradado_sin_nombre_56-2" x1="240.78" y1="203.87" x2="241.07" y2="203.87" xlink:href="#Degradado_sin_nombre_56"/><linearGradient id="Degradado_sin_nombre_129" x1="224.75" y1="313.75" x2="240.78" y2="313.75" gradientTransform="matrix(-1, 0, 0, 1, 241.07, 0)" gradientUnits="userSpaceOnUse"><stop offset="0" stop-color="#d85098"/><stop offset="0.11" stop-color="#c24d94"/><stop offset="0.54" stop-color="#764288"/><stop offset="0.85" stop-color="#463b80"/><stop offset="1" stop-color="#34387d"/></linearGradient><linearGradient id="Degradado_sin_nombre_129-2" x1="240.78" y1="335.45" x2="241.07" y2="335.45" xlink:href="#Degradado_sin_nombre_129"/><linearGradient id="Degradado_sin_nombre_129-3" x1="205.74" y1="300.45" x2="224.81" y2="300.45" xlink:href="#Degradado_sin_nombre_129"/><linearGradient id="Degradado_sin_nombre_129-4" x1="196.9" y1="402.07" x2="240.78" y2="402.07" xlink:href="#Degradado_sin_nombre_129"/><linearGradient id="Degradado_sin_nombre_129-5" x1="240.78" y1="402.44" x2="241.07" y2="402.44" xlink:href="#Degradado_sin_nombre_129"/><linearGradient id="Degradado_sin_nombre_129-6" x1="240.78" y1="382.05" x2="241.07" y2="382.05" xlink:href="#Degradado_sin_nombre_129"/><linearGradient id="Degradado_sin_nombre_129-7" x1="165.33" y1="369.82" x2="240.78" y2="369.82" xlink:href="#Degradado_sin_nombre_129"/><linearGradient id="Degradado_sin_nombre_129-8" x1="153.77" y1="346.24" x2="237.22" y2="346.24" xlink:href="#Degradado_sin_nombre_129"/><linearGradient id="Degradado_sin_nombre_129-9" x1="153.77" y1="316.55" x2="215.28" y2="316.55" xlink:href="#Degradado_sin_nombre_129"/><linearGradient id="Degradado_sin_nombre_92" x1="34.87" y1="420.15" x2="107.77" y2="329.63" gradientTransform="matrix(-1, 0, 0, 1, 241.07, 0)" gradientUnits="userSpaceOnUse"><stop offset="0" stop-color="#6ae1ea"/><stop offset="0.08" stop-color="#59d3de"/><stop offset="0.2" stop-color="#43c1cf"/><stop offset="0.33" stop-color="#35b7c6"/><stop offset="0.44" stop-color="#31b3c3"/><stop offset="0.53" stop-color="#31a6bc"/><stop offset="0.69" stop-color="#3285a9"/><stop offset="0.91" stop-color="#33508b"/><stop offset="1" stop-color="#34387d"/></linearGradient><linearGradient id="Degradado_sin_nombre_124" x1="157.69" y1="380.38" x2="52.15" y2="285.01" gradientTransform="matrix(-1, 0, 0, 1, 241.07, 0)" gradientUnits="userSpaceOnUse"><stop offset="0" stop-color="#31b3c3"/><stop offset="0.33" stop-color="#3280a6"/><stop offset="0.62" stop-color="#335990"/><stop offset="0.86" stop-color="#344182"/><stop offset="1" stop-color="#34387d"/></linearGradient><linearGradient id="Degradado_sin_nombre_45" x1="96.26" y1="196.93" x2="189.55" y2="196.93" gradientTransform="matrix(-1, 0, 0, 1, 241.07, 0)" gradientUnits="userSpaceOnUse"><stop offset="0" stop-color="#6770d5"/><stop offset="0.23" stop-color="#575eb9"/><stop offset="0.55" stop-color="#444998"/><stop offset="0.82" stop-color="#383d84"/><stop offset="1" stop-color="#34387d"/></linearGradient><linearGradient id="Degradado_sin_nombre_139" x1="200.07" y1="19.59" x2="200.07" y2="78.76" gradientTransform="matrix(-1, 0, 0, 1, 241.07, 0)" gradientUnits="userSpaceOnUse"><stop offset="0" stop-color="#d85098"/><stop offset="0.17" stop-color="#b84b93"/><stop offset="0.57" stop-color="#714187"/><stop offset="0.85" stop-color="#453a80"/><stop offset="1" stop-color="#34387d"/></linearGradient><linearGradient id="Degradado_sin_nombre_153" x1="173.75" x2="173.75" y2="54.67" gradientTransform="matrix(-1, 0, 0, 1, 241.07, 0)" gradientUnits="userSpaceOnUse"><stop offset="0" stop-color="#d85098"/><stop offset="0.14" stop-color="#c94e96"/><stop offset="0.4" stop-color="#a1488f"/><stop offset="0.76" stop-color="#623f85"/><stop offset="1" stop-color="#34387d"/></linearGradient><linearGradient id="Degradado_sin_nombre_150" x1="176.27" y1="48.55" x2="177.06" y2="48.55" gradientTransform="matrix(-1, 0, 0, 1, 241.07, 0)" gradientUnits="userSpaceOnUse"><stop offset="0" stop-color="#d85098"/><stop offset="0.09" stop-color="#bb4c93"/><stop offset="0.23" stop-color="#92468c"/><stop offset="0.38" stop-color="#704187"/><stop offset="0.52" stop-color="#563d83"/><stop offset="0.67" stop-color="#433a7f"/><stop offset="0.83" stop-color="#38397e"/><stop offset="1" stop-color="#34387d"/></linearGradient><linearGradient id="Degradado_sin_nombre_150-2" x1="177.06" y1="111.58" x2="240.78" y2="111.58" xlink:href="#Degradado_sin_nombre_150"/><linearGradient id="Degradado_sin_nombre_150-3" x1="240.78" y1="163.9" x2="241.07" y2="163.9" xlink:href="#Degradado_sin_nombre_150"/><linearGradient id="Degradado_sin_nombre_126" x1="241.07" y1="282.09" x2="240.78" y2="282.09" gradientTransform="matrix(-1, 0, 0, 1, 241.07, 0)" gradientUnits="userSpaceOnUse"><stop offset="0" stop-color="#31b3c3"/><stop offset="0.15" stop-color="#31aec0"/><stop offset="0.34" stop-color="#329eb7"/><stop offset="0.56" stop-color="#3285a9"/><stop offset="0.78" stop-color="#336295"/><stop offset="1" stop-color="#34387d"/></linearGradient><linearGradient id="Degradado_sin_nombre_126-2" x1="241.07" y1="222.53" x2="240.78" y2="222.53" xlink:href="#Degradado_sin_nombre_126"/><linearGradient id="Degradado_sin_nombre_126-3" x1="240.78" y1="285.7" x2="117.51" y2="285.7" xlink:href="#Degradado_sin_nombre_126"/><linearGradient id="Degradado_sin_nombre_92-2" x1="97.58" y1="290.74" x2="189.99" y2="242.24" xlink:href="#Degradado_sin_nombre_92"/><linearGradient id="Degradado_sin_nombre_139-2" x1="132.33" y1="139.73" x2="238.15" y2="139.73" xlink:href="#Degradado_sin_nombre_139"/><linearGradient id="Degradado_sin_nombre_152" x1="138.9" y1="72.04" x2="202.53" y2="72.04" gradientTransform="matrix(-1, 0, 0, 1, 241.07, 0)" gradientUnits="userSpaceOnUse"><stop offset="0" stop-color="#d85098"/><stop offset="0.16" stop-color="#c44d95"/><stop offset="0.49" stop-color="#90468c"/><stop offset="0.95" stop-color="#3e397f"/><stop offset="1" stop-color="#34387d"/></linearGradient></defs><g id="Capa_2" data-name="Capa 2"><g id="Frase"><path class="cls-1" d="M.3,160.69V68.61A19.89,19.89,0,0,0,2.45,70S47.22,97.23.3,160.69Z"/><path class="cls-2" d="M.3,68.61v92.08l-.3.4V68.39Z"/><path class="cls-3" d="M144.81,145.59C137.31,182.16,67,222.94,67,222.94l-53.44-2.18L.3,225.66V182c24.55-18.63,63.88-19.35,63.88-19.35C97.93,161.84,144.81,145.59,144.81,145.59Z"/><path class="cls-4" d="M.3,182v43.69l-.3.11V182.21Z"/><path class="cls-5" d="M.3,360.17V309.78a197,197,0,0,1,14.81-42.45C20.91,291.09,4.24,347.43.3,360.17Z"/><path class="cls-6" d="M.3,309.78v50.39l-.3.95V311.18Z"/><path class="cls-7" d="M16.32,342.33s-1.84-51.56,16-83.76C32.3,258.57,45.66,284.83,16.32,342.33Z"/><path class="cls-8" d="M44.17,397.34S26.48,407.8.3,411V393.82C15,392.42,30.64,392.83,44.17,397.34Z"/><path class="cls-9" d="M.3,393.82V411l-.3,0V393.85Z"/><path class="cls-10" d="M.3,376.78v10.53H0V376.93Z"/><path class="cls-11" d="M.3,387.31V376.78c20.5-10.17,53.94-24.85,75.44-24.44C75.74,352.34,43.94,385.44.3,387.31Z"/><path class="cls-12" d="M3.86,367.34s73.76-23.76,83.45-42.2C87.31,325.14,23.61,338.6,3.86,367.34Z"/><path class="cls-13" d="M25.8,342.33s50.88-21.25,61.51-51.56C87.31,290.77,25.24,318,25.8,342.33Z"/><path class="cls-14" d="M201.69,420c-.78-10.16-18.44-23.75-18.44-23.75-8.43-3.13-6.56-8.13-6.56-8.13,0-5.16,8.6-4.69,8.6-4.69,21.56,4.85,28.59,36.57,28.59,36.57H226.7c10.62-9.38,13-28.13,13-28.13-.16-37-30.32-40.47-30.32-40.47-10.47,1.09-10.47-7-10.47-7,0-6.57,9.69-5.58,9.69-5.58,18.75,1.25,32.5,17.09,32.5,17.09a59.51,59.51,0,0,0-14-37.09c-33.12-31.25-56.46-10.21-56.46-10.21S108.56,419.22,105.12,422Z"/><path class="cls-15" d="M170.65,308.58s-9.27-34.07-58.65-30.32L77.3,331.71s-19.06,22.5-15.94,50c0,0,21.26-15.15,36.88-6.56,0,0,3.6,4.06-.93,5.31,0,0-22.35-2.65-29.54,8.44,0,0-10.54,12-6.75,33.13h60.66Z"/><path class="cls-16" d="M51.52,248.26c92.35-27.19,93.29-102.67,93.29-102.67S103.1,204.66,60.2,214.51Z"/><path class="cls-17" d="M45.84,78.76S13.55,49.17,35.42,19.59a13.47,13.47,0,0,0,5.63,9.58S67.09,54.59,45.84,78.76Z"/><path class="cls-18" d="M60.77,54.67S51.88,10,73.35,0c0,0-.63,7.29.83,10.83C74.18,10.83,82.37,33.49,60.77,54.67Z"/><path class="cls-19" d="M64,49.07a5.7,5.7,0,0,1,.79-1Z"/><path class="cls-20" d="M.3,174.09v-21C34.46,89.53,59.36,55.3,64,49.07,57.69,58.77,21.28,131.77.3,174.09Z"/><path class="cls-21" d="M.3,153.1v21c-.1.21-.2.4-.3.6v-21Z"/><path class="cls-22" d="M.3,251.48v61.23c-.11-.12-.2-.24-.3-.36V251.81Z"/><path class="cls-23" d="M.3,211.65v21.51l-.3.24V211.81Z"/><path class="cls-24" d="M37.3,206.69c36.57,11.25,86.26,158.77,86.26,158.77C113.56,348,80,350.25,80,350.25c-14.79-1.46-3.12-31.67-3.12-31.67a10.21,10.21,0,0,0-1.15-12.19c-4.9-4.27-10.94,0-10.94,0-12.5,15-8.25,43.45-8.25,43.45C-4.83,337,33.13,286.7,33.13,286.7c9-9,4.38-13.54,4.38-13.54-5.63-2.71-9.9,2.29-9.9,2.29C12,291.08,6.53,319.21,6.53,319.21c-2.32-2.2-4.38-4.37-6.23-6.5V251.48a59.39,59.39,0,0,1,9.5-8.22c11.25-5.31,6.52-12.19,6.52-12.19-3.16-5-12.46-.62-12.46-.62-1.25.89-2.42,1.79-3.56,2.71V211.65C17.52,203.07,37.3,206.69,37.3,206.69Z"/><path class="cls-25" d="M123.56,365.46s-4-26,11.46-36.25c0,0,24.17-17.3-8.54-33.55,0,0-6.36-2.55-9.17-1.14,0,0-7.81.15-5-6.88,0,0,4.53-8.59,18.59-3.28,0,0,15.48,6.41,20.16,20,0,0,7.5-18.13-3.28-33.75,0,0-5.62-9.69-22.35-14.69,0,0-16.87-4.07-17.34-9.54,0,0-1.56-6.56,9.06-6.71,0,0,22,0,29.23,7.18,0,0-2.19-46.88-50.64-42.66,0,0-9.22,1.1-9.22-4.37,0,0-4.37-9.54,22.66-10.16,0,0-11.72-15.32-42.35-11.56,0,0-19.66,7.76-17.41,36.41C49.42,214.51,74.65,243.1,123.56,365.46Z"/><path class="cls-26" d="M2.92,162.62s69.7,20.94,104.39-41.25c0,0,3.23-6.25,0-7.19,0,0-4.9-2.92-12.92,2.81,0,0-21,7.82-34,5.11C60.43,122.1,8.75,116.47,2.92,162.62Z"/><path class="cls-27" d="M38.55,93.35s45.21.83,63.34-38.55c0,0,1.46-4.79-2.29-4,0,0-15.42,6.67-21.25,6.46C78.35,57.3,43.34,64.38,38.55,93.35Z"/><path class="cls-28" d="M187,338s2.81,6.25-9.7,5.93c0,0-9.45.07-11.36-3.51,0,0-2.17-4.59,9.19-4.46C175.11,336,187.1,335,187,338Z"/><path class="cls-28" d="M160.05,379.89s-.9,3.83-10.34,3.06c0,0-6.39.1-6.77-4.59,0,0,2.3-4.6,9.7-2.81C152.64,375.55,161.71,376.44,160.05,379.89Z"/><path class="cls-28" d="M97,332.78s-1.15,6.13-4.47,6.13c0,0-4.08.64-3.83-1.91,0,0-.38-7,3.58-7.28C92.26,329.72,97.11,329.85,97,332.78Z"/><path class="cls-28" d="M92.83,214.51s-6.7,10.78-14.49,10.15c0,0-3.57.12-3.32-1.92,0,0,5.75-8.55,11.62-8.93C86.64,213.81,91.36,212.78,92.83,214.51Z"/></g></g></svg>