<svg xmlns="http://www.w3.org/2000/svg" xmlns:xlink="http://www.w3.org/1999/xlink" viewBox="0 0 287.46 324.59"><defs><style>.cls-1{fill:url(#Degradado_sin_nombre_119);}.cls-2{fill:url(#Degradado_sin_nombre_101);}.cls-3{fill:url(#Degradado_sin_nombre_80);}.cls-4{fill:url(#Degradado_sin_nombre_54);}.cls-5{fill:url(#Degradado_sin_nombre_72);}</style><linearGradient id="Degradado_sin_nombre_119" x1="15.22" y1="84.75" x2="118.78" y2="84.75" gradientUnits="userSpaceOnUse"><stop offset="0" stop-color="#1483bc"/><stop offset="0.2" stop-color="#45d1a8"/><stop offset="0.46" stop-color="#4dffba"/><stop offset="0.6" stop-color="#3e9f9b"/><stop offset="0.75" stop-color="#30477e"/><stop offset="0.81" stop-color="#30457c"/><stop offset="0.83" stop-color="#2e3f75"/><stop offset="0.85" stop-color="#2c346a"/><stop offset="0.86" stop-color="#282559"/><stop offset="0.88" stop-color="#28275a"/><stop offset="0.89" stop-color="#2a2e5e"/><stop offset="0.9" stop-color="#2c3b64"/><stop offset="0.91" stop-color="#2f4d6d"/><stop offset="0.91" stop-color="#336579"/><stop offset="0.92" stop-color="#388288"/><stop offset="0.92" stop-color="#3ea49a"/><stop offset="0.92" stop-color="#45cbad"/><stop offset="0.93" stop-color="#48dcb6"/></linearGradient><linearGradient id="Degradado_sin_nombre_101" x1="166.69" y1="21.44" x2="166.69" y2="152.56" gradientUnits="userSpaceOnUse"><stop offset="0" stop-color="#45d1a8"/><stop offset="0.23" stop-color="#1483bc"/><stop offset="0.46" stop-color="#4dffba"/><stop offset="0.54" stop-color="#45c6b4"/><stop offset="0.68" stop-color="#396faa"/><stop offset="0.83" stop-color="#1483bc"/><stop offset="0.9" stop-color="#1585bc"/><stop offset="0.93" stop-color="#1a8cbb"/><stop offset="0.95" stop-color="#2199bb"/><stop offset="0.97" stop-color="#2babb9"/><stop offset="0.99" stop-color="#39c2b8"/><stop offset="1" stop-color="#48dcb6"/></linearGradient><linearGradient id="Degradado_sin_nombre_80" x1="145.55" y1="17.14" x2="145.55" y2="324.59" gradientUnits="userSpaceOnUse"><stop offset="0.15" stop-color="#2b3469"/><stop offset="0.19" stop-color="#2f4d73"/><stop offset="0.28" stop-color="#3a8f8d"/><stop offset="0.42" stop-color="#4cf7b7"/><stop offset="0.43" stop-color="#4dffba"/><stop offset="0.58" stop-color="#17ddc8"/><stop offset="0.67" stop-color="#00cece"/><stop offset="0.67" stop-color="#03c0c4"/><stop offset="0.69" stop-color="#0c9cab"/><stop offset="0.71" stop-color="#147c95"/><stop offset="0.73" stop-color="#1a6082"/><stop offset="0.76" stop-color="#1f4a73"/><stop offset="0.78" stop-color="#233967"/><stop offset="0.82" stop-color="#262e5f"/><stop offset="0.87" stop-color="#28275a"/><stop offset="1" stop-color="#282559"/></linearGradient><linearGradient id="Degradado_sin_nombre_54" x1="61.01" y1="0.82" x2="61.01" y2="313.17" gradientUnits="userSpaceOnUse"><stop offset="0" stop-color="#2b3469"/><stop offset="0.36" stop-color="#4dffba"/><stop offset="0.45" stop-color="#45c2b3"/><stop offset="0.55" stop-color="#3c86ad"/><stop offset="0.59" stop-color="#396faa"/><stop offset="0.85" stop-color="#282559"/></linearGradient><linearGradient id="Degradado_sin_nombre_72" x1="204.73" x2="204.73" y2="270.93" gradientUnits="userSpaceOnUse"><stop offset="0" stop-color="#2b3469"/><stop offset="0" stop-color="#2c366b"/><stop offset="0.04" stop-color="#485f89"/><stop offset="0.07" stop-color="#5f83a3"/><stop offset="0.11" stop-color="#72a0b9"/><stop offset="0.15" stop-color="#80b6c9"/><stop offset="0.19" stop-color="#8bc6d5"/><stop offset="0.24" stop-color="#91cfdc"/><stop offset="0.31" stop-color="#93d2de"/><stop offset="0.42" stop-color="#53d0d7"/><stop offset="0.54" stop-color="#17cfd1"/><stop offset="0.59" stop-color="#00cece"/><stop offset="0.64" stop-color="#02c5c8"/><stop offset="0.71" stop-color="#08aeb8"/><stop offset="0.81" stop-color="#11889d"/><stop offset="0.92" stop-color="#1d5379"/><stop offset="1" stop-color="#282559"/></linearGradient></defs><g id="Capa_2" data-name="Capa 2"><g id="Capa_2-2" data-name="Capa 2"><path class="cls-1" d="M118.07,134.51a49.82,49.82,0,0,1-18.85,11.93c-11.28,3.92-20.73,2.49-23.56.3a12.1,12.1,0,0,1-2-2,16.06,16.06,0,0,1-1.65-3.15,6.28,6.28,0,0,1-.53-2.4,4,4,0,0,1,.72-2,5.25,5.25,0,0,1,3-1.75l.3-.09c3.46-1.07,7.44-3.83,8-6.83.36-2-.73-3.62-1.79-5.24A12.81,12.81,0,0,0,78.58,120c-4.54-10.26-4.2-14.94-3.1-17.07a2.91,2.91,0,0,1,1.78-1.61l.1,0c3.87-1.52,4.8-4,5-5.35,4.83,3.47,9.52,5,13.95,4.53l-.11-1c-4.39.46-9.1-1.19-14-4.89l-.93-.7L81.41,95c0,.14.33,3.43-4.39,5.31a3.88,3.88,0,0,0-2.4,2.07C73.46,104.6,73,109.23,77,118.84c-.37-.26-.75-.54-1.13-.84-5.46-4.39-8.25-12.11-8.2-17.48,0-.21,0-.43,0-.67a20.77,20.77,0,0,0-.17-3.8,22.2,22.2,0,0,0-2.15-6.9c5.37-2.5,6.86-11.9,7.1-13.74,6.65-2.85,19.26-15.12,19.84-15.69,5.16-6.25.68-13.12.64-13.18a8.74,8.74,0,0,0-5.86-4.06c-4.64-.85-9.49,2-11,3-4.22-7.88-11.25-6.79-11.33-6.77-8.51,1.55-8.63,9.69-8.63,9.78.08,10.11,13.63,24.89,15.38,26.75-.22,1.61-1.73,11.28-6.95,13.21-.32.09-6.55,1.72-11.36-1.3-2.86-1.8-4.69-4.9-5.44-9.22l-.1-.64-.59.27s-5,2.23-8.79.55a6.73,6.73,0,0,1-3.61-4.4l-.16-.52-.5.2c-4.14,1.67-8.79.71-11.3-2.31a9.31,9.31,0,0,1-1.87-7l0-.27-.22-.18c-4-3.26-5.49-8.62-3.58-12.75,1.81-3.92,6-5.17,6.85-5.38l.39-.11,0-.4a10.61,10.61,0,0,1,2.38-6.89,8.92,8.92,0,0,1,6.5-2.67l.36,0,.1-.33c0-.06,1.93-5.94,7.42-8.59,3.76-1.82,8.31-1.73,13.53.26l.28.11.23-.2c.08-.07,7.89-6.85,16.47-5.9,4.54.5,8.51,3.07,11.82,7.64l.23.31.35-.14c.1,0,9.91-3.68,15.7,1.15a12.27,12.27,0,0,1,4.13,8.72l1-.08a13.13,13.13,0,0,0-4.48-9.4C94.63,24.18,85.87,26.8,84,27.46c-3.44-4.62-7.58-7.22-12.3-7.75-8.29-.91-15.61,4.78-17,5.95-5.37-2-10.09-2-14-.12a16.53,16.53,0,0,0-7.83,8.86,9.71,9.71,0,0,0-6.86,3,11.26,11.26,0,0,0-2.64,7.2,11.39,11.39,0,0,0-7.13,5.83c-2.09,4.53-.59,10.15,3.65,13.77a10.26,10.26,0,0,0,2.12,7.53c2.69,3.23,7.54,4.34,11.95,2.79a7.48,7.48,0,0,0,4,4.51c3.4,1.52,7.51.25,9-.32.86,4.3,2.8,7.43,5.78,9.3,4.63,2.9,10.24,1.87,11.79,1.5a21.23,21.23,0,0,1,2.09,6.69,19.73,19.73,0,0,1,.16,3.64c0,.24,0,.47,0,.69-.06,5.61,2.87,13.68,8.57,18.27.53.42,1.06.8,1.58,1.17a13.53,13.53,0,0,1,4.07,3.94c1,1.51,1.92,3,1.63,4.5-.46,2.53-4.08,5.07-7.31,6.07l-.28.09a6.1,6.1,0,0,0-3.5,2.11,5,5,0,0,0-.9,2.47,6,6,0,0,0,.59,2.83,16.75,16.75,0,0,0,1.76,3.38,13.22,13.22,0,0,0,2.17,2.18c1.66,1.3,5.43,2.36,10.44,2.36a43.33,43.33,0,0,0,14.06-2.49,50.87,50.87,0,0,0,19.23-12.18Zm-61-86a9.23,9.23,0,0,1,7.81-8.79,6.12,6.12,0,0,1,.83,0c1.91,0,6.65.67,9.69,6.79l.26.53.48-.35c.06,0,5.67-4.06,10.73-3.14a7.82,7.82,0,0,1,5.21,3.63c0,.06,4.11,6.31-.54,12-.13.12-12.94,12.59-19.44,15.41C70.22,72.39,57.18,58,57.11,48.47Z"/><path class="cls-2" d="M216.08,42.55c-1.59-2.87-4.56-4.67-8.83-5.37a11.33,11.33,0,0,0-4-6.57A9.72,9.72,0,0,0,195.92,29a16.48,16.48,0,0,0-9.41-7.15c-4.24-1.1-8.86-.13-13.74,2.88-1.61-.87-9.91-5-17.85-2.5-4.53,1.45-8.07,4.81-10.54,10-1.84-.24-9.75-1-14.6,3.44-2.72,2.47-4,6.12-3.71,10.84-1.23.31-4.74,1.45-6.5,4.61-1.33,2.39-1.34,5.37,0,8.86-1,1.57-6.64,10.69-1.3,16.82-.72,1.7-3.9,9.86-.37,15.69C120,96,124.07,98,130,98.28c1,1.22,6.64,7.76,14.63,8.06,5.11.2,10.07-2.25,14.74-7.24.48,1.31,1.89,3.53,6.05,4.27a2.86,2.86,0,0,1,2,1.25c1.48,1.89,2.73,6.46.27,17.47a12.75,12.75,0,0,0-2.3,3.76c-.72,1.79-1.46,3.64-.72,5.49,1.13,2.83,5.58,4.76,9.18,5.13l.33,0a5.06,5.06,0,0,1,3.24,1.13,4.07,4.07,0,0,1,1.08,1.75,11.29,11.29,0,0,1-1,5.87,12.08,12.08,0,0,1-1.54,2.35c-2.86,3.29-19.8,7.16-38.27-.61a63.12,63.12,0,0,1-19.31-12.87l-.69.72a63.8,63.8,0,0,0,19.61,13.07,57.94,57.94,0,0,0,22.39,4.65c8.81,0,15.25-2.26,17-4.31a12.57,12.57,0,0,0,1.69-2.56,12.26,12.26,0,0,0,1.12-6.46l0-.1a5.15,5.15,0,0,0-1.37-2.24,6.08,6.08,0,0,0-3.83-1.38l-.32,0c-3.36-.35-7.4-2.13-8.35-4.52-.59-1.47,0-3.06.72-4.74a13.66,13.66,0,0,1,3.21-4.66c.44-.47.88-.93,1.32-1.45,4.69-5.62,6-14.11,4.81-19.6,0-.19-.08-.39-.13-.61a21.26,21.26,0,0,1-.58-3.66c-.18-2.67-.37-5.43.79-7.22s3.05-1.91,5.32-2.14,4.73-.47,6.75-2.31,3.1-5,3-9.34c1.6.27,5.87.7,8.9-1.46a7.51,7.51,0,0,0,3-5.28c1.58,0,6.76-.34,10.13-3.77,2.13-2.15,3.11-5.11,2.93-8.79C216.23,54.92,219,47.86,216.08,42.55ZM214.8,55.87c.19,3.44-.7,6.18-2.63,8.14-3.63,3.68-9.79,3.49-9.85,3.48l-.47,0,0,.46a6.71,6.71,0,0,1-2.66,5c-3.35,2.38-8.68,1.19-8.73,1.18l-.64-.15,0,.66c.2,4.3-.69,7.39-2.65,9.18-1.78,1.61-4,1.84-6.18,2.06s-4.45.47-5.84,2.3c-5.34-1.11-8.62-10-9.14-11.52,1.34-2.17,11.73-19.33,9.83-29.26,0-.08-1.73-8-10.39-7.89-.08,0-7.19.31-9.78,8.86-1.69-.67-7-2.51-11.39-.76a8.75,8.75,0,0,0-4.95,5.12c0,.08-3.07,7.69,3.26,12.84.63.42,15.41,10,22.49,11.46.59,1.74,3.86,10.54,9.53,12-1,2-.8,4.66-.63,7.22a23.46,23.46,0,0,0,.6,3.82c.05.21.1.41.14.6,1.1,5.25-.12,13.37-4.61,18.75-.35.41-.71.8-1.06,1.17,2.06-10.28.7-14.75-.86-16.69a3.8,3.8,0,0,0-2.63-1.57h0c-5-.9-5.37-4.21-5.38-4.35l-.09-1.17-.78.88c-4.64,5.22-9.55,7.78-14.58,7.6-8.16-.3-14-7.78-14-7.85l-.14-.19h-.23c-5.73-.27-9.62-2.05-11.57-5.27-3.6-5.94.51-15,.56-15.06l.14-.31-.23-.25c-5.59-6,1.25-15.94,1.31-16l.16-.22-.1-.25c-1.29-3.3-1.34-6.07-.13-8.25,1.88-3.37,6.21-4.21,6.25-4.21l.44-.09,0-.44c-.34-4.61.79-8.13,3.35-10.46,5-4.59,14.05-3.15,14.15-3.14l.37.07.16-.35c2.35-5.13,5.74-8.43,10.09-9.81,8.22-2.62,17.22,2.5,17.31,2.55l.26.15.26-.16c4.72-3,9.16-4,13.2-2.92,5.9,1.52,8.95,6.92,9,7l.17.31.34-.05a8.87,8.87,0,0,1,6.9,1.34,10.62,10.62,0,0,1,3.69,6.29l0,.36.37.06c4.14.6,7,2.25,8.45,4.92,2.86,5.16-.33,12.53-.36,12.6l-.05.11ZM165.2,76.05c-6.92-1.5-21.93-11.21-22-11.27-5.71-4.65-3-11.37-2.92-11.66a7.75,7.75,0,0,1,4.39-4.57,10,10,0,0,1,3.74-.66,20.4,20.4,0,0,1,7.4,1.63l.54.24.15-.57c2.25-8.34,8.72-8.66,9-8.67a9.13,9.13,0,0,1,9.38,7.08C176.62,56.91,166.67,73.63,165.2,76.05Z"/><path class="cls-3" d="M122,17.14a74.33,74.33,0,0,0-12.33,13.17,80.42,80.42,0,0,0-9,15.54A78.85,78.85,0,0,0,94,80.79c.12,3,.39,6,.8,8.9l.34,2.2.16,1.1a4.53,4.53,0,0,0,.11.49l.15.53c.39,1.42.86,2.84,1.34,4.25a103.57,103.57,0,0,0,7.37,16.27,74,74,0,0,0,23.79,26l-.12-.07a82.44,82.44,0,0,1,14.95,11,109.77,109.77,0,0,1,12.61,13.44c1,1.19,1.84,2.46,2.77,3.68l1.37,1.85c.44.63.85,1.28,1.28,1.92l2.53,3.85,2.31,4,1.15,2c.39.66.71,1.36,1.06,2l2.07,4.11.51,1,.46,1.06.91,2.11,1.8,4.23-.06-.13a225.25,225.25,0,0,1,11.93,30.76c1.66,5.24,3.09,10.54,4.45,15.85l1.92,8,1.64,8.06a279.1,279.1,0,0,1,4.48,32.56c.55,5.45.67,10.92.9,16.39.17,2.73.08,5.47.06,8.21l-.08,8.2-.26-8.2c-.1-2.73-.1-5.46-.34-8.18-.4-5.45-.69-10.9-1.41-16.32a322.8,322.8,0,0,0-5.21-32.28l-1.78-8-2.06-7.91c-1.45-5.25-3-10.48-4.7-15.64a227,227,0,0,0-12.06-30.21l0,0,0-.09-1.8-4.13-.89-2.06-.45-1-.51-1-2-4c-.35-.66-.66-1.35-1-2l-1.13-1.95L161,177.68l-2.49-3.75c-.42-.62-.82-1.25-1.25-1.86l-1.34-1.81c-.91-1.19-1.76-2.42-2.71-3.58a114.16,114.16,0,0,0-12.26-13.09c-1.09-1-2.23-2-3.39-2.94s-2.33-1.87-3.51-2.78a66.63,66.63,0,0,0-7.39-4.86l-.1,0,0,0c-10.41-6.77-18.6-16.43-24.52-27.13A98.65,98.65,0,0,1,94.69,99c-.46-1.46-.92-2.92-1.3-4.41L93.25,94a3.94,3.94,0,0,1-.13-.61L93,92.28,92.66,90c-.37-3-.58-6.09-.65-9.15A79.5,79.5,0,0,1,93.7,62.63l.49-2.24.58-2.21c.36-1.48.86-2.93,1.31-4.38a79.75,79.75,0,0,1,3.45-8.46,81.78,81.78,0,0,1,9.61-15.45A70.61,70.61,0,0,1,122,17.14Z"/><path class="cls-4" d="M44.74,313.17a78.83,78.83,0,0,1-2.09-22.72A112.22,112.22,0,0,1,46,267.79c.49-1.85,1.08-3.68,1.61-5.52.28-.91.53-1.84.84-2.74l1-2.7c.68-1.79,1.31-3.6,2-5.38l2.41-5.22,1.21-2.61,1.39-2.52,2.78-5a26.76,26.76,0,0,1,1.5-2.45l1.56-2.42,3.13-4.83,0,0,.08-.09a98.24,98.24,0,0,0,12.85-18.59,49,49,0,0,0,4.09-10.34c.17-.89.45-1.77.55-2.68l.31-2.76c.17-1.85.27-3.73.28-5.59a41.92,41.92,0,0,0-.27-5.52A13.06,13.06,0,0,0,82.05,176a2.06,2.06,0,0,0-1.15-1,2.79,2.79,0,0,0-1.64.22c-.6.28-1.58.82-2.42,1.24l-2.6,1.31A113.83,113.83,0,0,1,63.5,182.3,50.51,50.51,0,0,1,57.78,184a14.93,14.93,0,0,1-1.51.3,15.42,15.42,0,0,1-1.56.22c-.55,0-1.09.07-1.64.08s-1.18-.1-1.77-.17l.42,0a10.87,10.87,0,0,1-2.24-.23,11.58,11.58,0,0,1-2.07-.58,12.08,12.08,0,0,1-3.77-2.24,12.87,12.87,0,0,1-3.86-7.6l-.19-2.05a15.1,15.1,0,0,0-.17-1.62,14.4,14.4,0,0,0-.83-3.13,6,6,0,0,0-3.73-3.85l.36.07a7.85,7.85,0,0,1-1.17-.2,7.73,7.73,0,0,1-1.07-.31,8.33,8.33,0,0,1-2.07-1.07,6.43,6.43,0,0,1-1.72-1.8,6.8,6.8,0,0,1-.94-2.33l0-.13v-.24a3.56,3.56,0,0,0-.08-.65,3.07,3.07,0,0,0-.17-.62,1.59,1.59,0,0,0-.2-.36l-.07-.06.34.11a4,4,0,0,1-.64-.21l-.53-.23a6,6,0,0,1-1-.63,5.21,5.21,0,0,1-1.55-1.91,5.37,5.37,0,0,1-.53-2.33,8.47,8.47,0,0,1,.08-1.13l.1-.7A12,12,0,0,0,24,145.8a3.21,3.21,0,0,0-.21-.92c-.1-.19-.07-.06.13,0l.15,0a33.33,33.33,0,0,0-4.57-.61,32.51,32.51,0,0,0-4.63,0c-.77.06-1.52.15-2.26.28-.38.06-.73.15-1.09.23l-.7.15a5.16,5.16,0,0,1-.88.1,5.38,5.38,0,0,1-1.93-.23,4,4,0,0,1-2-1.36,4.29,4.29,0,0,1-.58-1,5.26,5.26,0,0,1-.26-1,7.25,7.25,0,0,1-.07-.91l0-.83v-.12l.06-.22c1.25-4.55,2.3-9.26,3.13-13.94A101.11,101.11,0,0,0,10,111.32a48.49,48.49,0,0,0-.23-6.95A19.29,19.29,0,0,0,8.12,98l-.35-.67-.44-.63-.55-.81-.51-.83A36.31,36.31,0,0,1,4.5,91.72a46.2,46.2,0,0,1-2.62-7.07A50.81,50.81,0,0,1,0,69.79,56.94,56.94,0,0,1,2.37,55.05,66.55,66.55,0,0,1,8.25,41.44a88.34,88.34,0,0,1,8.35-12.2l.29-.37.36-.38.66-.66c.43-.44.88-.86,1.33-1.29.89-.84,1.8-1.66,2.72-2.47,1.85-1.61,3.76-3.14,5.71-4.63a106.84,106.84,0,0,1,12.27-8A82,82,0,0,1,67.46,1.63,67.63,67.63,0,0,1,82.09,1a69.24,69.24,0,0,1,14.37,2.6A78.69,78.69,0,0,1,122,17.14l-3-2c-1-.65-2-1.39-3-2-2.1-1.18-4.13-2.49-6.34-3.47-1.09-.51-2.15-1.07-3.25-1.56L103,6.78c-.56-.21-1.11-.47-1.68-.65l-1.72-.54c-1.15-.34-2.28-.77-3.44-1A68.07,68.07,0,0,0,82,2.41,66,66,0,0,0,67.77,3.47,81.76,81.76,0,0,0,41.15,13.55a103,103,0,0,0-11.83,8c-1.87,1.48-3.7,3-5.47,4.6-.88.8-1.75,1.61-2.6,2.44L20,29.89l-.61.64-.26.27-.26.35A75.39,75.39,0,0,0,5.67,56,52.47,52.47,0,0,0,3.58,69.85,47.19,47.19,0,0,0,5.44,83.63a42.6,42.6,0,0,0,2.47,6.48,32.49,32.49,0,0,0,1.62,3l.44.7.48.68.59.87.5.92a22.79,22.79,0,0,1,2.08,7.6,51.5,51.5,0,0,1,.27,7.53,105.33,105.33,0,0,1-1.61,14.67c-.85,4.83-1.89,9.57-3.19,14.35l.07-.35a1.86,1.86,0,0,0,.07.94l0,0a1.91,1.91,0,0,0,.5,0l.34,0,.51-.12c.44-.09.88-.21,1.32-.27a26.47,26.47,0,0,1,2.64-.34,33.7,33.7,0,0,1,5.22,0,36.69,36.69,0,0,1,5.2.72l.1,0,.05,0a6.16,6.16,0,0,1,.82.39,4.38,4.38,0,0,1,.66.55,3.12,3.12,0,0,1,.47.61,2.4,2.4,0,0,1,.33.6,6.76,6.76,0,0,1,.54,2.11,15.78,15.78,0,0,1-.08,3.59l-.12.85a3.37,3.37,0,0,0,0,.44,1.62,1.62,0,0,0,.14.69,1.28,1.28,0,0,0,.41.5,1.66,1.66,0,0,0,.34.22l.19.09s.16.05.1,0l.34.11a4.4,4.4,0,0,1,1.53,1.17,5.32,5.32,0,0,1,.81,1.4A6.72,6.72,0,0,1,32,155.8a9.11,9.11,0,0,1,.15,1.38l0-.38a2.92,2.92,0,0,0,.38,1,2.83,2.83,0,0,0,.72.75,4.65,4.65,0,0,0,1.09.56c.21.07.42.14.64.19a5,5,0,0,0,.57.1l.24,0,.13,0a8.84,8.84,0,0,1,4,2.45,11.79,11.79,0,0,1,2.31,3.73,18.1,18.1,0,0,1,1.05,4,19.49,19.49,0,0,1,.21,2l.15,1.62a8.92,8.92,0,0,0,2.61,5.33,8.61,8.61,0,0,0,2.53,1.52,8.24,8.24,0,0,0,1.47.42,7.43,7.43,0,0,0,1.43.18l.42,0c.36,0,.72.06,1.08.11l1.24-.06a12.19,12.19,0,0,0,1.28-.17,10.4,10.4,0,0,0,1.31-.25,44.1,44.1,0,0,0,5.3-1.54,108.2,108.2,0,0,0,10.41-4.37l2.55-1.25c.88-.43,1.57-.84,2.72-1.35a6.08,6.08,0,0,1,4-.3A5.53,5.53,0,0,1,85,174.18a12.16,12.16,0,0,1,1.21,3.13,22.47,22.47,0,0,1,.54,3.05,42.85,42.85,0,0,1,.22,6c0,2-.19,3.92-.41,5.88l-.38,2.94c-.13,1-.44,2-.66,2.95A51.94,51.94,0,0,1,81,209a101.5,101.5,0,0,1-13.59,18.92l.1-.12-3.16,4.69-1.59,2.35a26.74,26.74,0,0,0-1.51,2.39l-2.82,4.9L57,244.61l-1.24,2.54-2.47,5.1c-.76,1.72-1.43,3.49-2.16,5.23l-1.07,2.63c-.33.88-.6,1.79-.91,2.68-.58,1.8-1.2,3.58-1.75,5.39a110.42,110.42,0,0,0-4,22.32A81.75,81.75,0,0,0,44.74,313.17Z"/><path class="cls-5" d="M122,17.14A90.89,90.89,0,0,1,165.57.56,99.37,99.37,0,0,1,189.2.87c2,.24,3.92.56,5.86.91a30.76,30.76,0,0,1,5.86,1.77,51.45,51.45,0,0,1,10.46,6,55.92,55.92,0,0,1,15.56,18.19,56,56,0,0,1,4.69,11.12,27.53,27.53,0,0,0,.83,2.64,22.15,22.15,0,0,0,1.16,2.49,36.35,36.35,0,0,0,2.95,4.74,40.86,40.86,0,0,0,7.82,8c.75.58,1.48,1.12,2.31,1.71l2.34,1.8q2.31,1.74,4.69,3.39c1.57,1.1,3.19,2.14,4.84,3.27a30.73,30.73,0,0,1,2.51,1.87,10.1,10.1,0,0,1,2.36,2.71,6.32,6.32,0,0,1,.78,4,8.32,8.32,0,0,1-.48,1.82,7.8,7.8,0,0,1-.83,1.69,9.82,9.82,0,0,1-2.5,2.63,11.94,11.94,0,0,1-3.07,1.64l-.11.05-.17,0a12.81,12.81,0,0,0-1.62.49,8.48,8.48,0,0,0-1.45.69,2.39,2.39,0,0,0-.83.72.47.47,0,0,0-.08.37l.06.42c0-.1,0,0,0,.09a1.6,1.6,0,0,0,.05.21,2.85,2.85,0,0,0,.17.46,3.75,3.75,0,0,0,.54.86,4.35,4.35,0,0,0,.83.74l.35.25.4.34a8.5,8.5,0,0,1,.68.66,10.46,10.46,0,0,1,2.15,3.2,7.54,7.54,0,0,1,.52,4.17v.06l0,.09c0,.17-.09.44-.12.67s-.06.46-.08.67a5.39,5.39,0,0,0,0,.57c0,.14.05.25,0,.2l-.18-.33a7.64,7.64,0,0,1,.55,1,7.89,7.89,0,0,1,.36,1,9.08,9.08,0,0,1,.39,2,9.23,9.23,0,0,1-.6,4l-.11.28-.1.11a3.4,3.4,0,0,0-.17.34c-.07.14-.13.29-.19.44a5.2,5.2,0,0,0-.24.92,3.94,3.94,0,0,0,.11,1.75,3.48,3.48,0,0,0,.39.84l.66,1.21q.64,1.22,1.26,2.43c.82,1.63,1.6,3.28,2.32,5a21.22,21.22,0,0,1,1.67,5.74v.14a6.83,6.83,0,0,1-.1,1.12c0,.34-.11.67-.18,1a13.72,13.72,0,0,1-.57,1.89,15,15,0,0,1-1.83,3.47,15.86,15.86,0,0,1-2.61,2.87c-.47.45-1,.79-1.52,1.19s-1.07.67-1.61,1l-.1.07-.22.07a81.57,81.57,0,0,0-16.43,8.06,36.76,36.76,0,0,0-6.9,5.69,14.62,14.62,0,0,0-4,7.25,21.51,21.51,0,0,0-.23,2.18l-.16,2.32c-.09,1.55-.14,3.09-.18,4.64-.07,3.1,0,6.2.13,9.27a62.46,62.46,0,0,0,1.11,9.11,22.75,22.75,0,0,0,3.06,8.2l-.23-.25c5.91,5.34,11.54,10.9,17,16.61s10.83,11.59,15.83,17.74a172.22,172.22,0,0,1,13.9,19.3,79.32,79.32,0,0,1,5.48,10.55,38.19,38.19,0,0,1,3,11.46A37.84,37.84,0,0,0,284,259.69a84.25,84.25,0,0,0-5.81-10.26,171.29,171.29,0,0,0-14.43-18.66q-7.8-8.88-16.2-17.19c-5.6-5.53-11.36-10.94-17.25-16.11l-.13-.11-.1-.14a25.52,25.52,0,0,1-3.69-9.25,65,65,0,0,1-1.34-9.54q-.34-4.78-.29-9.55c0-1.59.07-3.17.14-4.76l.14-2.38a21.64,21.64,0,0,1,.24-2.5,18.11,18.11,0,0,1,4.77-9.12,40.28,40.28,0,0,1,7.51-6.35,81.22,81.22,0,0,1,17.24-8.61l-.32.14c.43-.28.88-.53,1.29-.82a13.4,13.4,0,0,0,1.18-.93,12.48,12.48,0,0,0,2-2.19,11.21,11.21,0,0,0,1.35-2.59,9.67,9.67,0,0,0,.42-1.39c0-.23.09-.46.12-.69s.05-.49.06-.58v.14a18,18,0,0,0-1.4-4.51c-.66-1.59-1.41-3.17-2.21-4.73-.39-.78-.8-1.56-1.22-2.33l-.63-1.14a7.31,7.31,0,0,1-.71-1.6,8,8,0,0,1-.27-3.55,10,10,0,0,1,.43-1.67c.11-.27.21-.54.34-.8a8.49,8.49,0,0,1,.46-.84l-.2.39a5.06,5.06,0,0,0,.11-3.37c-.06-.18-.13-.36-.2-.53s-.2-.38-.2-.39l-.18-.33a4.59,4.59,0,0,1-.35-1.47,8.81,8.81,0,0,1,0-1.15,13.38,13.38,0,0,1,.32-2l0,.15a3.59,3.59,0,0,0-.26-2,6.48,6.48,0,0,0-1.34-2c-.14-.15-.29-.3-.44-.44a5,5,0,0,0-.49-.37,8,8,0,0,1-1.49-1.38,7.3,7.3,0,0,1-1.12-1.79,6.48,6.48,0,0,1-.37-1c0-.17-.09-.36-.13-.54a6.27,6.27,0,0,1-.08-.7l.06.42a4.4,4.4,0,0,1,.59-3.44,6.5,6.5,0,0,1,2.08-1.95,13.48,13.48,0,0,1,2.15-1,15.84,15.84,0,0,1,2.21-.64l-.28.08a7.3,7.3,0,0,0,3.62-2.7,4.17,4.17,0,0,0,.46-.92,4.32,4.32,0,0,0,.28-1,2.46,2.46,0,0,0-.3-1.62,12.53,12.53,0,0,0-3.68-3.3c-1.57-1.08-3.24-2.16-4.86-3.3s-3.21-2.32-4.78-3.54l-2.28-1.8c-.76-.54-1.6-1.17-2.38-1.79a44.58,44.58,0,0,1-8.43-8.81,40.39,40.39,0,0,1-3.18-5.24,26.29,26.29,0,0,1-1.28-2.84,27.19,27.19,0,0,1-.9-3A55.17,55.17,0,0,0,224,29.25a52.78,52.78,0,0,0-14.38-17.43A49.87,49.87,0,0,0,199.88,6a28,28,0,0,0-5.31-1.76c-1.89-.38-3.79-.75-5.7-1a103,103,0,0,0-23.14-.93A92.48,92.48,0,0,0,122,17.14Z"/></g></g></svg>