<svg id="Capa_1" data-name="Capa 1" xmlns="http://www.w3.org/2000/svg" xmlns:xlink="http://www.w3.org/1999/xlink" viewBox="0 0 305 305"><defs><style>.cls-1{fill:url(#Degradado_sin_nombre_8);}.cls-2{fill:url(#Degradado_sin_nombre_7);}.cls-3{fill:url(#Degradado_sin_nombre_6);}.cls-4{fill:url(#Degradado_sin_nombre_4);}.cls-5{fill:url(#Degradado_sin_nombre_3);}</style><linearGradient id="Degradado_sin_nombre_8" x1="33.06" y1="224.15" x2="129.43" y2="224.15" gradientTransform="matrix(1, 0, 0, -1, 0, 305)" gradientUnits="userSpaceOnUse"><stop offset="0" stop-color="#1483bc"/><stop offset="0.2" stop-color="#45d1a8"/><stop offset="0.46" stop-color="#4dffba"/><stop offset="0.6" stop-color="#3e9f9b"/><stop offset="0.75" stop-color="#30477e"/><stop offset="0.81" stop-color="#30457c"/><stop offset="0.83" stop-color="#2e3f75"/><stop offset="0.85" stop-color="#2c346a"/><stop offset="0.86" stop-color="#282559"/><stop offset="0.88" stop-color="#28275a"/><stop offset="0.89" stop-color="#2a2e5e"/><stop offset="0.9" stop-color="#2c3b64"/><stop offset="0.91" stop-color="#2f4d6d"/><stop offset="0.91" stop-color="#336579"/><stop offset="0.92" stop-color="#388288"/><stop offset="0.92" stop-color="#3ea49a"/><stop offset="0.92" stop-color="#45cbad"/><stop offset="0.93" stop-color="#48dcb6"/></linearGradient><linearGradient id="Degradado_sin_nombre_7" x1="173.91" y1="283.08" x2="173.91" y2="161.09" gradientTransform="matrix(1, 0, 0, -1, 0, 305)" gradientUnits="userSpaceOnUse"><stop offset="0" stop-color="#45d1a8"/><stop offset="0.23" stop-color="#1483bc"/><stop offset="0.46" stop-color="#4dffba"/><stop offset="0.54" stop-color="#45c6b4"/><stop offset="0.68" stop-color="#396faa"/><stop offset="0.83" stop-color="#1483bc"/><stop offset="0.9" stop-color="#1585bc"/><stop offset="0.93" stop-color="#1a8cbb"/><stop offset="0.95" stop-color="#2199bb"/><stop offset="0.97" stop-color="#2babb9"/><stop offset="0.99" stop-color="#39c2b8"/><stop offset="1" stop-color="#48dcb6"/></linearGradient><linearGradient id="Degradado_sin_nombre_6" x1="154.22" y1="287.06" x2="154.22" y2="1" gradientTransform="matrix(1, 0, 0, -1, 0, 305)" gradientUnits="userSpaceOnUse"><stop offset="0.15" stop-color="#2b3469"/><stop offset="0.19" stop-color="#2f4d73"/><stop offset="0.28" stop-color="#3a8f8d"/><stop offset="0.42" stop-color="#4cf7b7"/><stop offset="0.43" stop-color="#4dffba"/><stop offset="0.58" stop-color="#17ddc8"/><stop offset="0.67" stop-color="#00cece"/><stop offset="0.67" stop-color="#03c0c4"/><stop offset="0.69" stop-color="#0c9cab"/><stop offset="0.71" stop-color="#147c95"/><stop offset="0.73" stop-color="#1a6082"/><stop offset="0.76" stop-color="#1f4a73"/><stop offset="0.78" stop-color="#233967"/><stop offset="0.82" stop-color="#262e5f"/><stop offset="0.87" stop-color="#28275a"/><stop offset="1" stop-color="#282559"/></linearGradient><linearGradient id="Degradado_sin_nombre_4" x1="75.56" y1="302.21" x2="75.56" y2="11.64" gradientTransform="matrix(1, 0, 0, -1, 0, 305)" gradientUnits="userSpaceOnUse"><stop offset="0" stop-color="#2b3469"/><stop offset="0.36" stop-color="#4dffba"/><stop offset="0.45" stop-color="#45c2b3"/><stop offset="0.55" stop-color="#3c86ad"/><stop offset="0.59" stop-color="#396faa"/><stop offset="0.85" stop-color="#282559"/></linearGradient><linearGradient id="Degradado_sin_nombre_3" x1="209.26" y1="303" x2="209.26" y2="50.95" gradientTransform="matrix(1, 0, 0, -1, 0, 305)" gradientUnits="userSpaceOnUse"><stop offset="0" stop-color="#2b3469"/><stop offset="0" stop-color="#2c366b"/><stop offset="0.04" stop-color="#485f89"/><stop offset="0.07" stop-color="#5f83a3"/><stop offset="0.11" stop-color="#72a0b9"/><stop offset="0.15" stop-color="#80b6c9"/><stop offset="0.19" stop-color="#8bc6d5"/><stop offset="0.24" stop-color="#91cfdc"/><stop offset="0.31" stop-color="#93d2de"/><stop offset="0.42" stop-color="#53d0d7"/><stop offset="0.54" stop-color="#17cfd1"/><stop offset="0.59" stop-color="#00cece"/><stop offset="0.64" stop-color="#02c5c8"/><stop offset="0.71" stop-color="#08aeb8"/><stop offset="0.81" stop-color="#11889d"/><stop offset="0.92" stop-color="#1d5379"/><stop offset="1" stop-color="#282559"/></linearGradient></defs><g id="Capa_2" data-name="Capa 2"><g id="Capa_2-2" data-name="Capa 2-2"><path class="cls-1" d="M128.67,127.14a46.44,46.44,0,0,1-17.54,11.1c-10.5,3.65-19.29,2.32-21.92.28a11.29,11.29,0,0,1-1.86-1.86,15.45,15.45,0,0,1-1.54-2.93,6,6,0,0,1-.49-2.24,3.68,3.68,0,0,1,.67-1.86A4.89,4.89,0,0,1,88.78,128l.28-.09c3.22-1,6.92-3.56,7.44-6.35.34-1.86-.68-3.37-1.66-4.88a12.06,12.06,0,0,0-2.91-3C87.7,104.1,88,99.74,89,97.76a2.74,2.74,0,0,1,1.66-1.5h.09c3.6-1.41,4.47-3.72,4.65-5,4.5,3.23,8.86,4.66,13,4.22l-.1-.93c-4.09.43-8.47-1.11-13-4.55l-.86-.65.13,1c0,.13.31,3.19-4.09,4.94a3.65,3.65,0,0,0-2.23,1.93c-1.08,2.06-1.51,6.37,2.22,15.31-.35-.24-.7-.5-1.06-.78-5.08-4.08-7.67-11.27-7.62-16.26v-.63a19.84,19.84,0,0,0-.16-3.53,20.68,20.68,0,0,0-2-6.42c5-2.33,6.38-11.07,6.6-12.78,6.19-2.66,17.92-14.07,18.46-14.6,4.8-5.82.63-12.21.6-12.26a8.14,8.14,0,0,0-5.46-3.78c-4.31-.79-8.82,1.86-10.23,2.79C85.66,37,79.12,38,79.05,38a9.52,9.52,0,0,0-8,9.1C71.1,56.52,83.7,70.27,85.33,72c-.2,1.5-1.61,10.49-6.47,12.29-.29.08-6.09,1.6-10.57-1.21-2.66-1.68-4.36-4.56-5.06-8.58l-.09-.59-.55.25s-4.65,2.07-8.18.51a6.22,6.22,0,0,1-3.35-4.1l-.15-.48-.47.19c-3.85,1.55-8.18.66-10.51-2.15a8.66,8.66,0,0,1-1.74-6.51v-.26L38,61.2c-3.72-3-5.1-8-3.33-11.87a9.9,9.9,0,0,1,6.38-5l.36-.1v-.37a9.9,9.9,0,0,1,2.21-6.42,8.32,8.32,0,0,1,6-2.48H50l.09-.31a14.62,14.62,0,0,1,6.9-8c3.5-1.69,7.73-1.61,12.59.24l.26.11.21-.19c.08-.06,7.34-6.37,15.33-5.49,4.22.47,7.91,2.86,11,7.11l.22.29.32-.13c.1,0,9.22-3.43,14.61,1.07a11.41,11.41,0,0,1,3.84,8.11l.93-.07A12.19,12.19,0,0,0,112.11,29c-5.25-4.47-13.4-2-15.14-1.41-3.2-4.3-7-6.72-11.44-7.21-7.72-.85-14.53,4.44-15.82,5.53-5-1.86-9.39-1.86-13-.11A15.4,15.4,0,0,0,49.4,34,9,9,0,0,0,43,36.79a10.48,10.48,0,0,0-2.46,6.7,10.64,10.64,0,0,0-6.63,5.43c-1.95,4.21-.55,9.44,3.39,12.81a9.54,9.54,0,0,0,2,7c2.5,3,7,4,11.11,2.6a6.94,6.94,0,0,0,3.73,4.19c3.16,1.42,7,.24,8.37-.29.8,4,2.6,6.91,5.38,8.65,4.3,2.7,9.52,1.74,11,1.39a19.83,19.83,0,0,1,2,6.23A19.09,19.09,0,0,1,81,94.88v.65c-.06,5.22,2.67,12.72,8,17,.49.4,1,.75,1.47,1.09a12.52,12.52,0,0,1,3.79,3.67c.93,1.4,1.78,2.79,1.51,4.19-.42,2.35-3.79,4.71-6.8,5.64l-.26.09a5.62,5.62,0,0,0-3.25,2,4.66,4.66,0,0,0-.84,2.3,5.44,5.44,0,0,0,.55,2.63,14.9,14.9,0,0,0,1.64,3.14,11.7,11.7,0,0,0,2,2c1.55,1.21,5.06,2.2,9.72,2.2a40.47,40.47,0,0,0,13.08-2.32,47.37,47.37,0,0,0,17.89-11.33Zm-56.76-80A8.59,8.59,0,0,1,79.18,39,5,5,0,0,1,80,39c1.78,0,6.19.63,9,6.32l.24.49.45-.32s5.27-3.78,10-2.92a7.25,7.25,0,0,1,4.85,3.37c0,.06,3.82,5.87-.51,11.17-.12.11-12,11.71-18.08,14.33C84.15,69.35,72,56,72,47.09Z"/><path class="cls-2" d="M219.85,41.59c-1.48-2.68-4.24-4.35-8.22-5a10.5,10.5,0,0,0-3.72-6.11,9,9,0,0,0-6.82-1.5,15.32,15.32,0,0,0-8.75-6.65c-4-1-8.24-.12-12.78,2.68-1.5-.81-9.22-4.66-16.61-2.33-4.22,1.35-7.51,4.48-9.81,9.3-1.71-.22-9.07-.93-13.58,3.2-2.53,2.3-3.72,5.7-3.45,10.09a9.77,9.77,0,0,0-6.05,4.29c-1.24,2.22-1.25,5,0,8.24-.93,1.46-6.18,10-1.21,15.65-.67,1.58-3.63,9.17-.34,14.6,2,3.26,5.74,5.12,11.25,5.38.93,1.14,6.18,7.22,13.62,7.5,4.75.19,9.36-2.09,13.71-6.73.45,1.22,1.76,3.28,5.63,4a2.65,2.65,0,0,1,1.86,1.16c1.38,1.76,2.54,6,.25,16.26a11.72,11.72,0,0,0-2.14,3.49c-.67,1.67-1.36,3.39-.67,5.11,1,2.63,5.19,4.43,8.54,4.77h.31a4.72,4.72,0,0,1,3,1,3.8,3.8,0,0,1,1,1.63,10.57,10.57,0,0,1-.93,5.46,11,11,0,0,1-1.44,2.19c-2.66,3.06-18.42,6.66-35.6-.57a58.56,58.56,0,0,1-18-12l-.64.67a59.49,59.49,0,0,0,18.25,12.16,54,54,0,0,0,20.83,4.33c8.19,0,14.18-2.11,15.81-4a11.08,11.08,0,0,0,2.62-8.4v-.09a4.79,4.79,0,0,0-1.28-2.08A5.64,5.64,0,0,0,181,128h-.3c-3.12-.32-6.88-2-7.77-4.2-.55-1.37,0-2.85.67-4.41a12.64,12.64,0,0,1,3-4.34c.41-.44.82-.86,1.23-1.35,4.36-5.23,5.58-13.12,4.47-18.23a2.65,2.65,0,0,0-.12-.57,19.73,19.73,0,0,1-.54-3.4c-.17-2.49-.34-5.06.74-6.72s2.83-1.78,5-2,4.4-.44,6.28-2.15S196.46,76,196.37,72c1.49.25,5.46.65,8.28-1.36a7,7,0,0,0,2.79-4.91c1.47,0,6.29-.32,9.42-3.51A10.38,10.38,0,0,0,219.59,54C220,53.09,222.57,46.53,219.85,41.59ZM218.66,54c.18,3.2-.65,5.75-2.45,7.57-3.38,3.42-9.11,3.25-9.16,3.24h-.44v.43a6.24,6.24,0,0,1-2.47,4.65C201,72.08,196.06,71,196,71l-.59-.14v.61c.18,4-.64,6.88-2.47,8.54-1.65,1.5-3.72,1.71-5.75,1.92s-4.14.43-5.43,2.14c-5-1-8-9.31-8.5-10.72,1.24-2,10.91-18,9.14-27.22a9.53,9.53,0,0,0-9.66-7.34c-.08,0-6.69.29-9.1,8.24-1.58-.62-6.52-2.34-10.6-.71a8.21,8.21,0,0,0-4.61,4.77c0,.07-2.85,7.15,3,11.94.58.39,14.33,9.31,20.92,10.66.55,1.62,3.59,9.81,8.87,11.17-.93,1.86-.75,4.33-.59,6.71a22.54,22.54,0,0,0,.56,3.56c0,.19.09.38.13.56,1,4.88-.11,12.44-4.29,17.44-.32.38-.66.75-1,1.09,1.92-9.56.66-13.72-.8-15.53a3.51,3.51,0,0,0-2.44-1.46h0c-4.65-.84-5-3.92-5-4l-.08-1.08-.73.81c-4.31,4.86-8.88,7.24-13.56,7.08-7.59-.28-13-7.24-13-7.31l-.13-.17h-.21c-5.33-.26-8.95-1.91-10.76-4.91-3.35-5.52.47-13.95.52-14l.13-.29-.22-.23c-5.2-5.58,1.17-14.83,1.22-14.89l.15-.2-.09-.23c-1.2-3.07-1.25-5.65-.12-7.68,1.75-3.13,5.77-3.91,5.81-3.91l.41-.09v-.41c-.32-4.29.74-7.56,3.12-9.73,4.65-4.27,13.07-2.93,13.16-2.92l.35.06.14-.32c2.19-4.77,5.34-7.84,9.39-9.13,7.65-2.44,16,2.33,16.11,2.37l.24.14.24-.14c4.39-2.8,8.52-3.73,12.28-2.72,5.49,1.41,8.33,6.44,8.37,6.51l.16.29L201,30a8.29,8.29,0,0,1,6.42,1.25,9.88,9.88,0,0,1,3.43,5.85v.34l.34,0c3.86.56,6.52,2.1,7.87,4.58,2.66,4.8-.31,11.66-.34,11.72l-.05.1ZM172.51,72.75c-6.44-1.39-20.4-10.43-20.46-10.48-5.32-4.33-2.8-10.58-2.72-10.85a7.19,7.19,0,0,1,4.08-4.25,9.2,9.2,0,0,1,3.48-.62,19,19,0,0,1,6.89,1.52l.5.22.14-.53c2.09-7.76,8.11-8,8.37-8.06a8.49,8.49,0,0,1,8.73,6.58C183.14,54.94,173.88,70.5,172.51,72.75Z"/><path class="cls-3" d="M132.32,17.94A69.06,69.06,0,0,0,120.85,30.2a74.66,74.66,0,0,0-8.37,14.46,73.35,73.35,0,0,0-6.21,32.5,80.34,80.34,0,0,0,.75,8.28l.31,2,.15,1c0,.16.06.31.1.46l.14.49c.37,1.32.8,2.64,1.25,4a96.36,96.36,0,0,0,6.86,15.14A68.76,68.76,0,0,0,138,132.74l-.11-.06a76.92,76.92,0,0,1,13.91,10.23,102,102,0,0,1,11.73,12.5c.93,1.11,1.71,2.29,2.58,3.43l1.27,1.72c.41.58.79,1.19,1.19,1.78l2.35,3.59,2.15,3.72,1.07,1.86c.37.61.66,1.26,1,1.86l1.93,3.82.47.93.43,1,.84,2,1.68,3.94-.06-.12a208.19,208.19,0,0,1,11.1,28.61c1.55,4.88,2.88,9.81,4.14,14.75l1.79,7.44,1.52,7.5a257.64,257.64,0,0,1,4.17,30.29c.51,5.07.63,10.16.84,15.25.16,2.54.07,5.09.06,7.64l-.08,7.63-.24-7.63c-.09-2.54-.09-5.08-.32-7.61-.37-5.07-.64-10.14-1.31-15.18a298.48,298.48,0,0,0-4.85-30l-1.65-7.45-1.92-7.36c-1.35-4.88-2.79-9.75-4.37-14.55A210.69,210.69,0,0,0,178,186.09h0V186l-1.68-3.84-.82-1.92-.42-.93-.48-.93-1.86-3.72c-.32-.61-.61-1.25-.93-1.86l-1-1.81-2.19-3.69-2.32-3.49c-.39-.57-.76-1.16-1.16-1.73l-1.25-1.68c-.85-1.11-1.64-2.25-2.52-3.33A106.83,106.83,0,0,0,150,144.89c-1-.93-2.07-1.86-3.15-2.73s-2.17-1.74-3.27-2.59a61.18,61.18,0,0,0-6.87-4.52h-.1c-9.68-6.3-17.3-15.29-22.81-25.24a92.43,92.43,0,0,1-6.84-15.71c-.42-1.35-.85-2.71-1.21-4.1l-.13-.55a4.78,4.78,0,0,1-.12-.57l-.11-1L105,85.73c-.35-2.79-.54-5.67-.61-8.51A74.23,74.23,0,0,1,106,60.27l.46-2.09.54-2c.33-1.38.8-2.73,1.22-4.08a74.59,74.59,0,0,1,3.21-7.87,75.36,75.36,0,0,1,8.94-14.37A65.88,65.88,0,0,1,132.32,17.94Z"/><path class="cls-4" d="M60.44,293.36a73.38,73.38,0,0,1-1.94-21.14,104.18,104.18,0,0,1,3.12-21.08c.45-1.72,1-3.43,1.49-5.14.26-.84.5-1.71.78-2.55l.93-2.51c.64-1.66,1.22-3.35,1.87-5l2.24-4.86,1.12-2.43,1.3-2.34,2.58-4.66a25.15,25.15,0,0,1,1.4-2.27l1.45-2.26,2.91-4.49h0l.08-.08a91.89,91.89,0,0,0,12-17.3,45.58,45.58,0,0,0,3.81-9.62c.15-.83.41-1.65.51-2.49l.29-2.57c.15-1.72.25-3.47.26-5.2a40.12,40.12,0,0,0-.25-5.14,12.31,12.31,0,0,0-1.19-4.49,1.86,1.86,0,0,0-1.07-.93,2.57,2.57,0,0,0-1.52.2c-.56.27-1.47.77-2.25,1.16l-2.42,1.22a106.61,106.61,0,0,1-10,4.21,46.61,46.61,0,0,1-5.33,1.58,13.33,13.33,0,0,1-1.4.28,14.06,14.06,0,0,1-1.45.21c-.51,0-1,.06-1.53.07a11.81,11.81,0,0,1-1.64-.16h.39a10.51,10.51,0,0,1-2.09-.21,10.75,10.75,0,0,1-1.92-.54,11.33,11.33,0,0,1-3.51-2.08,12,12,0,0,1-3.59-7.07l-.18-1.91a14.81,14.81,0,0,0-.93-4.42,5.57,5.57,0,0,0-3.47-3.58l.34.06a6.53,6.53,0,0,1-1.09-.18,8.78,8.78,0,0,1-1-.29,7.8,7.8,0,0,1-1.92-1,6.05,6.05,0,0,1-1.6-1.67,6.32,6.32,0,0,1-.88-2.17v-.34a3.08,3.08,0,0,0-.07-.61,3.83,3.83,0,0,0-.16-.58,1.35,1.35,0,0,0-.19-.33l-.06-.06.31.11a4.1,4.1,0,0,1-.59-.2l-.49-.21a6.16,6.16,0,0,1-.94-.59,4.89,4.89,0,0,1-1.44-1.78,5,5,0,0,1-.49-2.16,9.28,9.28,0,0,1,.07-1.06l.1-.65a12.23,12.23,0,0,0,0-2.42,3.1,3.1,0,0,0-.2-.85c-.09-.18-.06-.06.12,0h.14a30.35,30.35,0,0,0-4.25-.57,31,31,0,0,0-4.31,0c-.71.06-1.41.14-2.1.26-.35.06-.68.14-1,.21l-.65.14a4.59,4.59,0,0,1-.82.1,5,5,0,0,1-1.8-.22,3.78,3.78,0,0,1-1.86-1.26,4.34,4.34,0,0,1-.54-.93,5.09,5.09,0,0,1-.24-.93,8.12,8.12,0,0,1-.07-.85v-.88l.06-.21c1.16-4.23,2.14-8.61,2.91-13a93.29,93.29,0,0,0,1.59-13.11,45.09,45.09,0,0,0-.21-6.47,18,18,0,0,0-1.54-5.93l-.32-.62L25.64,92l-.51-.75-.48-.77A34.18,34.18,0,0,1,23,87.33a42.58,42.58,0,0,1-2.44-6.58,47.41,47.41,0,0,1-1.75-13.82A53.2,53.2,0,0,1,21,53.21a62.25,62.25,0,0,1,5.47-12.66A82.82,82.82,0,0,1,34.26,29.2l.27-.34.34-.36.61-.61c.4-.41.82-.8,1.24-1.2.83-.78,1.67-1.54,2.53-2.3,1.72-1.5,3.5-2.92,5.31-4.31A101.15,101.15,0,0,1,56,12.64a76.18,76.18,0,0,1,25.6-9.12,62.62,62.62,0,0,1,13.61-.59,63.94,63.94,0,0,1,13.37,2.42,73,73,0,0,1,23.76,12.59l-2.79-1.86c-.93-.6-1.86-1.29-2.79-1.86-1.95-1.09-3.84-2.31-5.9-3.22-1-.48-2-1-3-1.46l-3.17-1.23c-.53-.2-1-.44-1.57-.61l-1.6-.5c-1.07-.32-2.12-.72-3.2-.93a63.11,63.11,0,0,0-13.17-2,61.18,61.18,0,0,0-13.24,1A76,76,0,0,0,57.1,14.6a97.42,97.42,0,0,0-11,7.45c-1.74,1.37-3.45,2.79-5.09,4.28-.82.74-1.63,1.5-2.42,2.27l-1.16,1.21-.57.59-.24.25-.25.33A70.37,70.37,0,0,0,24.09,54.1,48.87,48.87,0,0,0,22.15,67,43.73,43.73,0,0,0,23.88,79.8a39.21,39.21,0,0,0,2.3,6,26.8,26.8,0,0,0,1.51,2.79l.4.65.45.64.55.81.47.85a21.25,21.25,0,0,1,1.93,7.07,48.28,48.28,0,0,1,.25,7,97.75,97.75,0,0,1-1.5,13.65c-.79,4.49-1.75,8.9-3,13.35l.06-.33a1.76,1.76,0,0,0,.07.88h0a1.77,1.77,0,0,0,.46,0h.32l.47-.11c.41-.09.82-.2,1.23-.26.81-.14,1.63-.25,2.46-.31a30.21,30.21,0,0,1,4.85,0,34.15,34.15,0,0,1,4.84.67h.14a5.28,5.28,0,0,1,.76.36,4.31,4.31,0,0,1,.62.51,2.67,2.67,0,0,1,.43.57,2.05,2.05,0,0,1,.31.56,6.29,6.29,0,0,1,.5,2,14.36,14.36,0,0,1-.07,3.34l-.11.79a2.81,2.81,0,0,0,0,.41,1.41,1.41,0,0,0,.13.64,1.09,1.09,0,0,0,.38.47,1.32,1.32,0,0,0,.32.2l.17.09s.15,0,.1,0l.31.1a4,4,0,0,1,1.43,1.09,5,5,0,0,1,.75,1.3,5.93,5.93,0,0,1,.38,1.37,7.83,7.83,0,0,1,.14,1.28v-.35a2.83,2.83,0,0,0,.35.93,2.79,2.79,0,0,0,.67.7,4.9,4.9,0,0,0,1,.52,5.72,5.72,0,0,0,.59.17,4.94,4.94,0,0,0,.53.1h.35A8.14,8.14,0,0,1,56,152.58a11,11,0,0,1,2.15,3.47,17,17,0,0,1,1,3.72,16.52,16.52,0,0,1,.2,1.86l.14,1.51a8.27,8.27,0,0,0,2.43,5,7.73,7.73,0,0,0,2.35,1.42,8,8,0,0,0,1.37.39,7.45,7.45,0,0,0,1.33.17h.39a6.64,6.64,0,0,1,1,.1l1.16-.06a9.45,9.45,0,0,0,1.19-.16,8.46,8.46,0,0,0,1.22-.23,40.26,40.26,0,0,0,4.93-1.43,99,99,0,0,0,9.68-4.07l2.38-1.16c.82-.4,1.46-.78,2.53-1.25a5.6,5.6,0,0,1,3.72-.28,5.09,5.09,0,0,1,2.8,2.52A10.83,10.83,0,0,1,99,167a20.85,20.85,0,0,1,.51,2.84,40,40,0,0,1,.2,5.58,49.58,49.58,0,0,1-.38,5.47L99,183.58a26.83,26.83,0,0,1-.62,2.75,48.07,48.07,0,0,1-4.2,10.11A94.18,94.18,0,0,1,81.53,214l.1-.11-2.94,4.37-1.48,2.18a24.61,24.61,0,0,0-1.41,2.23l-2.62,4.55-1.33,2.31-1.15,2.36-2.3,4.75c-.71,1.6-1.33,3.25-2,4.87l-1,2.44c-.3.82-.56,1.67-.84,2.5-.54,1.67-1.12,3.33-1.63,5a102.38,102.38,0,0,0-3.72,20.77A76.15,76.15,0,0,0,60.44,293.36Z"/><path class="cls-5" d="M132.32,17.94A84.62,84.62,0,0,1,172.86,2.52a92.36,92.36,0,0,1,22,.29c1.86.22,3.65.52,5.45.84a28.88,28.88,0,0,1,5.46,1.65,48.19,48.19,0,0,1,9.73,5.58A51.94,51.94,0,0,1,230,27.81a51.91,51.91,0,0,1,4.37,10.34,24.13,24.13,0,0,0,.77,2.46,19.41,19.41,0,0,0,1.08,2.31,33.83,33.83,0,0,0,2.74,4.41,37.79,37.79,0,0,0,7.28,7.45c.7.54,1.37,1,2.15,1.59L250.51,58c1.44,1.08,2.89,2.13,4.37,3.16s3,2,4.5,3A28.36,28.36,0,0,1,261.72,66a9.43,9.43,0,0,1,2.19,2.52,5.89,5.89,0,0,1,.73,3.72,8.1,8.1,0,0,1-.45,1.69,7,7,0,0,1-.77,1.58,9.17,9.17,0,0,1-2.33,2.44,11,11,0,0,1-2.85,1.53l-.11.05H258a11,11,0,0,0-1.51.45,8.34,8.34,0,0,0-1.35.64,2.16,2.16,0,0,0-.77.67.44.44,0,0,0-.08.35l.06.39v.08a1.42,1.42,0,0,0,0,.2,3.75,3.75,0,0,0,.16.43,3.54,3.54,0,0,0,1.28,1.48l.32.24.38.31c.22.2.43.4.63.62a10,10,0,0,1,2,3,7.08,7.08,0,0,1,.48,3.88v.14c0,.16-.08.41-.11.63s-.06.42-.07.62a4.69,4.69,0,0,0,0,.53c0,.13,0,.23,0,.19l-.17-.31a8.4,8.4,0,0,1,.51.93,7.32,7.32,0,0,1,.33.93,8,8,0,0,1,.37,1.86,8.57,8.57,0,0,1-.56,3.72l-.1.26-.1.11a3,3,0,0,0-.15.31,3,3,0,0,0-.18.41,4.35,4.35,0,0,0-.22.86,3.6,3.6,0,0,0,.1,1.63,3.43,3.43,0,0,0,.36.78l.62,1.12,1.17,2.26c.76,1.52,1.49,3,2.16,4.65a20,20,0,0,1,1.55,5.34v.14a6.18,6.18,0,0,1-.09,1,5.06,5.06,0,0,1-.17.93,13.69,13.69,0,0,1-.53,1.76,14.37,14.37,0,0,1-1.7,3.22,14.7,14.7,0,0,1-2.43,2.67,15.44,15.44,0,0,1-1.42,1.11,16.73,16.73,0,0,1-1.49.93l-.1.07-.2.06a76.36,76.36,0,0,0-15.29,7.5,35,35,0,0,0-6.42,5.29,13.72,13.72,0,0,0-3.72,6.75,19.66,19.66,0,0,0-.21,2l-.15,2.16c-.08,1.44-.13,2.87-.17,4.31-.06,2.89,0,5.77.12,8.63a57.47,57.47,0,0,0,1,8.47,21,21,0,0,0,2.84,7.63l-.21-.23c5.5,5,10.73,10.14,15.81,15.45s10.08,10.78,14.73,16.51a160.39,160.39,0,0,1,12.93,17.95,72.53,72.53,0,0,1,5.1,9.82,35.42,35.42,0,0,1,2.79,10.66A35.08,35.08,0,0,0,283,243.6a78,78,0,0,0-5.41-9.54,158.76,158.76,0,0,0-13.42-17.36q-7.26-8.26-15.07-16c-5.21-5.14-10.57-10.17-16-15l-.12-.11-.1-.13a23.9,23.9,0,0,1-3.43-8.6,61.82,61.82,0,0,1-1.25-8.88c-.21-3-.3-5.93-.27-8.88,0-1.48.07-3,.13-4.43l.14-2.22a18,18,0,0,1,.22-2.32,16.87,16.87,0,0,1,4.44-8.49,37.5,37.5,0,0,1,7-5.9,75.88,75.88,0,0,1,16-8l-.3.14c.4-.27.82-.5,1.2-.77a12.39,12.39,0,0,0,3-2.9A10.26,10.26,0,0,0,261,121.8a9.59,9.59,0,0,0,.39-1.29,4.9,4.9,0,0,1,.11-.65c0-.21.05-.45.06-.53v.13a17.05,17.05,0,0,0-1.3-4.2c-.62-1.48-1.32-3-2.06-4.4-.36-.73-.75-1.45-1.14-2.17l-.58-1.06a6.84,6.84,0,0,1-.66-1.49,7.37,7.37,0,0,1-.25-3.3,8.21,8.21,0,0,1,.4-1.55c.1-.26.19-.51.31-.75a7.37,7.37,0,0,1,.43-.78l-.19.36a4.67,4.67,0,0,0,.11-3.13c-.06-.17-.12-.34-.19-.5s-.19-.35-.19-.36l-.16-.31a4,4,0,0,1-.33-1.36,9.55,9.55,0,0,1,0-1.07,11.63,11.63,0,0,1,.3-1.86v.14a3.38,3.38,0,0,0-.24-1.86,6.07,6.07,0,0,0-1.25-1.87c-.13-.14-.27-.27-.41-.4a4.94,4.94,0,0,0-.45-.35,7.37,7.37,0,0,1-1.39-1.28,6.58,6.58,0,0,1-1-1.67,6.12,6.12,0,0,1-.35-.93,2.42,2.42,0,0,0-.12-.5c0-.22-.06-.43-.07-.65l.05.39a4.14,4.14,0,0,1,.55-3.2,6.24,6.24,0,0,1,1.94-1.82,13,13,0,0,1,2-.93,16,16,0,0,1,2-.59l-.26.07a6.81,6.81,0,0,0,3.37-2.51,3.84,3.84,0,0,0,.43-.86,4.13,4.13,0,0,0,.26-.93,2.3,2.3,0,0,0-.28-1.5,11.67,11.67,0,0,0-3.42-3.07c-1.46-1-3-2-4.52-3.07s-3-2.16-4.45-3.3l-2.12-1.67c-.71-.5-1.49-1.09-2.22-1.67a41.69,41.69,0,0,1-7.84-8.19,37.3,37.3,0,0,1-3-4.88,23.16,23.16,0,0,1-1.19-2.64,27.13,27.13,0,0,1-.84-2.79,50.79,50.79,0,0,0-4.06-9.79A49,49,0,0,0,213.84,13a46.24,46.24,0,0,0-9.06-5.42,26.26,26.26,0,0,0-4.94-1.64c-1.76-.35-3.53-.69-5.31-.93A96.27,96.27,0,0,0,173,4.15,86.07,86.07,0,0,0,132.32,17.94Z"/></g></g></svg>