<svg id="Capa_1" data-name="Capa 1" xmlns="http://www.w3.org/2000/svg" xmlns:xlink="http://www.w3.org/1999/xlink" viewBox="0 0 305 305"><defs><style>.cls-1{fill:none;}.cls-2{fill:url(#Degradado_sin_nombre_14);}.cls-3{fill:url(#Degradado_sin_nombre_14-2);}.cls-4{fill:url(#Degradado_sin_nombre_12);}.cls-5{fill:url(#Degradado_sin_nombre_12-2);}.cls-6{fill:url(#Degradado_sin_nombre_12-3);}.cls-7{fill:url(#Degradado_sin_nombre_12-4);}.cls-8{fill:url(#Degradado_sin_nombre_12-5);}.cls-9{fill:url(#Degradado_sin_nombre_12-6);}.cls-10{fill:url(#Degradado_sin_nombre_12-7);}.cls-11{fill:url(#Degradado_sin_nombre_12-8);}.cls-12{fill:url(#Degradado_sin_nombre_12-9);}.cls-13{fill:url(#Degradado_sin_nombre_12-10);}.cls-14{fill:url(#Degradado_sin_nombre_14-3);}.cls-15{fill:url(#Degradado_sin_nombre_14-4);}.cls-16{fill:url(#Degradado_sin_nombre_15);}</style><linearGradient id="Degradado_sin_nombre_14" x1="167.91" y1="198.03" x2="167.91" y2="178.51" gradientTransform="matrix(1, 0, 0, -1, 0, 305)" gradientUnits="userSpaceOnUse"><stop offset="0" stop-color="#fd9a83"/><stop offset="0.51" stop-color="#fccf6b"/><stop offset="1" stop-color="#282559"/></linearGradient><linearGradient id="Degradado_sin_nombre_14-2" x1="188.4" y1="290.32" x2="188.4" y2="286.56" xlink:href="#Degradado_sin_nombre_14"/><linearGradient id="Degradado_sin_nombre_12" x1="22.3" y1="203.08" x2="36.31" y2="203.08" gradientTransform="matrix(1, 0, 0, -1, 0, 305)" gradientUnits="userSpaceOnUse"><stop offset="0" stop-color="#fd9a83"/><stop offset="0.31" stop-color="#f8bdc3"/><stop offset="0.51" stop-color="#fccf6b"/><stop offset="1" stop-color="#282559"/></linearGradient><linearGradient id="Degradado_sin_nombre_12-2" x1="14.2" y1="162.79" x2="25" y2="162.79" xlink:href="#Degradado_sin_nombre_12"/><linearGradient id="Degradado_sin_nombre_12-3" x1="22.3" y1="181.64" x2="34.01" y2="181.64" xlink:href="#Degradado_sin_nombre_12"/><linearGradient id="Degradado_sin_nombre_12-4" x1="42.66" y1="199.07" x2="58.01" y2="199.07" xlink:href="#Degradado_sin_nombre_12"/><linearGradient id="Degradado_sin_nombre_12-5" x1="2.89" y1="145.96" x2="155.73" y2="145.96" xlink:href="#Degradado_sin_nombre_12"/><linearGradient id="Degradado_sin_nombre_12-6" x1="48.8" y1="151.43" x2="91.35" y2="151.43" xlink:href="#Degradado_sin_nombre_12"/><linearGradient id="Degradado_sin_nombre_12-7" x1="49.61" y1="159.81" x2="93.65" y2="159.81" xlink:href="#Degradado_sin_nombre_12"/><linearGradient id="Degradado_sin_nombre_12-8" x1="105.51" y1="112.06" x2="120.19" y2="112.06" xlink:href="#Degradado_sin_nombre_12"/><linearGradient id="Degradado_sin_nombre_12-9" x1="103.31" y1="133.49" x2="135.38" y2="133.49" xlink:href="#Degradado_sin_nombre_12"/><linearGradient id="Degradado_sin_nombre_12-10" x1="82.91" y1="106.93" x2="149.59" y2="106.93" xlink:href="#Degradado_sin_nombre_12"/><linearGradient id="Degradado_sin_nombre_14-3" x1="139.51" y1="303" x2="139.51" y2="0.01" xlink:href="#Degradado_sin_nombre_14"/><linearGradient id="Degradado_sin_nombre_14-4" x1="169.83" y1="303" x2="169.83" y2="0.01" xlink:href="#Degradado_sin_nombre_14"/><linearGradient id="Degradado_sin_nombre_15" x1="250.08" y1="161.14" x2="225.53" y2="21.9" gradientTransform="matrix(1, 0, 0, -1, 0, 305)" gradientUnits="userSpaceOnUse"><stop offset="0" stop-color="#fd9a83"/><stop offset="0.05" stop-color="#fe857f"/><stop offset="0.11" stop-color="#fe737c"/><stop offset="0.17" stop-color="#ff697a"/><stop offset="0.25" stop-color="#ff6679"/><stop offset="0.66" stop-color="#fccf6b"/><stop offset="1" stop-color="#282559"/></linearGradient></defs><g id="Capa_2" data-name="Capa 2"><g id="Capa_2-2" data-name="Capa 2-2"><path class="cls-1" d="M156.27,81.41c9.36,2.15,18.8,4,28.27,5.58q7.52,1.28,15.07,2.41l-49.05-9.35Q153.41,80.76,156.27,81.41Z"/><path class="cls-1" d="M94.16,212.92l.49.43-.49-.43-7.67,38.13v.15a42.89,42.89,0,0,0-1.37,5.61,45,45,0,0,0-.64,5.79A34.19,34.19,0,0,0,85.71,274a23.86,23.86,0,0,0,2.22,5.26,22.78,22.78,0,0,0,3.34,4.58,28.28,28.28,0,0,0,9.27,6.44L149,300.79l6.07,1.31a33.43,33.43,0,0,0,6,.78,35.5,35.5,0,0,0,12-1.36,25.14,25.14,0,0,0,10.23-5.94,25.66,25.66,0,0,0,3.72-4.65,31.8,31.8,0,0,0,2.61-5.34l8.07-39.81,8.14-39.87L213.94,166l8.23-39.73a46.61,46.61,0,0,1-5.07-7.53,32.54,32.54,0,0,1-1.89-4.22c-.29-.72-.49-1.46-.72-2.19a15.5,15.5,0,0,1-.48-2.27,20,20,0,0,1,.49-9.16,18.48,18.48,0,0,1,1.9-4.2,16.2,16.2,0,0,1,1.9-2.6c-1.82-.22-3.64-.43-5.46-.66-9.57-1.22-19.11-2.61-28.62-4.26s-19-3.5-28.38-5.69c-7.51-1.78-15-3.79-22.29-6.2a26,26,0,0,1-.3,8,24.13,24.13,0,0,1-3.67,8.65,30.23,30.23,0,0,1-6.35,6.86,35.91,35.91,0,0,1-7.59,4.74l-7.16,36.11-3.57,17.85,2-.45-2,.45-3.73,18.64Zm35.6-101.24,3,1,3.06.94c1,.32,2,.68,3.06,1l3.08.88c8.23,2.32,16.57,4.18,25,5.69,4.22.67,8.42,1.46,12.66,1.9,2.13.27,4.24.59,6.36.82l6.38.64,3.2.33,3.19.21,6.41.46c4.27.27,8.53.33,12.84.6-2.14.06-4.28.12-6.43.15l-3.22.07c-1.07,0-2.15,0-3.22,0l-6.44-.19-3.22-.1-3.21-.23-6.43-.48c-2.14-.18-4.27-.47-6.41-.7-4.28-.45-8.53-1.22-12.76-1.9-4.21-.85-8.45-1.61-12.62-2.68l-3.14-.76c-1-.27-2.06-.58-3.11-.86-2.06-.57-4.14-1.14-6.19-1.82a131.22,131.22,0,0,1-23.79-9.81A101.3,101.3,0,0,0,129.76,111.68Z"/><path class="cls-1" d="M182,3.66c-2-.29-4.1-.6-6.12-.86a5.31,5.31,0,0,0-4.92,2.35,5.12,5.12,0,0,0-.61,1.27A8.59,8.59,0,0,0,170,7.85a4.52,4.52,0,0,0,.42,2.68,5.78,5.78,0,0,0,4.29,3.15l-.18,1.43h0l-1.17,7.83-1.18,7.64,6.45,1.07c2.43.39,4.85.81,7.27,1.23,4.74.79,9.39,1.66,14.07,2.49L202.88,19v-.17H203a16,16,0,0,0,2.47.35,5.45,5.45,0,0,0,2.38-.54,5.65,5.65,0,0,0,3-3.72,7.64,7.64,0,0,0,.25-2.47,5.69,5.69,0,0,0-4.74-5.12c-4.09-.63-8.16-1.3-12.26-1.9S186.06,4.22,182,3.66Zm18.36,14.78c-2-.08-4-.27-6-.5s-4-.52-6-.82-4-.66-5.94-1.07-3.94-.82-5.89-1.37c2,.09,4,.27,6,.5s4,.51,6,.82,4,.66,5.95,1.06,3.94.83,5.88,1.38Z"/><path class="cls-1" d="M234.7,66.45a10.47,10.47,0,0,0-.69-3.79,15.65,15.65,0,0,0-2-3.37A22.85,22.85,0,0,0,226,54.13h-.05L213,45.22l-6.46-4.43-6.27-4.35c-4.88-.7-9.75-1.34-14.62-2.07-2.43-.37-4.87-.71-7.3-1.1l-7.3-1.14-.84-.13.09-.56-10.88,1.84-11.75,1.89-5.87.95-2.91.46a11.49,11.49,0,0,0-1.41.32,12.64,12.64,0,0,0-1.36.43,19,19,0,0,0-5,2.85,21.4,21.4,0,0,0-4,4l-6.06,17a10.61,10.61,0,0,0-.68,4.13,7.48,7.48,0,0,0,1.26,3.8,12.46,12.46,0,0,0,6.87,4.52h.07c2.61.94,5.23,1.8,7.89,2.61L204.3,90.13c2.9.42,5.82.81,8.73,1.19,2.39.32,4.74.6,7.16.88a31.15,31.15,0,0,0,3.48.25,20.32,20.32,0,0,0,3.4-.25,9.45,9.45,0,0,0,5.69-2.91,7.71,7.71,0,0,0,1.5-2.79,9.43,9.43,0,0,0,.36-3.17v-.11Z"/><path class="cls-2" d="M147.79,118.58c1.05.29,2.07.59,3.11.87l3.14.75c4.17,1.08,8.41,1.83,12.62,2.69,4.25.65,8.48,1.43,12.76,1.89,2.14.23,4.27.52,6.41.7l6.43.49,3.21.22,3.22.11,6.44.18h3.22l3.22-.07c2.15,0,4.29-.08,6.43-.15-4.28-.26-8.53-.32-12.84-.6l-6.41-.46-3.19-.21-3.2-.32L186,124c-2.12-.22-4.23-.55-6.36-.82-4.24-.48-8.44-1.27-12.66-1.9-8.41-1.54-16.75-3.41-25-5.68l-3.08-.89c-1-.27-2-.63-3.06-.94l-3.06-1-3-1a123.68,123.68,0,0,1-11.95-4.74,131.22,131.22,0,0,0,23.79,9.81C143.65,117.46,145.73,118,147.79,118.58Z"/><path class="cls-3" d="M182.51,15.18c-2-.23-4-.41-6-.5,2,.55,3.92,1,5.89,1.37s4,.74,5.94,1.07,4,.59,6,.82,4,.42,6,.5c-1.94-.55-3.91-.94-5.88-1.38s-4-.74-5.95-1.06S184.51,15.41,182.51,15.18Z"/><path class="cls-4" d="M25.58,99.29c1.13,1,2.27,2,3.44,3s2.35,1.9,3.56,2.84,2.45,1.81,3.73,2.64c-1-1.12-2.15-2.16-3.27-3.19s-2.28-2-3.44-3-2.35-1.9-3.57-2.84-2.44-1.82-3.73-2.64C23.35,97.22,24.46,98.26,25.58,99.29Z"/><path class="cls-5" d="M23.08,143.89l-1-3.09c-.35-1-.72-2.05-1.07-3.07v-.09h-.07c-1.09-.59-2.21-1.15-3.32-1.71s-2.23-1.12-3.36-1.65c1.06.64,2.14,1.28,3.23,1.9s2.11,1.21,3.19,1.79c.33,1,.66,2,1,3l1.08,3.07c.37,1,.75,2,1.12,3.06s.78,2,1.18,3c-.3-1.05-.61-2.09-1-3.12S23.43,144.91,23.08,143.89Z"/><path class="cls-6" d="M28.55,123.59c.94-1.71,1.89-3.42,2.84-5.16s1.81-3.49,2.62-5.28c-1.14,1.61-2.2,3.26-3.23,4.93s-2,3.36-3,5-1.9,3.42-2.85,5.16-1.81,3.49-2.62,5.28c1.15-1.6,2.2-3.26,3.23-4.93S27.53,125.28,28.55,123.59Z"/><path class="cls-7" d="M50.38,106.17c1.28-.3,2.56-.6,3.8-1l1.89-.51c.64-.18,1.27-.35,1.9-.55l-1.9.34-1.89.38c-1.29.25-2.57.54-3.85.83s-2.56.6-3.79,1-2.54.66-3.8,1c1.3-.2,2.59-.45,3.88-.72S49.1,106.46,50.38,106.17Z"/><path class="cls-8" d="M154.12,177.88v-.07l-2.64-6.95v-.12l-.07-.09-1.61-2.15-.06-.09-.08-.06c-2-1.67-4-3.29-6.06-4.9s-4.22-3.16-6.31-4.68c-1.06-.76-2.14-1.5-3.24-2.21a25.26,25.26,0,0,0-3.48-2,18.5,18.5,0,0,0-7.86-1.63h-.2L106,158.39c-3.5-3.13-7-6.22-10.58-9.32-3.68-3.26-7.39-6.47-11.1-9.69l-11.15-9.63-3.79-3.27.43-1.16h0c-.8-3.25-1.65-6.49-2.48-9.73s-1.7-6.48-2.55-9.72l-.11-.4-.42.09-.28.07-4.55-4.1-5-4.43c-1.65-1.48-3.32-2.95-5-4.41l-.62-.55-.31-.28-.35-.26a10.34,10.34,0,0,0-1.51-.95A9.1,9.1,0,0,0,45,90a8.6,8.6,0,0,0-.88-.19,5,5,0,0,0-1,0H43.1l-10.6,1.9L21.84,93.64l-.33,0L21.3,94c-2.7,3.73-5.47,7.43-8.35,11-1.43,1.81-2.84,3.6-4.35,5.39-.73.89-1.47,1.79-2.19,2.71a29.78,29.78,0,0,0-2.07,2.93A9.93,9.93,0,0,0,3,119.58a10.4,10.4,0,0,0-.13,1.85,10.89,10.89,0,0,0,.17,1.89A22,22,0,0,0,4,126.81c.37,1.12.77,2.22,1.17,3.3.83,2.17,1.67,4.33,2.59,6.48s1.9,4.25,3,6.32V143l.06.06A71.5,71.5,0,0,0,30,156.35h0l1.29-.34v.05l.11.28.28-.05c2.74-.52,5.46-1.09,8.19-1.63,2.49-.49,5-.95,7.44-1.51l8,6.41,10,7.93c3.32,2.65,6.63,5.26,10,7.89s6.64,5.21,10,7.79l-2.48,3.92L91.73,174c2.92-4.3,5.86-8.53,8.74-12.85l22.24-6.81a16.83,16.83,0,0,1,7.12,1.63,23.5,23.5,0,0,1,3.26,1.9c1.07.71,2.13,1.44,3.17,2.2,2.08,1.51,4.12,3.09,6.15,4.74s4,3.21,5.91,4.86l1.46,2,2.54,6.81a39.4,39.4,0,0,1,1.45,13.27,60.71,60.71,0,0,1-2.39,6.53,57.74,57.74,0,0,1-11.8,17.43l-3.8,3.28a42,42,0,0,1-7.09,4.09,43.55,43.55,0,0,1-7.77,2.69L110.69,227l-10.58-9.24q-5.35-4.74-10.75-9.36l-3.24-10.52-3.32-10.7,2.92,10.73,3.07,10.77v.09l.09.08q5.28,4.84,10.6,9.65l10.64,9.64.21.19h.29l10.61-1.05h.14a44.19,44.19,0,0,0,15.54-6.91h0l3.9-3.29h0a59.46,59.46,0,0,0,9-11.62,60,60,0,0,0,3.33-6.48,57,57,0,0,0,2.51-6.83v-.2A41.22,41.22,0,0,0,154.12,177.88ZM30.05,156.21c-1.69-.93-3.36-1.92-5-3s-3.22-2.16-4.74-3.35a77.35,77.35,0,0,1-8.59-7.58c-1-2.06-1.9-4.14-2.71-6.25S7.4,131.76,6.6,129.6a37,37,0,0,1-1.89-6.51,9.33,9.33,0,0,1-.11-1.9c.86.87,1.73,1.71,2.63,2.52,1.16,1.09,2.38,2.13,3.59,3.18s2.46,2,3.72,3,2.55,1.94,3.88,2.84c-1.1-1.17-2.25-2.27-3.43-3.35s-2.38-2.15-3.57-3.22-2.46-2-3.72-3c-1-.78-2-1.54-3.07-2.27a8.48,8.48,0,0,1,.15-1,8.38,8.38,0,0,1,1.13-2.93,26.05,26.05,0,0,1,2-2.73c.71-.89,1.45-1.78,2.19-2.67,1.47-1.78,2.95-3.57,4.38-5.4q4.18-5.37,8.13-10.89l10.18-2,10.52-2.1a3.75,3.75,0,0,1,.67,0,4.88,4.88,0,0,1,.75.12,7.6,7.6,0,0,1,1.46.49,9.07,9.07,0,0,1,1.36.76l.32.22.32.26.64.52c1.72,1.41,3.43,2.85,5.17,4.19l5.17,4.17,4.74,3.79c-4.1.94-8.21,1.89-12.32,2.92s-8.42,2-12.62,3.09l-.25.05-.14.23L34.73,118l-3.79,6.08q-3.78,6.09-7.48,12.18l-.17.27.12.27q1.93,4.83,3.92,9.64l4,9.56Zm9.8-2c-2.64.42-5.3.82-7.93,1.26L28.32,146q-1.74-4.68-3.63-9.43,3.72-5.93,7.42-11.86l3.79-6.08,3.61-5.86c4.12-1,8.22-2.09,12.32-3.14s8.11-2.13,12.16-3.2c.94,3.08,1.79,6.16,2.73,9.22s1.89,6.41,2.91,9.61l-.36,1.14-7.33-6.27-.08-.07h-.09a18.06,18.06,0,0,0-7.59-2,17,17,0,0,0-4,.31,15.14,15.14,0,0,0-1.89.54l-.95.34c-.31.11-.61.27-1,.41a16.59,16.59,0,0,0-3.36,2.13,18.87,18.87,0,0,0-2.74,2.84A20.63,20.63,0,0,0,38.21,128a20.09,20.09,0,0,0-1.47,3.67v-.07a14.47,14.47,0,0,0-.81,5.87,12.69,12.69,0,0,0,.53,2.94,14.28,14.28,0,0,0,1.09,2.76A21,21,0,0,0,41,147.9a25.46,25.46,0,0,0,2.2,2,21.08,21.08,0,0,0,2.3,1.71l1.9,1.51Zm60.1,6.11-.09.13-8.53,13.33-4.24,6.64-1.74,2.7q-4.8-4.16-9.65-8.25c-3.23-2.74-6.46-5.5-9.72-8.23l-9.75-8.18-9.8-8.14h-.06a23.56,23.56,0,0,1-4.08-3.51,18.88,18.88,0,0,1-3.08-4.39,12.81,12.81,0,0,1-1-2.45,11.53,11.53,0,0,1-.45-2.59V136.1a6.3,6.3,0,0,1,.13-1.3,15,15,0,0,1,.63-2.56v-.06a19.12,19.12,0,0,1,1.28-3.38,20,20,0,0,1,1.95-3,18.19,18.19,0,0,1,2.46-2.58,15.29,15.29,0,0,1,3-1.9c.27-.12.53-.27.8-.38l.85-.29a12.23,12.23,0,0,1,1.7-.48,14.49,14.49,0,0,1,3.54-.31A17,17,0,0,1,61,121.55l11.25,9.36,11.38,9.36Q89.28,145,95,149.58c3.66,3,7.3,5.91,11,8.83l-5.84,1.9Z"/><path class="cls-9" d="M70.35,153.23c-3.55-2.94-7.1-5.86-10.7-8.75S52.46,138.79,48.8,136q5.14,4.61,10.43,9.08c3.49,3,7,5.95,10.57,8.9s7.1,5.86,10.69,8.74,7.2,5.74,10.86,8.53q-5.14-4.6-10.43-9.09C77.43,159.12,73.89,156.17,70.35,153.23Z"/><path class="cls-10" d="M77.57,149l-5.49-4.35-5.53-4.26c-1.89-1.4-3.69-2.84-5.57-4.21-3.73-2.85-7.49-5.57-11.37-8.22,3.49,3.1,7.08,6.09,10.68,9,1.8,1.49,3.63,2.94,5.44,4.41l5.49,4.34,5.6,4.25c1.89,1.42,3.7,2.85,5.57,4.23,3.74,2.85,7.5,5.56,11.38,8.21-3.5-3.1-7.07-6.08-10.69-9C81.21,151.9,79.38,150.45,77.57,149Z"/><path class="cls-11" d="M112.66,192.77c-1.21,1.82-2.43,3.63-3.62,5.47l-1.79,2.81c-.58.94-1.17,1.89-1.74,2.77.65-.87,1.28-1.77,1.9-2.65l1.89-2.69c1.25-1.79,2.48-3.6,3.72-5.41s2.43-3.64,3.63-5.47,2.38-3.68,3.52-5.54c-1.3,1.75-2.56,3.55-3.79,5.35S113.9,191,112.66,192.77Z"/><path class="cls-12" d="M128.81,176.75c-2.12.46-4.22.95-6.32,1.43-1.53-1.2-3.07-2.39-4.6-3.57s-3.19-2.44-4.8-3.64-3.22-2.39-4.85-3.55c-.81-.6-1.63-1.18-2.45-1.75s-1.64-1.15-2.48-1.72c.76.66,1.53,1.31,2.3,2s1.53,1.3,2.31,1.9q2.33,1.9,4.68,3.79c1.57,1.26,3.16,2.48,4.74,3.71s3.18,2.44,4.74,3.64l.17.13.19,0c2.16-.56,4.31-1.13,6.46-1.73,1.07-.3,2.16-.6,3.23-.94s2.14-.62,3.2-.95c-1.1.2-2.19.42-3.29.64Z"/><path class="cls-13" d="M93.55,198.11c1.83,1.78,3.68,3.55,5.55,5.29s3.62,3.3,5.49,4.9h0l-.1.17.09.16c1.37,2.39,2.72,4.79,4.12,7.16s2.75,4.74,4.17,7.13c-1.26-2.45-2.56-4.88-3.84-7.31s-2.54-4.74-3.79-7.11c1.56-2.19,3.14-4.38,4.68-6.59l4.74-6.78c1.58-2.25,3.17-4.5,4.74-6.79l4.61-6.7c2.11-.67,4.22-1.32,6.32-2l6.42-2.1q3.24-1.05,6.43-2.13c2.13-.73,4.27-1.44,6.41-2.18-2.18.6-4.35,1.24-6.51,1.89s-4.33,1.27-6.49,1.9l-6.48,1.89c-2.16.65-4.32,1.33-6.47,2h-.13l-.08.11-4.73,6.77c-1.6,2.25-3.15,4.53-4.74,6.8l-4.74,6.82c-1.57,2.24-3.09,4.51-4.62,6.77-1.64-1.83-3.32-3.62-5-5.37s-3.6-3.64-5.42-5.43-3.68-3.56-5.56-5.29-3.79-3.44-5.69-5.1c1.71,1.9,3.45,3.79,5.24,5.61S91.72,196.31,93.55,198.11Z"/><path class="cls-1" d="M156.27,81.41c9.36,2.15,18.8,4,28.27,5.58q7.52,1.28,15.07,2.41l-49.05-9.35Q153.41,80.76,156.27,81.41Z"/><path class="cls-1" d="M234.7,66.45a10.47,10.47,0,0,0-.69-3.79,15.65,15.65,0,0,0-2-3.37A22.85,22.85,0,0,0,226,54.13h-.05L213,45.22l-6.46-4.43-6.27-4.35c-4.88-.7-9.75-1.34-14.62-2.07-2.43-.37-4.87-.71-7.3-1.1l-7.3-1.14-.84-.13.09-.56-10.88,1.84-11.75,1.89-5.87.95-2.91.46a11.49,11.49,0,0,0-1.41.32,12.64,12.64,0,0,0-1.36.43,19,19,0,0,0-5,2.85,21.4,21.4,0,0,0-4,4l-6.06,17a10.61,10.61,0,0,0-.68,4.13,7.48,7.48,0,0,0,1.26,3.8,12.46,12.46,0,0,0,6.87,4.52h.07c2.61.94,5.23,1.8,7.89,2.61L204.3,90.13c2.9.42,5.82.81,8.73,1.19,2.39.32,4.74.6,7.16.88a31.15,31.15,0,0,0,3.48.25,20.32,20.32,0,0,0,3.4-.25,9.45,9.45,0,0,0,5.69-2.91,7.71,7.71,0,0,0,1.5-2.79,9.43,9.43,0,0,0,.36-3.17v-.11Z"/><path class="cls-1" d="M182,3.66c-2-.29-4.1-.6-6.12-.86a5.31,5.31,0,0,0-4.92,2.35,5.12,5.12,0,0,0-.61,1.27A8.59,8.59,0,0,0,170,7.85a4.52,4.52,0,0,0,.42,2.68,5.78,5.78,0,0,0,4.29,3.15l-.18,1.43h0l-1.17,7.83-1.18,7.64,6.45,1.07c2.43.39,4.85.81,7.27,1.23,4.74.79,9.39,1.66,14.07,2.49L202.88,19v-.17H203a16,16,0,0,0,2.47.35,5.45,5.45,0,0,0,2.38-.54,5.65,5.65,0,0,0,3-3.72,7.64,7.64,0,0,0,.25-2.47,5.69,5.69,0,0,0-4.74-5.12c-4.09-.63-8.16-1.3-12.26-1.9S186.06,4.22,182,3.66Z"/><path class="cls-14" d="M189.61,285.58a31.8,31.8,0,0,1-2.61,5.34,26.53,26.53,0,0,1-3.72,4.66A25.09,25.09,0,0,1,173,301.51a35.41,35.41,0,0,1-11.94,1.36,33.31,33.31,0,0,1-6-.78l-6.08-1.31L100.52,290.3a28.17,28.17,0,0,1-9.27-6.44,22.45,22.45,0,0,1-3.35-4.58A24.38,24.38,0,0,1,85.71,274,34.22,34.22,0,0,1,84.4,262.6a45,45,0,0,1,.65-5.79,41.31,41.31,0,0,1,1.36-5.61v-.15l7.67-38.13-1.8-1.51L84.4,250.57a47,47,0,0,0-2.12,11.93,36.28,36.28,0,0,0,1.33,12.17A26.5,26.5,0,0,0,86,280.35a25.14,25.14,0,0,0,3.62,5,25.56,25.56,0,0,0,4.73,4,33.8,33.8,0,0,0,5.4,3l.09.05H100l48.61,10.37,6.08,1.3a36.42,36.42,0,0,0,6.33.8,37.45,37.45,0,0,0,12.63-1.48,27,27,0,0,0,11-6.44,28.21,28.21,0,0,0,4-5.05,34,34,0,0,0,2.8-5.76v-.14l5.35-27-1.48-2Z"/><path class="cls-15" d="M236.62,83.16V74.83l-.12-8.38a12.18,12.18,0,0,0-.89-4.41,16.64,16.64,0,0,0-2.29-3.79,23.21,23.21,0,0,0-3.06-3,25.5,25.5,0,0,0-3.5-2.44l-13-8.58-6.53-4.33-6.28-4.1,2.32-16.57a15.47,15.47,0,0,0,2.35.24,5.58,5.58,0,0,0,2.46-.63,5.71,5.71,0,0,0,3-3.86,8.2,8.2,0,0,0,.22-2.52,5.68,5.68,0,0,0-4.81-5.1,5.67,5.67,0,0,1,4.74,5.11A7.4,7.4,0,0,1,211,14.9a5.64,5.64,0,0,1-3,3.71,5.5,5.5,0,0,1-2.38.55,15.8,15.8,0,0,1-2.47-.35h-.16V19L200,35.4c-4.68-.83-9.36-1.7-14.06-2.49-2.43-.42-4.85-.85-7.28-1.24l-6.45-1.06L173.39,23l1.16-7.82h0l.18-1.44a5.77,5.77,0,0,1-4.27-3.17A4.54,4.54,0,0,1,170,7.84a8.79,8.79,0,0,1,.27-1.43,5.12,5.12,0,0,1,.61-1.27,5.32,5.32,0,0,1,4.92-2.34c2,.26,4.09.57,6.12.86q6.15.82,12.27,1.76c4.09.59,8.17,1.26,12.25,1.9-4.07-.69-8.16-1.32-12.22-2S186.12,3.89,182,3.14C180,2.78,178,2.4,175.91,2.05a6.09,6.09,0,0,0-3.24.46,6.22,6.22,0,0,0-2.57,2.08,5.77,5.77,0,0,0-.79,1.49,8.84,8.84,0,0,0-.37,1.6,5.82,5.82,0,0,0,.41,3.37,7.07,7.07,0,0,0,3.79,3.64l-1.37,8-1.38,8.47,0,.25-10.9,1.4-11.8,1.57-5.9.77-3,.39a13.27,13.27,0,0,0-1.5.3,13.06,13.06,0,0,0-1.48.42,19.25,19.25,0,0,0-5.37,2.85A22.48,22.48,0,0,0,126,43.39v.15l-6.4,17a12.58,12.58,0,0,0-.84,4.74A9.13,9.13,0,0,0,120.27,70a11.55,11.55,0,0,0,3.5,3.39,16.55,16.55,0,0,0,2.1,1.17,16.9,16.9,0,0,0,2.19.81c1.42.52,2.84,1,4.27,1.51a25,25,0,0,1-.28,8.14,22.71,22.71,0,0,1-3.49,8.15,28.58,28.58,0,0,1-6.11,6.5,33.92,33.92,0,0,1-7.66,4.61l-.38.16-.08.38-7.53,36.44L103,159.93l2-.47,3.56-17.84,7.17-36.12a35.69,35.69,0,0,0,7.58-4.74,30,30,0,0,0,6.35-6.86,24.18,24.18,0,0,0,3.62-8.65,26,26,0,0,0,.29-8c7.33,2.42,14.79,4.41,22.3,6.19,9.4,2.19,18.87,4,28.38,5.69s19.05,3,28.62,4.26c1.81.23,3.63.44,5.45.66a17.78,17.78,0,0,0-1.89,2.6,18.13,18.13,0,0,0-1.9,4.21,20,20,0,0,0-.49,9.15c.1.77.31,1.51.48,2.27a15.25,15.25,0,0,0,.71,2.2,32.59,32.59,0,0,0,1.9,4.22,47.14,47.14,0,0,0,5.1,7.52L214,166l-3.95,19.35,1.34-.27,3.7-18.87,7.67-39.92v-.13l-.09-.11a47.4,47.4,0,0,1-5.23-7.49,34.29,34.29,0,0,1-1.9-4.13c-.29-.71-.49-1.44-.73-2.17a15.51,15.51,0,0,1-.51-2.22,19.78,19.78,0,0,1,.33-9,18.55,18.55,0,0,1,1.78-4.21,17.16,17.16,0,0,1,1.85-2.64l1.7.2a33,33,0,0,0,3.72.24,21.87,21.87,0,0,0,3.79-.32,14.18,14.18,0,0,0,3.7-1.2,9.55,9.55,0,0,0,5-6,11.79,11.79,0,0,0,.38-2A11.31,11.31,0,0,0,236.62,83.16ZM184.54,87c-9.48-1.62-18.95-3.43-28.27-5.58-1.9-.44-3.79-.89-5.69-1.35l49,9.34q-7.56-1.11-15.09-2.37Zm50.08-3.69a9.35,9.35,0,0,1-.36,3.16,7.56,7.56,0,0,1-1.5,2.79,9.34,9.34,0,0,1-5.69,2.91,20.33,20.33,0,0,1-3.4.26,31.15,31.15,0,0,1-3.48-.25c-2.39-.29-4.74-.57-7.16-.88-2.91-.38-5.83-.78-8.73-1.2L136.53,76.2c-2.65-.81-5.28-1.67-7.88-2.61h-.08a12.47,12.47,0,0,1-6.86-4.52,7.39,7.39,0,0,1-1.26-3.79,10.81,10.81,0,0,1,.67-4.14l6.07-17a21.39,21.39,0,0,1,4-4,18.53,18.53,0,0,1,5-2.84,10.93,10.93,0,0,1,1.37-.44,9.57,9.57,0,0,1,1.41-.31l2.91-.47,5.87-.95,11.75-1.89,10.88-1.79-.09.56.84.13,7.3,1.14c2.43.39,4.87.73,7.3,1.1,4.87.73,9.74,1.37,14.61,2.07l6.28,4.35,6.45,4.43,12.85,8.9H226A23,23,0,0,1,232,59.36a15.72,15.72,0,0,1,2,3.38,10.43,10.43,0,0,1,.69,3.79l-.09,16.71v0Z"/><path class="cls-16" d="M291.61,209.73a38.4,38.4,0,0,0-4.5-14.66,28.93,28.93,0,0,0-10.9-10.89l-1.72-.94c-.58-.29-1.18-.53-1.77-.79l-.89-.39c-.3-.12-.62-.22-.95-.32l-1.84-.63a46.44,46.44,0,0,0-7.58-1.51,58,58,0,0,0-15.35.46H246a60.81,60.81,0,0,1-9.53,2.05c.88-.4,1.74-.82,2.61-1.23s1.82-.95,2.74-1.44,1.78-1,2.67-1.56a45.44,45.44,0,0,0,9.61-7.88,32.47,32.47,0,0,0,3.79-5,30.69,30.69,0,0,0,2.73-5.69,26.06,26.06,0,0,0,1.39-6.16,22.56,22.56,0,0,0,.13-3.18,17.66,17.66,0,0,0-.36-3.24l-.18-.83-.85.22A42.33,42.33,0,0,0,249.05,151a32.77,32.77,0,0,0-9.24,8.63A34.61,34.61,0,0,0,234.56,171a39.17,39.17,0,0,0-1,6.17,30.73,30.73,0,0,0-.16,3.17,13.63,13.63,0,0,0-.89-3.37,14.82,14.82,0,0,0-3.79-5.43,19.85,19.85,0,0,0-2.62-2,22.45,22.45,0,0,0-2.91-1.54,20.49,20.49,0,0,0-6.3-1.64,35.44,35.44,0,0,1,5.94,2.47,23.25,23.25,0,0,1,5.14,3.59,17.43,17.43,0,0,1,3.74,5,19,19,0,0,1,1.62,5.16c-1.07.07-2.15.11-3.24.13h-5.51c-1.86,0-3.79.08-5.62.23s-3.72.33-5.59.64a39.31,39.31,0,0,0-11,3.3,43,43,0,0,0-9.48,6.3,36.75,36.75,0,0,0-7.35,8.8,31,31,0,0,0-3.9,10.86,39.74,39.74,0,0,0,.2,11.37c.12.93.25,1.85.4,2.76l.23,1.37.27,1.38.54,2.77c.21.95.47,1.82.7,2.73.43,1.83,1.09,3.59,1.67,5.37.32.89.7,1.75,1,2.62l.53,1.31c.18.43.39.85.59,1.27a78.39,78.39,0,0,0,12.32,18.6c2.44,2.85,5,5.47,7.67,8.05l4,3.79a31.26,31.26,0,0,0,4.28,3.6A19.3,19.3,0,0,0,226.65,283a29.13,29.13,0,0,0,10.88-2,19,19,0,0,0,2.17-.94c.71-.36,1.37-.78,2.08-1.08a14.71,14.71,0,0,1,2.21-.74,22.35,22.35,0,0,1,2.3-.48,24.09,24.09,0,0,1,9.3.54h0a16.62,16.62,0,0,0,6.75.76,19.49,19.49,0,0,0,6.57-1.77l1.51-.81.38-.2.36-.24.7-.49a20.9,20.9,0,0,0,2.68-2.11,12.48,12.48,0,0,0,1.22-1.19l1.19-1.24c.72-.88,1.41-1.78,2.12-2.67h0A94.37,94.37,0,0,0,289.43,240c.89-5,1.7-10,2.17-15A73.74,73.74,0,0,0,291.61,209.73Zm-56.29-38.49a35,35,0,0,1,5.48-10.87,32.16,32.16,0,0,1,9-8,40.28,40.28,0,0,1,10.4-4.37c.09.65.15,1.34.18,2a20.88,20.88,0,0,1-.11,3,25.13,25.13,0,0,1-1.27,5.81,31.5,31.5,0,0,1-6,10.35,40.31,40.31,0,0,1-4.24,4.33,55.8,55.8,0,0,1-4.74,3.79c-.84.58-1.68,1.15-2.53,1.7s-1.74,1.07-2.63,1.6L236.23,182l-.49.26h-.3l-1.43.13q1.81-3.39,3.73-6.72c1.46-2.52,3-5,4.6-7.43a67,67,0,0,1,5.29-6.92,27.84,27.84,0,0,1,6.64-5.64,21.52,21.52,0,0,0-7.26,5c-1,1.05-2,2.17-2.95,3.31s-1.79,2.36-2.63,3.59a70,70,0,0,0-4.44,7.64,66.65,66.65,0,0,0-3.12,7.15h-.33a39.79,39.79,0,0,1,1.78-11.15Zm54.77,53.6c-.43,5-1.14,10-1.9,14.92-.44,2.45-.95,4.91-1.57,7.32s-1.37,4.83-2.17,7.2a95.93,95.93,0,0,1-6,13.77c-.67.88-1.33,1.78-2,2.65l-1.14,1.24a13.25,13.25,0,0,1-1.18,1.19,22.72,22.72,0,0,1-2.59,2.11l-.69.49-.34.23-.37.2-1.47.82a19.36,19.36,0,0,1-6.4,1.84,15.89,15.89,0,0,1-6.64-.69h0a25.17,25.17,0,0,0-9.39-.52,20,20,0,0,0-2.33.47,16,16,0,0,0-2.25.74c-.74.31-1.41.73-2.11,1.09a20.4,20.4,0,0,1-2.14.94,28.83,28.83,0,0,1-10.76,1.81,18.57,18.57,0,0,1-10.18-3.4,30,30,0,0,1-4-3.67c-1.29-1.31-2.57-2.63-3.79-4-2.53-2.65-5-5.38-7.27-8.24-.59-.7-1.14-1.43-1.69-2.16s-1.11-1.45-1.62-2.2l-1.57-2.25-1.45-2.31c-.51-.76-.94-1.57-1.38-2.35s-.95-1.58-1.3-2.39l-1.22-2.44-1.09-2.48c-.18-.42-.38-.83-.54-1.24l-.48-1.27c-.3-.86-.64-1.69-.94-2.55-.51-1.74-1.12-3.44-1.5-5.21-.21-.88-.44-1.75-.63-2.63l-.47-2.67-.24-1.33-.2-1.37-.39-2.71a37.28,37.28,0,0,1-.14-10.6,28.38,28.38,0,0,1,3.57-9.81,33.71,33.71,0,0,1,6.71-8.15,40.76,40.76,0,0,1,8.81-6c6.33-3.16,13.72-4,20.93-4.18,1.82,0,3.67,0,5.55-.05s3.79-.18,5.62-.42a63.66,63.66,0,0,0,10.9-2.38,56.11,56.11,0,0,1,14.7-.59,44.55,44.55,0,0,1,7.23,1.38l1.74.56c.29.11.58.19.87.31l.84.35c.56.25,1.13.46,1.68.73l1.62.86A27.05,27.05,0,0,1,285.62,196a37.1,37.1,0,0,1,4.43,14A72,72,0,0,1,290.09,224.84Z"/></g></g></svg>