<svg id="Capa_1" data-name="Capa 1" xmlns="http://www.w3.org/2000/svg" xmlns:xlink="http://www.w3.org/1999/xlink" viewBox="0 0 305 305"><defs><style>.cls-1{fill:url(#Degradado_sin_nombre_2);}.cls-2{fill:url(#Degradado_sin_nombre_2-2);}.cls-3{fill:url(#Degradado_sin_nombre_5);}.cls-4{fill:url(#Degradado_sin_nombre_5-2);}.cls-5{fill:url(#Degradado_sin_nombre_5-3);}</style><linearGradient id="Degradado_sin_nombre_2" x1="100.38" y1="201.47" x2="318.07" y2="201.47" gradientTransform="translate(-0.02 0.02) rotate(-0.01)" gradientUnits="userSpaceOnUse"><stop offset="0.07" stop-color="#96c"/><stop offset="0.43" stop-color="#c380cf"/><stop offset="1" stop-color="#282559"/></linearGradient><linearGradient id="Degradado_sin_nombre_2-2" x1="183.92" y1="198.24" x2="220.66" y2="198.24" gradientTransform="matrix(0.98, 0.19, 0.19, -0.98, -22.49, 361.07)" xlink:href="#Degradado_sin_nombre_2"/><linearGradient id="Degradado_sin_nombre_5" x1="152.99" y1="338.98" x2="-15.99" y2="338.98" gradientTransform="matrix(0.97, 0.26, 0.26, -0.97, -79.76, 413.76)" gradientUnits="userSpaceOnUse"><stop offset="0.07" stop-color="#96c"/><stop offset="0.43" stop-color="#c380cf"/><stop offset="0.49" stop-color="#aa71bc"/><stop offset="0.61" stop-color="#7c5699"/><stop offset="0.72" stop-color="#58417d"/><stop offset="0.83" stop-color="#3d3269"/><stop offset="0.92" stop-color="#2e285d"/><stop offset="1" stop-color="#282559"/></linearGradient><linearGradient id="Degradado_sin_nombre_5-2" x1="218.8" y1="87.91" x2="-4.58" y2="87.91" gradientTransform="translate(-0.02 0.02) rotate(-0.01)" xlink:href="#Degradado_sin_nombre_5"/><linearGradient id="Degradado_sin_nombre_5-3" x1="100.58" y1="347.87" x2="88.97" y2="347.87" xlink:href="#Degradado_sin_nombre_5"/></defs><g id="Capa_2" data-name="Capa 2"><g id="Capa_2-2" data-name="Capa 2-2"><path class="cls-1" d="M289,259.93l-1.43-1L286.1,258c-3.93-2.46-7.94-4.79-11.94-7.12s-8-4.65-12-7c-2-1.17-4-2.39-5.93-3.56l-2.94-1.85c-.5-.3-1-.62-1.49-.91s-1-.61-1.57-.85a35.49,35.49,0,0,0-6.62-2.43q-3.41-.89-6.87-1.42c-2.31-.36-4.62-.63-6.95-.84s-4.64-.34-7-.43a220.51,220.51,0,0,0-27.8.79q-6.78-.87-13.54-1.89c-4.53-.71-9.07-1.38-13.58-2.13a33.24,33.24,0,0,1-6.5-1.69,22.15,22.15,0,0,1-5.7-3.37,29.13,29.13,0,0,1-8-10.65l0-.09-.07-.07a40.93,40.93,0,0,1-7.13-12.93c-.79-2.38-1.67-4.79-2.63-7.13-.48-1.17-1-2.34-1.51-3.49l-.78-1.79-.39-.83a4.17,4.17,0,0,1-.25-.78,2.12,2.12,0,0,1,0-.71.48.48,0,0,1,.09-.21.37.37,0,0,1,.13-.12,1.39,1.39,0,0,1,.64-.1,4.59,4.59,0,0,1,.83.1c.59.12,1.18.29,1.78.44a13.68,13.68,0,0,1,1.73.61,15.78,15.78,0,0,1,1.67.76l.83.42.79.47c.54.3,1,.67,1.56,1a8.7,8.7,0,0,1,1.42,1.13,25,25,0,0,1,2.7,2.55c.41.46.82.92,1.19,1.42s.71,1,1,1.53a26.28,26.28,0,0,1,2.85,6.84v.06a5.51,5.51,0,0,0-.67.38,6.34,6.34,0,0,0-.91.71,4.13,4.13,0,0,0-1.18,2c.23-.31.46-.61.71-.89s.5-.55.77-.82c.43-.42.88-.84,1.33-1.26V202h.28a12.87,12.87,0,0,1,2.14.33,16.56,16.56,0,0,1,2.05.71,20.26,20.26,0,0,1,3.76,2.21,28.52,28.52,0,0,1,3.31,2.9,30.59,30.59,0,0,1,2.85,3.37l.07.08a20.36,20.36,0,0,0-1.25,3.25,15.88,15.88,0,0,0-.43,1.81,4.66,4.66,0,0,0,0,1.86,3.51,3.51,0,0,1,.13-.91c.06-.29.14-.58.22-.88.17-.59.35-1.17.52-1.76.31-1.1.64-2.21.89-3.33l.12-.05a14.38,14.38,0,0,1,3.28-.84,29.89,29.89,0,0,1,3.41-.23,32.76,32.76,0,0,1,3.43.12c1.14.11,2.28.2,3.41.38-1.13-.21-2.26-.36-3.4-.49a30.78,30.78,0,0,0-3.47-.16,24.89,24.89,0,0,0-3.45.14,14.23,14.23,0,0,0-3.23.71,32.56,32.56,0,0,0-2.73-3.36,29.65,29.65,0,0,0-3.3-3,20.21,20.21,0,0,0-3.84-2.36,14.84,14.84,0,0,0-2.14-.79,12.94,12.94,0,0,0-2-.38,25.59,25.59,0,0,0-2.77-6.84,18,18,0,0,0-1.05-1.63l-.24-.3,2.61.4c1.06.19,2.14.36,3.16.56s2.1.45,3.13.72a14.88,14.88,0,0,1,1.52.46,5.79,5.79,0,0,1,1.43.71h0a3.77,3.77,0,0,0-.32.78,5.79,5.79,0,0,0-.23,1,4.61,4.61,0,0,0,0,1.05,2.54,2.54,0,0,0,.31,1,13.29,13.29,0,0,1,.12-2c.07-.6.16-1.2.2-1.82h0c1.51-.07,3-.1,4.51-.13s3,0,4.52,0a45,45,0,0,1,4.49.35,14,14,0,0,1,4.17,1v.15l0,.3-.07.26v0a11.17,11.17,0,0,0-.2,1.63c0,.27,0,.55,0,.82a2.2,2.2,0,0,0,.2.83h0a4.26,4.26,0,0,1,.29,2,2.91,2.91,0,0,0,.11-1.06,5.27,5.27,0,0,0-.2-1h0a2,2,0,0,1-.13-.72,5.08,5.08,0,0,1,0-.78,13.69,13.69,0,0,1,.25-1.56h0l.11-.34.06-.3c0-.22.05-.42.08-.62,0-.42.1-.83.12-1.24,0-.82.1-1.64.11-2.46s0-1.65,0-2.47,0-1.64-.06-2.46c-.07.82-.12,1.64-.17,2.46l-.15,2.45c-.06.82-.1,1.64-.17,2.45a9.87,9.87,0,0,1-.1,1.22,3.15,3.15,0,0,1,0,.43,8.86,8.86,0,0,0-1.92-.77,18.67,18.67,0,0,0-2.22-.48,42.54,42.54,0,0,0-4.51-.47,84.44,84.44,0,0,0-9,0,6.63,6.63,0,0,0-1.42-.68c-.51-.18-1-.32-1.56-.46-1-.27-2.13-.45-3.17-.63s-2.14-.34-3.18-.46c-.89-.11-1.78-.2-2.67-.28-.31-.39-.63-.77-.95-1.15a26.84,26.84,0,0,0-2.76-2.68c-.48-.43-1-.81-1.51-1.2a14.38,14.38,0,0,0-1.6-1.07l-.83-.5-.85-.46c-.56-.32-1.17-.56-1.75-.82s-1.21-.45-1.82-.71a9.92,9.92,0,0,0-1.89-.5,6,6,0,0,0-1-.13,2.62,2.62,0,0,0-.56,0,15,15,0,0,0-5.64-6.34l-1-.6-.62-.29h.32c.87.05,1.73.15,2.58.27a19.24,19.24,0,0,1,2.51.51,6.74,6.74,0,0,1,2.14.95,3.76,3.76,0,0,0-.44.9,2.49,2.49,0,0,0-.09.82,1,1,0,0,0,.36.71,1.42,1.42,0,0,1,0-.71,6.2,6.2,0,0,1,.16-.72c.09-.27.18-.55.26-.84h0l.27-.05a22.91,22.91,0,0,1,5.42-.38,20.55,20.55,0,0,1,5.33,1c1.76.56,3.5,1.23,5.24,1.89l5.22,2a15.71,15.71,0,0,0,3.94,1c-.15.58-.29,1.17-.4,1.76s-.27,1.43-.37,2.11-.2,1.42-.25,2.13a10.21,10.21,0,0,0,0,2.14,9.3,9.3,0,0,1,.09-1.05c0-.35.1-.72.15-1.05l.32-2.1c.1-.72.21-1.43.3-2.14s.15-1.2.2-1.8a14.51,14.51,0,0,0,1.61.11h2.81l2.8,0c3.72.08,7.45.24,11.18.34-3.71-.34-7.43-.61-11.16-.86-.94-.05-1.86-.12-2.8-.15-.47,0-.94,0-1.43,0s-.93,0-1.39,0a14.38,14.38,0,0,1-5.28-1.25l-5.17-2.14c-1.73-.71-3.46-1.42-5.26-2a21.89,21.89,0,0,0-5.6-1.16,22.19,22.19,0,0,0-5.46.32,7.88,7.88,0,0,0-2.38-1A18.49,18.49,0,0,0,131,175c-.81-.12-1.61-.2-2.42-.27l-.3-.42c-.24-.34-.5-.67-.77-1-.52-.64-1.08-1.27-1.65-1.88-1.13-1.23-2.29-2.42-3.47-3.61s-2.35-2.35-3.56-3.52-2.39-2.28-3.56-3.42a2.09,2.09,0,0,1-.65-1.36.93.93,0,0,1,.25-.54,2.47,2.47,0,0,1,.63-.44l.18-.08h.08l.12,0,.46-.13c.31-.09.61-.19.92-.26l.94-.21.94-.16a17.77,17.77,0,0,1,7.5.47,19.78,19.78,0,0,1,6.69,3.47,23.4,23.4,0,0,1,2.77,2.59c.21.23.41.47.61.71l.13.18.07.08.14.17a3.12,3.12,0,0,0,.53.43l.35.2a10.26,10.26,0,0,0-.56,1.81,6.21,6.21,0,0,0-.11,2.54,17.36,17.36,0,0,1,.42-2.48c.12-.6.26-1.19.39-1.79a10.25,10.25,0,0,0,1.5.61h.13q2.55.38,5,1c.83.21,1.65.43,2.47.68s1.65.48,2.46.75,1.61.57,2.4.89,1.58.67,2.43,1a17,17,0,0,0,2.61.76c-.08.25-.17.49-.25.72-.18.52-.32,1-.45,1.57a14.44,14.44,0,0,0-.29,1.62,4.53,4.53,0,0,0,.08,1.64,4.4,4.4,0,0,1,0-.81,4.45,4.45,0,0,1,.13-.8c.1-.52.22-1,.35-1.58l.37-1.58c.06-.26.12-.52.17-.78a18.22,18.22,0,0,0,2.54.34H160a27,27,0,0,1,5.75.1,54.06,54.06,0,0,1,5.78,1c1.91.41,3.82.88,5.7,1.42s3.78,1.12,5.64,1.75l.3.11.23-.19a12.44,12.44,0,0,1,5.06-2.19,28.82,28.82,0,0,1,5.71-.59,46.08,46.08,0,0,1,5.75.33c1.84.23,3.69.5,5.51.89q2.7,3.72,5.6,7.27c-1.3-1.71-2.56-3.44-3.8-5.21s-2.46-3.52-3.62-5.33-2.3-3.62-3.3-5.51c-.51-.94-1-1.9-1.38-2.85a8.75,8.75,0,0,1-.77-3v-.38h-.22l.41-1.13c.18-.49.36-1,.57-1.47.39-1,.82-1.93,1.22-2.93a11,11,0,0,0-1.61,2.77,9.76,9.76,0,0,0-.71,2.76h-.07a16.61,16.61,0,0,1-3.79-.27,21.36,21.36,0,0,1-3.68-1,21.81,21.81,0,0,1-6.54-3.89,28.78,28.78,0,0,1-2.7-2.71,29.92,29.92,0,0,1-2.27-3.09,36,36,0,0,1-3.35-6.75,8.26,8.26,0,0,1,.22-1.48,5.87,5.87,0,0,1,.53-1.47,2.41,2.41,0,0,1,.91-1,1.92,1.92,0,0,1,1.18-.2c3.2,1.56,6.41,3,9.74,4.33,1.68.67,3.37,1.3,5.09,1.86l1.31.4c.44.13.89.24,1.33.36s.92.18,1.38.28a5.51,5.51,0,0,0,.71.08l.71.07h-.1a35.6,35.6,0,0,1,5.28,1.27,33.83,33.83,0,0,1,5,2.06,23.42,23.42,0,0,1,4.47,3,16,16,0,0,1,3.41,4,10.51,10.51,0,0,0,.72,1.32,13.44,13.44,0,0,0,.87,1.26,20.18,20.18,0,0,0,2.1,2.33,21.61,21.61,0,0,0,4.95,3.52l.67.35.72.3.71.3c.23.1.47.17.71.26l.71.25.35.12.31.12c.44.17.89.36,1.33.55,1.76.75,3.5,1.6,5.19,2.53a45.78,45.78,0,0,1,9.38,6.61A25.28,25.28,0,0,1,249,179.6a17.54,17.54,0,0,1,2.41,5v.12a14.67,14.67,0,0,0,2.81,4.16,15.53,15.53,0,0,0,4,3,16.57,16.57,0,0,0,2.28,1c.39.14.79.26,1.18.38s.71.24,1.1.35c1.42.55,2.91,1.19,4.35,1.86,5.77,2.71,11.41,5.7,17.11,8.65l16.92,9,16.87,9.13q-8.28-4.87-16.6-9.62L293.13,208q-4.17-2.35-8.39-4.66c-5.61-3.07-11.23-6.13-17-8.94-1.43-.72-2.9-1.39-4.43-2-.39-.13-.8-.3-1.17-.4s-.72-.24-1.1-.37a18,18,0,0,1-2.1-.95,13.56,13.56,0,0,1-6.09-6.49,19.14,19.14,0,0,0-2.55-5.43,27.12,27.12,0,0,0-3.93-4.56,47.38,47.38,0,0,0-9.68-6.88q-2.59-1.42-5.33-2.61c-.45-.19-.9-.39-1.37-.57l-.37-.14-.35-.13-.67-.23-.67-.25-.65-.29-.64-.27-.62-.33a20.69,20.69,0,0,1-4.57-3.24,19.32,19.32,0,0,1-1.86-2.08,12.34,12.34,0,0,1-.8-1.14,9,9,0,0,1-.66-1.17v-.05h0a17.5,17.5,0,0,0-1.71-2.38,20,20,0,0,0-2.06-2.06,25.53,25.53,0,0,0-4.8-3.16,37,37,0,0,0-10.84-3.45h-.1l-.6-.05a4.2,4.2,0,0,1-.62-.07c-.42-.09-.83-.13-1.26-.25s-.84-.2-1.26-.32l-1.27-.38c-1.67-.53-3.35-1.14-5-1.79-3.31-1.3-6.58-2.74-9.81-4.27l-.11-.05h-.09a3.84,3.84,0,0,0-1.07,0,3.24,3.24,0,0,0-1,.37,3.9,3.9,0,0,0-1.43,1.53,7.34,7.34,0,0,0-.63,1.81,10.75,10.75,0,0,0-.23,1.86v.12l0,.12a38.21,38.21,0,0,0,3.63,7,30,30,0,0,0,2.34,3.16,26.73,26.73,0,0,0,2.85,2.78,23,23,0,0,0,6.89,4,19.44,19.44,0,0,0,7.48,1.19,9.79,9.79,0,0,0,.86,2.85,27.32,27.32,0,0,0,1.49,2.9c1.06,1.89,2.24,3.69,3.45,5.46l2.14,3a48,48,0,0,0-5.44-1.22,44.94,44.94,0,0,0-5.79-.62,27.48,27.48,0,0,0-5.87.33,14.06,14.06,0,0,0-5.29,2c-1.78-.67-3.57-1.26-5.4-1.82s-3.83-1.14-5.77-1.59a59.26,59.26,0,0,0-5.92-1.09,28.75,28.75,0,0,0-6-.19,17.12,17.12,0,0,1-4.79-1.05c-.77-.3-1.57-.66-2.39-1s-1.65-.65-2.48-.94c-1.69-.56-3.35-1-5.08-1.46a51.16,51.16,0,0,0-5.12-1,7.69,7.69,0,0,1-1.54-.71,1.37,1.37,0,0,1-.24-.18h0l-.08-.11L138,164a10.22,10.22,0,0,0-.71-.78,23,23,0,0,0-3-2.74,21.09,21.09,0,0,0-7.24-3.63,18.72,18.72,0,0,0-8.09-.31l-1,.19-1,.25c-.33.08-.65.2-1,.29l-.48.16-.12,0h-.14c-.09.05-.19.08-.27.13a3,3,0,0,0-.94.72,2,2,0,0,0-.5,1.22,2.31,2.31,0,0,0,.32,1.21c.11.16.21.33.32.47l.36.42h0q1.88,1.63,3.73,3.3c1.24,1.1,2.49,2.21,3.72,3.33s2.44,2.25,3.62,3.42c.6.58,1.19,1.16,1.76,1.77.28.3.57.61.83.93l.29.36h-.17c-.88-.06-1.74-.1-2.63-.1a37.29,37.29,0,0,0-12.73-.37,23.62,23.62,0,0,0-9,3.31,12.2,12.2,0,0,0-2.57,2.12,4,4,0,0,0-.92,1.52,2.49,2.49,0,0,0,.23,1.85,4.36,4.36,0,0,0,1.17,1.29,9.82,9.82,0,0,0,1.42.87,20.29,20.29,0,0,0,3,1.2c1,.32,2,.6,3.08.82.52.12,1,.22,1.56.31s1.06.13,1.58.2l3.15.35,5.53.59a40.27,40.27,0,0,1,3.89,8l.19.53a3.66,3.66,0,0,0,.27.61c.2.34.4.71.61,1s.42.65.65,1a10.4,10.4,0,0,0,.71.93,29,29,0,0,0,3.07,3.47c.54.55,1.14,1,1.71,1.55s1.2,1,1.82,1.43a20.56,20.56,0,0,0,1.92,1.27l1,.57.5.29.52.25a30.06,30.06,0,0,0,7.47,2.58c.32.41.62.82,1,1.22a29.87,29.87,0,0,0,8.3,11.18,24.2,24.2,0,0,0,6.1,3.65,34.83,34.83,0,0,0,6.81,1.78c4.55.79,9.07,1.51,13.63,2.18S190.4,233.4,195,234h.19c4.58-.44,9.2-.71,13.81-.87s9.27-.2,13.85-.06q3.47.1,6.9.38c2.3.19,4.58.43,6.86.75a65.43,65.43,0,0,1,6.75,1.31,34.67,34.67,0,0,1,6.42,2.25c.51.24,1,.5,1.5.79s1,.58,1.48.88l3,1.8c2,1.19,4,2.37,6,3.52q6,3.48,12.12,6.82c4.05,2.25,8.11,4.48,12.08,6.85a66.32,66.32,0,0,1,11.32,8,47.32,47.32,0,0,0-5.32-4.47C290.91,261.24,290,260.56,289,259.93ZM115.65,187.75l-3.13-.48c-.51-.09-1-.14-1.54-.26l-1.53-.36a26.39,26.39,0,0,1-5.84-2.14,7.62,7.62,0,0,1-1.26-.83,3.31,3.31,0,0,1-.92-1.05,1.64,1.64,0,0,1-.13-1.21,3.34,3.34,0,0,1,.72-1.14,11.53,11.53,0,0,1,2.44-1.77,14.76,14.76,0,0,1,1.36-.71c.45-.22.94-.45,1.43-.66a23.51,23.51,0,0,1,5.94-1.65c1.09-.15,2.2-.25,3.3-.29a3,3,0,0,0-.22.48,5.85,5.85,0,0,0-.22,2.49,8.34,8.34,0,0,0,.71,2.34c.33.71.72,1.38,1,2.07l1,2c.71,1.35,1.47,2.69,2.28,4h0Zm15.53,15.68a32.2,32.2,0,0,1-2.85-3.43c-.23-.3-.44-.6-.64-.92s-.42-.62-.61-.93-.38-.64-.55-1a1.47,1.47,0,0,1-.1-.22l0-.08a.17.17,0,0,0,0-.13l-.19-.55a40.72,40.72,0,0,0-4-8.31c-.82-1.25-1.53-2.52-2.25-3.88l-1-2c-.35-.67-.72-1.36-1-2a5.49,5.49,0,0,1-.5-4,1.3,1.3,0,0,1,.71-.84h1.32a42.91,42.91,0,0,1,6.18.75h.13l.5.16.53.16.51.23,1,.43,1,.53a16,16,0,0,1,3.57,2.71c.25.27.5.54.75.83s.48.58.72.89a12.31,12.31,0,0,1,.9,1.43,2.15,2.15,0,0,0-.61.18,1.67,1.67,0,0,0-.86,1.13,3,3,0,0,0,0,1.2,6,6,0,0,0,.3,1l.4.89.77,1.71q.6,1.41,1.17,2.85a16.58,16.58,0,0,0-.62,2.08,11,11,0,0,0-.23,1.51,4.9,4.9,0,0,0,.05,1.53,14.5,14.5,0,0,1,.27-1.49l.32-1.42c.13-.6.26-1.19.37-1.79a2.6,2.6,0,0,1,.1.25c.93,2.33,1.75,4.68,2.54,7.08a40.32,40.32,0,0,0,3,7.05,43.88,43.88,0,0,0,3.16,4.93,31.38,31.38,0,0,1-14.15-8.53Z"/><path class="cls-2" d="M223.32,200.76a53.43,53.43,0,0,0-9.79,3.14c-.78.34-1.56.71-2.34,1.08s-1.5.76-2.27,1.09-1.54.66-2.32,1c-.39.16-.79.29-1.18.43s-.8.28-1.19.4a39.15,39.15,0,0,1-9.93,1.87,24.34,24.34,0,0,0,5.12,0,32.28,32.28,0,0,0,5.07-.92,35.27,35.27,0,0,0,4.9-1.65c.8-.32,1.56-.71,2.34-1.08s1.52-.72,2.3-1c1.54-.68,3.11-1.28,4.7-1.84.79-.29,1.6-.54,2.39-.81l1.22-.35c.4-.14.8-.25,1.21-.35a41.27,41.27,0,0,1,4.94-1,26.65,26.65,0,0,1,5-.27,20.42,20.42,0,0,0-5.12-.35A35.15,35.15,0,0,0,223.32,200.76Z"/><path class="cls-3" d="M155.5,129.71a8.17,8.17,0,0,0-.52-2.14,14,14,0,0,0-2.14-3.71,16.57,16.57,0,0,0-6.73-5,17,17,0,0,0-4.09-1.08,18.72,18.72,0,0,1-2-.29,17.43,17.43,0,0,1-1.89-.48,14.68,14.68,0,0,1-1.8-.72,14.22,14.22,0,0,1-1.71-.94,18.75,18.75,0,0,0-3.82-1.73c-.67-.21-1.31-.38-1.94-.59a15.07,15.07,0,0,1-1.85-.66,10.41,10.41,0,0,1-3.21-2,9.84,9.84,0,0,1-2.24-3.07,5.7,5.7,0,0,1-.5-1.77,3.94,3.94,0,0,1,.23-1.76,5.91,5.91,0,0,1,1-1.58,10.36,10.36,0,0,1,1.31-1.42,11.51,11.51,0,0,1,3.25-2.09c2.43-.82,4.91-1.5,7.41-2.08,1.26-.29,2.52-.54,3.79-.77s2.55-.53,3.81-.83c2.52-.6,5-1.27,7.52-2s5-1.43,7.45-2.2q-3.75,1-7.53,1.92c-2.51.62-5,1.22-7.55,1.75-1.27.26-2.53.51-3.8.71s-2.57.41-3.85.66a72.76,72.76,0,0,0-7.55,2h0A12.66,12.66,0,0,0,123,99.94a11.9,11.9,0,0,0-1.47,1.54,7.16,7.16,0,0,0-1.16,1.81,5,5,0,0,0-.35,2.26,6.83,6.83,0,0,0,.55,2.13,11,11,0,0,0,2.44,3.48,12,12,0,0,0,3.57,2.35,16.87,16.87,0,0,0,2,.72c.64.22,1.3.41,1.92.62a16.6,16.6,0,0,1,3.52,1.64,18.32,18.32,0,0,0,1.84,1h0a10.43,10.43,0,0,0-1.34,1,9.33,9.33,0,0,0-1.59,2,10.32,10.32,0,0,0-.58,1.15,8.71,8.71,0,0,0-.37,1.23c0,.22-.1.42-.12.64l-.07.63a3.42,3.42,0,0,0,0,.64v.64a13,13,0,0,1,.46-2.47,10.14,10.14,0,0,1,.43-1.16,11.45,11.45,0,0,1,.57-1.1,11.89,11.89,0,0,1,1.47-2,12.18,12.18,0,0,1,.89-.87l.37-.31a16.41,16.41,0,0,0,1.8.71,21,21,0,0,0,2,.54,17.85,17.85,0,0,0,2.05.33,15.2,15.2,0,0,1,9.81,5.62,12,12,0,0,1,1.88,3.3,6.57,6.57,0,0,1,.43,1.76,3,3,0,0,1,0,.84,5.38,5.38,0,0,1-.18.87,4.75,4.75,0,0,1-2,2.74,5.21,5.21,0,0,1-3.38.72h-.24a19,19,0,0,1-2,.22,13.13,13.13,0,0,1-2-.09,28.5,28.5,0,0,1-4-.82,61.29,61.29,0,0,1-7.8-2.78,55.88,55.88,0,0,0-11.53-5.07,48.51,48.51,0,0,0-6.18-1.42c-2.09-.35-4.17-.55-6.26-.76s-4.15-.37-6.23-.55-4.17-.32-6.22-.53a56.34,56.34,0,0,1-12.1-2.7h0a26.47,26.47,0,0,1-3.78-1.33,31,31,0,0,1-3.56-1.88,37.8,37.8,0,0,1-6.36-5,51.72,51.72,0,0,1-5.41-6,56.67,56.67,0,0,1-4.49-6.8,54.83,54.83,0,0,0,4.28,7q1.47,2.05,3.14,4c-6.87-1.3-13.82-2.2-20.79-2.85-3.56-.34-7.13-.57-10.65-.75s-7.12-.25-10.69-.26-7.13.13-10.69.38c-1.77.13-3.56.3-5.33.5s-3.57.45-5.3.72a62.82,62.82,0,0,0-10.4,2.61,28.4,28.4,0,0,0-9.35,5.17,31.21,31.21,0,0,1,9.57-4.41,71.47,71.47,0,0,1,10.35-2.14c3.49-.46,7-.8,10.53-1s7.07-.29,10.6-.29,7.08,0,10.61.16,7.08.29,10.62.49q10.47.63,20.91,1.64c.67.78,1.36,1.55,2.09,2.28A38.32,38.32,0,0,0,76.09,118a29.75,29.75,0,0,0,3.62,2,27,27,0,0,0,3.89,1.42h0a56.74,56.74,0,0,0,12.24,2.94c2.09.26,4.17.45,6.24.65l6.22.65c2.06.22,4.13.44,6.15.79a45.62,45.62,0,0,1,6,1.43,56.66,56.66,0,0,1,11.25,5h0a62,62,0,0,0,8,2.89,28.74,28.74,0,0,0,4.24.88,14.81,14.81,0,0,0,2.21.11,20.86,20.86,0,0,0,2.09-.23,6.84,6.84,0,0,0,4.28-1,6.3,6.3,0,0,0,2.67-3.64,6.85,6.85,0,0,0,.24-1.11A4.42,4.42,0,0,0,155.5,129.71Z"/><path class="cls-4" d="M218.75,107.26a2.55,2.55,0,0,0-.24-1.63,6.78,6.78,0,0,0-1.88-2.14c-1.43-1.06-2.85-2.08-4.21-3.14-.72-.53-1.38-1.07-2-1.61-.34-.27-.71-.55-1-.82s-.61-.54-.9-.83c-.46-.6-.94-1.16-1.42-1.71l-.33-.36c.44.1.88.19,1.33.26a14.36,14.36,0,0,0,2.45.18,10.42,10.42,0,0,0,2.49-.31,7.11,7.11,0,0,0,2.33-1.09h0a5.06,5.06,0,0,0,.81-1.09,3.56,3.56,0,0,0,.51-1.26,2.55,2.55,0,0,0-.11-1.42,2.64,2.64,0,0,0-.84-1.16,5.22,5.22,0,0,0-1.14-.72c-.2-.1-.4-.17-.6-.25l-.55-.22c-.75-.29-1.49-.6-2.21-.92a46.08,46.08,0,0,1-4.28-2.13c-1.38-.79-2.75-1.6-4.11-2.46-.67-.44-1.32-.89-2-1.34s-1.43-.82-2.14-1.19A34.83,34.83,0,0,0,194,78.07a51.59,51.59,0,0,0-9-1.91c-.19-.19-.39-.39-.57-.59L184,75l-.45-.58-.07-.08h-.05c-2.14-1.09-4.32-2.14-6.48-3.2l-5-2.42a17.74,17.74,0,0,0-1.69-1.43A12.24,12.24,0,0,0,167,65.52a16.51,16.51,0,0,0-3.61-.79,20.56,20.56,0,0,0-3.68,0,17.87,17.87,0,0,1-5.55-.46l-.49-.49a6.48,6.48,0,0,0-2.21-1.36l-.77-.25-.75-.23c-2-.6-4-1.17-6-1.71-4-1.08-8.09-2-12.21-2.8-2-.37-4.13-.67-6.23-.88a31.93,31.93,0,0,0-6.41,0,16,16,0,0,0-1.63.3c-.55.13-1,.26-1.51.4l-3,.75c-1,.25-2,.49-3,.72s-2,.47-3,.71c-2,.45-4,.85-6.08,1.28l-3,.57c-1,.2-2,.37-3,.55A174.18,174.18,0,0,1,70,64.48l-3.09.07-3.1-.07-1.54,0-1.53-.13-3.08-.26q-6.2-.69-12.43-1c-4.16-.17-8.32-.23-12.48-.22s-8.31.12-12.46.22A229.69,229.69,0,0,1-4.59,62.8c4.13.49,8.28.71,12.43.84s8.31.12,12.47.11H32.75c4.15,0,8.3.16,12.44.38s8.25.63,12.36,1.14l3.12.3,1.57.15,1.56.06,3.14.11c1,0,2.09,0,3.13,0A171.74,171.74,0,0,0,95,63.27c1-.17,2.05-.34,3.07-.54l3.07-.57c2-.42,4.09-.82,6.12-1.27,1-.22,2-.45,3-.72s2-.47,3-.71,2-.51,3-.76l1.51-.39a13.63,13.63,0,0,1,1.42-.26,30.68,30.68,0,0,1,6.06.05c2,.19,4.07.49,6.1.84,4.05.72,8.08,1.68,12.11,2.74q3,.81,6,1.69l.71.23.72.22a4.66,4.66,0,0,1,1.19.62,4.24,4.24,0,0,1,.52.43l.56.54,1.11,1.06a66.63,66.63,0,0,1,8,9.36,59.08,59.08,0,0,1,6,10.69,40.83,40.83,0,0,1,2,5.79l1.39,6.06v.09l.05.08a6.88,6.88,0,0,1,.81,1.84,6.78,6.78,0,0,1,.21,2,5.43,5.43,0,0,1-.48,1.94,2.9,2.9,0,0,1-.44.81,1,1,0,0,1-.31.24,1.37,1.37,0,0,1-.37.17,3.76,3.76,0,0,1-1.91-.13,10.83,10.83,0,0,1-1.93-.78,13.28,13.28,0,0,1-3.47-2.42,21.86,21.86,0,0,1-4.75-7A27.54,27.54,0,0,1,157,86.85v0a9.87,9.87,0,0,0,2.57-1.08,7.93,7.93,0,0,0,1.25-.9,4,4,0,0,0,.94-1.21,8.12,8.12,0,0,1-1.14,1c-.4.28-.82.55-1.25.8s-.86.5-1.3.72l-1.07.6h0l-.13-.07a17.25,17.25,0,0,1-4.14-2.85,19.88,19.88,0,0,1-3.18-3.9,25.94,25.94,0,0,1-3.63-9.45,25.23,25.23,0,0,0,1.21,5c.24.68.51,1.34.8,2l-.42.13a24.9,24.9,0,0,1-5.25,0l-1.35-.17-1.33-.3c-.44-.06-.88-.18-1.32-.27s-.89-.18-1.32-.3c-1.76-.41-3.5-.94-5.23-1.47s-3.45-1.13-5.17-1.75a36.51,36.51,0,0,0,5,2.33,40.34,40.34,0,0,0,5.24,1.66,28.82,28.82,0,0,0,5.46.83,17.33,17.33,0,0,0,4.37-.3,63.26,63.26,0,0,1-6.41,1.3c-2.64.43-5.29.8-7.95,1.15s-5.31.72-8,1-5.32.62-8,.88a17.89,17.89,0,0,0-3.78.5c-1.25.28-2.46.61-3.67,1s-2.39.78-3.56,1.21-2.36.88-3.52,1.37h0l-1.92.95c-.65.28-1.29.58-2,.85s-1.32.54-2,.76l-1,.35-1,.31a30,30,0,0,1-4.18.93c-.71.1-1.42.17-2.14.2a12.75,12.75,0,0,1-2.14,0,15.65,15.65,0,0,0,4.32.18A29.53,29.53,0,0,0,93.93,90l1-.26,1-.31a21.22,21.22,0,0,0,2.08-.71l2-.8,2-.86h0c2.33-.88,4.69-1.71,7.07-2.4,1.19-.36,2.38-.67,3.56-.93a16.46,16.46,0,0,1,3.57-.45h.07c2.68-.28,5.34-.6,8-.94s5.33-.72,8-1.19,5.3-.93,7.93-1.5l2-.47c.65-.15,1.3-.34,1.95-.51s1.29-.39,1.93-.59c.32-.1.63-.22.94-.35l.84-.34A22.21,22.21,0,0,0,149.22,80a20,20,0,0,0,3.18,4,17.22,17.22,0,0,0,4.1,3,27.35,27.35,0,0,0,1.9,8.47,21.64,21.64,0,0,0,4.83,7.42,13.55,13.55,0,0,0,3.68,2.64,11.28,11.28,0,0,0,2.09.88,4.74,4.74,0,0,0,2.42.17,2.51,2.51,0,0,0,1.17-.72,3.78,3.78,0,0,0,.63-1.08,6,6,0,0,0,.4-1.1,6.64,6.64,0,0,0,.19-1.17,7.66,7.66,0,0,0-.21-2.34,7.12,7.12,0,0,0-.87-2.07l-.5-2.38c.25.36.52.71.8,1a9.24,9.24,0,0,0,2.36,2.09,55.63,55.63,0,0,0,2.58,9,33.36,33.36,0,0,0,1.91,4.38,15.3,15.3,0,0,0,2.92,3.91,12.07,12.07,0,0,0,2,1.5,12.37,12.37,0,0,0,2.26,1,12.63,12.63,0,0,0,2.39.65,6.19,6.19,0,0,0,2.64-.14,5,5,0,0,0,.64-.25,5.65,5.65,0,0,0,.6-.31,2.77,2.77,0,0,0,1.06-1.14,2.71,2.71,0,0,0,.23-1.56,5.83,5.83,0,0,0-.36-1.3l-.83-2.2a22.73,22.73,0,0,1-.78-2.2l-.72-2.23c-.23-.71-.47-1.48-.67-2.25-.43-1.5-.77-3-1.19-4.56a29.26,29.26,0,0,0-1.46-4.12l.19.2A21.69,21.69,0,0,0,190.72,99a16.27,16.27,0,0,0,2.14,1.43,15.2,15.2,0,0,0,2.25,1l.71,1c.25.36.46.71.71,1.1a21.88,21.88,0,0,0,1.79,1.94,19.91,19.91,0,0,0,4.16,3.32,16.58,16.58,0,0,0,5,1.93,16.06,16.06,0,0,0,2.69.31,16.27,16.27,0,0,0,2.7-.19,12.15,12.15,0,0,0,2.64-.72,7.58,7.58,0,0,0,2.38-1.49,3,3,0,0,0,.5-.57A2,2,0,0,0,218.75,107.26ZM193.8,78.84a38.71,38.71,0,0,1,4.36,2c.71.38,1.38.77,2,1.21s1.29.92,2,1.37q2,1.37,4.17,2.54c1.44.78,2.91,1.48,4.42,2.14.75.32,1.51.61,2.28.89l.57.2c.18.08.36.13.53.21a4,4,0,0,1,.92.54,1.73,1.73,0,0,1,.71,1.67,3.92,3.92,0,0,1-1,1.85,6.24,6.24,0,0,1-2,1.07,10.75,10.75,0,0,1-2.31.46,17.65,17.65,0,0,1-2.41,0,12.32,12.32,0,0,1-1.49-.14c-.36-.38-.72-.77-1.11-1.13a18.84,18.84,0,0,0-1.71-1.51A11.4,11.4,0,0,0,201.88,91l-4.69-4-4.68-4.07c-1.57-1.36-3.12-2.73-4.65-4.13-.76-.71-1.51-1.42-2.25-2.14l-.42-.42a73.84,73.84,0,0,1,8.59,2.6Zm-4,27.41c.22.76.45,1.52.72,2.28l.71,2.27c.22.76.53,1.49.82,2.24l.87,2.21a3.89,3.89,0,0,1,.3,1,1.23,1.23,0,0,1-.09.71,1.33,1.33,0,0,1-.53.57,3.75,3.75,0,0,1-.44.24,4.22,4.22,0,0,1-.45.18,4.89,4.89,0,0,1-2,.13,12.49,12.49,0,0,1-2.17-.53,12,12,0,0,1-2.06-.86,11,11,0,0,1-1.81-1.29,14.72,14.72,0,0,1-2.81-3.57,32.94,32.94,0,0,1-2-4.19c-.58-1.42-1.17-2.9-1.68-4.38s-.95-3-1.33-4.51v-.1h0c.51-.52,1-1.07,1.43-1.59.25-.29.52-.57.8-.84a6.47,6.47,0,0,1,.88-.77,2.91,2.91,0,0,0-1.09.53,5.64,5.64,0,0,0-.88.81,7.51,7.51,0,0,0-.72,1,6.72,6.72,0,0,0-.47.88,9.53,9.53,0,0,1-2.44-1.94c-.36-.38-.7-.78-1-1.18l-.71-3.37a44.82,44.82,0,0,0-2-6,58.78,58.78,0,0,0-6-11,68.8,68.8,0,0,0-8.1-9.61l-1-1a17,17,0,0,0,1.74.44,16.47,16.47,0,0,0,3.64.29,20.17,20.17,0,0,1,3.56.16,16.4,16.4,0,0,1,3.43.92,11.55,11.55,0,0,1,3,1.73,15.72,15.72,0,0,1,2.47,2.49,24.75,24.75,0,0,1,3.53,6.1l0-.11c.06.23.14.46.21.71l.24.57c.16.39.34.72.51,1.1.36.71.72,1.43,1.1,2.14.75,1.42,1.52,2.77,2.3,4.15,1.55,2.74,3.16,5.45,4.8,8.14a33.85,33.85,0,0,1,3.71,8.42C189,103.14,189.33,104.7,189.76,106.25Zm27.72,1.21a2.34,2.34,0,0,1-.37.4,8.27,8.27,0,0,1-4.41,2,14.84,14.84,0,0,1-9.83-1.72,19.21,19.21,0,0,1-4.09-3.09,20.94,20.94,0,0,1-1.77-1.88c-.28-.31-.52-.71-.78-1l-.76-1.07-.05,0a11.93,11.93,0,0,1,1.43-1.58,5.72,5.72,0,0,1,.94-.67,5.42,5.42,0,0,1,1.1-.42,2.46,2.46,0,0,0-1.23.14,3.62,3.62,0,0,0-1.08.65,4.91,4.91,0,0,0-.81,1,5,5,0,0,0-.44.9h0A15.76,15.76,0,0,1,193,100a17,17,0,0,1-2.14-1.28,23.26,23.26,0,0,1-2.39-1.91,37.5,37.5,0,0,0-2.3-4.4q-2.46-4-4.86-8.07-1.2-2-2.36-4.07c-.38-.72-.75-1.37-1.11-2.06l-.51-1-.23-.51-.2-.45v-.1a25.44,25.44,0,0,0-1.72-3.32,24.59,24.59,0,0,0-2.14-3q-.37-.43-.78-.84l4.54,2.49c2.1,1.14,4.18,2.29,6.28,3.41l.44.58.52.6c.34.4.71.76,1.08,1.14.71.74,1.42,1.47,2.21,2.19,1.5,1.43,3,2.85,4.54,4.28s3.08,2.78,4.63,4.16,3.06,2.76,4.64,4.08l.05,0h.07a11.27,11.27,0,0,1,1.76,1.14,19.81,19.81,0,0,1,1.61,1.43c.52.5,1,1,1.5,1.58s1,1.11,1.39,1.68h0a13.17,13.17,0,0,0,1,1c.34.29.71.57,1,.84l2.08,1.62c1.43,1,2.86,2.14,4.22,3.11a5.72,5.72,0,0,1,1.57,1.75,1.49,1.49,0,0,1,.17.91,1,1,0,0,1-.15.47Z"/><path class="cls-5" d="M105.71,103.75a11.14,11.14,0,0,1,1.36.51,2.46,2.46,0,0,1,1.14.85,1.44,1.44,0,0,0-.37-.71,3.46,3.46,0,0,0-.57-.51,7.62,7.62,0,0,0-1.33-.76,14.43,14.43,0,0,0-1.42-.56l-1.43-.45a29.11,29.11,0,0,0-2.92-.61,19.87,19.87,0,0,0-3-.26c1.89.64,3.8,1.11,5.7,1.64C103.85,103.18,104.79,103.45,105.71,103.75Z"/></g></g></svg>