<svg xmlns="http://www.w3.org/2000/svg" viewBox="0 0 76.36 93.49"><defs><style>.cls-1{fill:#6361b7;}</style></defs><g id="Capa_2" data-name="Capa 2"><g id="Iconos"><path class="cls-1" d="M60.26,32.35c.21-3.53.46-7.92-1.46-13.06C54.47,7.68,43.17,2.9,39.81,1.71c-12.6-4.45-27.92-.05-39,11.2h0l0,0h0a2.64,2.64,0,0,0,3.77,3.71h0C14.2,6.85,27.36,2.94,38,6.71c2,.71,12.17,4.73,15.8,14.44,1.53,4.09,1.33,7.55,1.13,10.9-.18,3.08-1.36,13.77-9.14,22a19.65,19.65,0,0,1-2.66,2.37,21.34,21.34,0,0,0-3.7,3.51A38.3,38.3,0,0,0,31.66,75l-.08.44C31.36,77.73,30,84.22,26.49,87,25,88.12,21,88.34,21,88.34a12.77,12.77,0,0,1-9.51-4A12.1,12.1,0,0,1,8.84,74.24h0A1.68,1.68,0,0,0,8.87,74a2.64,2.64,0,0,0-5.21-.86h0A17.35,17.35,0,0,0,7.57,87.93a17.36,17.36,0,0,0,13.2,5.55c.63.09,6.9-.69,9-2.31,5.61-4.37,6.89-13.32,7.08-15A33.18,33.18,0,0,1,43.5,63.36a16,16,0,0,1,2.91-2.75,25.38,25.38,0,0,0,3.26-2.93C58.69,48.16,60.06,35.89,60.26,32.35Z"/><path class="cls-1" d="M5,58H4.87a2.65,2.65,0,0,0,.46,5.28h0c.34,0,8.4-.76,12.36-6.8a14.14,14.14,0,0,0,1.85-10.22,9.49,9.49,0,0,0,4.67-4.31,8.2,8.2,0,0,0,.91-4.27,5.84,5.84,0,0,0-1.36-3.78,7.35,7.35,0,0,0-1.94-1.33c-.89-.46-1.26-.46-1.61-.66-.52-.31-1-1.1-1-2.92a5.44,5.44,0,0,1,2.81-4.39,14.3,14.3,0,0,1,4.77-1.48c1.57-.17,6.9-.45,9.49,3.07,2,2.77,1.29,6.44.94,8.2-1.16,5.71-5.59,9.17-7.44,10.39l0,0-.18.09a2.66,2.66,0,0,0,3,4.39l.09-.08h0c3-2,8.22-6.38,9.71-13.75.47-2.32,1.57-7.74-1.86-12.4-4.27-5.8-12-5.45-14.33-5.2-1.65.18-10,1.47-13.89,9.4A17,17,0,0,0,13.54,44c1.32,4,1.23,7.24-.27,9.56C10.88,57.2,5.52,57.88,5,58Z"/><path class="cls-1" d="M76.36,34.88a2,2,0,0,0-4,0s0,0,0,0C71.91,61,50.5,75,50.29,75.16h0l-.12.07a2,2,0,0,0,2.26,3.27h0c1-.61,23.46-15.33,23.93-43.6h0Z"/></g></g></svg>