<svg xmlns="http://www.w3.org/2000/svg" viewBox="0 0 96.88 110.96"><defs><style>.cls-1{fill:#6361b7;}</style></defs><g id="Capa_2" data-name="Capa 2"><g id="Iconos"><path class="cls-1" d="M96.7,72.92c-.62-5.18-3.46-17.68-16.15-21.83A17.82,17.82,0,0,1,69.26,39.54C67.37,33.63,66.66,26,67.15,17c.56-5.54-.56-15.33-8.33-16.94h0a2.94,2.94,0,1,0-1.19,5.76h0c4.42.93,3.68,10.49,3.66,10.72-.54,9.86.26,18.2,2.37,24.8A23.71,23.71,0,0,0,78.72,56.67c9.14,3,11.54,11.91,12.15,17a17.07,17.07,0,0,1-.09,4.85c-.72,4.24-2.27,7.08-4.6,8.42a9.27,9.27,0,0,1-6.46.68,8.36,8.36,0,0,0,2.34-6.15c-.29-3.8-3.59-6.34-6.2-7.19-5.2-1.7-11,2.2-13.79,5-2.54,2.59-2.56,4.3-5.73,6.35a16.33,16.33,0,0,1-6.69,2.44,13.4,13.4,0,0,1-5.19-.19C41,87,38.79,84.75,36.61,82.48a29.38,29.38,0,0,1-3.91-5.11A10.73,10.73,0,0,0,26,73.21c-.71-.11-5.49-.85-8.26,2.53a8.27,8.27,0,0,0-1.5,6.54,8.15,8.15,0,0,0,1.18,2.87,8.42,8.42,0,0,1-6.32-1.27c-4.24-3-4.93-10.08-4.94-10.15l0-.31c-1.72-8.74,9-15,13.61-17.21A22.3,22.3,0,0,1,23,55l.71-.22c11.4-3.54,11.77-34,11.73-40.13v-.15C35,8.31,41,5.77,41.3,5.67h0A2.94,2.94,0,0,0,39.18.18l0,0h0C38.71.37,29,4.34,29.51,14.79c.1,15.4-2.78,32.91-7.59,34.41l-.69.21a27.19,27.19,0,0,0-4.12,1.51C4.73,56.93-1.4,65.48.27,74.41c.15,1.36,1.29,9.86,7.33,14.22,3.39,2.45,7.55,3.12,12.38,2,5.31-.72,13.72-.62,16.09,1.88l.39.34a22.55,22.55,0,0,0,12.21,4,16.24,16.24,0,0,0,8.86-2.6,16.32,16.32,0,0,1,5.37-2.13c5.95-1.28,10.69-1.17,13,.31l.52.26c.27.1,6.8,2.59,12.62-.71,4-2.25,6.51-6.48,7.54-12.57A22.69,22.69,0,0,0,96.7,72.92Z"/><path class="cls-1" d="M81,100.58l0,0h0c-15.14-6.84-27.45,5.63-28.37,6.6h0s0,0,0,0l0,0h0a2.2,2.2,0,0,0,3.09,3.13c0-.06.08-.13.13-.19l0,0c.1-.11,10.57-11.38,23.35-5.6h0l.08.05a2.21,2.21,0,0,0,1.78-4Z"/></g></g></svg>