<svg xmlns="http://www.w3.org/2000/svg" xmlns:xlink="http://www.w3.org/1999/xlink" viewBox="0 0 371.77 300.65"><defs><style>.cls-1{fill:#1b1b3f;opacity:0.45;}.cls-2{fill:url(#Degradado_sin_nombre_110);}.cls-3{fill:url(#Degradado_sin_nombre_60);}.cls-4{fill:#f4be9a;}.cls-5{fill:url(#Degradado_sin_nombre_135);}.cls-6{fill:#fd9a83;}.cls-7{fill:#7b7ad3;}.cls-8{fill:#0e5e77;}.cls-9{fill:#373d68;}.cls-10{fill:url(#Degradado_sin_nombre_123);}.cls-11{fill:#d1814a;}.cls-12{fill:url(#Degradado_sin_nombre_178);}.cls-13{fill:url(#Degradado_sin_nombre_178-2);}.cls-14{fill:url(#Degradado_sin_nombre_177);}.cls-15{fill:url(#Degradado_sin_nombre_173);}.cls-16{fill:url(#Degradado_sin_nombre_175);}.cls-17{fill:url(#Degradado_sin_nombre_171);}.cls-18{fill:#1483bc;}.cls-19{fill:url(#Degradado_sin_nombre_116);}.cls-20{fill:#c1872b;}.cls-21{fill:none;stroke:#c1872b;stroke-miterlimit:10;stroke-width:0.75px;}.cls-22{fill:#ce9036;}.cls-23{fill:#4d5390;}.cls-24{fill:#31385b;}.cls-25{fill:#e26b54;}.cls-25,.cls-29{opacity:0.55;}.cls-26{fill:url(#Degradado_sin_nombre_181);}.cls-27{fill:url(#Degradado_sin_nombre_170);}.cls-28{fill:url(#Degradado_sin_nombre_166);}.cls-29{fill:#f7c4ba;}.cls-30{fill:#c45849;}</style><linearGradient id="Degradado_sin_nombre_110" x1="219.49" y1="36.58" x2="219.49" y2="264.49" gradientUnits="userSpaceOnUse"><stop offset="0" stop-color="#af6e43"/><stop offset="0.28" stop-color="#ac6d43"/><stop offset="0.45" stop-color="#a46845"/><stop offset="0.58" stop-color="#966047"/><stop offset="0.7" stop-color="#82554a"/><stop offset="0.82" stop-color="#67474f"/><stop offset="0.92" stop-color="#483654"/><stop offset="1" stop-color="#282559"/></linearGradient><linearGradient id="Degradado_sin_nombre_60" x1="220.77" y1="36.58" x2="220.77" y2="260.75" gradientUnits="userSpaceOnUse"><stop offset="0" stop-color="#fedfc8"/><stop offset="0.25" stop-color="#fcddc7"/><stop offset="0.4" stop-color="#f3d6c3"/><stop offset="0.52" stop-color="#e6cabb"/><stop offset="0.62" stop-color="#d2b9b1"/><stop offset="0.71" stop-color="#b8a2a4"/><stop offset="0.8" stop-color="#998793"/><stop offset="0.88" stop-color="#736680"/><stop offset="0.95" stop-color="#49426a"/><stop offset="1" stop-color="#282559"/></linearGradient><linearGradient id="Degradado_sin_nombre_135" x1="136.42" y1="202.9" x2="116.19" y2="237.94" gradientUnits="userSpaceOnUse"><stop offset="0" stop-color="#e26b54"/><stop offset="0.31" stop-color="#e06a54"/><stop offset="0.46" stop-color="#d86754"/><stop offset="0.58" stop-color="#cb6255"/><stop offset="0.68" stop-color="#b95c55"/><stop offset="0.76" stop-color="#a15356"/><stop offset="0.84" stop-color="#844757"/><stop offset="0.91" stop-color="#613a57"/><stop offset="0.98" stop-color="#392b59"/><stop offset="1" stop-color="#282559"/></linearGradient><linearGradient id="Degradado_sin_nombre_123" x1="122.9" y1="117.93" x2="168.76" y2="197.37" gradientUnits="userSpaceOnUse"><stop offset="0" stop-color="#d8a235"/><stop offset="0.24" stop-color="#d5a036"/><stop offset="0.4" stop-color="#cd9a37"/><stop offset="0.53" stop-color="#be903a"/><stop offset="0.64" stop-color="#a9813f"/><stop offset="0.75" stop-color="#8f6e44"/><stop offset="0.84" stop-color="#6e564b"/><stop offset="0.94" stop-color="#473b53"/><stop offset="1" stop-color="#282559"/></linearGradient><linearGradient id="Degradado_sin_nombre_178" x1="60.54" y1="115.44" x2="65.62" y2="115.44" gradientUnits="userSpaceOnUse"><stop offset="0" stop-color="#c2edf2"/><stop offset="0.13" stop-color="#bfe9ef"/><stop offset="0.27" stop-color="#b5dce5"/><stop offset="0.42" stop-color="#a4c6d4"/><stop offset="0.57" stop-color="#8da8bd"/><stop offset="0.72" stop-color="#6f82a0"/><stop offset="0.87" stop-color="#4c537c"/><stop offset="1" stop-color="#282559"/></linearGradient><linearGradient id="Degradado_sin_nombre_178-2" x1="62.04" y1="129.58" x2="86.55" y2="129.58" xlink:href="#Degradado_sin_nombre_178"/><linearGradient id="Degradado_sin_nombre_177" x1="68.29" y1="150.47" x2="98.43" y2="150.47" gradientUnits="userSpaceOnUse"><stop offset="0" stop-color="#93d2de"/><stop offset="0.16" stop-color="#91cedb"/><stop offset="0.31" stop-color="#8ac3d2"/><stop offset="0.46" stop-color="#7eb0c4"/><stop offset="0.61" stop-color="#6d95af"/><stop offset="0.75" stop-color="#587395"/><stop offset="0.89" stop-color="#3f4975"/><stop offset="1" stop-color="#282559"/></linearGradient><linearGradient id="Degradado_sin_nombre_173" x1="-1581.08" y1="412.22" x2="-1556.57" y2="412.22" gradientTransform="matrix(-0.97, 0.23, 0.23, 0.97, -1270.3, 146.29)" gradientUnits="userSpaceOnUse"><stop offset="0" stop-color="#fccf6b"/><stop offset="0.13" stop-color="#f8cc6b"/><stop offset="0.27" stop-color="#ebc16a"/><stop offset="0.41" stop-color="#d5b068"/><stop offset="0.55" stop-color="#b79865"/><stop offset="0.7" stop-color="#917962"/><stop offset="0.85" stop-color="#61535e"/><stop offset="0.99" stop-color="#2a2759"/><stop offset="1" stop-color="#282559"/></linearGradient><linearGradient id="Degradado_sin_nombre_175" x1="-2039.36" y1="703.87" x2="-2014.85" y2="703.87" gradientTransform="translate(1972.49 1568.42) rotate(59.6)" gradientUnits="userSpaceOnUse"><stop offset="0" stop-color="#fccf6b"/><stop offset="0.1" stop-color="#f4c96a"/><stop offset="0.25" stop-color="#deb768"/><stop offset="0.43" stop-color="#bb9b65"/><stop offset="0.65" stop-color="#897361"/><stop offset="0.88" stop-color="#4a415c"/><stop offset="1" stop-color="#282559"/></linearGradient><linearGradient id="Degradado_sin_nombre_171" x1="-1574.83" y1="433.11" x2="-1544.69" y2="433.11" gradientTransform="matrix(-0.97, 0.23, 0.23, 0.97, -1270.3, 146.29)" gradientUnits="userSpaceOnUse"><stop offset="0" stop-color="#fccf6b"/><stop offset="0.15" stop-color="#f8cc6b"/><stop offset="0.29" stop-color="#edc36a"/><stop offset="0.42" stop-color="#dab468"/><stop offset="0.55" stop-color="#bf9e66"/><stop offset="0.68" stop-color="#9d8363"/><stop offset="0.81" stop-color="#73615f"/><stop offset="0.94" stop-color="#423a5b"/><stop offset="1" stop-color="#282559"/></linearGradient><linearGradient id="Degradado_sin_nombre_116" x1="174.16" y1="108.32" x2="119.49" y2="203.02" gradientUnits="userSpaceOnUse"><stop offset="0" stop-color="#fccf6b"/><stop offset="0.36" stop-color="#facd6b"/><stop offset="0.5" stop-color="#f3c86a"/><stop offset="0.6" stop-color="#e7be69"/><stop offset="0.69" stop-color="#d5b068"/><stop offset="0.76" stop-color="#bf9e66"/><stop offset="0.83" stop-color="#a38863"/><stop offset="0.89" stop-color="#826d61"/><stop offset="0.94" stop-color="#5b4e5d"/><stop offset="0.99" stop-color="#312c5a"/><stop offset="1" stop-color="#282559"/></linearGradient><linearGradient id="Degradado_sin_nombre_181" x1="85.26" y1="110.76" x2="91.89" y2="114.96" gradientUnits="userSpaceOnUse"><stop offset="0" stop-color="#c2edf2"/><stop offset="0.1" stop-color="#bae2ea"/><stop offset="0.28" stop-color="#a4c6d4"/><stop offset="0.52" stop-color="#8097b1"/><stop offset="0.8" stop-color="#4f5880"/><stop offset="1" stop-color="#282559"/></linearGradient><linearGradient id="Degradado_sin_nombre_170" x1="352.99" y1="176.6" x2="348.76" y2="179.77" gradientTransform="matrix(1, 0, 0, 1, 0, 0)" xlink:href="#Degradado_sin_nombre_175"/><linearGradient id="Degradado_sin_nombre_166" x1="81.95" y1="179.02" x2="81.95" y2="300.65" gradientUnits="userSpaceOnUse"><stop offset="0" stop-color="#fd9a83"/><stop offset="0.19" stop-color="#fa9882"/><stop offset="0.33" stop-color="#f09381"/><stop offset="0.46" stop-color="#e08a7d"/><stop offset="0.57" stop-color="#c97e79"/><stop offset="0.69" stop-color="#ac6e73"/><stop offset="0.79" stop-color="#885a6c"/><stop offset="0.89" stop-color="#5d4263"/><stop offset="0.99" stop-color="#2c275a"/><stop offset="1" stop-color="#282559"/></linearGradient></defs><g id="Capa_2" data-name="Capa 2"><g id="Ilustraciones"><rect class="cls-1" width="371.77" height="300.65" rx="39.76"/><polygon class="cls-2" points="323.66 264.49 124.2 264.49 115.32 36.58 312.43 36.58 323.66 264.49"/><polygon class="cls-3" points="326.21 260.75 131.32 260.75 115.32 36.58 312.43 36.58 326.21 260.75"/><path class="cls-4" d="M217.7,58.53q1.63,14.85,2.88,29.71c.86,9.91,1.6,19.82,2.32,29.74s1.34,19.85,1.89,29.78,1,19.86,1.32,29.81q-1.63-14.83-2.88-29.7c-.86-9.91-1.6-19.83-2.32-29.75S219.57,98.28,219,88.35,218,68.48,217.7,58.53Z"/><path class="cls-4" d="M171.83,127.73c11.44-.21,22.88-.31,34.32-.39l34.32-.11,34.32.11,17.16.14,17.16.25L292,128l-17.16.14-34.32.11-34.32-.11C194.71,128,183.27,127.93,171.83,127.73Z"/><path class="cls-5" d="M133.17,201.68s10.91,3.24,20.11,15.66c0,0,9.4,10.85,4.68,11.11,0,0-1.41.76-5.62,0,0,0,6.21,5.49,3.57,7.7a8.6,8.6,0,0,1-6,.77s-.34,3.23-5.36,1.61c0,0-6.38-5.53-8.6-5.53,0,0-12,.51-14.89-1.1l-32.25-9.79,9.53-20.43S129.92,198.28,133.17,201.68Z"/><path class="cls-6" d="M113.58,204.13S119.74,195.9,148,201c0,0,14,1.19,15-4.85,0,0,1.19-6.21-9.19-7.06L123.32,187a35.32,35.32,0,0,0-20,4.79Z"/><rect class="cls-7" x="153.79" y="60.07" width="36.09" height="4.43" rx="2.21"/><polygon class="cls-8" points="215.66 105.89 192.43 105.89 189.87 80.62 211.57 80.62 215.66 105.89"/><path class="cls-9" d="M207.74,117.6s-3.31,56.59,13,78.55h76.85s-18.39-35-16.34-64.85l-.39-13.7Z"/><path class="cls-10" d="M196,181.63s6.64-14-27.83-74.17l-75.57,28s28.59,51.57,30.89,72.51C123.51,207.93,175.09,192.35,196,181.63Z"/><polygon class="cls-4" points="135.23 69.77 155.91 69.3 176.59 68.94 217.95 68.38 259.31 68.04 280 67.96 300.68 67.98 280 68.45 259.32 68.81 217.96 69.37 176.6 69.7 155.92 69.79 135.23 69.77"/><path class="cls-11" d="M146.34,85.85c3.4-.2,6.79-.3,10.18-.38s6.79-.1,10.18-.12,6.79,0,10.18.12l5.09.14c1.7.08,3.4.13,5.09.24-1.69.12-3.39.17-5.09.25l-5.09.14c-3.39.09-6.78.1-10.18.11s-6.78,0-10.18-.11S149.74,86.06,146.34,85.85Z"/><path class="cls-11" d="M234.3,85.85c4.72-.2,9.44-.3,14.17-.38s9.44-.07,14.17-.12,9.44,0,14.17.12l7.08.14c2.37.08,4.73.13,7.09.24-2.36.12-4.72.17-7.09.25l-7.08.14c-4.73.08-9.45.07-14.17.11s-9.45,0-14.17-.11S239,86.06,234.3,85.85Z"/><path class="cls-11" d="M234.3,93.26c5.1-.21,10.21-.31,15.32-.39s10.21-.07,15.32-.11,10.21,0,15.32.11l7.65.14c2.56.09,5.11.13,7.66.25-2.55.11-5.1.16-7.66.24l-7.65.14c-5.11.08-10.22.08-15.32.12s-10.22,0-15.32-.12S239.4,93.46,234.3,93.26Z"/><path class="cls-12" d="M63.08,118a2.54,2.54,0,1,1,2.54-2.54A2.54,2.54,0,0,1,63.08,118Zm0-4.32a1.79,1.79,0,1,0,1.79,1.78A1.79,1.79,0,0,0,63.08,113.65Z"/><path class="cls-13" d="M62,123.38a55.46,55.46,0,0,1,6.83,1.6,57.1,57.1,0,0,1,6.6,2.39,35.36,35.36,0,0,1,6.19,3.38,14.59,14.59,0,0,1,4.89,5c-.39-.44-.78-.87-1.15-1.31l-1.31-1.13a23.73,23.73,0,0,0-2.84-1.94,54,54,0,0,0-6.18-3.1c-2.11-.93-4.27-1.77-6.44-2.58-1.09-.41-2.18-.8-3.28-1.18Z"/><path class="cls-14" d="M95.53,164.33C93.62,159.6,86,143.4,69.35,138.61a1.5,1.5,0,0,1-1-1.79h0a1.51,1.51,0,0,1,1.9-1.08c18.08,5.2,26.05,22.27,28.1,27.48a1.49,1.49,0,0,1-.94,2h0A1.48,1.48,0,0,1,95.53,164.33Z"/><path class="cls-15" d="M361.66,183.57a54.76,54.76,0,0,0-6.29,3.1,55.49,55.49,0,0,0-5.89,3.83,36.08,36.08,0,0,0-5.27,4.69,14.61,14.61,0,0,0-3.62,6c.29-.52.56-1,.82-1.54l1-1.39a23.4,23.4,0,0,1,2.34-2.54,52.37,52.37,0,0,1,5.3-4.42c1.85-1.38,3.77-2.69,5.7-4,1-.65,1.94-1.27,2.93-1.89Z"/><path class="cls-16" d="M338.76,162.48a60.3,60.3,0,0,1,3.35,13.61,35.22,35.22,0,0,1,.23,7,14.73,14.73,0,0,1-1.86,6.76q.25-.84.54-1.65l.32-1.7a26.5,26.5,0,0,0,.23-3.44,53.29,53.29,0,0,0-.45-6.9c-.27-2.29-.64-4.58-1-6.86-.2-1.15-.42-2.29-.65-3.43Z"/><path class="cls-17" d="M338.32,231c.78-5,4.55-22.55,19.66-31a1.48,1.48,0,0,0,.59-2h0a1.51,1.51,0,0,0-2.09-.63c-16.43,9.16-20.32,27.6-21.14,33.13a1.49,1.49,0,0,0,1.36,1.71h0A1.5,1.5,0,0,0,338.32,231Z"/><polygon class="cls-18" points="215.66 102.19 193.7 102.19 189.87 80.62 211.57 80.62 215.66 102.19"/><path class="cls-19" d="M197.79,180.07s6.64-14-27.83-74.17L94.38,133.85s28.6,51.58,30.9,72.51C125.28,206.36,176.85,190.79,197.79,180.07Z"/><path class="cls-20" d="M125.28,141.77c2.31-1.14,4.66-2.21,7-3.27s4.73-2.05,7.1-3.08,4.76-2,7.16-2.92,4.8-1.88,7.24-2.73c-2.32,1.14-4.67,2.21-7,3.26s-4.73,2.06-7.09,3.08-4.76,2-7.16,2.92S127.71,140.91,125.28,141.77Z"/><path class="cls-20" d="M136.51,162.7c3-1.31,6.05-2.55,9.09-3.77s6.11-2.4,9.16-3.6S160.9,153,164,151.9s6.18-2.21,9.3-3.24c-3,1.32-6.05,2.55-9.09,3.78s-6.11,2.39-9.16,3.59-6.14,2.32-9.23,3.43S139.63,161.68,136.51,162.7Z"/><path class="cls-20" d="M137.79,167c2.35-1.09,4.73-2.1,7.12-3.1s4.8-1.95,7.2-2.92,4.83-1.87,7.26-2.77,4.87-1.77,7.33-2.57c-2.35,1.09-4.73,2.11-7.12,3.11s-4.8,2-7.2,2.92-4.83,1.87-7.26,2.76S140.25,166.24,137.79,167Z"/><circle class="cls-21" cx="126.45" cy="169.39" r="5.35"/><circle class="cls-22" cx="114.83" cy="145.35" r="2.49"/><path class="cls-23" d="M283.32,117.6H207.74s3.07,58.55,20.09,75.57h76.43S290.72,184.07,283.32,117.6Z"/><path class="cls-24" d="M220.77,133.34c3.91-.15,7.83-.22,11.74-.28l11.75-.09,11.74.08c3.91.06,7.83.14,11.74.29-3.91.16-7.83.23-11.74.29l-11.74.09-11.75-.09C228.6,133.57,224.68,133.5,220.77,133.34Z"/><path class="cls-24" d="M220.77,145.35c3.91-.18,7.82-.27,11.74-.35l11.74-.16,11.75,0c3.91,0,7.83.09,11.74.23-3.91.17-7.82.27-11.74.35l-11.74.15-11.75,0C228.6,145.53,224.68,145.48,220.77,145.35Z"/><path class="cls-24" d="M237.6,167c4-.15,8.08-.22,12.13-.28l12.13-.09,12.13.09c4.05.06,8.09.13,12.14.28-4.05.16-8.09.23-12.14.29l-12.13.09-12.13-.09C245.68,167.27,241.64,167.2,237.6,167Z"/><path class="cls-24" d="M256,170.11c2.51-.09,5-.1,7.54-.1s5,.07,7.53.11,5,.15,7.53.27,5,.26,7.53.48c-2.52.1-5,.1-7.54.1s-5-.07-7.54-.1-5-.16-7.53-.28S258.51,170.33,256,170.11Z"/><path class="cls-25" d="M117.87,201.6s1.86-3.29,3-4.87l-3.41-9.56s-3,.4-4.39.76C113.09,187.93,117.81,198.36,117.87,201.6Z"/><path class="cls-25" d="M150.38,201.1s10-4.63,12.6-4.95a2.69,2.69,0,0,0,0-1.18l-16.68,5.69A18.09,18.09,0,0,0,150.38,201.1Z"/><circle class="cls-26" cx="88.06" cy="112.53" r="3.93"/><circle class="cls-27" cx="351.05" cy="178.05" r="2.64"/><path class="cls-28" d="M121.45,256.41a95,95,0,0,1,.89-11.07c1.58-11.28,4.85-19.88,9.83-32.76,1.19-3.07,2.94-7.48,5.23-12.77.83-1.77,7.09-15.41,4-19.4a3.46,3.46,0,0,0-1.72-1.28c-1.94-.57-4.12,1.09-6.79,3.66a90.65,90.65,0,0,0-9.19,10.38,48.62,48.62,0,0,0-5.79,8.43c-2.78,5.16-2.89,7.62-6.3,14-4.14,7.81-6.41,8.72-7.89,8.75a4.9,4.9,0,0,1-3-1.09c-.31-.15-4.28-2.07-4.32-5.21A5,5,0,0,1,97.62,215c2.41-3.25,5.73-4.32,8.27-5.49a31.42,31.42,0,0,0,9.43-6.77l-6.47-13.27A118.08,118.08,0,0,0,87.7,199.51c-10.86,6.57-17.35,10.5-20.38,18-1.8,4.46-.21,4.8.3,23.32.52,19-1,24.84-4.56,29.45a43.68,43.68,0,0,1-6.48,6.32c-4.24,3.58-26.79,15.48-34.91,19.69a39.53,39.53,0,0,0,18.09,4.36H110A79.08,79.08,0,0,0,121.45,256.41Z"/><path class="cls-29" d="M133.17,185.94a8.67,8.67,0,0,0,5.77,1.4s1.7-4.23.38-6.25C139.32,181.09,137.11,177.9,133.17,185.94Z"/><path class="cls-30" d="M96.43,217.77a36.71,36.71,0,0,1,3.71-1.86c1.26-.58,2.55-1.07,3.86-1.53a35.08,35.08,0,0,1,4-1.12,11.44,11.44,0,0,1,4.16-.26,11.29,11.29,0,0,0-2,.3c-.67.14-1.33.32-2,.52-1.3.4-2.61.82-3.9,1.27l-3.9,1.35C99.05,216.89,97.75,217.35,96.43,217.77Z"/><path class="cls-30" d="M132,214.7a21.49,21.49,0,0,0,3.86,1.33,36.66,36.66,0,0,0,4,.73l.2,0,.07.21a14.18,14.18,0,0,0,2,3.62,22.38,22.38,0,0,0,2.79,3.13,31.08,31.08,0,0,0,3.32,2.62c.58.41,1.2.76,1.79,1.15l1.86,1.06a26,26,0,0,1-3.89-1.83,22.76,22.76,0,0,1-3.52-2.51,21.19,21.19,0,0,1-2.95-3.18,14.82,14.82,0,0,1-2-3.88l.27.23a26.29,26.29,0,0,1-4-1,16.89,16.89,0,0,1-1.94-.75A10.61,10.61,0,0,1,132,214.7Z"/><path class="cls-30" d="M150.38,237.09a44.82,44.82,0,0,1-6.35-4.63,28.63,28.63,0,0,1-2.77-2.84,7.18,7.18,0,0,1-1.79-3.66l.35.33c-1.76,0-3.52-.09-5.27-.27-.87-.08-1.75-.17-2.62-.33-.44-.08-.87-.18-1.3-.29a2.71,2.71,0,0,1-1.18-.57,6,6,0,0,0,2.52.56c.87.05,1.74.12,2.61.14,1.75,0,3.5.06,5.24.06h.31l0,.33a7.27,7.27,0,0,0,1.66,3.25,29.17,29.17,0,0,0,2.63,2.82C146.34,233.78,148.34,235.45,150.38,237.09Z"/><path class="cls-30" d="M137.06,231.23a13,13,0,0,0,1.06,1.72,12.57,12.57,0,0,0,1.31,1.5,13.3,13.3,0,0,0,1.53,1.28c.54.4,1.13.73,1.72,1.09a7.77,7.77,0,0,1-1.92-.76,7.73,7.73,0,0,1-3-2.9A6.13,6.13,0,0,1,137.06,231.23Z"/></g></g></svg>