<svg xmlns="http://www.w3.org/2000/svg" xmlns:xlink="http://www.w3.org/1999/xlink" viewBox="0 0 443.23 149.11"><defs><style>.cls-1{fill:#1b1b3f;opacity:0.45;}.cls-2{opacity:0.85;}.cls-3{fill:#fff;}.cls-4{fill:url(#Degradado_sin_nombre_137);}.cls-5{fill:url(#Degradado_sin_nombre_137-2);}.cls-6{fill:url(#Degradado_sin_nombre_3);}.cls-7{fill:url(#Degradado_sin_nombre_3-2);}.cls-8{fill:url(#Degradado_sin_nombre_3-3);}</style><linearGradient id="Degradado_sin_nombre_137" x1="-545.29" y1="316.33" x2="-448.88" y2="316.33" gradientTransform="translate(680.53 -122.84) rotate(11.01)" gradientUnits="userSpaceOnUse"><stop offset="0.07" stop-color="#96c"/><stop offset="0.43" stop-color="#c380cf"/><stop offset="1" stop-color="#282559"/></linearGradient><linearGradient id="Degradado_sin_nombre_137-2" x1="-502.81" y1="319.87" x2="-486.81" y2="319.87" xlink:href="#Degradado_sin_nombre_137"/><linearGradient id="Degradado_sin_nombre_3" x1="-717.48" y1="365.48" x2="-791.08" y2="365.48" gradientTransform="translate(896.99 -102.25) rotate(15.19)" gradientUnits="userSpaceOnUse"><stop offset="0.07" stop-color="#96c"/><stop offset="0.43" stop-color="#c380cf"/><stop offset="0.49" stop-color="#aa71bc"/><stop offset="0.61" stop-color="#7c5699"/><stop offset="0.72" stop-color="#58417d"/><stop offset="0.83" stop-color="#3d3269"/><stop offset="0.92" stop-color="#2e285d"/><stop offset="1" stop-color="#282559"/></linearGradient><linearGradient id="Degradado_sin_nombre_3-2" x1="-693.61" y1="348.64" x2="-792.55" y2="348.64" xlink:href="#Degradado_sin_nombre_3"/><linearGradient id="Degradado_sin_nombre_3-3" x1="-740.32" y1="361.61" x2="-745.37" y2="361.61" xlink:href="#Degradado_sin_nombre_3"/></defs><g id="Capa_2" data-name="Capa 2"><g id="Ilustraciones"><rect class="cls-1" width="443.23" height="149.11" rx="28.09"/><g class="cls-2"><path class="cls-3" d="M232.31,57.17a7.35,7.35,0,0,1-3.84-1,6.56,6.56,0,0,1-2.53-2.78,9.4,9.4,0,0,1-.89-4.21,10,10,0,0,1,.51-3.29A7.16,7.16,0,0,1,227,43.41a6.29,6.29,0,0,1,2.29-1.59,7.76,7.76,0,0,1,3-.55,7.37,7.37,0,0,1,3.85,1A6.46,6.46,0,0,1,238.68,45a9.32,9.32,0,0,1,.89,4.2,10,10,0,0,1-.51,3.3A7.12,7.12,0,0,1,237.6,55a6.34,6.34,0,0,1-2.3,1.61A7.92,7.92,0,0,1,232.31,57.17Zm0-2a4.74,4.74,0,0,0,2.63-.7,4.51,4.51,0,0,0,1.67-2.05,8,8,0,0,0,.58-3.23,6.78,6.78,0,0,0-1.27-4.4,4.41,4.41,0,0,0-3.61-1.56,4.82,4.82,0,0,0-2.63.69A4.37,4.37,0,0,0,228,46a8,8,0,0,0-.58,3.23,6.78,6.78,0,0,0,1.28,4.4A4.37,4.37,0,0,0,232.31,55.19Z"/><path class="cls-3" d="M248.15,57.17a4.15,4.15,0,0,1-2.44-.71,3.48,3.48,0,0,1-1.39-1.9l.24-.4V56a1.12,1.12,0,0,1-.28.82,1,1,0,0,1-.79.3,1.07,1.07,0,0,1-.82-.3,1.12,1.12,0,0,1-.28-.82V42.43a1.13,1.13,0,0,1,.28-.83,1.11,1.11,0,0,1,.82-.29,1.14,1.14,0,0,1,.82.29,1.1,1.1,0,0,1,.3.83v6.16h-.27a3.37,3.37,0,0,1,1.39-1.85,4.2,4.2,0,0,1,2.42-.7,4.34,4.34,0,0,1,4.15,2.6,7,7,0,0,1,.58,3,7.17,7.17,0,0,1-.58,3,4.36,4.36,0,0,1-1.65,1.93A4.61,4.61,0,0,1,248.15,57.17Zm-.55-1.71a2.94,2.94,0,0,0,1.61-.44,2.87,2.87,0,0,0,1-1.3,5.27,5.27,0,0,0,.38-2.11,4.3,4.3,0,0,0-.83-2.86,2.75,2.75,0,0,0-2.21-1,3,3,0,0,0-1.6.43,2.74,2.74,0,0,0-1.06,1.29,5.24,5.24,0,0,0-.38,2.11,4.3,4.3,0,0,0,.84,2.86A2.74,2.74,0,0,0,247.6,55.46Z"/><path class="cls-3" d="M253.67,61.16A1.1,1.1,0,0,1,253,61a.82.82,0,0,1-.35-.39,1,1,0,0,1-.07-.5.84.84,0,0,1,.22-.44.82.82,0,0,1,.5-.21,2.4,2.4,0,0,0,1.62-.59,2.33,2.33,0,0,0,.51-1.67v-10a1.1,1.1,0,0,1,.3-.84,1.14,1.14,0,0,1,.83-.28,1.09,1.09,0,0,1,.82.28,1.18,1.18,0,0,1,.28.84V57a5.16,5.16,0,0,1-.45,2.26,3,3,0,0,1-1.34,1.33A5.84,5.84,0,0,1,253.67,61.16Zm2.91-17.32a1.48,1.48,0,0,1-1-.33,1.19,1.19,0,0,1-.36-.92,1.21,1.21,0,0,1,.36-.94,1.53,1.53,0,0,1,1-.31,1.47,1.47,0,0,1,1,.31,1.24,1.24,0,0,1,.35.94,1.22,1.22,0,0,1-.35.92A1.43,1.43,0,0,1,256.58,43.84Z"/><path class="cls-3" d="M265.84,57.17a6.36,6.36,0,0,1-3-.67,4.75,4.75,0,0,1-2-1.91,6.65,6.65,0,0,1,0-5.88,5,5,0,0,1,1.87-2,5.24,5.24,0,0,1,2.71-.71,5,5,0,0,1,2,.37,4.11,4.11,0,0,1,1.51,1.05,4.45,4.45,0,0,1,.94,1.68,7.07,7.07,0,0,1,.32,2.23.69.69,0,0,1-.22.56,1,1,0,0,1-.66.19h-7.39V50.75h6.78l-.38.31a4.75,4.75,0,0,0-.32-1.87,2.47,2.47,0,0,0-.94-1.18,2.82,2.82,0,0,0-1.55-.41,3.06,3.06,0,0,0-1.75.49,3,3,0,0,0-1.09,1.34,5,5,0,0,0-.37,2v.13a4.12,4.12,0,0,0,.91,2.92,3.46,3.46,0,0,0,2.65,1,5.91,5.91,0,0,0,1.4-.18,4.35,4.35,0,0,0,1.39-.59,1.21,1.21,0,0,1,.67-.2.81.81,0,0,1,.49.2.78.78,0,0,1,.23.44.89.89,0,0,1-.09.54,1.25,1.25,0,0,1-.46.49,5.5,5.5,0,0,1-1.74.76A7.66,7.66,0,0,1,265.84,57.17Z"/><path class="cls-3" d="M277.17,57.17a4.8,4.8,0,0,1-2.22-.46,2.92,2.92,0,0,1-1.35-1.36,5,5,0,0,1-.44-2.2V48h-1.32a1,1,0,0,1-.68-.23.85.85,0,0,1-.24-.63.83.83,0,0,1,.24-.64,1,1,0,0,1,.68-.22h1.32V44a1.1,1.1,0,0,1,.3-.83,1.15,1.15,0,0,1,.83-.29,1.1,1.1,0,0,1,.81.29,1.13,1.13,0,0,1,.29.83v2.27H278a1,1,0,0,1,.68.22.83.83,0,0,1,.24.64.85.85,0,0,1-.24.63A1,1,0,0,1,278,48h-2.57v5a2.68,2.68,0,0,0,.49,1.76,2,2,0,0,0,1.62.6,2.84,2.84,0,0,0,.69-.08l.5-.1a.51.51,0,0,1,.39.17.92.92,0,0,1,.16.62,1.6,1.6,0,0,1-.13.62.62.62,0,0,1-.42.37,4.83,4.83,0,0,1-.72.17A4.9,4.9,0,0,1,277.17,57.17Z"/><path class="cls-3" d="M281.92,43.84a1.5,1.5,0,0,1-1-.33,1.19,1.19,0,0,1-.36-.92,1.21,1.21,0,0,1,.36-.94,1.55,1.55,0,0,1,1-.31,1.5,1.5,0,0,1,1,.31,1.21,1.21,0,0,1,.36.94,1.19,1.19,0,0,1-.36.92A1.46,1.46,0,0,1,281.92,43.84Zm0,13.27a1.06,1.06,0,0,1-.82-.32,1.28,1.28,0,0,1-.28-.89V47.32a1.24,1.24,0,0,1,.28-.88,1.24,1.24,0,0,1,1.64,0,1.2,1.2,0,0,1,.3.88V55.9a1.29,1.29,0,0,1-.29.89A1.07,1.07,0,0,1,281.92,57.11Z"/><path class="cls-3" d="M290.32,57.13a1.35,1.35,0,0,1-.8-.24,1.65,1.65,0,0,1-.56-.75l-3.68-8.54a1.44,1.44,0,0,1-.13-.74.78.78,0,0,1,.33-.56,1.28,1.28,0,0,1,.77-.21,1,1,0,0,1,.66.2,1.63,1.63,0,0,1,.44.68l3.32,8.18h-.61L293.45,47a1.54,1.54,0,0,1,.45-.68,1.07,1.07,0,0,1,.71-.2.84.84,0,0,1,.91.76,1.23,1.23,0,0,1-.12.73l-3.71,8.56a1.64,1.64,0,0,1-.55.75A1.44,1.44,0,0,1,290.32,57.13Z"/><path class="cls-3" d="M302.07,57.17a5.4,5.4,0,0,1-2.8-.68,4.69,4.69,0,0,1-1.84-1.93,6.26,6.26,0,0,1-.66-3,6.59,6.59,0,0,1,.37-2.31,5.09,5.09,0,0,1,1.07-1.75,4.47,4.47,0,0,1,1.67-1.12,5.85,5.85,0,0,1,2.19-.39,5.48,5.48,0,0,1,2.78.68,4.75,4.75,0,0,1,1.84,1.93,6.22,6.22,0,0,1,.66,3,6.74,6.74,0,0,1-.37,2.31,5,5,0,0,1-1.07,1.76,4.7,4.7,0,0,1-1.67,1.11A5.86,5.86,0,0,1,302.07,57.17Zm0-1.71a2.86,2.86,0,0,0,1.58-.44,2.9,2.9,0,0,0,1.07-1.3,5.1,5.1,0,0,0,.39-2.11,4.25,4.25,0,0,0-.84-2.86,2.76,2.76,0,0,0-2.2-1,2.94,2.94,0,0,0-1.61.43,2.8,2.8,0,0,0-1.06,1.29,5.06,5.06,0,0,0-.39,2.11,4.3,4.3,0,0,0,.84,2.86A2.77,2.77,0,0,0,302.07,55.46Z"/><path class="cls-3" d="M319.08,57.17a4.44,4.44,0,0,1-2-.44,3.43,3.43,0,0,1-1.39-1.18,3,3,0,0,1-.51-1.7,2.77,2.77,0,0,1,.6-1.88,3.65,3.65,0,0,1,2-1,18.75,18.75,0,0,1,3.77-.3h1v1.37h-1a16.55,16.55,0,0,0-2.51.15,2.64,2.64,0,0,0-1.31.52,1.33,1.33,0,0,0-.38,1,1.72,1.72,0,0,0,.57,1.35,2.26,2.26,0,0,0,1.59.52,2.73,2.73,0,0,0,1.43-.38,2.8,2.8,0,0,0,1-1.05,3,3,0,0,0,.37-1.52V50.11a2.56,2.56,0,0,0-.53-1.8,2.31,2.31,0,0,0-1.74-.55,6.34,6.34,0,0,0-3,.77,1,1,0,0,1-.64.11.68.68,0,0,1-.42-.3,1,1,0,0,1-.17-.5,1,1,0,0,1,.14-.54.87.87,0,0,1,.49-.4,8.26,8.26,0,0,1,1.92-.66,8.82,8.82,0,0,1,1.78-.2,5.72,5.72,0,0,1,2.43.46,3,3,0,0,1,1.42,1.41,5.56,5.56,0,0,1,.46,2.44V56a1.2,1.2,0,0,1-.26.82,1,1,0,0,1-.77.3,1,1,0,0,1-.77-.3,1.08,1.08,0,0,1-.29-.82V54.58h.2a3.41,3.41,0,0,1-.65,1.4,3.26,3.26,0,0,1-1.18.89A4,4,0,0,1,319.08,57.17Z"/><path class="cls-3" d="M332.19,57.17a5.62,5.62,0,0,1-2.85-.69,4.69,4.69,0,0,1-1.86-2,6.33,6.33,0,0,1-.66-3,6.69,6.69,0,0,1,.37-2.3,4.78,4.78,0,0,1,1.07-1.72A4.65,4.65,0,0,1,330,46.43a6.16,6.16,0,0,1,2.24-.39,6.25,6.25,0,0,1,1.61.23,5,5,0,0,1,1.58.76.77.77,0,0,1,.36.43,1,1,0,0,1,0,.52.83.83,0,0,1-.24.45.8.8,0,0,1-.45.22,1,1,0,0,1-.57-.14,3.77,3.77,0,0,0-1.08-.54,3.71,3.71,0,0,0-1.06-.17,3.55,3.55,0,0,0-1.39.26,2.7,2.7,0,0,0-1,.72,3.09,3.09,0,0,0-.62,1.18,5.59,5.59,0,0,0-.21,1.6,4.32,4.32,0,0,0,.84,2.83,3,3,0,0,0,2.41,1,4.07,4.07,0,0,0,1.06-.16,3.49,3.49,0,0,0,1.08-.53.88.88,0,0,1,.57-.13.76.76,0,0,1,.43.23,1,1,0,0,1,.22.44,1,1,0,0,1,0,.52.81.81,0,0,1-.37.44,4.69,4.69,0,0,1-1.53.73A6.44,6.44,0,0,1,332.19,57.17Z"/><path class="cls-3" d="M342.33,57.17a4.8,4.8,0,0,1-2.22-.46,2.92,2.92,0,0,1-1.35-1.36,5,5,0,0,1-.44-2.2V48H337a1,1,0,0,1-.68-.23.85.85,0,0,1-.24-.63.83.83,0,0,1,.24-.64,1,1,0,0,1,.68-.22h1.32V44a1.1,1.1,0,0,1,.3-.83,1.15,1.15,0,0,1,.83-.29,1.1,1.1,0,0,1,.81.29,1.13,1.13,0,0,1,.29.83v2.27h2.57a1,1,0,0,1,.68.22.83.83,0,0,1,.24.64.85.85,0,0,1-.24.63,1,1,0,0,1-.68.23h-2.57v5a2.68,2.68,0,0,0,.49,1.76,2,2,0,0,0,1.62.6,2.84,2.84,0,0,0,.69-.08l.5-.1a.51.51,0,0,1,.39.17.92.92,0,0,1,.16.62,1.6,1.6,0,0,1-.13.62.62.62,0,0,1-.42.37,4.83,4.83,0,0,1-.72.17A4.9,4.9,0,0,1,342.33,57.17Z"/><path class="cls-3" d="M349.61,57.17a4.44,4.44,0,0,1-2.17-.48,3,3,0,0,1-1.3-1.44,6,6,0,0,1-.42-2.41V47.21a1,1,0,0,1,1.09-1.12,1.18,1.18,0,0,1,.83.27,1.1,1.1,0,0,1,.3.85v5.65a2.86,2.86,0,0,0,.53,1.92,2.07,2.07,0,0,0,1.67.61,2.65,2.65,0,0,0,2-.84,3.18,3.18,0,0,0,.78-2.24v-5.1a1.13,1.13,0,0,1,.29-.85,1.18,1.18,0,0,1,.84-.27,1,1,0,0,1,1.1,1.12V56c0,.75-.36,1.12-1.08,1.12a1,1,0,0,1-.79-.3A1.08,1.08,0,0,1,353,56V54.14l.29.48a3.76,3.76,0,0,1-1.41,1.89A3.91,3.91,0,0,1,349.61,57.17Z"/><path class="cls-3" d="M361.73,57.17a4.37,4.37,0,0,1-2-.44,3.46,3.46,0,0,1-1.4-1.18,3,3,0,0,1-.51-1.7,2.78,2.78,0,0,1,.61-1.88,3.58,3.58,0,0,1,2-1,18.75,18.75,0,0,1,3.77-.3h1v1.37h-1a16.37,16.37,0,0,0-2.51.15,2.6,2.6,0,0,0-1.31.52,1.3,1.3,0,0,0-.38,1,1.72,1.72,0,0,0,.57,1.35,2.25,2.25,0,0,0,1.58.52,2.7,2.7,0,0,0,1.43-.38,2.83,2.83,0,0,0,1-1.05,3.13,3.13,0,0,0,.36-1.52V50.11a2.52,2.52,0,0,0-.53-1.8,2.3,2.3,0,0,0-1.73-.55,6.34,6.34,0,0,0-3,.77,1,1,0,0,1-.64.11.74.74,0,0,1-.42-.3,1,1,0,0,1-.16-.5,1,1,0,0,1,.13-.54.89.89,0,0,1,.5-.4,8.18,8.18,0,0,1,1.91-.66,8.82,8.82,0,0,1,1.78-.2,5.66,5.66,0,0,1,2.43.46,3,3,0,0,1,1.42,1.41,5.55,5.55,0,0,1,.47,2.44V56a1.16,1.16,0,0,1-.27.82,1,1,0,0,1-.77.3,1,1,0,0,1-.77-.3A1.12,1.12,0,0,1,365,56V54.58h.2a3.13,3.13,0,0,1-1.82,2.29A4.09,4.09,0,0,1,361.73,57.17Z"/><path class="cls-3" d="M373.57,57.17a3.23,3.23,0,0,1-2.59-1,4.27,4.27,0,0,1-.87-2.89V42.43a1.13,1.13,0,0,1,.29-.83,1.1,1.1,0,0,1,.81-.29,1.16,1.16,0,0,1,.83.29,1.13,1.13,0,0,1,.29.83V53.15a2.47,2.47,0,0,0,.46,1.64,1.59,1.59,0,0,0,1.3.54h.36l.3,0a.39.39,0,0,1,.38.15,1.39,1.39,0,0,1,.11.67,1.13,1.13,0,0,1-.2.71.92.92,0,0,1-.64.32,2.77,2.77,0,0,1-.42,0Z"/></g><g class="cls-2"><path class="cls-3" d="M210.08,102.85a22.64,22.64,0,0,1-3.17-.23,17.08,17.08,0,0,1-3-.72,11.78,11.78,0,0,1-2.52-1.21,2.28,2.28,0,0,1-.9-1,2.23,2.23,0,0,1-.16-1.21,2.05,2.05,0,0,1,.46-1,1.61,1.61,0,0,1,1-.56,1.81,1.81,0,0,1,1.26.32,12.13,12.13,0,0,0,3.34,1.37,15.51,15.51,0,0,0,3.71.43,7,7,0,0,0,4.14-.95,2.93,2.93,0,0,0,1.3-2.47,2.39,2.39,0,0,0-.92-2,7.92,7.92,0,0,0-3.15-1.18l-4-.83a9.75,9.75,0,0,1-5.09-2.43,6.18,6.18,0,0,1-1.68-4.52,7.11,7.11,0,0,1,.72-3.21,7.44,7.44,0,0,1,2-2.48,9.26,9.26,0,0,1,3.13-1.6,13.68,13.68,0,0,1,4-.56,15.33,15.33,0,0,1,4.11.54,11.83,11.83,0,0,1,3.49,1.59,1.9,1.9,0,0,1,.77,1,2.09,2.09,0,0,1,.09,1.13,1.79,1.79,0,0,1-.5,1,1.54,1.54,0,0,1-1,.47,2.19,2.19,0,0,1-1.35-.36,10.59,10.59,0,0,0-2.7-1.08,13.14,13.14,0,0,0-2.95-.32,7.63,7.63,0,0,0-2.85.47,4,4,0,0,0-1.81,1.31,3.2,3.2,0,0,0-.63,2,2.64,2.64,0,0,0,.86,2.07,6.57,6.57,0,0,0,3,1.21l3.93.82a11.22,11.22,0,0,1,5.31,2.38,5.62,5.62,0,0,1,1.74,4.32,6.71,6.71,0,0,1-2.72,5.54,9.28,9.28,0,0,1-3.15,1.55A14.63,14.63,0,0,1,210.08,102.85Z"/><path class="cls-3" d="M229.41,102.85a7.62,7.62,0,0,1-3.4-.74,5.94,5.94,0,0,1-2.34-2,5,5,0,0,1-.84-2.85,4.48,4.48,0,0,1,1-3.08,6.14,6.14,0,0,1,3.28-1.64,29.68,29.68,0,0,1,6.09-.5H235v2.59h-1.77a22.31,22.31,0,0,0-3.56.22,3.56,3.56,0,0,0-1.89.74,1.9,1.9,0,0,0-.56,1.45,2.52,2.52,0,0,0,.83,2,3.3,3.3,0,0,0,2.3.75,4,4,0,0,0,2.11-.55,4,4,0,0,0,1.45-1.53,4.43,4.43,0,0,0,.55-2.24V91.29a3.55,3.55,0,0,0-.8-2.59,3.71,3.71,0,0,0-2.66-.79,11.55,11.55,0,0,0-2.25.25,12.15,12.15,0,0,0-2.54.87,1.82,1.82,0,0,1-1.21.18,1.38,1.38,0,0,1-.8-.6,1.74,1.74,0,0,1-.29-1,2.09,2.09,0,0,1,.29-1.06,1.71,1.71,0,0,1,1-.77,15.71,15.71,0,0,1,3.18-1,14.54,14.54,0,0,1,2.79-.29,10,10,0,0,1,4.27.79,5.28,5.28,0,0,1,2.5,2.39,9,9,0,0,1,.83,4.13v8.63a2.44,2.44,0,0,1-.54,1.71,2,2,0,0,1-1.55.6,2.06,2.06,0,0,1-1.57-.6,2.39,2.39,0,0,1-.55-1.71V98.75h.29a5,5,0,0,1-1,2.17,5.05,5.05,0,0,1-1.86,1.43A6.25,6.25,0,0,1,229.41,102.85Z"/><path class="cls-3" d="M249.32,102.85a5.7,5.7,0,0,1-4.5-1.71,7.4,7.4,0,0,1-1.51-5v-17a2.27,2.27,0,0,1,.58-1.69,2.24,2.24,0,0,1,1.65-.58,2.35,2.35,0,0,1,1.68.58,2.27,2.27,0,0,1,.59,1.69V95.9a3.66,3.66,0,0,0,.7,2.45,2.53,2.53,0,0,0,2,.79h.54l.51-.06a.59.59,0,0,1,.68.27,3.48,3.48,0,0,1,.18,1.39,2.38,2.38,0,0,1-.36,1.4,1.62,1.62,0,0,1-1.19.61l-.75.08C249.85,102.84,249.59,102.85,249.32,102.85Z"/><path class="cls-3" d="M261.17,102.85a7.34,7.34,0,0,1-3.64-.81,5,5,0,0,1-2.14-2.43,10.11,10.11,0,0,1-.7-4V86.87a2,2,0,0,1,2.23-2.27,2.34,2.34,0,0,1,1.67.56,2.22,2.22,0,0,1,.6,1.71v8.78a4.26,4.26,0,0,0,.75,2.77,3,3,0,0,0,2.42.9,3.85,3.85,0,0,0,2.95-1.24,4.63,4.63,0,0,0,1.15-3.29V86.87a2,2,0,0,1,2.23-2.27,2.38,2.38,0,0,1,1.68.56,2.26,2.26,0,0,1,.59,1.71v13.6c0,1.54-.73,2.31-2.2,2.31a2.16,2.16,0,0,1-1.62-.6,2.35,2.35,0,0,1-.57-1.71V97.74l.5,1.08a6.26,6.26,0,0,1-2.28,3A6.34,6.34,0,0,1,261.17,102.85Z"/><path class="cls-3" d="M282.41,102.85a7.13,7.13,0,0,1-6.77-4.3,11.36,11.36,0,0,1-1-4.88,11.24,11.24,0,0,1,1-4.88,7.49,7.49,0,0,1,2.72-3.15,7.37,7.37,0,0,1,4.05-1.11,6.8,6.8,0,0,1,3.83,1.08,5.38,5.38,0,0,1,2.22,2.84h-.4V79.09a2.3,2.3,0,0,1,.57-1.69,2.28,2.28,0,0,1,1.66-.58,2.3,2.3,0,0,1,1.67.58,2.23,2.23,0,0,1,.6,1.69v21.38a2.32,2.32,0,0,1-.58,1.71,2.17,2.17,0,0,1-1.65.6,2.19,2.19,0,0,1-1.66-.6,2.36,2.36,0,0,1-.58-1.71v-2.8l.4,1.08a5.27,5.27,0,0,1-2.2,3A6.8,6.8,0,0,1,282.41,102.85Zm1.26-3.42a4.29,4.29,0,0,0,2.34-.65,4.19,4.19,0,0,0,1.56-1.92,8.07,8.07,0,0,0,.56-3.19,6.49,6.49,0,0,0-1.22-4.3A4.07,4.07,0,0,0,283.67,88a4.31,4.31,0,0,0-2.34.63,4,4,0,0,0-1.57,1.91,8,8,0,0,0-.56,3.18,6.51,6.51,0,0,0,1.23,4.3A4,4,0,0,0,283.67,99.43Z"/><path class="cls-3" d="M313.44,102.85a18.36,18.36,0,0,1-3.28-.32,9.71,9.71,0,0,1-3.09-1.12,2,2,0,0,1-.81-.84,1.72,1.72,0,0,1-.18-1,1.45,1.45,0,0,1,.36-.84,1.36,1.36,0,0,1,.79-.47,1.6,1.6,0,0,1,1.06.18,12.18,12.18,0,0,0,2.7,1,11.84,11.84,0,0,0,2.48.27,4.49,4.49,0,0,0,2.58-.59,1.84,1.84,0,0,0,.84-1.57,1.52,1.52,0,0,0-.55-1.27,3.82,3.82,0,0,0-1.68-.67l-3.6-.69a6.21,6.21,0,0,1-3.4-1.63,4.3,4.3,0,0,1-1.17-3.12,4.82,4.82,0,0,1,.95-3,6.15,6.15,0,0,1,2.65-2,10.23,10.23,0,0,1,3.89-.68,12.34,12.34,0,0,1,3,.34,10.92,10.92,0,0,1,2.68,1.06,1.52,1.52,0,0,1,.83,1.71,2,2,0,0,1-.43.86,1.35,1.35,0,0,1-.81.47,1.82,1.82,0,0,1-1.1-.19A9.78,9.78,0,0,0,316,88a8.18,8.18,0,0,0-2-.25,4.49,4.49,0,0,0-2.61.61,1.9,1.9,0,0,0-.84,1.62,1.74,1.74,0,0,0,.5,1.26,2.87,2.87,0,0,0,1.55.68l3.6.68a6.86,6.86,0,0,1,3.55,1.59,4.1,4.1,0,0,1,1.2,3.1,4.82,4.82,0,0,1-2,4.12A9.14,9.14,0,0,1,313.44,102.85Z"/><path class="cls-3" d="M332.59,102.85a9.69,9.69,0,0,1-4.75-1.11,7.76,7.76,0,0,1-3.13-3.19,10.08,10.08,0,0,1-1.12-4.88,10.74,10.74,0,0,1,.63-3.8A8.27,8.27,0,0,1,326,87a7.9,7.9,0,0,1,2.84-1.83,10.39,10.39,0,0,1,3.71-.63,9.69,9.69,0,0,1,4.75,1.11,7.77,7.77,0,0,1,3.13,3.17,10,10,0,0,1,1.12,4.86,10.89,10.89,0,0,1-.63,3.82,8,8,0,0,1-1.82,2.89,7.79,7.79,0,0,1-2.84,1.84A10.39,10.39,0,0,1,332.59,102.85Zm0-3.42a4.06,4.06,0,0,0,3.91-2.57,8.08,8.08,0,0,0,.55-3.19,6.43,6.43,0,0,0-1.22-4.3A4.07,4.07,0,0,0,332.59,88a4.31,4.31,0,0,0-2.34.63,4.13,4.13,0,0,0-1.57,1.91,8,8,0,0,0-.55,3.18,6.51,6.51,0,0,0,1.22,4.3A4,4,0,0,0,332.59,99.43Z"/><path class="cls-3" d="M353.43,102.85a9.87,9.87,0,0,1-4.82-1.13,7.81,7.81,0,0,1-3.17-3.22,10.33,10.33,0,0,1-1.11-4.9,10.74,10.74,0,0,1,.63-3.8A7.61,7.61,0,0,1,346.77,87a8.09,8.09,0,0,1,2.88-1.8,10.78,10.78,0,0,1,3.78-.63,11.22,11.22,0,0,1,2.58.32,9,9,0,0,1,2.61,1.08,1.74,1.74,0,0,1,.75.86,1.91,1.91,0,0,1,.08,1,2,2,0,0,1-.45.9,1.51,1.51,0,0,1-.85.47A1.78,1.78,0,0,1,357,89a6.77,6.77,0,0,0-1.62-.71,6,6,0,0,0-1.58-.23,5.23,5.23,0,0,0-2.09.38,4.18,4.18,0,0,0-1.53,1.08,4.57,4.57,0,0,0-.95,1.74,8,8,0,0,0-.33,2.41,6.37,6.37,0,0,0,1.28,4.2,4.45,4.45,0,0,0,3.62,1.53,5.88,5.88,0,0,0,1.57-.22,7,7,0,0,0,1.63-.68,1.61,1.61,0,0,1,1.1-.22,1.51,1.51,0,0,1,.81.49,1.69,1.69,0,0,1,.4.9,2.15,2.15,0,0,1-.13,1,1.66,1.66,0,0,1-.74.82,9,9,0,0,1-2.52,1A11,11,0,0,1,353.43,102.85Z"/><path class="cls-3" d="M364.52,81.29a2.83,2.83,0,0,1-2-.63,2.55,2.55,0,0,1,0-3.51,3.49,3.49,0,0,1,3.94,0,2.6,2.6,0,0,1,0,3.51A2.84,2.84,0,0,1,364.52,81.29Zm0,21.45a2.09,2.09,0,0,1-1.66-.65,2.63,2.63,0,0,1-.57-1.8V87.08a2.65,2.65,0,0,1,.57-1.82,2.18,2.18,0,0,1,1.66-.63,2.21,2.21,0,0,1,1.67.63,2.56,2.56,0,0,1,.6,1.82v13.21a2.58,2.58,0,0,1-.58,1.8A2.12,2.12,0,0,1,364.52,102.74Z"/><path class="cls-3" d="M377.26,102.85a7.62,7.62,0,0,1-3.4-.74,5.94,5.94,0,0,1-2.34-2,5,5,0,0,1-.84-2.85,4.48,4.48,0,0,1,1-3.08A6.14,6.14,0,0,1,375,92.55a29.64,29.64,0,0,1,6.08-.5h1.8v2.59h-1.76a22.31,22.31,0,0,0-3.56.22,3.56,3.56,0,0,0-1.89.74,1.86,1.86,0,0,0-.56,1.45,2.48,2.48,0,0,0,.83,2,3.3,3.3,0,0,0,2.3.75,3.9,3.9,0,0,0,3.56-2.08,4.53,4.53,0,0,0,.54-2.24V91.29a3.55,3.55,0,0,0-.79-2.59,3.71,3.71,0,0,0-2.66-.79,11.55,11.55,0,0,0-2.25.25,12,12,0,0,0-2.54.87,1.82,1.82,0,0,1-1.21.18,1.43,1.43,0,0,1-.81-.6,1.81,1.81,0,0,1-.28-1,2.18,2.18,0,0,1,.28-1.06,1.77,1.77,0,0,1,1-.77,15.71,15.71,0,0,1,3.18-1,14.54,14.54,0,0,1,2.79-.29,10,10,0,0,1,4.27.79,5.32,5.32,0,0,1,2.5,2.39,9,9,0,0,1,.83,4.13v8.63a2.44,2.44,0,0,1-.54,1.71,2,2,0,0,1-1.55.6,2.06,2.06,0,0,1-1.57-.6,2.39,2.39,0,0,1-.55-1.71V98.75h.28a4.76,4.76,0,0,1-1,2.17,4.94,4.94,0,0,1-1.85,1.43A6.25,6.25,0,0,1,377.26,102.85Z"/><path class="cls-3" d="M397.17,102.85a5.7,5.7,0,0,1-4.5-1.71,7.35,7.35,0,0,1-1.51-5v-17a2.27,2.27,0,0,1,.58-1.69,2.24,2.24,0,0,1,1.65-.58,2.35,2.35,0,0,1,1.68.58,2.27,2.27,0,0,1,.59,1.69V95.9a3.6,3.6,0,0,0,.7,2.45,2.53,2.53,0,0,0,2,.79h.54l.5-.06a.6.6,0,0,1,.69.27,3.48,3.48,0,0,1,.18,1.39,2.38,2.38,0,0,1-.36,1.4,1.62,1.62,0,0,1-1.19.61l-.76.08C397.7,102.84,397.44,102.85,397.17,102.85Z"/></g><path class="cls-4" d="M166.42,120.53l-.63-.42-.64-.4c-1.71-1.07-3.46-2.09-5.2-3.11s-3.49-2-5.22-3.06L152.15,112l-1.28-.8c-.22-.14-.42-.27-.65-.4a7.58,7.58,0,0,0-.68-.37,15.19,15.19,0,0,0-2.89-1.06c-1-.26-2-.46-3-.63s-2-.27-3-.36-2-.15-3-.19a95.69,95.69,0,0,0-12.09.34c-2-.25-3.94-.53-5.9-.82s-4-.6-5.91-.94a15.25,15.25,0,0,1-2.83-.73,10,10,0,0,1-2.48-1.47,12.6,12.6,0,0,1-3.46-4.64l0,0,0,0a17.65,17.65,0,0,1-3.11-5.63c-.35-1-.73-2.08-1.15-3.1-.21-.51-.43-1-.66-1.52l-.34-.75-.17-.37a1.42,1.42,0,0,1-.11-.33.78.78,0,0,1,0-.3.19.19,0,0,1,0-.09s0,0,.06-.06a.51.51,0,0,1,.27,0,1.61,1.61,0,0,1,.37,0c.25,0,.51.13.77.19s.51.17.75.27.5.2.73.33l.36.18.35.21c.23.13.45.29.67.44a7.73,7.73,0,0,1,.64.49,10.24,10.24,0,0,1,1.17,1.11c.18.2.36.4.52.61a6,6,0,0,1,.44.67,11.42,11.42,0,0,1,1.25,3v0l-.3.17a2.37,2.37,0,0,0-.39.32,1.82,1.82,0,0,0-.52.87l.31-.39c.11-.12.22-.24.34-.35s.38-.37.57-.55v0h.12a6,6,0,0,1,.93.14,7.22,7.22,0,0,1,.89.31,8.47,8.47,0,0,1,1.64,1A12.26,12.26,0,0,1,112.77,98,14.6,14.6,0,0,1,114,99.44l0,0a9.41,9.41,0,0,0-.54,1.42c-.07.26-.14.52-.19.79a2.2,2.2,0,0,0,0,.81,2.57,2.57,0,0,1,.06-.4c0-.13.07-.26.1-.38s.15-.51.22-.77c.14-.48.28-1,.39-1.45l.06,0a6.18,6.18,0,0,1,1.42-.37A12.29,12.29,0,0,1,117,99c.5,0,1,0,1.49.06s1,.09,1.49.16c-.49-.09-1-.16-1.49-.21s-1-.09-1.49-.1a12.54,12.54,0,0,0-1.5.06,6.14,6.14,0,0,0-1.41.32,13.62,13.62,0,0,0-2.63-2.79,8.62,8.62,0,0,0-1.67-1,7.36,7.36,0,0,0-.93-.34A5,5,0,0,0,108,95a11,11,0,0,0-1.2-3c-.15-.25-.29-.48-.46-.71a1.47,1.47,0,0,0-.1-.13l1.13.17,1.38.25c.46.09.91.19,1.36.31.22.06.45.12.66.2a2.45,2.45,0,0,1,.61.29h0a2,2,0,0,0-.14.34,2.16,2.16,0,0,0-.1.44,2.26,2.26,0,0,0,0,.45,1,1,0,0,0,.13.44,6.26,6.26,0,0,1,0-.87c0-.26.07-.52.09-.79h0l2-.06c.65,0,1.31,0,2,0a18.27,18.27,0,0,1,2,.15,5.87,5.87,0,0,1,1.81.45.17.17,0,0,1,0,.07l0,.13,0,.11v0a4.06,4.06,0,0,0-.09.7c0,.12,0,.24,0,.36a.94.94,0,0,0,.08.36h0a1.81,1.81,0,0,1,.13.89,1.2,1.2,0,0,0,0-.46,1.85,1.85,0,0,0-.08-.46h0a1.14,1.14,0,0,1-.06-.33c0-.11,0-.22,0-.34a5.07,5.07,0,0,1,.11-.68v0l0-.15,0-.13,0-.27c0-.18,0-.36.05-.54,0-.36,0-.71,0-1.07s0-.72,0-1.08,0-.71,0-1.07c0,.36-.05.72-.07,1.07l-.07,1.07c0,.36,0,.71-.07,1.07,0,.17,0,.35,0,.53a1.11,1.11,0,0,0,0,.19,3.79,3.79,0,0,0-.84-.34,8,8,0,0,0-1-.21,18.34,18.34,0,0,0-2-.21,36.61,36.61,0,0,0-3.92,0,2.68,2.68,0,0,0-.62-.29c-.22-.09-.45-.14-.68-.21-.46-.11-.92-.19-1.38-.27s-.92-.15-1.39-.2-.77-.09-1.16-.12c-.13-.17-.27-.34-.41-.5a12,12,0,0,0-1.2-1.17c-.21-.19-.44-.35-.66-.52s-.45-.33-.7-.47l-.36-.22-.37-.2a7.43,7.43,0,0,0-.76-.35c-.26-.12-.53-.2-.79-.3l-.82-.22a2.31,2.31,0,0,0-.46-.05h-.24A6.55,6.55,0,0,0,97,84.38l-.43-.26L96.31,84h.14c.38,0,.75.06,1.12.11a9.74,9.74,0,0,1,1.1.23,2.77,2.77,0,0,1,.94.41,1.76,1.76,0,0,0-.19.39,1,1,0,0,0,0,.36.42.42,0,0,0,.15.32.87.87,0,0,1,0-.32,1.77,1.77,0,0,1,.08-.31c0-.12.07-.24.11-.37h0l.11,0a9.85,9.85,0,0,1,2.36-.17,9.42,9.42,0,0,1,2.33.45c.76.25,1.51.54,2.27.83l2.28.87a6.26,6.26,0,0,0,1.71.45c-.07.26-.12.52-.17.78a9.1,9.1,0,0,0-.16.91c0,.31-.09.61-.11.92a4.82,4.82,0,0,0,0,.93,3.59,3.59,0,0,1,0-.46c0-.15,0-.3.06-.46l.14-.91c0-.31.09-.61.13-.92l.09-.78c.23,0,.46,0,.7,0l.61,0h.6l1.22,0c1.62,0,3.25.1,4.87.15-1.62-.15-3.24-.27-4.86-.38-.41,0-.81,0-1.22-.06l-.61,0c-.21,0-.41,0-.61,0a6.39,6.39,0,0,1-2.3-.54L107,85.51c-.75-.31-1.51-.61-2.29-.87a10,10,0,0,0-2.44-.51,10.58,10.58,0,0,0-2.38.14,3.89,3.89,0,0,0-1-.45,11.36,11.36,0,0,0-1.16-.24c-.35,0-.7-.09-1.05-.11,0-.07-.09-.13-.13-.19s-.22-.29-.34-.43-.47-.55-.72-.82c-.49-.53-1-1-1.5-1.57s-1-1-1.55-1.53L90.8,77.44a.91.91,0,0,1-.29-.59.44.44,0,0,1,.11-.24.82.82,0,0,1,.28-.19l.08,0h.08l.2-.06a3.45,3.45,0,0,1,.4-.11l.41-.1.41-.07a7.85,7.85,0,0,1,3.27.21,8.51,8.51,0,0,1,2.91,1.51,10.7,10.7,0,0,1,1.21,1.12l.26.31.06.08,0,0,.06.07a1.21,1.21,0,0,0,.23.19l.16.09a4.17,4.17,0,0,0-.25.78,2.77,2.77,0,0,0,0,1.11,7.85,7.85,0,0,1,.18-1.08c.06-.26.12-.52.17-.78a4.16,4.16,0,0,0,.66.27h.06c.73.11,1.47.25,2.19.43.36.08.72.18,1.08.29s.71.21,1.07.33.69.24,1,.38.69.29,1.06.43a8.81,8.81,0,0,0,1.14.34l-.12.32c-.07.22-.13.45-.19.69a5.38,5.38,0,0,0-.12.7,1.88,1.88,0,0,0,0,.71,1.37,1.37,0,0,1,0-.35c0-.12,0-.23,0-.35l.15-.68.17-.69c0-.12,0-.23.07-.34a10.56,10.56,0,0,0,1.11.15h.06a11.63,11.63,0,0,1,2.5,0c.85.09,1.69.25,2.52.42s1.67.39,2.49.62,1.65.49,2.46.76l.13,0,.1-.08a5.38,5.38,0,0,1,2.2-1,12.8,12.8,0,0,1,2.48-.25,19,19,0,0,1,2.5.14c.8.1,1.61.22,2.4.39.78,1.08,1.6,2.13,2.44,3.17-.57-.75-1.12-1.51-1.66-2.27s-1.07-1.54-1.57-2.32-1-1.58-1.44-2.4a12.09,12.09,0,0,1-.6-1.26,3.84,3.84,0,0,1-.33-1.29V76.9h-.09l.17-.49c.08-.22.16-.43.25-.64.17-.43.36-.84.54-1.28a4.75,4.75,0,0,0-.71,1.21,4.5,4.5,0,0,0-.3,1.2h0a7.1,7.1,0,0,1-1.65-.12,10,10,0,0,1-1.6-.44,9.71,9.71,0,0,1-2.85-1.7,10.86,10.86,0,0,1-1.17-1.18,12.86,12.86,0,0,1-1-1.34A16.1,16.1,0,0,1,117,69.19a3.63,3.63,0,0,1,.09-.65,2.73,2.73,0,0,1,.24-.64,1,1,0,0,1,.4-.43.85.85,0,0,1,.51-.08q2.08,1,4.24,1.88c.73.29,1.46.57,2.22.81l.56.18.58.15.6.12.31,0,.32,0h0a15.72,15.72,0,0,1,2.3.56,14.4,14.4,0,0,1,2.19.9,9.84,9.84,0,0,1,1.95,1.29,9.07,9.07,0,0,1,.82.82,7.78,7.78,0,0,1,.66.93,4.44,4.44,0,0,0,.32.57c.12.19.25.37.38.55a9.25,9.25,0,0,0,.89,1,9.55,9.55,0,0,0,2.15,1.53l.29.15.31.13.3.13a2.85,2.85,0,0,0,.31.12l.3.11.16,0,.13,0,.58.24c.77.33,1.52.7,2.26,1.1a19.89,19.89,0,0,1,4.08,2.88A11,11,0,0,1,149,85.55a7.62,7.62,0,0,1,1.05,2.19v.05a6.48,6.48,0,0,0,1.22,1.81A7,7,0,0,0,153,90.91a7.22,7.22,0,0,0,1,.43l.52.17c.17,0,.32.1.48.15.63.24,1.26.52,1.89.81,2.51,1.18,5,2.47,7.44,3.77l7.37,3.94,7.34,4c-2.4-1.42-4.81-2.81-7.23-4.2l-3.63-2.06c-1.21-.69-2.43-1.36-3.65-2-2.44-1.34-4.89-2.67-7.4-3.9-.63-.3-1.27-.6-1.93-.86-.17-.06-.35-.13-.51-.17s-.32-.11-.48-.17a6.18,6.18,0,0,1-.91-.41,5.92,5.92,0,0,1-2.66-2.82,7.91,7.91,0,0,0-1.11-2.37,11.47,11.47,0,0,0-1.7-2,20.63,20.63,0,0,0-4.22-3c-.76-.41-1.53-.79-2.32-1.14l-.6-.25-.16-.06-.15,0-.29-.1-.29-.11-.28-.13-.29-.12-.27-.14a8.91,8.91,0,0,1-2-1.41,7.84,7.84,0,0,1-.82-.91c-.12-.16-.24-.32-.35-.49s-.21-.36-.28-.51v0h0a9.35,9.35,0,0,0-.74-1,8.4,8.4,0,0,0-.9-.89,10.65,10.65,0,0,0-2.09-1.38,15.81,15.81,0,0,0-2.3-.93,15,15,0,0,0-2.42-.57h0l-.27,0a1.27,1.27,0,0,1-.26,0,4.86,4.86,0,0,1-.55-.1l-.55-.14-.55-.17c-.74-.23-1.46-.5-2.18-.78-1.44-.56-2.87-1.19-4.27-1.85l0,0h0a1.48,1.48,0,0,0-.47,0,1.42,1.42,0,0,0-.45.16,1.72,1.72,0,0,0-.62.67,3,3,0,0,0-.27.79,4.27,4.27,0,0,0-.1.81v0l0,0A16.2,16.2,0,0,0,118,72.4a12.77,12.77,0,0,0,1,1.38A11.91,11.91,0,0,0,120.31,75a9.64,9.64,0,0,0,3,1.72,8.34,8.34,0,0,0,3.25.52,4.26,4.26,0,0,0,.38,1.24,13.53,13.53,0,0,0,.64,1.26c.47.82,1,1.61,1.51,2.38.31.45.62.88.93,1.32a20.85,20.85,0,0,0-2.37-.53,19.22,19.22,0,0,0-2.52-.27,12.13,12.13,0,0,0-2.55.14,6.15,6.15,0,0,0-2.31.88c-.78-.29-1.56-.55-2.35-.79s-1.66-.49-2.51-.69a24.9,24.9,0,0,0-2.58-.47,12,12,0,0,0-2.62-.09,7,7,0,0,1-2.08-.46c-.34-.13-.69-.28-1-.43s-.72-.28-1.08-.4c-.74-.25-1.46-.46-2.21-.64a21.35,21.35,0,0,0-2.23-.42,3,3,0,0,1-.67-.3l-.11-.08h0l0,0-.07-.09-.3-.34a9.92,9.92,0,0,0-1.31-1.2,9.1,9.1,0,0,0-3.16-1.57,8,8,0,0,0-3.52-.14l-.43.08-.43.11-.42.13-.21.07h-.05l0,0h0l-.12,0a1.38,1.38,0,0,0-.41.32.84.84,0,0,0-.21.53.91.91,0,0,0,.14.53,2.39,2.39,0,0,0,.13.21l.16.18h0c.55.47,1.09,1,1.63,1.44s1.08,1,1.61,1.45,1.07,1,1.59,1.49l.76.77c.12.13.25.26.36.4s.09.11.13.16h-.08c-.38,0-.76,0-1.14,0a16.11,16.11,0,0,0-5.54-.16,10.58,10.58,0,0,0-2.7.78,11.31,11.31,0,0,0-1.24.66,5.47,5.47,0,0,0-1.13.88,1.63,1.63,0,0,0-.4.66,1.06,1.06,0,0,0,.1.8,1.88,1.88,0,0,0,.51.57,3.2,3.2,0,0,0,.61.37,9.09,9.09,0,0,0,1.3.53c.44.14.89.26,1.34.36l.68.13c.23,0,.46.06.69.09l1.37.15,2.41.26A17.68,17.68,0,0,1,95,93l.08.23a1.23,1.23,0,0,0,.12.26c.08.15.17.3.26.44l.28.42.3.41a12.8,12.8,0,0,0,1.34,1.51c.23.24.49.45.74.68l.79.62c.28.18.55.38.84.55l.43.25.22.12.23.11a12.58,12.58,0,0,0,3.26,1.12l.4.54a13.15,13.15,0,0,0,3.62,4.87,10.34,10.34,0,0,0,2.66,1.58,14.86,14.86,0,0,0,3,.78c2,.34,4,.66,5.93,1s4,.57,6,.82h.08c2-.19,4-.31,6-.38s4-.09,6,0c1,0,2,.09,3,.17s2,.19,3,.33a26.31,26.31,0,0,1,2.94.57,14.39,14.39,0,0,1,2.81,1,6.75,6.75,0,0,1,.65.34c.21.11.43.25.64.38l1.3.79c.87.51,1.74,1,2.61,1.53q2.63,1.51,5.28,3c1.76,1,3.53,1.95,5.26,3a29.3,29.3,0,0,1,4.93,3.49,21.57,21.57,0,0,0-2.32-2C167.26,121.1,166.85,120.81,166.42,120.53ZM91,89.09l-1.36-.21c-.23,0-.46-.06-.68-.11l-.66-.16a11.27,11.27,0,0,1-2.55-.93,4,4,0,0,1-.55-.36,1.58,1.58,0,0,1-.4-.46.73.73,0,0,1-.05-.52,1.42,1.42,0,0,1,.32-.5,5,5,0,0,1,1.07-.77c.19-.12.39-.22.59-.32s.4-.2.61-.29a10.41,10.41,0,0,1,2.58-.72q.72-.09,1.44-.12a.67.67,0,0,0-.09.21,2.34,2.34,0,0,0-.1,1.08,3.53,3.53,0,0,0,.3,1c.14.32.3.6.45.9l.45.88c.31.59.64,1.18,1,1.74v0Zm6.76,6.84a14.82,14.82,0,0,1-1.26-1.49c-.09-.13-.19-.27-.27-.4s-.18-.27-.27-.41l-.24-.42a.63.63,0,0,1,0-.09l0,0a.21.21,0,0,0,0-.06l-.08-.23a17.24,17.24,0,0,0-1.74-3.62c-.35-.56-.67-1.12-1-1.7l-.46-.88c-.15-.29-.31-.59-.44-.87A2.4,2.4,0,0,1,91.68,84a.54.54,0,0,1,.33-.36h.57a18.82,18.82,0,0,1,2.69.33h.06l.22.07.23.07.22.09.45.19.43.24a6.72,6.72,0,0,1,1.55,1.17l.33.37c.1.13.21.25.3.38a4.48,4.48,0,0,1,.39.61,1.53,1.53,0,0,0-.26.08.73.73,0,0,0-.38.5,1.3,1.3,0,0,0,0,.52,3.19,3.19,0,0,0,.13.44l.18.39.33.75c.18.4.35.82.52,1.23a7.2,7.2,0,0,0-.28.9c0,.22-.08.44-.1.66a2.15,2.15,0,0,0,0,.67c0-.22.08-.43.12-.65l.14-.64c.06-.25.11-.51.16-.77a1.17,1.17,0,0,1,0,.11c.4,1,.76,2,1.1,3.08a17.65,17.65,0,0,0,1.32,3.07,20.14,20.14,0,0,0,1.38,2.15A13.68,13.68,0,0,1,97.72,95.93Z"/><path class="cls-5" d="M137.83,94.76a24.05,24.05,0,0,0-4.26,1.37q-.52.23-1,.48c-.33.16-.66.33-1,.47s-.67.29-1,.42l-.52.19-.52.17a17,17,0,0,1-4.32.82,10.39,10.39,0,0,0,2.23,0,13.84,13.84,0,0,0,2.21-.4,14.42,14.42,0,0,0,2.13-.72c.35-.14.68-.31,1-.47s.66-.3,1-.45c.67-.29,1.36-.55,2.05-.8l1-.35.53-.15a4.61,4.61,0,0,1,.53-.15,17.11,17.11,0,0,1,2.15-.46,11.51,11.51,0,0,1,2.2-.11,8.76,8.76,0,0,0-2.23-.15A15.18,15.18,0,0,0,137.83,94.76Z"/><path class="cls-6" d="M108.3,63.82a3.68,3.68,0,0,0-.22-.94,6,6,0,0,0-.93-1.61,7.16,7.16,0,0,0-2.93-2.2,7.29,7.29,0,0,0-1.78-.46c-.31,0-.56-.07-.85-.13s-.55-.13-.82-.21A6.67,6.67,0,0,1,100,58a6.94,6.94,0,0,1-.75-.41,7.75,7.75,0,0,0-1.66-.75l-.85-.26a5.44,5.44,0,0,1-.8-.29,4.64,4.64,0,0,1-1.4-.89,4.45,4.45,0,0,1-1-1.34,2.32,2.32,0,0,1-.21-.77,1.77,1.77,0,0,1,.09-.76,3,3,0,0,1,.44-.69,4.76,4.76,0,0,1,.57-.62,5.09,5.09,0,0,1,1.41-.91c1.06-.35,2.14-.65,3.23-.9.55-.13,1.09-.24,1.65-.34s1.11-.22,1.66-.36c1.1-.26,2.19-.55,3.27-.86s2.17-.63,3.25-1l-3.28.83c-1.09.27-2.19.53-3.29.76-.55.12-1.1.23-1.66.31s-1.12.18-1.67.29a31.14,31.14,0,0,0-3.29.85h0a5.62,5.62,0,0,0-1.55,1,5.68,5.68,0,0,0-.63.67,3.16,3.16,0,0,0-.51.79,2.16,2.16,0,0,0-.14,1,2.66,2.66,0,0,0,.24.93,4.74,4.74,0,0,0,1.06,1.51,5.14,5.14,0,0,0,1.54,1,8.71,8.71,0,0,0,.85.32l.84.27a7.36,7.36,0,0,1,1.53.72,7.55,7.55,0,0,0,.8.44h0a3.6,3.6,0,0,0-.58.45,3.93,3.93,0,0,0-.7.87c-.1.16-.17.34-.25.5a3.68,3.68,0,0,0-.16.54,2.3,2.3,0,0,0-.06.28l0,.27a1.31,1.31,0,0,0,0,.28c0,.09,0,.18,0,.28a5.34,5.34,0,0,1,.21-1.07,3.84,3.84,0,0,1,.43-1,5.41,5.41,0,0,1,.64-.87c.13-.13.25-.26.39-.38l.16-.14a5.75,5.75,0,0,0,.78.31,6.88,6.88,0,0,0,.89.24c.29.06.62.11.89.14a7.07,7.07,0,0,1,1.62.44,6.78,6.78,0,0,1,2.65,2,5.33,5.33,0,0,1,.81,1.43,2.8,2.8,0,0,1,.19.77,2.29,2.29,0,0,1,0,.37,3,3,0,0,1-.09.38,2.08,2.08,0,0,1-.87,1.19,2.23,2.23,0,0,1-1.47.31h-.11a8.08,8.08,0,0,1-.86.09,6.26,6.26,0,0,1-.86,0,11.69,11.69,0,0,1-1.74-.36,25.44,25.44,0,0,1-3.4-1.21,24.37,24.37,0,0,0-5-2.2,19.1,19.1,0,0,0-2.69-.63c-.91-.15-1.82-.24-2.73-.33s-1.8-.16-2.71-.24-1.81-.14-2.71-.24a24.37,24.37,0,0,1-5.26-1.16h0a14,14,0,0,1-1.65-.58,12.61,12.61,0,0,1-1.54-.82,16.56,16.56,0,0,1-2.77-2.17,22.72,22.72,0,0,1-2.35-2.65,24.39,24.39,0,0,1-2-3,23,23,0,0,0,1.84,3c.43.6.89,1.17,1.37,1.73-3-.57-6-1-9-1.24-1.54-.15-3.09-.25-4.64-.33s-3.1-.11-4.65-.11-3.1.06-4.65.16c-.78.06-1.55.13-2.32.22s-1.55.19-2.31.33a27,27,0,0,0-4.53,1.13,12.41,12.41,0,0,0-4.06,2.24A13.72,13.72,0,0,1,38,55.9a30,30,0,0,1,4.5-.93c1.52-.2,3.05-.35,4.59-.42s3.07-.13,4.61-.13,3.09,0,4.63.07,3.08.13,4.62.22c3,.18,6.07.42,9.1.71.3.34.6.68.91,1a16.33,16.33,0,0,0,2.76,2.28,13.41,13.41,0,0,0,1.57.88,12.71,12.71,0,0,0,1.69.63h0a25,25,0,0,0,5.33,1.28c.91.11,1.82.19,2.72.29l2.7.28c.9.09,1.81.19,2.69.34A19.34,19.34,0,0,1,93,63a24.62,24.62,0,0,1,4.89,2.19h0a26.89,26.89,0,0,0,3.49,1.26,11.45,11.45,0,0,0,1.85.38,6.24,6.24,0,0,0,1,0,6.85,6.85,0,0,0,.91-.1A2.9,2.9,0,0,0,107,66.4a2.7,2.7,0,0,0,1.16-1.58,4.15,4.15,0,0,0,.11-.48A2.26,2.26,0,0,0,108.3,63.82Z"/><path class="cls-7" d="M135.85,54.05a1.12,1.12,0,0,0-.11-.71,2.9,2.9,0,0,0-.82-.94c-.63-.46-1.23-.9-1.83-1.37l-.9-.7-.43-.36a4.61,4.61,0,0,1-.39-.36c-.2-.26-.41-.5-.62-.74l-.15-.16c.19,0,.39.08.58.11a5.45,5.45,0,0,0,1.07.08,3.94,3.94,0,0,0,1.08-.13,3.26,3.26,0,0,0,1-.47h0a2.48,2.48,0,0,0,.35-.45,1.76,1.76,0,0,0,.22-.55,1.13,1.13,0,0,0,0-.63,1.3,1.3,0,0,0-.37-.51,2.42,2.42,0,0,0-.5-.31,1.19,1.19,0,0,0-.26-.11l-.24-.1c-.32-.12-.64-.26-1-.4-.64-.28-1.26-.58-1.87-.92s-1.21-.68-1.79-1.06c-.29-.2-.58-.4-.89-.59a10.71,10.71,0,0,0-.94-.52,16,16,0,0,0-2-.79,21.66,21.66,0,0,0-3.9-.83l-.25-.26-.22-.24-.2-.25,0,0h0l-2.83-1.4-2.15-1.05a7.55,7.55,0,0,0-.74-.64,5.26,5.26,0,0,0-1.45-.75,7.1,7.1,0,0,0-1.57-.34,8.54,8.54,0,0,0-1.6,0,7.59,7.59,0,0,1-2.42-.21l-.21-.21a2.43,2.43,0,0,0-.3-.24,2.7,2.7,0,0,0-.67-.36l-.34-.11-.33-.1c-.87-.26-1.74-.51-2.61-.74-1.76-.47-3.53-.9-5.32-1.22-.89-.16-1.8-.3-2.71-.39a13.59,13.59,0,0,0-2.78,0,5.85,5.85,0,0,0-.71.12l-.66.18-1.31.33-1.31.31c-.44.1-.88.21-1.32.3-.88.2-1.77.38-2.65.56L83.15,34l-1.33.23a74.46,74.46,0,0,1-10.73,1.18l-1.34,0-1.35,0h-.67l-.67-.06-1.34-.11q-2.72-.3-5.43-.42c-1.81-.08-3.62-.11-5.43-.1s-3.62,0-5.43.09a97.81,97.81,0,0,1-10.83-.14c1.79.22,3.6.32,5.41.37s3.62,0,5.43,0h5.42c1.81,0,3.61.08,5.41.17s3.6.28,5.38.5l1.36.13.69.07.68,0,1.36.05,1.37,0a75.29,75.29,0,0,0,10.82-1.11c.45-.07.9-.15,1.34-.24l1.34-.25c.89-.18,1.78-.35,2.66-.55.45-.09.89-.19,1.33-.3l1.32-.31,1.32-.33.66-.17a6.17,6.17,0,0,1,.62-.11,13,13,0,0,1,2.64,0c.88.08,1.77.21,2.65.37,1.77.31,3.52.73,5.26,1.19.87.23,1.74.48,2.6.74L106,35l.3.1a2.33,2.33,0,0,1,.52.27,2.11,2.11,0,0,1,.23.19l.24.23.49.47a29.34,29.34,0,0,1,3.48,4.07A25.78,25.78,0,0,1,113.87,45a17.88,17.88,0,0,1,.87,2.52l.61,2.64v0l0,0a2.71,2.71,0,0,1,.35.8,2.87,2.87,0,0,1,.09.87,2.13,2.13,0,0,1-.21.85,1.15,1.15,0,0,1-.19.35.35.35,0,0,1-.13.11l-.17.07a1.56,1.56,0,0,1-.82-.06,4.71,4.71,0,0,1-.85-.34,5.68,5.68,0,0,1-1.51-1,9.57,9.57,0,0,1-2.08-3.08,11.72,11.72,0,0,1-.9-3.64v0a5,5,0,0,0,1.12-.47,3.43,3.43,0,0,0,.54-.4,1.89,1.89,0,0,0,.41-.52,3.37,3.37,0,0,1-.5.42c-.17.12-.35.24-.54.35l-.57.32-.47.26h0l0,0a7.69,7.69,0,0,1-1.8-1.24,8.8,8.8,0,0,1-1.4-1.7,11.1,11.1,0,0,1-1-2,11.31,11.31,0,0,1-.59-2.14,10.65,10.65,0,0,0,.53,2.16c.1.3.22.59.34.87l-.18.06a10.31,10.31,0,0,1-2.29,0l-.58-.08-.58-.1-.58-.12-.57-.13c-.77-.18-1.52-.41-2.28-.65s-1.5-.49-2.25-.76a15.77,15.77,0,0,0,2.16,1,18.42,18.42,0,0,0,2.29.72,11.91,11.91,0,0,0,2.37.36,7.18,7.18,0,0,0,1.91-.13,26.52,26.52,0,0,1-2.79.57c-1.15.19-2.3.35-3.46.5s-2.31.3-3.47.43-2.31.27-3.47.38a7.38,7.38,0,0,0-1.65.22c-.54.12-1.07.26-1.6.43s-1,.34-1.55.53-1,.38-1.54.59h0l-.84.41c-.28.13-.56.26-.85.37s-.57.24-.87.34l-.44.15-.44.13a14.47,14.47,0,0,1-1.82.41c-.31,0-.62.07-.93.08a4.92,4.92,0,0,1-.94,0,7,7,0,0,0,1.88.08,13,13,0,0,0,1.87-.29L82,46.4l.46-.13c.3-.08.6-.2.9-.3s.59-.23.88-.34l.87-.39h0c1-.38,2-.74,3.08-1,.51-.15,1-.29,1.56-.4a7,7,0,0,1,1.56-.2h0c1.16-.13,2.32-.26,3.48-.41s2.32-.33,3.47-.52,2.31-.4,3.45-.65l.86-.21c.28-.06.56-.15.85-.22s.56-.17.84-.26a3.39,3.39,0,0,0,.41-.15L105,41a9.72,9.72,0,0,0,.59,1.16A9,9,0,0,0,107,43.94a7.38,7.38,0,0,0,1.76,1.29,12.07,12.07,0,0,0,.84,3.69,9.53,9.53,0,0,0,2.1,3.23,5.94,5.94,0,0,0,1.59,1.14,4.86,4.86,0,0,0,.91.38,2,2,0,0,0,1,.07,1,1,0,0,0,.51-.3A1.67,1.67,0,0,0,116,53a3,3,0,0,0,.17-.48,3,3,0,0,0,.09-.51,3.5,3.5,0,0,0-.1-1,3.06,3.06,0,0,0-.37-.9l-.22-1a4.94,4.94,0,0,0,.35.45,4.08,4.08,0,0,0,1,.92,24.49,24.49,0,0,0,1.13,3.93,14,14,0,0,0,.83,1.91,6.35,6.35,0,0,0,1.27,1.7,4.29,4.29,0,0,0,.87.65,4.8,4.8,0,0,0,1,.45,5.67,5.67,0,0,0,1,.28,2.81,2.81,0,0,0,1.15-.06,1.62,1.62,0,0,0,.28-.11,1.65,1.65,0,0,0,.26-.14,1.14,1.14,0,0,0,.56-1.17,2.38,2.38,0,0,0-.16-.57l-.36-1c-.11-.32-.24-.63-.34-1l-.3-1c-.1-.33-.21-.65-.29-1-.19-.66-.34-1.31-.52-2a12.72,12.72,0,0,0-.64-1.79l.08.08a9.41,9.41,0,0,0,.84.72,6.9,6.9,0,0,0,1.91,1l.3.45c.11.16.2.32.33.48a7.77,7.77,0,0,0,.77.86,8.44,8.44,0,0,0,1.81,1.44,6.81,6.81,0,0,0,2.18.84,6.45,6.45,0,0,0,1.17.14,6.58,6.58,0,0,0,1.17-.08,5.78,5.78,0,0,0,1.15-.32,3.14,3.14,0,0,0,1-.65,1.28,1.28,0,0,0,.22-.24A1,1,0,0,0,135.85,54.05ZM125,41.68a15.47,15.47,0,0,1,1.9.85c.3.16.6.33.89.52l.86.6c.59.4,1.2.77,1.82,1.11s1.27.64,1.92.92q.49.21,1,.39l.25.09a1.57,1.57,0,0,1,.23.09,1.55,1.55,0,0,1,.4.23.76.76,0,0,1,.31.73,1.81,1.81,0,0,1-.43.82,2.84,2.84,0,0,1-.86.46,4.21,4.21,0,0,1-1,.2,7.36,7.36,0,0,1-1.05,0l-.65-.06c-.15-.17-.31-.34-.48-.5a9.29,9.29,0,0,0-.74-.65,5.14,5.14,0,0,0-.83-.54l-2-1.74-2-1.77c-.68-.59-1.36-1.19-2-1.8l-1-.92-.19-.18A29.87,29.87,0,0,1,125,41.68Zm-1.74,11.91q.13.51.3,1l.31,1c.1.34.24.65.36,1l.38,1a2,2,0,0,1,.13.42.5.5,0,0,1,0,.32.67.67,0,0,1-.23.25l-.19.1-.2.08a2,2,0,0,1-.89.06,4.81,4.81,0,0,1-.94-.24,4,4,0,0,1-.9-.37,5.39,5.39,0,0,1-.79-.56A6.2,6.2,0,0,1,119.31,56a13.9,13.9,0,0,1-.88-1.82c-.25-.63-.51-1.27-.73-1.91s-.41-1.3-.58-2v0h0c.22-.23.42-.47.62-.7s.23-.25.35-.36a3,3,0,0,1,.38-.33,1.19,1.19,0,0,0-.47.22,2.6,2.6,0,0,0-.38.36,3,3,0,0,0-.32.41,2.42,2.42,0,0,0-.21.39,4.31,4.31,0,0,1-1.06-.85,5.47,5.47,0,0,1-.45-.51l-.31-1.47a19.44,19.44,0,0,0-.86-2.61,25.71,25.71,0,0,0-2.63-4.8,29.44,29.44,0,0,0-3.53-4.19l-.44-.43a6.87,6.87,0,0,0,.75.19,7.76,7.76,0,0,0,1.59.13,8.08,8.08,0,0,1,1.56.07,7,7,0,0,1,1.49.4,4.65,4.65,0,0,1,1.32.75A6.55,6.55,0,0,1,115.58,38a10.63,10.63,0,0,1,1.53,2.65v0c0,.1.05.2.09.3l.1.25c.07.17.15.32.22.48l.48.92c.33.61.66,1.21,1,1.8.68,1.2,1.38,2.38,2.09,3.55a14.31,14.31,0,0,1,1.62,3.67C122.87,52.25,123,52.93,123.23,53.59Zm12.06.53a.65.65,0,0,1-.16.18,3.64,3.64,0,0,1-1.92.86,6.47,6.47,0,0,1-4.28-.75,8.57,8.57,0,0,1-1.78-1.34,9.85,9.85,0,0,1-.77-.82c-.12-.14-.23-.3-.34-.45l-.34-.47v0a4.55,4.55,0,0,1,.62-.69,2.34,2.34,0,0,1,.41-.29,2.5,2.5,0,0,1,.48-.18,1,1,0,0,0-.54.06,1.36,1.36,0,0,0-.46.28,2.05,2.05,0,0,0-.36.42,2.69,2.69,0,0,0-.19.38h0a5.35,5.35,0,0,1-1-.4,6.79,6.79,0,0,1-.94-.55,11.93,11.93,0,0,1-1-.84,16.55,16.55,0,0,0-1-1.91c-.72-1.17-1.42-2.34-2.12-3.51-.35-.59-.69-1.18-1-1.78l-.49-.89c-.07-.15-.16-.3-.22-.45l-.1-.23-.07-.19v0a11.53,11.53,0,0,0-.75-1.44,10.09,10.09,0,0,0-.94-1.31c-.11-.13-.23-.25-.34-.37l2,1.08c.92.5,1.82,1,2.74,1.49l.19.25c.07.09.15.17.23.26s.31.33.46.5c.32.32.64.64,1,.95q1,.95,2,1.86c.66.61,1.34,1.21,2,1.81s1.35,1.2,2,1.79l0,0h0a4.6,4.6,0,0,1,.77.5c.24.19.47.41.7.63s.44.45.65.69.42.48.61.73h0c.15.16.3.29.44.42l.45.37.91.7c.6.46,1.23.92,1.83,1.36a2.23,2.23,0,0,1,.68.76.63.63,0,0,1,.08.39A.44.44,0,0,1,135.29,54.12Z"/><path class="cls-8" d="M86.63,52.51a5.83,5.83,0,0,1,.58.23,1,1,0,0,1,.5.37.63.63,0,0,0-.16-.3,1.79,1.79,0,0,0-.25-.22,3.33,3.33,0,0,0-.58-.33c-.19-.09-.4-.17-.6-.25l-.63-.19c-.42-.11-.84-.2-1.27-.27a9.37,9.37,0,0,0-1.3-.11c.83.28,1.66.49,2.48.72C85.81,52.26,86.22,52.38,86.63,52.51Z"/></g></g></svg>