<svg xmlns="http://www.w3.org/2000/svg" viewBox="0 0 88.5 111.34"><defs><style>.cls-1{fill:#6361b7;}</style></defs><g id="Capa_2" data-name="Capa 2"><g id="Iconos"><path class="cls-1" d="M87.36,65.8a11.06,11.06,0,0,0-4.93-4.9C77.3,58.42,71.21,60.77,67.74,64a10.87,10.87,0,0,0-2.43,3.25A6.5,6.5,0,0,1,64,69.12a12.86,12.86,0,0,1-6.94,3.22l-.33.07c-6,1.24-12.81,4.4-20.31,9.41a1.67,1.67,0,0,0-.23.12,2.86,2.86,0,0,0,3.21,4.74h0C46.35,82,52.57,79.1,57.87,78l.3-.06A18.4,18.4,0,0,0,68,73.14a12.3,12.3,0,0,0,2.32-3.21,5.4,5.4,0,0,1,1.27-1.75c2.11-2,5.74-3.39,8.32-2.14a5.47,5.47,0,0,1,2.3,2.3c1.36,2.73.15,6.85-3.6,12.24a24.54,24.54,0,0,1-5.82,5.87c-.46.36-.88.68-1.29,1A17,17,0,0,0,67,92c-.2.3-.38.61-.59.94A22.4,22.4,0,0,1,65,95a26.29,26.29,0,0,1-2.19,2.61L59,100.74A25.86,25.86,0,0,1,55,102.79a40.21,40.21,0,0,1-29.43.08c-5.05-2.4-14-8.07-17-19a29,29,0,0,1,0-15.31l.09-.44C9.38,61.2,6.13,43.72,6,43a11.58,11.58,0,0,1,4.35-11.89h0l.24-.13a2.86,2.86,0,1,0-3.25-4.71.71.71,0,0,0-.09.07h0A17.2,17.2,0,0,0,.38,44C1.27,48.78,3.45,62.09,3,67.29a34.51,34.51,0,0,0,0,18.1C6.7,98.52,17.17,105.21,23.09,108A42.54,42.54,0,0,0,40,111.34a46.64,46.64,0,0,0,17-3.23,31.26,31.26,0,0,0,5.21-2.66l4.32-3.52.24-.23a33,33,0,0,0,2.79-3.31c.8-1.09,1.28-1.89,1.68-2.54.16-.27.31-.52.47-.77A11.63,11.63,0,0,1,75,92c.44-.33.91-.68,1.3-1a29.51,29.51,0,0,0,7.07-7.17C85.22,81.14,90.91,72.94,87.36,65.8Z"/><path class="cls-1" d="M16.14,35.62a35.07,35.07,0,0,1,1,12.08c-.22,1.33-1.26,8.53,1.33,12.63h0a2.85,2.85,0,1,0,4.8-3h0c-1.1-1.73-1-6.15-.51-8.73l0-.25a40.94,40.94,0,0,0-1.14-14.17c-.09-.34-.19-.69-.29-1a17.93,17.93,0,0,1-.93-5.75,10,10,0,0,1,1.23-5.58,8.81,8.81,0,0,1,5.42-3.47h0a2.86,2.86,0,1,0-.87-5.66.5.5,0,0,0-.13,0h0a14.42,14.42,0,0,0-9.24,6,15.35,15.35,0,0,0-2.15,8.58,23.87,23.87,0,0,0,1.15,7.42C16,35,16.06,35.3,16.14,35.62Z"/><path class="cls-1" d="M34.28,30.71a23,23,0,0,1-.09,6.18c-.11,1.07-.24,2.25-.33,3.71A67.58,67.58,0,0,0,34.94,57c0,.07,0,.13,0,.2a2.86,2.86,0,0,0,5.66-.87v0h0a62.52,62.52,0,0,1-1-15.33c.08-1.35.2-2.45.31-3.45A29.09,29.09,0,0,0,40,30c-.06-.5-.13-1-.2-1.47a17.74,17.74,0,0,1-.21-5.12,9.8,9.8,0,0,1,1.13-4.18c1.56-2.51,5-3.15,6.3-3.3.09,0,.19,0,.29,0a2.85,2.85,0,0,0-.63-5.67v0c-2.27.23-7.85,1.26-10.8,6a14.92,14.92,0,0,0-2,6.54,23.22,23.22,0,0,0,.23,6.61C34.16,29.81,34.23,30.25,34.28,30.71Z"/><path class="cls-1" d="M49.89,55.67a1.85,1.85,0,0,0,0,.23,2.85,2.85,0,0,0,5.67-.63h0c-1.51-16.39,0-35.08,4.48-35.72l-.07.09.25-.1a2.24,2.24,0,0,1,1.29.8c1.74,1.84,5.48,8.88,2.63,34.43a2.86,2.86,0,1,0,5.6,1.08h0c2.45-21.63.86-35.1-4.75-40a7.14,7.14,0,0,0-5.89-1.9C47.19,15.79,49,46.16,49.89,55.67Z"/><path class="cls-1" d="M77.69,7.22C70.81.06,60,0,58.18,0h-.25a2.13,2.13,0,0,0,.19,4.26h0c.11,0,10.45-.38,16.49,5.9,3.32,3.46,4.75,8.4,4.24,14.68a.24.24,0,0,0,0,.08,2.15,2.15,0,0,0,4.29.31v-.12C83.71,17.62,81.89,11.59,77.69,7.22Z"/></g></g></svg>