<svg xmlns="http://www.w3.org/2000/svg" viewBox="0 0 113.07 100.54"><defs><style>.cls-1{fill:#6361b7;}</style></defs><g id="Capa_2" data-name="Capa 2"><g id="Iconos"><path class="cls-1" d="M109.42,42.2c-1.52-4.58-5.26-10.16-11-15.48l3.28-3.28a5,5,0,0,0,0-7l-.94-1a5,5,0,0,0-7,0L90.28,19a4.35,4.35,0,0,0-.68.87A72.31,72.31,0,0,0,76.1,13,4.83,4.83,0,0,0,77,10.91L77.72,6A5,5,0,0,0,73.59.37L72.27.16a5,5,0,0,0-5.65,4.13l-.76,4.89c0,.14,0,.28,0,.42A47.47,47.47,0,0,0,55,8.22,49.87,49.87,0,0,0,45,9.15s0-.05,0-.08l-.76-4.88A5,5,0,0,0,38.56.06l-1.32.2a5,5,0,0,0-4.13,5.66l.76,4.88a4.7,4.7,0,0,0,.56,1.59A61.2,61.2,0,0,0,21.37,20a5.21,5.21,0,0,0-.82-1.14l-3.5-3.49a5,5,0,0,0-7,0l-.94.94a5,5,0,0,0,0,7l3.49,3.49c.09.09.2.16.29.24C9.14,30.35,4,35.73,1.63,42.11A21.68,21.68,0,0,0,.12,52.4a22.25,22.25,0,0,0,1.57,5.9c2.17,5.13,21,32.32,52.63,32.32l1.84,0c15.33-.5,26-7.22,35.42-13.15,2.65-1.67,10.72-6.76,15.55-15.54A26.27,26.27,0,0,0,110.64,49,25.66,25.66,0,0,0,109.42,42.2Zm-8,16.58C97.85,65.35,92.12,69.45,88.13,72,79,77.73,69.53,83.69,56,84.13,26.89,85.05,9.28,59.65,7.63,55.78A17.47,17.47,0,0,1,6.54,51.7,15.49,15.49,0,0,1,7.7,44.33h0c2.72-7.44,11-13.74,12.58-14.93l.32-.26c5.72-5.42,17.68-14.46,33.87-14.46H55c7.73.08,13.33,2.22,18.76,4.29,17.79,6.81,27.43,18.84,29.57,25.26a19.6,19.6,0,0,1,.89,4.91A19.32,19.32,0,0,1,101.46,58.78Z"/><path class="cls-1" d="M55.39,25.7a23.82,23.82,0,1,0,6.53,46.71A10.44,10.44,0,1,1,77.46,58.46,23.8,23.8,0,0,0,55.39,25.7Z"/><path class="cls-1" d="M112,69a2.42,2.42,0,0,0-3.35.73s0,0,0,.07h0C92.28,96.87,58.43,95.67,58.09,95.67h0a2.42,2.42,0,0,0-.23,4.83h0c.15,0,.63,0,1.4,0,7,0,37.42-1.58,53.45-28.22h0A2.41,2.41,0,0,0,112,69Z"/></g></g></svg>